<svg xmlns="http://www.w3.org/2000/svg" width="128" height="52" viewBox="0 0 128 52">
    <path fill="#23D8AF" fill-rule="nonzero" d="M21.526 32.832V19.318c0-.89.155-1.663.464-2.32a4.726 4.726 0 0 1 1.218-1.624 5.087 5.087 0 0 1 1.74-.957 6.374 6.374 0 0 1 1.972-.319c.657 0 1.305.106 1.943.319a5.138 5.138 0 0 1 1.711.957c.503.425.909.967 1.218 1.624.31.657.464 1.43.464 2.32v13.514h5.22v9.512h-5.22v8.004h-10.73v-8.004H9.636c-3.519 0-5.964-.899-7.337-2.697-1.373-1.798-1.634-4.205-.783-7.221L8.882 8.124c.503-1.779 1.315-3.064 2.436-3.857 1.121-.793 2.417-1.092 3.886-.899.773.077 1.489.29 2.146.638a5.498 5.498 0 0 1 1.682 1.363c.464.56.783 1.218.957 1.972.174.754.164 1.576-.029 2.465l-6.438 21.402c-.193.657-.155 1.092.116 1.305.27.213.793.319 1.566.319h6.322zm35.67 18.618c-2.281 0-4.418-.329-6.409-.986-1.991-.657-3.712-1.634-5.162-2.929-1.45-1.295-2.59-2.92-3.422-4.872-.831-1.953-1.247-4.205-1.247-6.757V18.912c0-2.552.416-4.795 1.247-6.728.831-1.933 1.972-3.557 3.422-4.872 1.45-1.315 3.17-2.3 5.162-2.958 1.991-.657 4.128-.986 6.409-.986 2.281 0 4.418.329 6.409.986 1.991.657 3.712 1.643 5.162 2.958 1.45 1.315 2.59 2.939 3.422 4.872.831 1.933 1.247 4.176 1.247 6.728v16.994c0 2.552-.416 4.804-1.247 6.757-.831 1.953-1.972 3.577-3.422 4.872-1.45 1.295-3.17 2.272-5.162 2.929-1.991.657-4.128.986-6.409.986zm0-9.86c.503 0 1.025-.077 1.566-.232a3.844 3.844 0 0 0 1.479-.812c.445-.387.812-.89 1.102-1.508.29-.619.435-1.392.435-2.32V18.1c0-.89-.145-1.643-.435-2.262-.29-.619-.657-1.121-1.102-1.508a4.19 4.19 0 0 0-1.479-.841 5.11 5.11 0 0 0-1.566-.261 5.11 5.11 0 0 0-1.566.261 4.19 4.19 0 0 0-1.479.841c-.445.387-.812.89-1.102 1.508-.29.619-.435 1.373-.435 2.262v18.618c0 .928.145 1.701.435 2.32.29.619.657 1.121 1.102 1.508.445.387.938.657 1.479.812a5.693 5.693 0 0 0 1.566.232zm39.266 5.858c-.773 1.624-1.74 2.726-2.9 3.306-1.16.58-2.243.715-3.248.406-1.005-.31-1.74-.899-2.204-1.769-.464-.87-.31-2.117.464-3.741l20.59-41.412c.773-1.663 1.73-2.774 2.871-3.335 1.14-.56 2.214-.686 3.219-.377.967.31 1.672.89 2.117 1.74.445.85.28 2.088-.493 3.712l-20.416 41.47zm20.88 3.886c-1.508 0-2.92-.222-4.234-.667-1.315-.445-2.446-1.102-3.393-1.972-.947-.87-1.692-1.943-2.233-3.219-.541-1.276-.812-2.765-.812-4.466v-5.742c0-1.663.27-3.142.812-4.437.541-1.295 1.286-2.378 2.233-3.248.947-.87 2.078-1.527 3.393-1.972 1.315-.445 2.726-.667 4.234-.667s2.91.222 4.205.667c1.295.445 2.417 1.102 3.364 1.972.947.87 1.692 1.953 2.233 3.248.541 1.295.812 2.774.812 4.437v5.742c0 1.701-.27 3.19-.812 4.466-.541 1.276-1.286 2.349-2.233 3.219-.947.87-2.069 1.527-3.364 1.972-1.295.445-2.697.667-4.205.667zm0-7.656c.503 0 1.034-.184 1.595-.551.56-.367.841-1.054.841-2.059V35.21c0-.967-.28-1.643-.841-2.03-.56-.387-1.092-.58-1.595-.58-.503 0-1.044.193-1.624.58-.58.387-.87 1.063-.87 2.03v5.858c0 1.005.29 1.692.87 2.059.58.367 1.121.551 1.624.551zM88.11 26.742c-1.508 0-2.92-.222-4.234-.667-1.315-.445-2.446-1.102-3.393-1.972-.947-.87-1.692-1.943-2.233-3.219-.541-1.276-.812-2.765-.812-4.466v-5.742c0-1.663.27-3.142.812-4.437.541-1.295 1.286-2.378 2.233-3.248.947-.87 2.078-1.527 3.393-1.972C85.191.574 86.602.352 88.11.352s2.91.222 4.205.667c1.295.445 2.417 1.102 3.364 1.972.947.87 1.692 1.953 2.233 3.248.541 1.295.812 2.774.812 4.437v5.742c0 1.701-.27 3.19-.812 4.466-.541 1.276-1.286 2.349-2.233 3.219-.947.87-2.069 1.527-3.364 1.972-1.295.445-2.697.667-4.205.667zm0-7.656c.503 0 1.034-.184 1.595-.551.56-.367.841-1.054.841-2.059v-5.858c0-.967-.28-1.643-.841-2.03-.56-.387-1.092-.58-1.595-.58-.503 0-1.044.193-1.624.58-.58.387-.87 1.063-.87 2.03v5.858c0 1.005.29 1.692.87 2.059.58.367 1.121.551 1.624.551z"/>
</svg>
