<svg xmlns="http://www.w3.org/2000/svg" xmlns:xlink="http://www.w3.org/1999/xlink" width="14" height="14" viewBox="0 0 14 14">
    <defs>
        <path id="lsblmizx9a" d="M7 0C3.134 0 0 3.134 0 7s3.134 7 7 7c1.857 0 3.637-.737 4.95-2.05C13.263 10.637 14 8.857 14 7c0-1.857-.737-3.637-2.05-4.95C10.637.737 8.857 0 7 0zm2.303 7.645L6.52 10.43c-.221.22-.542.307-.844.226-.3-.081-.536-.317-.616-.618-.08-.301.006-.622.226-.843L7.482 7 5.286 4.806c-.34-.34-.341-.894 0-1.235.34-.34.893-.34 1.234 0l2.783 2.784c.171.17.264.404.255.645v.028c0 .231-.091.454-.255.617z"/>
    </defs>
    <g fill="none" fill-rule="evenodd">
        <use fill="#FFF" fill-rule="nonzero" xlink:href="#lsblmizx9a"/>
    </g>
</svg>
