<svg xmlns="http://www.w3.org/2000/svg" width="24" height="24" viewBox="0 0 24 24">
    <g fill="none" fill-rule="evenodd">
        <path d="M24 24H0V0h24z"/>
        <path fill="#8592A6" fill-rule="nonzero" d="M15.032 14.157h1.206c.675 0 1.017.831.539 1.316l-4.241 4.302c-.296.3-.774.3-1.07 0l-4.241-4.302c-.478-.485-.144-1.316.531-1.316h1.206V4.77c0-.424.342-.77.76-.77h4.551c.418 0 .759.346.759.77v9.387z"/>
        <path fill="#8592A6" d="M21 12.5h-4v-2h4a1 1 0 0 1 0 2z"/>
        <path fill="#8592A6" d="M21 9.5h-4v-2h4a1 1 0 0 1 0 2z" opacity=".699"/>
        <path fill="#8592A6" d="M21 6.5h-4v-2h4a1 1 0 0 1 0 2z" opacity=".301"/>
        <path fill="#8592A6" d="M3 12.5h4v-2H3a1 1 0 0 0 0 2z"/>
        <path fill="#8592A6" d="M3 9.5h4v-2H3a1 1 0 0 0 0 2z" opacity=".699"/>
        <path fill="#8592A6" d="M3 6.5h4v-2H3a1 1 0 0 0 0 2z" opacity=".301"/>
    </g>
</svg>
