<svg xmlns="http://www.w3.org/2000/svg" xmlns:xlink="http://www.w3.org/1999/xlink" width="655" height="297" viewBox="0 0 655 297">
    <defs>
        <path id="a" d="M0 .007h680v307.684H0z"/>
        <path id="c" d="M0 .16h84.358v72.5H0z"/>
        <path id="e" d="M0 .16h84.358v72.5H0z"/>
        <path id="g" d="M0 .015h39.465v77.912H0z"/>
    </defs>
    <g fill="none" fill-rule="evenodd">
        <g transform="translate(-13 -6.097)">
            <mask id="b" fill="#fff">
                <use xlink:href="#a"/>
            </mask>
            <path fill="#FFF" d="M667.113 143.982c-.45-30.253-14.175-65.686-43.297-93.9-41.279-39.99-90.262-53.122-145.897-36.968-31.146 9.038-56.72 27.551-77.74 51.765-15.65 18.024-29.107 37.986-43.44 57.099-22.45 29.942-44.354 60.29-66.067 90.772-13.253 18.604-28.453 35.027-46.606 48.183-63.683 46.16-154.043 32.183-196.26-34.19-39.04-61.375-22.436-142.29 36.633-182.82 34.217-23.48 71.6-31.424 111.925-18.343 11.092 3.598 21.32 8.71 30.972 14.79l-1.648 1.652c-2.058 2.056-1.116 5.57 1.695 6.324l9.534 2.556 9.538 2.557c2.808.753 5.382-1.819 4.63-4.628l-2.56-9.542-2.555-9.543c-.753-2.809-4.262-3.752-6.32-1.696l-3.009 3.01c-1.79-1.168-3.556-2.36-5.394-3.476-28.07-17.038-58.115-24.43-90.952-19.697C40.54 22.27-16.039 131.446 29.755 221.393c32.813 64.452 106.727 95.724 175.489 73.936 32.82-10.399 59.578-30.163 81.268-56.44 16.493-19.977 30.806-41.765 46.452-62.42 17.976-23.733 35.987-47.465 52.626-72.16 14.128-20.968 30.286-39.994 50.53-55.04C473.971 21.134 515.68 10.767 561 26.318c51.65 17.724 83.264 54.124 91.233 107.155 7.72 51.383-14.877 103.36-57.828 132.569-36.59 24.88-76.572 31.086-118.162 13.957-16.651-6.86-31.418-16.766-45.186-28.163-1.775-1.471-4.405-1.171-5.773.687l-2.898 3.937c-1.266 1.716-.974 4.146.678 5.495 7.11 5.799 14.514 11.274 22.349 16.285 20.33 13.006 42.087 22.418 66.514 23.752 84.3 4.611 159.035-58.286 155.186-158.01" mask="url(#b)" opacity=".181"/>
        </g>
        <path fill="#FFF" fill-rule="nonzero" d="M118.995 106.448V90.347h2.523v13.957h6.764v2.144h-9.287zm16.878.285c-3.24 0-5.83-2.32-5.83-6.279 0-3.916 2.654-6.344 5.46-6.344 3.176 0 4.872 2.297 4.872 5.71 0 .48-.043.984-.108 1.268h-7.765c.195 2.297 1.63 3.676 3.697 3.676 1.066 0 1.98-.328 2.85-.897l.87 1.597c-1.11.744-2.48 1.269-4.046 1.269zm-3.393-7.373h5.742c0-2.078-.935-3.281-2.675-3.281-1.501 0-2.828 1.16-3.067 3.281zm13.529 7.373c-2.067 0-3.524-1.357-3.524-3.479 0-2.581 2.175-3.916 7.156-4.463-.022-1.4-.522-2.625-2.284-2.625-1.261 0-2.436.569-3.458 1.225l-.935-1.706c1.24-.788 2.914-1.575 4.828-1.575 2.98 0 4.35 1.903 4.35 5.097v7.241h-2.044l-.218-1.378h-.065c-1.088.94-2.37 1.663-3.806 1.663zm.76-1.991c1.045 0 1.893-.503 2.872-1.4v-2.954c-3.545.438-4.742 1.335-4.742 2.691 0 1.182.805 1.663 1.87 1.663zm8.919 1.706V94.416h2.044l.196 2.166h.065c.848-1.553 2.11-2.472 3.393-2.472.587 0 .979.087 1.349.262l-.457 2.188a3.52 3.52 0 0 0-1.196-.197c-.98 0-2.154.678-2.915 2.582v7.503h-2.48zm8.895 0V94.416h2.045l.196 1.663h.065c1.11-1.072 2.327-1.97 3.959-1.97 2.544 0 3.675 1.707 3.675 4.77v7.57h-2.5v-7.264c0-2.078-.61-2.91-2.024-2.91-1.109 0-1.87.57-2.936 1.641v8.532h-2.48zM305.608 105.545V89.829h5.012c3.32 0 5.715 1.025 5.715 3.865 0 1.495-.857 2.925-2.308 3.395v.107c1.847.384 3.187 1.601 3.187 3.736 0 3.118-2.615 4.613-6.199 4.613h-5.407zm2.55-9.16h2.176c2.462 0 3.495-.898 3.495-2.37 0-1.645-1.143-2.264-3.43-2.264h-2.241v4.633zm0 7.217h2.572c2.528 0 3.978-.876 3.978-2.798 0-1.772-1.406-2.54-3.978-2.54h-2.572v5.338zm15.431 2.22c-2.572 0-3.693-1.644-3.693-4.633V93.8h2.528v7.089c0 2.028.594 2.818 2.023 2.818 1.12 0 1.89-.512 2.901-1.75V93.8h2.528v11.744h-2.066l-.198-1.773h-.066c-1.099 1.239-2.286 2.05-3.957 2.05zm10.09-.277V93.8h2.506v11.744h-2.506zm1.253-13.944c-.923 0-1.604-.598-1.604-1.452 0-.875.681-1.452 1.604-1.452.924 0 1.627.577 1.627 1.452 0 .854-.703 1.452-1.627 1.452zm7.562 14.221c-1.824 0-2.506-1.131-2.506-3.032V88.526h2.506v14.392c0 .662.308.897.616.897.11 0 .198 0 .417-.043l.33 1.858c-.308.107-.747.192-1.363.192zm8.222 0c-3.034 0-4.99-2.242-4.99-6.128 0-3.822 2.484-6.192 5.188-6.192 1.384 0 2.264.512 3.253 1.324l-.11-1.944v-4.356h2.528v17.019h-2.066l-.22-1.324h-.066c-.901.897-2.154 1.601-3.517 1.601zm.593-2.028c1.011 0 1.869-.449 2.748-1.43v-5.745c-.901-.79-1.759-1.067-2.66-1.067-1.692 0-3.055 1.558-3.055 4.1 0 2.668 1.077 4.142 2.967 4.142zM460.614 106.48a7.952 7.952 0 0 1-5.716-2.39l1.484-1.772c1.156 1.174 2.727 1.926 4.276 1.926 1.941 0 3.032-.93 3.032-2.302 0-1.483-1.09-1.948-2.574-2.612l-2.225-.974c-1.55-.665-3.273-1.904-3.273-4.273 0-2.568 2.225-4.494 5.28-4.494 1.876 0 3.643.797 4.865 2.059l-1.331 1.638c-1.004-.908-2.116-1.461-3.534-1.461-1.636 0-2.705.797-2.705 2.103 0 1.395 1.287 1.926 2.596 2.457l2.203.952c1.898.82 3.273 2.015 3.273 4.406 0 2.612-2.138 4.737-5.65 4.737zm8.465-.288V88.55h2.487v4.67l-.087 2.414c1.047-1.019 2.247-1.926 3.883-1.926 2.553 0 3.687 1.726 3.687 4.826v7.66h-2.509v-7.35c0-2.103-.61-2.945-2.029-2.945-1.112 0-1.876.576-2.945 1.66v8.634h-2.487zm16.384.288c-2.072 0-3.534-1.372-3.534-3.52 0-2.612 2.181-3.962 7.177-4.516-.021-1.417-.523-2.656-2.29-2.656-1.266 0-2.444.575-3.47 1.24l-.937-1.727c1.243-.797 2.923-1.594 4.843-1.594 2.989 0 4.363 1.926 4.363 5.158v7.327h-2.05l-.219-1.394h-.065c-1.09.952-2.378 1.682-3.818 1.682zm.764-2.014c1.047 0 1.898-.51 2.88-1.417v-2.989c-3.557.443-4.757 1.35-4.757 2.723 0 1.196.808 1.683 1.877 1.683zm8.944 1.726V94.017h2.051l.196 2.191h.066c.85-1.572 2.116-2.501 3.403-2.501.59 0 .982.088 1.353.265l-.458 2.214c-.415-.133-.72-.2-1.2-.2-.982 0-2.16.687-2.924 2.613v7.593h-2.487zm13.92.288c-3.251 0-5.848-2.346-5.848-6.353 0-3.963 2.662-6.42 5.476-6.42 3.186 0 4.887 2.324 4.887 5.778 0 .487-.043.996-.109 1.284h-7.788c.196 2.324 1.636 3.719 3.709 3.719 1.069 0 1.985-.332 2.857-.908l.873 1.616c-1.113.753-2.487 1.284-4.058 1.284zm-3.404-7.46h5.76c0-2.103-.939-3.32-2.684-3.32-1.505 0-2.836 1.172-3.076 3.32zm9.097 11.157l6.065-21.65h1.746l-6.065 21.65h-1.746zm10.363-3.985V89.9h4.865c3.578 0 6.13 1.24 6.13 4.915 0 3.564-2.552 5.202-6.043 5.202h-2.421v6.176h-2.53zm2.53-8.235h2.182c2.575 0 3.797-.996 3.797-3.143 0-2.148-1.331-2.856-3.884-2.856h-2.094v6zm13.854 8.523c-1.81 0-2.487-1.173-2.487-3.143V88.549h2.487v14.92c0 .687.306.93.611.93.11 0 .196 0 .415-.044l.327 1.926c-.306.11-.742.2-1.353.2zm6.85 0c-2.072 0-3.534-1.372-3.534-3.52 0-2.612 2.182-3.962 7.178-4.516-.022-1.417-.524-2.656-2.29-2.656-1.266 0-2.444.575-3.47 1.24l-.938-1.727c1.244-.797 2.924-1.594 4.844-1.594 2.988 0 4.363 1.926 4.363 5.158v7.327h-2.05l-.219-1.394h-.065c-1.091.952-2.378 1.682-3.818 1.682zm.764-2.014c1.047 0 1.898-.51 2.88-1.417v-2.989c-3.556.443-4.756 1.35-4.756 2.723 0 1.196.807 1.683 1.876 1.683zm18.631-10.45l-4.406 12.907c-.939 2.612-2.204 4.361-4.735 4.361-.61 0-1.09-.088-1.505-.243l.48-1.993c.218.067.567.177.873.177 1.309 0 2.072-.974 2.509-2.28l.24-.841-4.756-12.087h2.574l2.225 6.265c.35 1.084.72 2.302 1.091 3.431h.109l.938-3.431 1.92-6.265h2.443z"/>
        <g transform="translate(288.312 129.496)">
            <mask id="d" fill="#fff">
                <use xlink:href="#c"/>
            </mask>
            <path fill="#FFF" d="M42.184 70.079h22.983c4.503 0 9.006-.012 13.51.007 1.274.005 2.294-.438 2.81-1.611.254-.576.298-1.279.298-1.924.015-19.88-.019-39.76.044-59.64.01-3.16-1.044-4.227-4.235-4.212-15.926.074-31.852.033-47.778.033-8.018 0-16.036.004-24.054-.01-1.152-.002-2.185.287-2.727 1.334-.322.623-.454 1.41-.455 2.124-.026 12.713-.019 25.427-.019 38.14 0 7.496.005 14.993-.006 22.489 0 1.006.201 1.898.994 2.593.695.608 1.519.682 2.39.681 12.08-.007 24.163-.004 36.245-.004M84.358 4.613v63.598c-.045.066-.11.126-.133.2-.857 2.85-2.74 4.248-5.69 4.247-18.637-.004-37.273-.003-55.91-.003-5.709 0-11.418.012-17.127 0C2.945 72.648.906 71.088.18 68.651c-.045-.151-.12-.294-.18-.44V4.612C1.445 1.02 2.73.163 6.64.163 20.394.166 34.148.163 47.902.162c10.295 0 20.59-.004 30.885.002 2.668.002 4.665 1.531 5.406 4.09.037.126.11.24.165.36" mask="url(#d)"/>
        </g>
        <path fill="#FFF" d="M330.426 143.012H297.16c-1.37 0-1.967-.406-1.942-1.317.025-.878.586-1.24 1.94-1.24l66.694.008c.137 0 .274-.003.411.002.964.032 1.496.485 1.494 1.27 0 .784-.55 1.27-1.491 1.274-3.321.01-6.642.007-9.963.008h-23.878v-.005zM308.201 136.56a1.373 1.373 0 0 1-1.329 1.395 1.356 1.356 0 0 1-1.424-1.288 1.343 1.343 0 0 1 1.357-1.432 1.374 1.374 0 0 1 1.396 1.325M302.35 137.955a1.34 1.34 0 0 1-1.373-1.334c-.015-.804.589-1.406 1.395-1.392a1.359 1.359 0 0 1 1.341 1.373 1.35 1.35 0 0 1-1.362 1.353M297.892 135.236c.768.011 1.338.592 1.34 1.363a1.339 1.339 0 0 1-1.343 1.361 1.347 1.347 0 0 1-1.379-1.41c.02-.769.606-1.326 1.382-1.314M299.878 146.263h-1.293a1.292 1.292 0 1 0 0 2.587h1.293a1.292 1.292 0 1 0 0-2.587M299.878 151.436h-1.293a1.292 1.292 0 1 0 0 2.587h1.293a1.292 1.292 0 1 0 0-2.587M299.878 156.61h-1.293a1.292 1.292 0 1 0 0 2.586h1.293a1.292 1.292 0 1 0 0-2.587M299.878 161.782h-1.293a1.292 1.292 0 1 0 0 2.587h1.293a1.292 1.292 0 1 0 0-2.587M299.878 166.956h-1.293a1.292 1.292 0 1 0 0 2.586h1.293a1.292 1.292 0 1 0 0-2.586M299.878 172.129h-1.293a1.292 1.292 0 1 0 0 2.586h1.293a1.292 1.292 0 1 0 0-2.586M299.878 177.302h-1.293a1.292 1.292 0 1 0 0 2.586h1.293a1.292 1.292 0 1 0 0-2.586M299.878 182.475h-1.293a1.292 1.292 0 1 0 0 2.586h1.293a1.292 1.292 0 1 0 0-2.586M299.878 187.648h-1.293a1.292 1.292 0 1 0 0 2.587h1.293a1.292 1.292 0 1 0 0-2.587M299.878 192.821h-1.293a1.292 1.292 0 1 0 0 2.587h1.293a1.292 1.292 0 1 0 0-2.587M313.4 148.85h16.813a1.292 1.292 0 1 0 0-2.587H313.4a1.292 1.292 0 1 0 0 2.587M335.386 148.85h12.933a1.292 1.292 0 1 0 0-2.587h-12.933a1.292 1.292 0 1 0 0 2.587M353.492 148.85h2.587a1.292 1.292 0 1 0 0-2.587h-2.587a1.292 1.292 0 1 0 0 2.587M341.853 152.73c0 .715.578 1.293 1.293 1.293h19.4c.714 0 1.292-.578 1.292-1.294 0-.715-.578-1.293-1.293-1.293h-19.399c-.715 0-1.293.578-1.293 1.293M337.973 151.436h-18.106a1.292 1.292 0 1 0 0 2.587h18.106a1.292 1.292 0 1 0 0-2.587M313.4 154.023h1.294a1.292 1.292 0 1 0 0-2.587H313.4a1.292 1.292 0 1 0 0 2.587M313.4 159.196h11.64a1.292 1.292 0 1 0 0-2.587H313.4a1.292 1.292 0 1 0 0 2.587M330.213 159.196h2.587a1.292 1.292 0 1 0 0-2.587h-2.587a1.292 1.292 0 1 0 0 2.587M356.079 156.61h-18.106a1.292 1.292 0 1 0 0 2.586h18.106a1.292 1.292 0 1 0 0-2.587M313.4 164.369h16.813a1.292 1.292 0 1 0 0-2.587H313.4a1.292 1.292 0 1 0 0 2.587M349.612 163.076c0-.715-.578-1.294-1.293-1.294h-12.933c-.715 0-1.293.579-1.293 1.294 0 .715.578 1.293 1.293 1.293h12.933c.715 0 1.293-.578 1.293-1.293M343.146 169.542h10.346a1.292 1.292 0 1 0 0-2.586h-10.346a1.292 1.292 0 1 0 0 2.586M318.574 168.249c0 .715.578 1.293 1.293 1.293h18.106a1.292 1.292 0 1 0 0-2.587h-18.106c-.715 0-1.293.579-1.293 1.294M313.4 169.542h1.294a1.292 1.292 0 1 0 0-2.586H313.4a1.292 1.292 0 1 0 0 2.586M313.4 174.715h11.64a1.292 1.292 0 1 0 0-2.586H313.4a1.292 1.292 0 1 0 0 2.586M330.213 174.715h2.587a1.292 1.292 0 1 0 0-2.586h-2.587a1.292 1.292 0 1 0 0 2.586M336.68 173.422c0 .715.578 1.293 1.293 1.293h19.4c.714 0 1.292-.578 1.292-1.293s-.578-1.293-1.293-1.293h-19.399c-.715 0-1.293.578-1.293 1.293M313.4 179.888h16.813a1.292 1.292 0 1 0 0-2.586H313.4a1.292 1.292 0 1 0 0 2.586M348.32 177.302h-12.934a1.292 1.292 0 1 0 0 2.586h12.933a1.292 1.292 0 1 0 0-2.586M362.545 177.302h-9.053a1.292 1.292 0 1 0 0 2.586h9.053a1.292 1.292 0 1 0 0-2.586M348.32 182.475h-5.174a1.292 1.292 0 1 0 0 2.586h5.173a1.292 1.292 0 1 0 0-2.586M318.574 183.768c0 .715.578 1.294 1.293 1.294h18.106c.715 0 1.293-.579 1.293-1.294 0-.715-.578-1.293-1.293-1.293h-18.106c-.715 0-1.293.578-1.293 1.293M313.4 185.062h1.294a1.292 1.292 0 1 0 0-2.587H313.4a1.292 1.292 0 1 0 0 2.587M325.04 187.648H313.4a1.292 1.292 0 1 0 0 2.587h11.64a1.292 1.292 0 1 0 0-2.587M332.8 187.648h-2.587a1.292 1.292 0 1 0 0 2.587h2.587a1.292 1.292 0 1 0 0-2.587M347.026 187.648h-9.053a1.292 1.292 0 1 0 0 2.587h9.053a1.292 1.292 0 1 0 0-2.587M353.492 187.648H352.2a1.292 1.292 0 1 0 0 2.587h1.293a1.292 1.292 0 1 0 0-2.587"/>
        <path fill="#FFF" d="M308.1 169.349v26.274c0 1.082-.406 1.554-1.317 1.534-.879-.02-1.24-.463-1.24-1.533l.008-52.678c0-.108-.003-.216.002-.325.032-.76.485-1.18 1.27-1.18.784.001 1.27.435 1.274 1.179.01 2.623.007 5.246.007 7.869v18.86h-.004z"/>
        <g>
            <g transform="translate(103.975 129.496)">
                <mask id="f" fill="#fff">
                    <use xlink:href="#e"/>
                </mask>
                <path fill="#FFF" d="M42.184 70.079h22.983c4.503 0 9.006-.012 13.51.007 1.274.005 2.294-.438 2.81-1.611.254-.576.298-1.279.298-1.924.015-19.88-.019-39.76.044-59.64.01-3.16-1.044-4.227-4.235-4.212-15.926.074-31.852.033-47.778.033-8.018 0-16.036.004-24.054-.01-1.152-.002-2.185.287-2.727 1.334-.322.623-.454 1.41-.455 2.124-.026 12.713-.019 25.427-.019 38.14 0 7.496.005 14.993-.006 22.489 0 1.006.201 1.898.994 2.593.695.608 1.519.682 2.39.681 12.08-.007 24.163-.004 36.245-.004M84.358 4.613v63.598c-.045.066-.11.126-.133.2-.856 2.85-2.74 4.248-5.69 4.247-18.637-.004-37.273-.003-55.91-.003-5.709 0-11.418.012-17.127 0C2.945 72.648.906 71.088.18 68.651c-.045-.151-.12-.294-.18-.44V4.612C1.445 1.02 2.73.163 6.64.163 20.394.166 34.148.163 47.902.162c10.295 0 20.59-.004 30.885.002 2.668.002 4.665 1.531 5.406 4.09.037.126.11.24.165.36" mask="url(#f)"/>
            </g>
            <path fill="#FFF" d="M180.167 186.22a1.085 1.085 0 0 0 1.105-1.08c.018-.656-.463-1.15-1.118-1.146a1.094 1.094 0 0 0-1.108 1.159c.024.613.504 1.07 1.121 1.067m-66.715.188v6.384h65.394c.018-.389.023-.762.053-1.133.062-.767.552-1.24 1.265-1.24.707.002 1.224.49 1.255 1.245.028.713.014 1.428.008 2.141-.01 1.163-.433 1.596-1.583 1.6-2.196.006-4.393.001-6.59.001h-60.378c-1.711 0-1.996-.287-1.997-2.01-.002-2.581-.006-5.162-.005-7.743 0-1.444.364-1.82 1.78-1.82 10.654-.003 21.308-.002 31.961 0 10.434 0 20.868-.001 31.302.015.525 0 .817-.136 1.093-.618.848-1.486 2.553-2.13 4.18-1.667 1.563.444 2.683 1.937 2.673 3.562-.01 1.644-1.13 3.104-2.707 3.531-1.647.446-3.303-.201-4.165-1.703-.255-.445-.52-.595-1.022-.595-20.593.012-41.187.01-61.78.012-.216 0-.432.022-.737.038M146.142 150.39c-7.237.004-13.115 5.852-13.136 13.066-.02 7.258 5.86 13.168 13.114 13.182 7.253.014 13.18-5.883 13.187-13.12.007-7.25-5.893-13.132-13.165-13.128m15.698 13.181c.03 8.494-7.013 15.599-15.52 15.655-8.72.057-15.818-6.952-15.85-15.653-.031-8.679 6.985-15.752 15.642-15.77 8.702-.016 15.695 6.995 15.728 15.768M146.088 143.012h-33.264c-1.37 0-1.968-.406-1.942-1.317.025-.878.586-1.24 1.94-1.24l66.693.008c.138 0 .275-.003.412.002.963.032 1.495.485 1.494 1.27-.001.784-.55 1.27-1.492 1.274-3.32.01-6.642.007-9.963.008h-23.878v-.005z"/>
            <path fill="#FFF" d="M130.248 188.328c4.253 0 8.505-.001 12.758.004.299 0 .611-.001.894.08.591.168.924.596.92 1.213-.005.614-.333 1.042-.932 1.2-.286.076-.596.082-.895.082-8.505.005-17.01.004-25.515.001-.273 0-.554.002-.816-.06-.636-.153-.99-.573-.99-1.236 0-.668.376-1.077 1.001-1.23.287-.07.6-.051.9-.052 4.225-.003 8.45-.002 12.675-.002M162.659 190.91h-5.843c-.726 0-1.299-.24-1.487-1.017-.2-.825.39-1.533 1.34-1.555 1.29-.03 2.58-.009 3.868-.01 2.661-.001 5.322-.01 7.982 0 .907.002 1.452.445 1.52 1.174.076.825-.527 1.397-1.538 1.404-1.947.014-3.894.004-5.842.004M149.646 188.178c.504.193 1.009.28 1.377.553.557.412.537 1.24.062 1.753-.57.615-2.306.624-2.894.015-.49-.507-.533-1.335.025-1.751.386-.288.92-.377 1.43-.57M123.864 136.56a1.373 1.373 0 0 1-1.33 1.395 1.356 1.356 0 0 1-1.423-1.288 1.343 1.343 0 0 1 1.356-1.432 1.374 1.374 0 0 1 1.397 1.325M118.013 137.955a1.34 1.34 0 0 1-1.374-1.334c-.014-.804.59-1.406 1.395-1.392a1.359 1.359 0 0 1 1.342 1.373 1.35 1.35 0 0 1-1.363 1.353M113.555 135.236c.767.011 1.338.592 1.339 1.363a1.339 1.339 0 0 1-1.342 1.361 1.347 1.347 0 0 1-1.38-1.41c.021-.769.607-1.326 1.383-1.314M144.525 167.144l5.04-3.636-5.04-3.637v7.273zm-2.596-3.652c0-1.891.002-3.783 0-5.674-.002-.623.045-1.232.669-1.57.656-.357 1.202-.059 1.738.33 2.597 1.88 5.203 3.746 7.8 5.625 1.21.876 1.22 1.732.034 2.59-2.642 1.911-5.293 3.809-7.933 5.723-.5.363-1.017.568-1.602.279-.597-.295-.713-.858-.713-1.464v-5.839h.007z"/>
        </g>
        <g>
            <g transform="translate(488.58 124.388)">
                <mask id="h" fill="#fff">
                    <use xlink:href="#g"/>
                </mask>
                <path fill="#FFF" d="M36.923 68.681H6.226v3.023c.001 2.6 1.158 3.769 3.74 3.77 7.754 0 15.507.002 23.26-.004.451 0 .91-.02 1.351-.105 1.187-.231 2.244-1.26 2.324-2.444.095-1.399.022-2.809.022-4.24zm-28.48 9.246c-.568-.216-1.172-.368-1.697-.66-1.991-1.107-2.966-2.821-2.965-5.109.005-10.933 0-21.867 0-32.8 0-7.521.034-15.042-.017-22.562-.016-2.319.713-4.165 2.74-5.503l-3.328-6.26c-.24 1.417-.441 2.605-.64 3.794-.023.131-.028.266-.05.397-.182 1.031-.698 1.505-1.497 1.375-.79-.127-1.115-.767-.945-1.795.404-2.444.804-4.889 1.19-7.336.22-1.39.889-1.773 2.18-1.19 2.304 1.04 4.607 2.087 6.906 3.14.89.408 1.198 1.065.86 1.769-.335.699-1.014.872-1.907.47-1.23-.552-2.454-1.115-3.866-1.758.212.432.326.685.456.929l9.218 17.27c.113.211.234.419.34.633.407.814.243 1.528-.424 1.864-.66.333-1.338.063-1.767-.736-1.7-3.168-3.391-6.342-5.087-9.512-.136-.256-.28-.51-.467-.85-1.04.688-1.445 1.634-1.448 2.787-.005 3.12-.001 6.24-.001 9.36v40.388H36.96v-1.006l.007-48.081c0-.32-.023-.645.026-.958.109-.69.503-1.12 1.235-1.11.734.008 1.106.456 1.213 1.141.04.26.018.532.018.799v54.882c0 3.33-1.327 5.134-4.496 6.127-.045.014-.078.067-.117.101H8.444z" mask="url(#h)"/>
            </g>
            <path fill="#FFF" d="M510.625 120.387c.257.227.558.42.765.685a608.06 608.06 0 0 1 4.765 6.222c.687.91.298 2.09-.72 2.097-.425.003-.963-.31-1.257-.647-.804-.923-1.504-1.936-2.248-2.91-.09-.117-.198-.22-.431-.475v1.112l-.001 36.558c0 .293.007.59-.028.879-.083.678-.496 1.05-1.162 1.105-.623.05-1.174-.436-1.264-1.094-.036-.262-.018-.532-.018-.799 0-8.24.002-16.48.004-24.719v-1.027h-3.41c-1.227-.002-2.454.01-3.68-.014-.753-.015-1.231-.494-1.249-1.176-.018-.715.475-1.238 1.26-1.246 2-.022 4-.012 6-.015h1.014v-9.516c-.224.274-.398.476-.56.687-.732.95-1.441 1.92-2.195 2.851-.464.573-1.175.643-1.71.243-.504-.376-.677-1.102-.275-1.64 1.69-2.264 3.415-4.502 5.134-6.744.125-.162.309-.279.465-.417h.8z"/>
            <path fill="#FFF" d="M501.853 154.81v20.805h16.693v-20.802c-1.037 0-2.042.007-3.046-.003-.98-.009-1.531-.47-1.515-1.245.016-.747.552-1.187 1.486-1.193a277.34 277.34 0 0 1 4.16-.003c.974.009 1.407.441 1.408 1.428.006 7.627.006 15.254 0 22.88 0 1.014-.448 1.459-1.474 1.46-6.24.006-12.48.006-18.72 0-1.066 0-1.528-.443-1.53-1.505-.008-7.6-.008-15.2.001-22.801.002-1.03.452-1.45 1.477-1.458 1.547-.01 3.093-.013 4.64-.005.904.005 1.462.494 1.452 1.236-.01.743-.56 1.198-1.483 1.204-1.166.008-2.333.002-3.55.002M526.847 128.377c-1.301.59-2.591 1.205-3.906 1.762-.995.422-1.97-.29-1.737-1.283.083-.356.42-.773.75-.932a347 347 0 0 1 7.328-3.37c.928-.417 1.678-.046 1.851.949.465 2.676.894 5.359 1.312 8.043.121.783-.323 1.357-1.026 1.447-.71.092-1.266-.322-1.404-1.107-.246-1.404-.462-2.814-.723-4.422-.254.439-.416.701-.561.973-3.1 5.801-6.197 11.604-9.295 17.406-.088.164-.17.332-.265.492-.426.722-1.109.97-1.74.637-.63-.332-.82-1.042-.42-1.798 1.554-2.944 3.126-5.878 4.692-8.815l.521-.985h-.943c-2.053-.002-4.106 0-6.16-.007-.96-.004-1.465-.415-1.485-1.181-.02-.8.503-1.254 1.493-1.255 2.613-.002 5.226.014 7.838-.003.241-.001.603-.125.703-.305 1.12-2.026 2.2-4.073 3.291-6.115l-.114-.131zM510.192 197.56c-.586 0-1.175.037-1.758-.01-.681-.054-1.148-.59-1.14-1.214a1.21 1.21 0 0 1 1.165-1.201 49.879 49.879 0 0 1 3.439-.003c.693.023 1.146.542 1.158 1.19.013.698-.428 1.162-1.185 1.247-.052.006-.106.01-.159.01l-1.52.001v-.02z"/>
        </g>
    </g>
</svg>
