<?xml version="1.0" encoding="UTF-8"?>
<svg width="718px" height="325px" viewBox="0 0 718 325" version="1.1" xmlns="http://www.w3.org/2000/svg" xmlns:xlink="http://www.w3.org/1999/xlink">
    <!-- Generator: Sketch 54.1 (76490) - https://sketchapp.com -->
    <title>banner2-contents</title>
    <desc>Created with Sketch.</desc>
    <defs>
        <polygon id="path-1" points="0 0.0078023407 747 0.0078023407 747 338.007802 0 338.007802"></polygon>
        <polygon id="path-3" points="0 0.175022624 92.6696471 0.175022624 92.6696471 79.8190045 0 79.8190045"></polygon>
        <polygon id="path-5" points="0 0.175022624 92.669629 0.175022624 92.669629 79.8190045 0 79.8190045"></polygon>
        <polygon id="path-7" points="0 0.0160720367 43.3531482 0.0160720367 43.3531482 85.6054336 0 85.6054336"></polygon>
    </defs>
    <g id="0513" stroke="none" stroke-width="1" fill="none" fill-rule="evenodd">
        <g id="homepage-main-images" transform="translate(-1747.000000, -309.000000)">
            <g id="Group-4-Copy-2" transform="translate(1672.000000, 174.000000)">
                <g id="Group" transform="translate(60.000000, 127.000000)">
                    <g id="Group-3" transform="translate(0.000000, 0.992198)">
                        <mask id="mask-2" fill="white">
                            <use xlink:href="#path-1"></use>
                        </mask>
                        <g id="Clip-2"></g>
                        <path d="M732.843599,158.168973 C732.349813,124.934611 717.272033,86.0102361 685.279936,55.0163447 C639.933977,11.086664 586.124362,-3.33988302 525.00759,14.4061999 C490.793459,24.3344724 462.699669,44.6720468 439.608704,71.27167 C422.417175,91.0718783 407.633933,112.999883 391.889109,133.996164 C367.225828,166.888171 343.164618,200.226539 319.311318,233.712249 C304.753312,254.149496 288.055568,272.190264 268.113568,286.642813 C198.156305,337.35024 98.8924445,321.996303 52.5155997,249.083521 C9.62990427,181.661406 27.869644,92.7749822 92.75911,48.2515986 C130.347441,22.4580246 171.413927,13.7301586 215.711675,28.1003689 C227.896047,32.0526101 239.13183,37.6689528 249.735222,44.347027 L247.924676,46.1628045 C245.663658,48.4206089 246.698875,52.2818445 249.7872,53.1095617 L260.260648,55.9177331 L270.738428,58.7259044 C273.822421,59.5536216 276.650858,56.7281158 275.823551,53.6425942 L273.012439,43.1596212 L270.205659,32.6766482 C269.378352,29.5911265 265.523361,28.5553967 263.262343,30.8132011 L259.957446,34.1197362 C257.990968,32.8369913 256.050478,31.5282447 254.032022,30.3018366 C223.196423,11.5850277 190.190767,3.46386549 154.118444,8.66418283 C44.5327357,24.4644804 -17.6192534,144.396799 32.6862174,243.207162 C68.7325519,314.009483 149.929931,348.361912 225.466103,324.427452 C261.5211,313.004088 290.914326,291.292763 314.741637,262.426668 C332.860097,240.481329 348.583263,216.546868 365.770461,193.856151 C385.517545,167.785226 405.303613,141.714302 423.582336,114.58598 C439.101924,91.5529076 456.85221,70.6519655 479.089879,54.1236236 C520.671808,23.2164042 566.489895,11.8277092 616.275592,28.9107517 C673.013267,48.3816065 707.742841,88.3677133 716.496703,146.624268 C724.977684,203.069379 700.154139,260.168864 652.971644,292.254822 C612.77578,319.586823 568.854868,326.403572 523.166723,307.587091 C504.875006,300.050964 488.653723,289.1693 473.528296,276.649536 C471.579143,275.033104 468.690065,275.362458 467.187052,277.403582 L464.003436,281.728513 C462.61304,283.613628 462.933567,286.283124 464.748445,287.765214 C472.558051,294.135603 480.692516,300.150637 489.299109,305.654306 C511.63207,319.942178 535.533016,330.282142 562.366354,331.746898 C654.972774,336.812874 737.071095,267.717991 732.843599,158.168973" id="Fill-1" fill="#FFFFFF" opacity="0.180594308" mask="url(#mask-2)"></path>
                    </g>
                    <path d="M149.64,258 L149.64,243.28 L151.96,243.28 L151.96,256.04 L158.18,256.04 L158.18,258 L149.64,258 Z M165.16,258.26 C162.18,258.26 159.8,256.14 159.8,252.52 C159.8,248.94 162.24,246.72 164.82,246.72 C167.74,246.72 169.3,248.82 169.3,251.94 C169.3,252.38 169.26,252.84 169.2,253.1 L162.06,253.1 C162.24,255.2 163.56,256.46 165.46,256.46 C166.44,256.46 167.28,256.16 168.08,255.64 L168.88,257.1 C167.86,257.78 166.6,258.26 165.16,258.26 Z M162.04,251.52 L167.32,251.52 C167.32,249.62 166.46,248.52 164.86,248.52 C163.48,248.52 162.26,249.58 162.04,251.52 Z M174.48,258.26 C172.58,258.26 171.24,257.02 171.24,255.08 C171.24,252.72 173.24,251.5 177.82,251 C177.8,249.72 177.34,248.6 175.72,248.6 C174.56,248.6 173.48,249.12 172.54,249.72 L171.68,248.16 C172.82,247.44 174.36,246.72 176.12,246.72 C178.86,246.72 180.12,248.46 180.12,251.38 L180.12,258 L178.24,258 L178.04,256.74 L177.98,256.74 C176.98,257.6 175.8,258.26 174.48,258.26 Z M175.18,256.44 C176.14,256.44 176.92,255.98 177.82,255.16 L177.82,252.46 C174.56,252.86 173.46,253.68 173.46,254.92 C173.46,256 174.2,256.44 175.18,256.44 Z M183.38,258 L183.38,247 L185.26,247 L185.44,248.98 L185.5,248.98 C186.28,247.56 187.44,246.72 188.62,246.72 C189.16,246.72 189.52,246.8 189.86,246.96 L189.44,248.96 C189.06,248.84 188.78,248.78 188.34,248.78 C187.44,248.78 186.36,249.4 185.66,251.14 L185.66,258 L183.38,258 Z M191.56,258 L191.56,247 L193.44,247 L193.62,248.52 L193.68,248.52 C194.7,247.54 195.82,246.72 197.32,246.72 C199.66,246.72 200.7,248.28 200.7,251.08 L200.7,258 L198.4,258 L198.4,251.36 C198.4,249.46 197.84,248.7 196.54,248.7 C195.52,248.7 194.82,249.22 193.84,250.2 L193.84,258 L191.56,258 Z" id="Learn" fill="#FFFFFF" fill-rule="nonzero"></path>
                    <path d="M117.418,103 L113.61,82.168 L118.734,82.168 L120.05,91.66 L120.89,98.268 L121.002,98.268 C121.394,96.056 121.814,93.816 122.234,91.66 L124.362,82.168 L128.562,82.168 L130.746,91.66 C131.166,93.788 131.53,96.028 131.95,98.268 L132.09,98.268 C132.342,96.028 132.622,93.816 132.874,91.66 L134.218,82.168 L138.978,82.168 L135.366,103 L129.066,103 L127.19,93.928 C126.854,92.332 126.574,90.652 126.378,89.084 L126.238,89.084 C125.986,90.652 125.734,92.332 125.426,93.928 L123.606,103 L117.418,103 Z M141.414,103 L141.414,87.068 L146.37,87.068 L146.37,103 L141.414,103 Z M143.906,84.856 C142.226,84.856 141.05,83.792 141.05,82.308 C141.05,80.796 142.226,79.732 143.906,79.732 C145.558,79.732 146.734,80.796 146.734,82.308 C146.734,83.792 145.558,84.856 143.906,84.856 Z M149.618,103 L149.618,100.34 L156.086,90.96 L150.346,90.96 L150.346,87.068 L162.302,87.068 L162.302,89.728 L155.834,99.108 L162.498,99.108 L162.498,103 L149.618,103 Z M174.51,103.392 C169.218,103.392 164.738,99.752 164.738,92.696 C164.738,85.752 169.386,81.776 174.678,81.776 C177.394,81.776 179.578,83.036 181.006,84.492 L178.374,87.684 C177.338,86.732 176.246,86.06 174.762,86.06 C172.074,86.06 169.862,88.468 169.862,92.528 C169.862,96.672 171.766,99.08 174.706,99.08 C176.358,99.08 177.702,98.24 178.682,97.176 L181.314,100.312 C179.55,102.356 177.226,103.392 174.51,103.392 Z M188.51,103.392 C185.094,103.392 183.974,101.152 183.974,97.82 L183.974,80.628 L188.93,80.628 L188.93,98.016 C188.93,99.052 189.434,99.36 189.826,99.36 C189.994,99.36 190.106,99.36 190.386,99.304 L190.974,102.972 C190.442,103.196 189.602,103.392 188.51,103.392 Z M197.302,103.392 C194.362,103.392 192.57,101.208 192.57,98.548 C192.57,95.188 195.202,93.368 201.418,92.696 C201.306,91.408 200.634,90.652 199.01,90.652 C197.75,90.652 196.434,91.156 194.838,92.052 L193.102,88.776 C195.202,87.516 197.47,86.676 199.962,86.676 C204.078,86.676 206.402,88.972 206.402,93.956 L206.402,103 L202.342,103 L201.978,101.404 L201.866,101.404 C200.55,102.58 199.066,103.392 197.302,103.392 Z M199.01,99.528 C200.018,99.528 200.69,99.052 201.418,98.268 L201.418,95.72 C198.31,96.14 197.302,97.036 197.302,98.156 C197.302,99.08 197.974,99.528 199.01,99.528 Z M214.998,103.392 C212.926,103.392 210.462,102.496 208.866,101.152 L211.078,98.044 C212.534,99.164 213.85,99.724 215.11,99.724 C216.426,99.724 216.986,99.248 216.986,98.464 C216.986,97.512 215.446,97.064 213.822,96.42 C211.918,95.664 209.678,94.376 209.678,91.744 C209.678,88.72 212.142,86.676 215.838,86.676 C218.358,86.676 220.15,87.684 221.55,88.72 L219.31,91.688 C218.19,90.904 217.07,90.344 216.006,90.344 C214.886,90.344 214.326,90.736 214.326,91.492 C214.326,92.444 215.782,92.808 217.434,93.396 C219.422,94.152 221.634,95.3 221.634,98.184 C221.634,101.124 219.338,103.392 214.998,103.392 Z M229.278,103.392 C227.206,103.392 224.742,102.496 223.146,101.152 L225.358,98.044 C226.814,99.164 228.13,99.724 229.39,99.724 C230.706,99.724 231.266,99.248 231.266,98.464 C231.266,97.512 229.726,97.064 228.102,96.42 C226.198,95.664 223.958,94.376 223.958,91.744 C223.958,88.72 226.422,86.676 230.118,86.676 C232.638,86.676 234.43,87.684 235.83,88.72 L233.59,91.688 C232.47,90.904 231.35,90.344 230.286,90.344 C229.166,90.344 228.606,90.736 228.606,91.492 C228.606,92.444 230.062,92.808 231.714,93.396 C233.702,94.152 235.914,95.3 235.914,98.184 C235.914,101.124 233.618,103.392 229.278,103.392 Z" id="WizClass" fill="#FFFFFF" fill-rule="nonzero"></path>
                    <path d="M330.614,103 L326.806,82.168 L331.93,82.168 L333.246,91.66 L334.086,98.268 L334.198,98.268 C334.59,96.056 335.01,93.816 335.43,91.66 L337.558,82.168 L341.758,82.168 L343.942,91.66 C344.362,93.788 344.726,96.028 345.146,98.268 L345.286,98.268 C345.538,96.028 345.818,93.816 346.07,91.66 L347.414,82.168 L352.174,82.168 L348.562,103 L342.262,103 L340.386,93.928 C340.05,92.332 339.77,90.652 339.574,89.084 L339.434,89.084 C339.182,90.652 338.93,92.332 338.622,93.928 L336.802,103 L330.614,103 Z M354.61,103 L354.61,87.068 L359.566,87.068 L359.566,103 L354.61,103 Z M357.102,84.856 C355.422,84.856 354.246,83.792 354.246,82.308 C354.246,80.796 355.422,79.732 357.102,79.732 C358.754,79.732 359.93,80.796 359.93,82.308 C359.93,83.792 358.754,84.856 357.102,84.856 Z M362.814,103 L362.814,100.34 L369.282,90.96 L363.542,90.96 L363.542,87.068 L375.498,87.068 L375.498,89.728 L369.03,99.108 L375.694,99.108 L375.694,103 L362.814,103 Z M378.886,103 L378.886,82.168 L383.898,82.168 L383.898,98.8 L391.99,98.8 L391.99,103 L378.886,103 Z M399.242,103.392 C396.302,103.392 394.51,101.208 394.51,98.548 C394.51,95.188 397.142,93.368 403.358,92.696 C403.246,91.408 402.574,90.652 400.95,90.652 C399.69,90.652 398.374,91.156 396.778,92.052 L395.042,88.776 C397.142,87.516 399.41,86.676 401.902,86.676 C406.018,86.676 408.342,88.972 408.342,93.956 L408.342,103 L404.282,103 L403.918,101.404 L403.806,101.404 C402.49,102.58 401.006,103.392 399.242,103.392 Z M400.95,99.528 C401.958,99.528 402.63,99.052 403.358,98.268 L403.358,95.72 C400.25,96.14 399.242,97.036 399.242,98.156 C399.242,99.08 399.914,99.528 400.95,99.528 Z M420.69,103.392 C419.29,103.392 417.834,102.692 416.574,101.292 L416.462,101.292 L416.07,103 L412.178,103 L412.178,80.628 L417.134,80.628 L417.134,86.004 L417.022,88.384 C418.198,87.32 419.682,86.676 421.138,86.676 C424.946,86.676 427.382,89.868 427.382,94.74 C427.382,100.256 424.106,103.392 420.69,103.392 Z M419.514,99.304 C421.026,99.304 422.258,98.044 422.258,94.852 C422.258,92.052 421.446,90.736 419.682,90.736 C418.758,90.736 418.002,91.156 417.134,92.08 L417.134,98.38 C417.918,99.08 418.758,99.304 419.514,99.304 Z" id="WizLab" fill="#FFFFFF" fill-rule="nonzero"></path>
                    <path d="M526.504,103 L522.696,82.168 L527.82,82.168 L529.136,91.66 L529.976,98.268 L530.088,98.268 C530.48,96.056 530.9,93.816 531.32,91.66 L533.448,82.168 L537.648,82.168 L539.832,91.66 C540.252,93.788 540.616,96.028 541.036,98.268 L541.176,98.268 C541.428,96.028 541.708,93.816 541.96,91.66 L543.304,82.168 L548.064,82.168 L544.452,103 L538.152,103 L536.276,93.928 C535.94,92.332 535.66,90.652 535.464,89.084 L535.324,89.084 C535.072,90.652 534.82,92.332 534.512,93.928 L532.692,103 L526.504,103 Z M550.5,103 L550.5,87.068 L555.456,87.068 L555.456,103 L550.5,103 Z M552.992,84.856 C551.312,84.856 550.136,83.792 550.136,82.308 C550.136,80.796 551.312,79.732 552.992,79.732 C554.644,79.732 555.82,80.796 555.82,82.308 C555.82,83.792 554.644,84.856 552.992,84.856 Z M558.704,103 L558.704,100.34 L565.172,90.96 L559.432,90.96 L559.432,87.068 L571.388,87.068 L571.388,89.728 L564.92,99.108 L571.584,99.108 L571.584,103 L558.704,103 Z M579.396,94.348 L583.652,94.348 L583.204,92.584 C582.644,90.512 582.112,88.02 581.552,85.892 L581.44,85.892 C580.936,88.076 580.376,90.512 579.844,92.584 L579.396,94.348 Z M585.808,103 L584.604,98.212 L578.444,98.212 L577.24,103 L572.144,103 L578.612,82.168 L584.604,82.168 L591.072,103 L585.808,103 Z M592.864,108.796 L592.864,87.068 L596.924,87.068 L597.26,88.608 L597.372,88.608 C598.632,87.488 600.2,86.676 601.852,86.676 C605.66,86.676 608.068,89.868 608.068,94.768 C608.068,100.256 604.792,103.392 601.376,103.392 C600.032,103.392 598.744,102.804 597.68,101.74 L597.82,104.232 L597.82,108.796 L592.864,108.796 Z M600.2,99.304 C601.712,99.304 602.944,98.044 602.944,94.852 C602.944,92.052 602.132,90.736 600.368,90.736 C599.444,90.736 598.688,91.156 597.82,92.08 L597.82,98.38 C598.604,99.08 599.444,99.304 600.2,99.304 Z M611.288,108.796 L611.288,87.068 L615.348,87.068 L615.684,88.608 L615.796,88.608 C617.056,87.488 618.624,86.676 620.276,86.676 C624.084,86.676 626.492,89.868 626.492,94.768 C626.492,100.256 623.216,103.392 619.8,103.392 C618.456,103.392 617.168,102.804 616.104,101.74 L616.244,104.232 L616.244,108.796 L611.288,108.796 Z M618.624,99.304 C620.136,99.304 621.368,98.044 621.368,94.852 C621.368,92.052 620.556,90.736 618.792,90.736 C617.868,90.736 617.112,91.156 616.244,92.08 L616.244,98.38 C617.028,99.08 617.868,99.304 618.624,99.304 Z" id="WizApp" fill="#FFFFFF" fill-rule="nonzero"></path>
                    <path d="M354.42,258 L354.42,243.28 L358.98,243.28 C362,243.28 364.18,244.24 364.18,246.9 C364.18,248.3 363.4,249.64 362.08,250.08 L362.08,250.18 C363.76,250.54 364.98,251.68 364.98,253.68 C364.98,256.6 362.6,258 359.34,258 L354.42,258 Z M356.74,249.42 L358.72,249.42 C360.96,249.42 361.9,248.58 361.9,247.2 C361.9,245.66 360.86,245.08 358.78,245.08 L356.74,245.08 L356.74,249.42 Z M356.74,256.18 L359.08,256.18 C361.38,256.18 362.7,255.36 362.7,253.56 C362.7,251.9 361.42,251.18 359.08,251.18 L356.74,251.18 L356.74,256.18 Z M370.78,258.26 C368.44,258.26 367.42,256.72 367.42,253.92 L367.42,247 L369.72,247 L369.72,253.64 C369.72,255.54 370.26,256.28 371.56,256.28 C372.58,256.28 373.28,255.8 374.2,254.64 L374.2,247 L376.5,247 L376.5,258 L374.62,258 L374.44,256.34 L374.38,256.34 C373.38,257.5 372.3,258.26 370.78,258.26 Z M379.96,258 L379.96,247 L382.24,247 L382.24,258 L379.96,258 Z M381.1,244.94 C380.26,244.94 379.64,244.38 379.64,243.58 C379.64,242.76 380.26,242.22 381.1,242.22 C381.94,242.22 382.58,242.76 382.58,243.58 C382.58,244.38 381.94,244.94 381.1,244.94 Z M387.98,258.26 C386.32,258.26 385.7,257.2 385.7,255.42 L385.7,242.06 L387.98,242.06 L387.98,255.54 C387.98,256.16 388.26,256.38 388.54,256.38 C388.64,256.38 388.72,256.38 388.92,256.34 L389.22,258.08 C388.94,258.18 388.54,258.26 387.98,258.26 Z M395.46,258.26 C392.7,258.26 390.92,256.16 390.92,252.52 C390.92,248.94 393.18,246.72 395.64,246.72 C396.9,246.72 397.7,247.2 398.6,247.96 L398.5,246.14 L398.5,242.06 L400.8,242.06 L400.8,258 L398.92,258 L398.72,256.76 L398.66,256.76 C397.84,257.6 396.7,258.26 395.46,258.26 Z M396,256.36 C396.92,256.36 397.7,255.94 398.5,255.02 L398.5,249.64 C397.68,248.9 396.9,248.64 396.08,248.64 C394.54,248.64 393.3,250.1 393.3,252.48 C393.3,254.98 394.28,256.36 396,256.36 Z" id="Build" fill="#FFFFFF" fill-rule="nonzero"></path>
                    <path d="M529.32,258.26 C527.3,258.26 525.42,257.46 524.08,256.1 L525.44,254.5 C526.5,255.56 527.94,256.24 529.36,256.24 C531.14,256.24 532.14,255.4 532.14,254.16 C532.14,252.82 531.14,252.4 529.78,251.8 L527.74,250.92 C526.32,250.32 524.74,249.2 524.74,247.06 C524.74,244.74 526.78,243 529.58,243 C531.3,243 532.92,243.72 534.04,244.86 L532.82,246.34 C531.9,245.52 530.88,245.02 529.58,245.02 C528.08,245.02 527.1,245.74 527.1,246.92 C527.1,248.18 528.28,248.66 529.48,249.14 L531.5,250 C533.24,250.74 534.5,251.82 534.5,253.98 C534.5,256.34 532.54,258.26 529.32,258.26 Z M537.08,258 L537.08,242.06 L539.36,242.06 L539.36,246.28 L539.28,248.46 C540.24,247.54 541.34,246.72 542.84,246.72 C545.18,246.72 546.22,248.28 546.22,251.08 L546.22,258 L543.92,258 L543.92,251.36 C543.92,249.46 543.36,248.7 542.06,248.7 C541.04,248.7 540.34,249.22 539.36,250.2 L539.36,258 L537.08,258 Z M552.1,258.26 C550.2,258.26 548.86,257.02 548.86,255.08 C548.86,252.72 550.86,251.5 555.44,251 C555.42,249.72 554.96,248.6 553.34,248.6 C552.18,248.6 551.1,249.12 550.16,249.72 L549.3,248.16 C550.44,247.44 551.98,246.72 553.74,246.72 C556.48,246.72 557.74,248.46 557.74,251.38 L557.74,258 L555.86,258 L555.66,256.74 L555.6,256.74 C554.6,257.6 553.42,258.26 552.1,258.26 Z M552.8,256.44 C553.76,256.44 554.54,255.98 555.44,255.16 L555.44,252.46 C552.18,252.86 551.08,253.68 551.08,254.92 C551.08,256 551.82,256.44 552.8,256.44 Z M561,258 L561,247 L562.88,247 L563.06,248.98 L563.12,248.98 C563.9,247.56 565.06,246.72 566.24,246.72 C566.78,246.72 567.14,246.8 567.48,246.96 L567.06,248.96 C566.68,248.84 566.4,248.78 565.96,248.78 C565.06,248.78 563.98,249.4 563.28,251.14 L563.28,258 L561,258 Z M573.76,258.26 C570.78,258.26 568.4,256.14 568.4,252.52 C568.4,248.94 570.84,246.72 573.42,246.72 C576.34,246.72 577.9,248.82 577.9,251.94 C577.9,252.38 577.86,252.84 577.8,253.1 L570.66,253.1 C570.84,255.2 572.16,256.46 574.06,256.46 C575.04,256.46 575.88,256.16 576.68,255.64 L577.48,257.1 C576.46,257.78 575.2,258.26 573.76,258.26 Z M570.64,251.52 L575.92,251.52 C575.92,249.62 575.06,248.52 573.46,248.52 C572.08,248.52 570.86,249.58 570.64,251.52 Z M578.98,261.6 L584.54,242.04 L586.14,242.04 L580.58,261.6 L578.98,261.6 Z M588.48,258 L588.48,243.28 L592.94,243.28 C596.22,243.28 598.56,244.4 598.56,247.72 C598.56,250.94 596.22,252.42 593.02,252.42 L590.8,252.42 L590.8,258 L588.48,258 Z M590.8,250.56 L592.8,250.56 C595.16,250.56 596.28,249.66 596.28,247.72 C596.28,245.78 595.06,245.14 592.72,245.14 L590.8,245.14 L590.8,250.56 Z M603.5,258.26 C601.84,258.26 601.22,257.2 601.22,255.42 L601.22,242.06 L603.5,242.06 L603.5,255.54 C603.5,256.16 603.78,256.38 604.06,256.38 C604.16,256.38 604.24,256.38 604.44,256.34 L604.74,258.08 C604.46,258.18 604.06,258.26 603.5,258.26 Z M609.78,258.26 C607.88,258.26 606.54,257.02 606.54,255.08 C606.54,252.72 608.54,251.5 613.12,251 C613.1,249.72 612.64,248.6 611.02,248.6 C609.86,248.6 608.78,249.12 607.84,249.72 L606.98,248.16 C608.12,247.44 609.66,246.72 611.42,246.72 C614.16,246.72 615.42,248.46 615.42,251.38 L615.42,258 L613.54,258 L613.34,256.74 L613.28,256.74 C612.28,257.6 611.1,258.26 609.78,258.26 Z M610.48,256.44 C611.44,256.44 612.22,255.98 613.12,255.16 L613.12,252.46 C609.86,252.86 608.76,253.68 608.76,254.92 C608.76,256 609.5,256.44 610.48,256.44 Z M627.56,247 L623.52,258.66 C622.66,261.02 621.5,262.6 619.18,262.6 C618.62,262.6 618.18,262.52 617.8,262.38 L618.24,260.58 C618.44,260.64 618.76,260.74 619.04,260.74 C620.24,260.74 620.94,259.86 621.34,258.68 L621.56,257.92 L617.2,247 L619.56,247 L621.6,252.66 C621.92,253.64 622.26,254.74 622.6,255.76 L622.7,255.76 L623.56,252.66 L625.32,247 L627.56,247 Z" id="Share/Play" fill="#FFFFFF" fill-rule="nonzero"></path>
                    <g id="Group-88" transform="translate(331.000000, 133.000000)">
                        <g id="Group-3" transform="translate(0.000000, 0.005973)">
                            <mask id="mask-4" fill="white">
                                <use xlink:href="#path-3"></use>
                            </mask>
                            <g id="Clip-2"></g>
                            <path d="M46.3400543,76.9834751 L71.5876561,76.9834751 C76.5346244,76.9834751 81.4815928,76.9706244 86.4285611,76.9914389 C87.8280181,76.9972308 88.9492851,76.5107149 89.5163439,75.2216652 C89.7945339,74.589448 89.8428597,73.8171403 89.8434027,73.108 C89.8593303,51.269086 89.8225882,29.429991 89.8911855,7.59107692 C89.9020452,4.12085068 88.7447602,2.948181 85.2394208,2.96447059 C67.7445792,3.04609955 50.2490136,3.00157466 32.75381,3.00103167 C23.9458462,3.00066968 15.1377014,3.00609955 6.32991855,2.99053394 C5.0640362,2.988181 3.92901357,3.30510407 3.33444344,4.4558733 C2.98059729,5.14039819 2.83561991,6.00483258 2.83399095,6.78890498 C2.80557466,20.7548778 2.81353846,34.7210317 2.81353846,48.6870045 C2.81353846,56.9219367 2.81860633,65.1566878 2.80720362,73.3916199 C2.80575566,74.4967783 3.0278371,75.4770498 3.89914932,76.2399457 C4.66240724,76.908362 5.56720362,76.989086 6.52322172,76.988543 C19.7954389,76.9809412 33.0678371,76.9834751 46.3400543,76.9834751 M92.6696471,5.068 L92.6696471,74.9322534 C92.6200543,75.0046516 92.5481991,75.0705339 92.5241267,75.1505339 C91.5825882,78.2830226 89.513086,79.8175023 86.272905,79.8167783 C65.7999638,79.8126154 45.3272036,79.8135204 24.8544434,79.8135204 C18.5827692,79.8135204 12.311276,79.826371 6.03978281,79.8127964 C3.23543891,79.8068235 0.995076923,78.0938824 0.198153846,75.4162353 C0.148742081,75.2499005 0.0667511312,75.0933394 -3.6199095e-05,74.9322534 L-3.6199095e-05,5.068 C1.5878371,1.12048869 2.99905882,0.179855204 7.29408145,0.180036199 C22.4032217,0.180760181 37.512543,0.177502262 52.6216833,0.176597285 C63.9308235,0.175873303 75.2401448,0.172072398 86.5494661,0.179312217 C89.4803258,0.181122172 91.6745339,1.86094118 92.4888326,4.6721629 C92.5288326,4.81008145 92.6084706,4.93623529 92.6696471,5.068" id="Fill-1" fill="#FFFFFF" mask="url(#mask-4)"></path>
                        </g>
                        <path d="M46.2633484,14.8541719 C34.0827149,14.8541719 21.9020814,14.8543529 9.72144796,14.853991 C8.21628959,14.853991 7.56,14.4078371 7.5878733,13.4072941 C7.61502262,12.4422262 8.2318552,12.0451222 9.71963801,12.0453032 C34.1409955,12.0478371 58.5625339,12.050914 82.9838914,12.053991 C83.1346606,12.053991 83.2854299,12.051095 83.4360181,12.0561629 C84.4941176,12.091276 85.078552,12.5890136 85.0771041,13.451819 C85.0758371,14.3120905 84.4731222,14.8471131 83.438371,14.85019 C79.7902262,14.8610498 76.1420814,14.8586968 72.4939367,14.8590588 C63.7504072,14.8597828 55.0068778,14.8592398 46.2633484,14.8592398 L46.2633484,14.8541719 Z" id="Fill-4" fill="#FFFFFF"></path>
                        <path d="M21.8492851,7.76653394 C21.8711855,8.58173756 21.2158009,9.26933937 20.3888326,9.29866063 C19.5517285,9.32852489 18.8670226,8.70915837 18.8243077,7.88363801 C18.7794208,7.01232579 19.4371584,6.31820814 20.3148054,6.31078733 C21.1450317,6.30372851 21.8273846,6.95114932 21.8492851,7.76653394" id="Fill-6" fill="#FFFFFF"></path>
                        <path d="M15.4220814,9.29882353 C14.5804525,9.30298643 13.9272398,8.66895928 13.9125792,7.83294118 C13.8970136,6.94986425 14.559819,6.28868778 15.4450679,6.3038914 C16.2720362,6.31800905 16.9259729,6.98733032 16.919095,7.81248869 C16.9120362,8.64633484 16.2591855,9.29466063 15.4220814,9.29882353" id="Fill-8" fill="#FFFFFF"></path>
                        <path d="M10.5238914,6.31176471 C11.3671493,6.32443439 11.9939367,6.96208145 11.9950226,7.80859729 C11.9964706,8.64515837 11.3544796,9.29674208 10.5211765,9.30470588 C9.64914027,9.31303167 8.98307692,8.6321267 9.00606335,7.75628959 C9.02850679,6.91085973 9.67158371,6.29891403 10.5238914,6.31176471" id="Fill-10" fill="#FFFFFF"></path>
                        <path d="M12.7054842,18.4253032 L11.2848507,18.4253032 C10.4991493,18.4253032 9.8640362,19.0604163 9.8640362,19.8461176 C9.8640362,20.631638 10.4991493,21.2667511 11.2848507,21.2667511 L12.7054842,21.2667511 C13.4911855,21.2667511 14.1262986,20.631638 14.1262986,19.8461176 C14.1262986,19.0604163 13.4911855,18.4253032 12.7054842,18.4253032" id="Fill-12" fill="#FFFFFF"></path>
                        <path d="M12.7054842,24.108181 L11.2848507,24.108181 C10.4991493,24.108181 9.8640362,24.7431131 9.8640362,25.5288145 C9.8640362,26.3145158 10.4991493,26.949629 11.2848507,26.949629 L12.7054842,26.949629 C13.4911855,26.949629 14.1262986,26.3145158 14.1262986,25.5288145 C14.1262986,24.7431131 13.4911855,24.108181 12.7054842,24.108181" id="Fill-14" fill="#FFFFFF"></path>
                        <path d="M12.7054842,29.7909864 L11.2848507,29.7909864 C10.4991493,29.7909864 9.8640362,30.4260995 9.8640362,31.2118009 C9.8640362,31.9973213 10.4991493,32.6324344 11.2848507,32.6324344 L12.7054842,32.6324344 C13.4911855,32.6324344 14.1262986,31.9973213 14.1262986,31.2118009 C14.1262986,30.4260995 13.4911855,29.7909864 12.7054842,29.7909864" id="Fill-16" fill="#FFFFFF"></path>
                        <path d="M12.7054842,35.4738824 L11.2848507,35.4738824 C10.4991493,35.4738824 9.8640362,36.1089955 9.8640362,36.8945158 C9.8640362,37.6802172 10.4991493,38.3153303 11.2848507,38.3153303 L12.7054842,38.3153303 C13.4911855,38.3153303 14.1262986,37.6802172 14.1262986,36.8945158 C14.1262986,36.1089955 13.4911855,35.4738824 12.7054842,35.4738824" id="Fill-18" fill="#FFFFFF"></path>
                        <path d="M12.7054842,41.1567602 L11.2848507,41.1567602 C10.4991493,41.1567602 9.8640362,41.7918733 9.8640362,42.5773937 C9.8640362,43.362914 10.4991493,43.9980271 11.2848507,43.9980271 L12.7054842,43.9980271 C13.4911855,43.9980271 14.1262986,43.362914 14.1262986,42.5773937 C14.1262986,41.7918733 13.4911855,41.1567602 12.7054842,41.1567602" id="Fill-20" fill="#FFFFFF"></path>
                        <path d="M12.7054842,46.8395656 L11.2848507,46.8395656 C10.4991493,46.8395656 9.8640362,47.4746787 9.8640362,48.2603801 C9.8640362,49.0459005 10.4991493,49.6810136 11.2848507,49.6810136 L12.7054842,49.6810136 C13.4911855,49.6810136 14.1262986,49.0459005 14.1262986,48.2603801 C14.1262986,47.4746787 13.4911855,46.8395656 12.7054842,46.8395656" id="Fill-22" fill="#FFFFFF"></path>
                        <path d="M12.7054842,52.5223529 L11.2848507,52.5223529 C10.4991493,52.5223529 9.8640362,53.1574661 9.8640362,53.9431674 C9.8640362,54.7286878 10.4991493,55.3638009 11.2848507,55.3638009 L12.7054842,55.3638009 C13.4911855,55.3638009 14.1262986,54.7286878 14.1262986,53.9431674 C14.1262986,53.1574661 13.4911855,52.5223529 12.7054842,52.5223529" id="Fill-24" fill="#FFFFFF"></path>
                        <path d="M12.7054842,58.2051584 L11.2848507,58.2051584 C10.4991493,58.2051584 9.8640362,58.8402715 9.8640362,59.6259729 C9.8640362,60.4114932 10.4991493,61.0466063 11.2848507,61.0466063 L12.7054842,61.0466063 C13.4911855,61.0466063 14.1262986,60.4114932 14.1262986,59.6259729 C14.1262986,58.8402715 13.4911855,58.2051584 12.7054842,58.2051584" id="Fill-26" fill="#FFFFFF"></path>
                        <path d="M12.7054842,63.8881267 L11.2848507,63.8881267 C10.4991493,63.8881267 9.8640362,64.5232398 9.8640362,65.3089412 C9.8640362,66.0942805 10.4991493,66.7293937 11.2848507,66.7293937 L12.7054842,66.7293937 C13.4911855,66.7293937 14.1262986,66.0942805 14.1262986,65.3089412 C14.1262986,64.5232398 13.4911855,63.8881267 12.7054842,63.8881267" id="Fill-28" fill="#FFFFFF"></path>
                        <path d="M12.7054842,69.5709321 L11.2848507,69.5709321 C10.4991493,69.5709321 9.8640362,70.2060452 9.8640362,70.9917466 C9.8640362,71.777267 10.4991493,72.4123801 11.2848507,72.4123801 L12.7054842,72.4123801 C13.4911855,72.4123801 14.1262986,71.777267 14.1262986,70.9917466 C14.1262986,70.2060452 13.4911855,69.5709321 12.7054842,69.5709321" id="Fill-30" fill="#FFFFFF"></path>
                        <path d="M27.5604525,21.2666968 L46.0297738,21.2666968 C46.8154751,21.2666968 47.4505882,20.6317647 47.4505882,19.8460633 C47.4505882,19.060362 46.8154751,18.4252489 46.0297738,18.4252489 L27.5604525,18.4252489 C26.7749321,18.4252489 26.139819,19.060362 26.139819,19.8460633 C26.139819,20.6317647 26.7749321,21.2666968 27.5604525,21.2666968" id="Fill-32" fill="#FFFFFF"></path>
                        <path d="M51.7125611,21.2666968 L65.9196199,21.2666968 C66.7053213,21.2666968 67.3404344,20.6317647 67.3404344,19.8460633 C67.3404344,19.060362 66.7053213,18.4252489 65.9196199,18.4252489 L51.7125611,18.4252489 C50.9268597,18.4252489 50.2917466,19.060362 50.2917466,19.8460633 C50.2917466,20.6317647 50.9268597,21.2666968 51.7125611,21.2666968" id="Fill-34" fill="#FFFFFF"></path>
                        <path d="M71.6026244,21.2666968 L74.4438914,21.2666968 C75.2295928,21.2666968 75.8647059,20.6317647 75.8647059,19.8460633 C75.8647059,19.060362 75.2295928,18.4252489 74.4438914,18.4252489 L71.6026244,18.4252489 C70.8169231,18.4252489 70.18181,19.060362 70.18181,19.8460633 C70.18181,20.6317647 70.8169231,21.2666968 71.6026244,21.2666968" id="Fill-36" fill="#FFFFFF"></path>
                        <path d="M58.8161086,25.5288507 C58.8161086,26.314552 59.4512217,26.9496652 60.2369231,26.9496652 L81.5475113,26.9496652 C82.3332127,26.9496652 82.9681448,26.314552 82.9681448,25.5288507 C82.9681448,24.7431493 82.3332127,24.1082172 81.5475113,24.1082172 L60.2369231,24.1082172 C59.4512217,24.1082172 58.8161086,24.7431493 58.8161086,25.5288507" id="Fill-38" fill="#FFFFFF"></path>
                        <path d="M54.5540452,24.108181 L34.6640905,24.108181 C33.8783891,24.108181 33.243276,24.7431131 33.243276,25.5288145 C33.243276,26.3145158 33.8783891,26.949629 34.6640905,26.949629 L54.5540452,26.949629 C55.3397466,26.949629 55.9748597,26.3145158 55.9748597,25.5288145 C55.9748597,24.7431131 55.3397466,24.108181 54.5540452,24.108181" id="Fill-40" fill="#FFFFFF"></path>
                        <path d="M27.5604525,26.9495928 L28.981267,26.9495928 C29.7667873,26.9495928 30.4019005,26.3144796 30.4019005,25.5287783 C30.4019005,24.7432579 29.7667873,24.1081448 28.981267,24.1081448 L27.5604525,24.1081448 C26.7749321,24.1081448 26.139819,24.7432579 26.139819,25.5287783 C26.139819,26.3144796 26.7749321,26.9495928 27.5604525,26.9495928" id="Fill-42" fill="#FFFFFF"></path>
                        <path d="M27.5604525,32.6323801 L40.3468778,32.6323801 C41.1325792,32.6323801 41.7676923,31.997448 41.7676923,31.2117466 C41.7676923,30.4260452 41.1325792,29.7909321 40.3468778,29.7909321 L27.5604525,29.7909321 C26.7749321,29.7909321 26.139819,30.4260452 26.139819,31.2117466 C26.139819,31.997448 26.7749321,32.6323801 27.5604525,32.6323801" id="Fill-44" fill="#FFFFFF"></path>
                        <path d="M46.0297738,32.6323801 L48.8710407,32.6323801 C49.6567421,32.6323801 50.2918552,31.997448 50.2918552,31.2117466 C50.2918552,30.4260452 49.6567421,29.7909321 48.8710407,29.7909321 L46.0297738,29.7909321 C45.2440724,29.7909321 44.6089593,30.4260452 44.6089593,31.2117466 C44.6089593,31.997448 45.2440724,32.6323801 46.0297738,32.6323801" id="Fill-46" fill="#FFFFFF"></path>
                        <path d="M74.4439276,29.7909864 L54.5539729,29.7909864 C53.7684525,29.7909864 53.1333394,30.4260995 53.1333394,31.2118009 C53.1333394,31.9973213 53.7684525,32.6324344 54.5539729,32.6324344 L74.4439276,32.6324344 C75.229629,32.6324344 75.8647421,31.9973213 75.8647421,31.2118009 C75.8647421,30.4260995 75.229629,29.7909864 74.4439276,29.7909864" id="Fill-48" fill="#FFFFFF"></path>
                        <path d="M27.5604525,38.315276 L46.0297738,38.315276 C46.8154751,38.315276 47.4505882,37.6801629 47.4505882,36.8944615 C47.4505882,36.1089412 46.8154751,35.4738281 46.0297738,35.4738281 L27.5604525,35.4738281 C26.7749321,35.4738281 26.139819,36.1089412 26.139819,36.8944615 C26.139819,37.6801629 26.7749321,38.315276 27.5604525,38.315276" id="Fill-50" fill="#FFFFFF"></path>
                        <path d="M67.3403982,36.8945339 C67.3403982,36.1090136 66.7052851,35.4739005 65.9195837,35.4739005 L51.7125249,35.4739005 C50.9268235,35.4739005 50.2918914,36.1090136 50.2918914,36.8945339 C50.2918914,37.6802353 50.9268235,38.3153484 51.7125249,38.3153484 L65.9195837,38.3153484 C66.7052851,38.3153484 67.3403982,37.6802353 67.3403982,36.8945339" id="Fill-52" fill="#FFFFFF"></path>
                        <path d="M60.2368507,43.9980814 L71.6026425,43.9980814 C72.3881629,43.9980814 73.023276,43.3629683 73.023276,42.577267 C73.023276,41.7919276 72.3881629,41.1568145 71.6026425,41.1568145 L60.2368507,41.1568145 C59.4511493,41.1568145 58.8160362,41.7919276 58.8160362,42.577267 C58.8160362,43.3629683 59.4511493,43.9980814 60.2368507,43.9980814" id="Fill-54" fill="#FFFFFF"></path>
                        <path d="M33.2433303,42.5773213 C33.2433303,43.3630226 33.8784434,43.9981357 34.6641448,43.9981357 L54.5540995,43.9981357 C55.3398009,43.9981357 55.974733,43.3630226 55.974733,42.5773213 C55.974733,41.7918009 55.3398009,41.1566878 54.5540995,41.1566878 L34.6641448,41.1566878 C33.8784434,41.1566878 33.2433303,41.7918009 33.2433303,42.5773213" id="Fill-56" fill="#FFFFFF"></path>
                        <path d="M27.5604525,43.9980814 L28.981267,43.9980814 C29.7667873,43.9980814 30.4019005,43.3629683 30.4019005,42.577267 C30.4019005,41.7919276 29.7667873,41.1568145 28.981267,41.1568145 L27.5604525,41.1568145 C26.7749321,41.1568145 26.139819,41.7919276 26.139819,42.577267 C26.139819,43.3629683 26.7749321,43.9980814 27.5604525,43.9980814" id="Fill-58" fill="#FFFFFF"></path>
                        <path d="M27.5604525,49.6810498 L40.3468778,49.6810498 C41.1325792,49.6810498 41.7676923,49.0459367 41.7676923,48.2602353 C41.7676923,47.4747149 41.1325792,46.8396018 40.3468778,46.8396018 L27.5604525,46.8396018 C26.7749321,46.8396018 26.139819,47.4747149 26.139819,48.2602353 C26.139819,49.0459367 26.7749321,49.6810498 27.5604525,49.6810498" id="Fill-60" fill="#FFFFFF"></path>
                        <path d="M46.0297738,49.6810498 L48.8710407,49.6810498 C49.6567421,49.6810498 50.2918552,49.0459367 50.2918552,48.2602353 C50.2918552,47.4747149 49.6567421,46.8396018 48.8710407,46.8396018 L46.0297738,46.8396018 C45.2440724,46.8396018 44.6089593,47.4747149 44.6089593,48.2602353 C44.6089593,49.0459367 45.2440724,49.6810498 46.0297738,49.6810498" id="Fill-62" fill="#FFFFFF"></path>
                        <path d="M53.1333032,48.2603077 C53.1333032,49.046009 53.7684163,49.6811222 54.5541176,49.6811222 L75.8647059,49.6811222 C76.6504072,49.6811222 77.2853394,49.046009 77.2853394,48.2603077 C77.2853394,47.4746063 76.6504072,46.8394932 75.8647059,46.8394932 L54.5541176,46.8394932 C53.7684163,46.8394932 53.1333032,47.4746063 53.1333032,48.2603077" id="Fill-64" fill="#FFFFFF"></path>
                        <path d="M27.5604525,55.3638371 L46.0297738,55.3638371 C46.8154751,55.3638371 47.4505882,54.728724 47.4505882,53.9430226 C47.4505882,53.1575023 46.8154751,52.5223891 46.0297738,52.5223891 L27.5604525,52.5223891 C26.7749321,52.5223891 26.139819,53.1575023 26.139819,53.9430226 C26.139819,54.728724 26.7749321,55.3638371 27.5604525,55.3638371" id="Fill-66" fill="#FFFFFF"></path>
                        <path d="M65.9196561,52.5223529 L51.7125973,52.5223529 C50.9268959,52.5223529 50.2917828,53.1574661 50.2917828,53.9431674 C50.2917828,54.7286878 50.9268959,55.3638009 51.7125973,55.3638009 L65.9196561,55.3638009 C66.7053575,55.3638009 67.3404706,54.7286878 67.3404706,53.9431674 C67.3404706,53.1574661 66.7053575,52.5223529 65.9196561,52.5223529" id="Fill-68" fill="#FFFFFF"></path>
                        <path d="M81.5474751,52.5223529 L71.6026787,52.5223529 C70.8169774,52.5223529 70.1818643,53.1574661 70.1818643,53.9431674 C70.1818643,54.7286878 70.8169774,55.3638009 71.6026787,55.3638009 L81.5474751,55.3638009 C82.3331765,55.3638009 82.9682896,54.7286878 82.9682896,53.9431674 C82.9682896,53.1574661 82.3331765,52.5223529 81.5474751,52.5223529" id="Fill-70" fill="#FFFFFF"></path>
                        <path d="M65.9196561,58.2051584 L60.2369412,58.2051584 C59.4512398,58.2051584 58.8161267,58.8402715 58.8161267,59.6259729 C58.8161267,60.4114932 59.4512398,61.0466063 60.2369412,61.0466063 L65.9196561,61.0466063 C66.7053575,61.0466063 67.3404706,60.4114932 67.3404706,59.6259729 C67.3404706,58.8402715 66.7053575,58.2051584 65.9196561,58.2051584" id="Fill-72" fill="#FFFFFF"></path>
                        <path d="M33.2433303,59.6259005 C33.2433303,60.4116018 33.8784434,61.0467149 34.6641448,61.0467149 L54.5540995,61.0467149 C55.3398009,61.0467149 55.974733,60.4116018 55.974733,59.6259005 C55.974733,58.8401991 55.3398009,58.205086 54.5540995,58.205086 L34.6641448,58.205086 C33.8784434,58.205086 33.2433303,58.8401991 33.2433303,59.6259005" id="Fill-74" fill="#FFFFFF"></path>
                        <path d="M27.5604525,61.0466425 L28.981267,61.0466425 C29.7667873,61.0466425 30.4019005,60.4115294 30.4019005,59.6258281 C30.4019005,58.8403077 29.7667873,58.2051946 28.981267,58.2051946 L27.5604525,58.2051946 C26.7749321,58.2051946 26.139819,58.8403077 26.139819,59.6258281 C26.139819,60.4115294 26.7749321,61.0466425 27.5604525,61.0466425" id="Fill-76" fill="#FFFFFF"></path>
                        <path d="M40.3468778,63.8881267 L27.5604525,63.8881267 C26.7749321,63.8881267 26.139819,64.5232398 26.139819,65.3089412 C26.139819,66.0942805 26.7749321,66.7293937 27.5604525,66.7293937 L40.3468778,66.7293937 C41.1325792,66.7293937 41.7676923,66.0942805 41.7676923,65.3089412 C41.7676923,64.5232398 41.1325792,63.8881267 40.3468778,63.8881267" id="Fill-78" fill="#FFFFFF"></path>
                        <path d="M48.8710769,63.8881267 L46.02981,63.8881267 C45.2441086,63.8881267 44.6089955,64.5232398 44.6089955,65.3089412 C44.6089955,66.0942805 45.2441086,66.7293937 46.02981,66.7293937 L48.8710769,66.7293937 C49.6567783,66.7293937 50.2918914,66.0942805 50.2918914,65.3089412 C50.2918914,64.5232398 49.6567783,63.8881267 48.8710769,63.8881267" id="Fill-80" fill="#FFFFFF"></path>
                        <path d="M64.4988959,63.8881267 L54.5540995,63.8881267 C53.7683982,63.8881267 53.1332851,64.5232398 53.1332851,65.3089412 C53.1332851,66.0942805 53.7683982,66.7293937 54.5540995,66.7293937 L64.4988959,66.7293937 C65.2845973,66.7293937 65.9197104,66.0942805 65.9197104,65.3089412 C65.9197104,64.5232398 65.2845973,63.8881267 64.4988959,63.8881267" id="Fill-82" fill="#FFFFFF"></path>
                        <path d="M71.6026244,63.8881267 L70.18181,63.8881267 C69.3962896,63.8881267 68.7611765,64.5232398 68.7611765,65.3089412 C68.7611765,66.0942805 69.3962896,66.7293937 70.18181,66.7293937 L71.6026244,66.7293937 C72.3881448,66.7293937 73.0232579,66.0942805 73.0232579,65.3089412 C73.0232579,64.5232398 72.3881448,63.8881267 71.6026244,63.8881267" id="Fill-84" fill="#FFFFFF"></path>
                        <path d="M21.7377557,43.7857919 C21.7377557,53.4066063 21.7379367,63.0276018 21.7375747,72.6484163 C21.7375747,73.8371946 21.2914208,74.3555656 20.2910588,74.3334842 C19.32581,74.3121267 18.9287059,73.8248869 18.9288869,72.6498643 C18.9314208,53.3604525 18.9344977,34.0712217 18.9375747,14.781991 C18.9375747,14.6628959 18.9346787,14.5438009 18.9397466,14.4248869 C18.9748597,13.5892308 19.4725973,13.1276923 20.3355837,13.1287783 C21.1956742,13.1296833 21.7306968,13.6058824 21.7339548,14.4230769 C21.7448145,17.3045249 21.7422805,20.1859729 21.7426425,23.0676018 C21.7433665,29.9736652 21.7428235,36.8797285 21.7428235,43.7857919 L21.7377557,43.7857919 Z" id="Fill-86" fill="#FFFFFF"></path>
                    </g>
                    <g id="Group-24" transform="translate(128.500000, 133.000000)">
                        <g id="Group-3" transform="translate(0.000000, 0.005973)">
                            <mask id="mask-6" fill="white">
                                <use xlink:href="#path-5"></use>
                            </mask>
                            <g id="Clip-2"></g>
                            <path d="M46.3400362,76.9834751 L71.587638,76.9834751 C76.5346063,76.9834751 81.4815747,76.9706244 86.428362,76.9914389 C87.828,76.9972308 88.949267,76.5107149 89.5165068,75.2216652 C89.7945158,74.589448 89.8428416,73.8171403 89.8433846,73.108 C89.8593122,51.269086 89.8225701,29.429991 89.8911674,7.59107692 C89.9020271,4.12085068 88.7447421,2.948181 85.2394027,2.96447059 C67.7445611,3.04609955 50.2491765,3.00157466 32.7537919,3.00103167 C23.9458281,3.00066968 15.1378643,3.00609955 6.32990045,2.99053394 C5.0640181,2.988181 3.92899548,3.30510407 3.33442534,4.4558733 C2.98057919,5.14039819 2.83560181,6.00483258 2.83397285,6.78890498 C2.80555656,20.7548778 2.81352036,34.7210317 2.81352036,48.6870045 C2.81352036,56.9219367 2.81858824,65.1566878 2.80718552,73.3916199 C2.80573756,74.4967783 3.027819,75.4770498 3.89913122,76.2399457 C4.66238914,76.908362 5.56718552,76.989086 6.52320362,76.988543 C19.7954208,76.9809412 33.067819,76.9834751 46.3400362,76.9834751 M92.669629,5.068 L92.669629,74.9322534 C92.6200362,75.0046516 92.548181,75.0705339 92.5241086,75.1505339 C91.5827511,78.2830226 89.5130679,79.8175023 86.2728869,79.8167783 C65.8001267,79.8126154 45.3271855,79.8135204 24.8544253,79.8135204 C18.5829321,79.8135204 12.3112579,79.826371 6.03976471,79.8127964 C3.23542081,79.8068235 0.995058824,78.0938824 0.198135747,75.4162353 C0.148723982,75.2499005 0.0667330317,75.0933394 -5.42986425e-05,74.9322534 L-5.42986425e-05,5.068 C1.587819,1.12048869 2.99904072,0.179855204 7.29406335,0.180036199 C22.4033846,0.180760181 37.5125249,0.177502262 52.6216652,0.176597285 C63.9308054,0.175873303 75.2401267,0.172072398 86.549448,0.179312217 C89.4803077,0.181122172 91.6746968,1.86094118 92.4889955,4.6721629 C92.5288145,4.81008145 92.6084525,4.93623529 92.669629,5.068" id="Fill-1" fill="#FFFFFF" mask="url(#mask-6)"></path>
                        </g>
                        <path d="M83.6996923,62.3194389 C84.3811403,62.315638 84.8951674,61.8135566 84.91381,61.1331946 C84.9335385,60.4126516 84.4048507,59.8705701 83.6857557,59.8738281 C82.9735385,59.877086 82.4399638,60.435095 82.4678371,61.1471312 C82.4942624,61.8206154 83.0220452,62.3230588 83.6996923,62.3194389 M10.4108235,62.5261357 L10.4108235,69.5389864 L82.2488326,69.5389864 C82.2678371,69.1116561 82.273629,68.7018824 82.3067511,68.2942805 C82.3753484,67.4512036 82.913267,66.9312036 83.6958914,66.9324706 C84.473086,66.9339186 85.0408688,67.4709321 85.0745339,68.2997104 C85.1062081,69.0826968 85.0899186,69.8678552 85.0835837,70.6521086 C85.073448,71.9286697 84.6081086,72.4046878 83.3449412,72.4084887 C80.9319095,72.4155475 78.5186968,72.4106606 76.1056652,72.4106606 C53.9965249,72.4108416 31.8873846,72.4108416 9.77806335,72.4106606 C7.89860633,72.4106606 7.58548416,72.0946425 7.58439819,70.2021538 C7.58276923,67.3668597 7.57860633,64.5315656 7.57951131,61.6962715 C7.5798733,60.1098462 7.97933032,59.6964525 9.53516742,59.6962715 C21.2383348,59.6940995 32.9416833,59.6951855 44.6448507,59.6962715 C56.1065701,59.6975385 67.5684706,59.6957285 79.030371,59.7136471 C79.6077466,59.714371 79.9288326,59.5641448 80.231095,59.034552 C81.1628597,57.4021538 83.0365249,56.6951855 84.8233122,57.2030588 C86.5405973,57.6915656 87.7706425,59.3310226 87.7594208,61.116905 C87.7478371,62.9225158 86.5181538,64.5264977 84.7862081,64.995276 C82.9762534,65.4848688 81.1574299,64.7742805 80.2111855,63.1246878 C79.9306425,62.635819 79.6392398,62.4703891 79.0875656,62.4707511 C56.4654842,62.4845068 33.8432217,62.4823348 11.2211403,62.4841448 C10.9840362,62.4841448 10.7467511,62.5080362 10.4108235,62.5261357" id="Fill-4" fill="#FFFFFF"></path>
                        <path d="M46.3216471,22.9588416 C38.3723258,22.9630045 31.9144072,29.3870769 31.8921448,37.3126878 C31.8698824,45.2853575 38.3285249,51.7778462 46.2975747,51.7930498 C54.2660814,51.8082534 60.7766697,45.3309683 60.7844525,37.3800181 C60.7922353,29.4169412 54.3111493,22.9546787 46.3216471,22.9588416 M63.5663529,37.4386606 C63.6005611,46.7693394 55.8628235,54.5742262 46.5173032,54.6357647 C36.9375747,54.6987511 29.1415566,46.9995656 29.1066244,37.4410136 C29.0715113,27.9072579 36.7790226,20.1367602 46.2888869,20.1179367 C55.8483439,20.0991131 63.5308778,27.8008326 63.5663529,37.4386606" id="Fill-6" fill="#FFFFFF"></path>
                        <path d="M46.2633122,14.8541719 C34.0826787,14.8541719 21.9020452,14.8543529 9.72141176,14.853991 C8.21625339,14.853991 7.5599638,14.4078371 7.5878371,13.4072941 C7.61498643,12.4422262 8.231819,12.0451222 9.71960181,12.0453032 C34.1409593,12.0478371 58.5624977,12.050914 82.9838552,12.053991 C83.1346244,12.053991 83.2855747,12.051095 83.4361629,12.0561629 C84.4942624,12.091276 85.0783348,12.5890136 85.0770679,13.451819 C85.0758009,14.3120905 84.473086,14.8471131 83.4383348,14.85019 C79.79019,14.8610498 76.1420452,14.8586968 72.4939005,14.8590588 C63.750371,14.8597828 55.0068416,14.8592398 46.2633122,14.8592398 L46.2633122,14.8541719 Z" id="Fill-8" fill="#FFFFFF"></path>
                        <path d="M28.8622986,64.6354389 C33.5337919,64.6354389 38.2052851,64.63381 42.8767783,64.6388778 C43.2052851,64.6392398 43.5484525,64.6377919 43.8592217,64.7264796 C44.5088145,64.911638 44.8744253,65.3818643 44.8693575,66.0595113 C44.8644706,66.7342624 44.5044706,67.2048507 43.8456471,67.3782443 C43.5316199,67.4609593 43.1913484,67.4683801 42.8630226,67.4685611 C33.5198552,67.473086 24.1768688,67.472724 14.8338824,67.4694661 C14.5345158,67.4692851 14.2253756,67.471638 13.9375928,67.4024977 C13.2393122,67.2348959 12.849267,66.7737195 12.849448,66.0453937 C12.849629,65.311457 13.2626606,64.8618643 13.9499005,64.6937195 C14.2651946,64.6166154 14.608,64.6377919 14.9381357,64.6374299 C19.5795837,64.6343529 24.2208507,64.6354389 28.8622986,64.6354389" id="Fill-10" fill="#FFFFFF"></path>
                        <path d="M64.4666244,67.471457 C62.3272579,67.471457 60.1877104,67.472362 58.0483439,67.471095 C57.2508778,67.470552 56.6211946,67.2070226 56.4148597,66.353991 C56.1954932,65.4481086 56.84219,64.670552 57.8872579,64.6461176 C59.3028235,64.6128145 60.7196561,64.6361629 62.1359457,64.6354389 C65.0586606,64.633629 67.9815566,64.6245792 70.9044525,64.6341719 C71.9006516,64.6376109 72.4995656,65.1234027 72.5735928,65.9246697 C72.6573937,66.830914 71.9945882,67.4589683 70.884724,67.4669321 C68.7455385,67.4823167 66.605991,67.471457 64.4666244,67.471457" id="Fill-12" fill="#FFFFFF"></path>
                        <path d="M50.1714208,64.4703529 C50.724724,64.6824796 51.2794751,64.7782262 51.683638,65.0774118 C52.2959457,65.5306244 52.2742262,66.4399457 51.7516923,67.0037466 C51.12581,67.6790407 49.2193846,67.6888145 48.5728688,67.0202172 C48.0338643,66.4632941 47.9880724,65.5534299 48.6007421,65.0962353 C49.0248145,64.7798552 49.6121448,64.6826606 50.1714208,64.4703529" id="Fill-14" fill="#FFFFFF"></path>
                        <path d="M21.8492489,7.76653394 C21.8711493,8.58173756 21.2157647,9.26933937 20.3887964,9.29866063 C19.5516923,9.32852489 18.8669864,8.70915837 18.8244525,7.88363801 C18.7793846,7.01232579 19.4371222,6.31820814 20.3147692,6.31078733 C21.1449955,6.30372851 21.8273484,6.95114932 21.8492489,7.76653394" id="Fill-16" fill="#FFFFFF"></path>
                        <path d="M15.4220633,9.29882353 C14.5804344,9.30298643 13.9272217,8.66895928 13.9125611,7.83294118 C13.8971765,6.94986425 14.5598009,6.28868778 15.4450498,6.3038914 C16.2720181,6.31800905 16.9259548,6.98733032 16.9190769,7.81248869 C16.9120181,8.64633484 16.2591674,9.29466063 15.4220633,9.29882353" id="Fill-18" fill="#FFFFFF"></path>
                        <path d="M10.5239638,6.31176471 C11.3670407,6.32443439 11.9938281,6.96208145 11.995095,7.80859729 C11.996543,8.64515837 11.354552,9.29674208 10.5210679,9.30470588 C9.64921267,9.31303167 8.98296833,8.6321267 9.00613575,7.75628959 C9.02839819,6.91085973 9.67147511,6.29891403 10.5239638,6.31176471" id="Fill-20" fill="#FFFFFF"></path>
                        <path d="M44.5459005,41.3635656 C46.4619186,39.9813032 48.2293394,38.706371 50.083276,37.3689955 C48.2067149,36.0151493 46.4289774,34.7326154 44.5459005,33.3742443 L44.5459005,41.3635656 Z M41.6943167,37.3521629 C41.6943167,35.2741538 41.6964887,33.1963258 41.6930498,31.1184977 C41.6919638,30.4348778 41.7430045,29.7659186 42.4286154,29.3936109 C43.1493394,29.0021176 43.7495204,29.3293575 44.3386606,29.7559638 C47.1911493,31.8213032 50.0539548,33.8719819 52.9069864,35.9364163 C54.2358552,36.8978643 54.2479819,37.8386787 52.9442715,38.7814842 C50.042009,40.8804887 47.1294299,42.9650136 44.2297014,45.067638 C43.6794751,45.466552 43.1122353,45.6915294 42.4697014,45.3740633 C41.8139548,45.0499005 41.6865339,44.4314389 41.6868959,43.7664615 C41.6878009,41.628362 41.6872579,39.4902624 41.6872579,37.3521629 L41.6943167,37.3521629 Z" id="Fill-22" fill="#FFFFFF"></path>
                    </g>
                    <g id="Group-12" transform="translate(551.000000, 123.000000)">
                        <g id="Group-3" transform="translate(0.000000, 4.394531)">
                            <mask id="mask-8" fill="white">
                                <use xlink:href="#path-7"></use>
                            </mask>
                            <g id="Clip-2"></g>
                            <path d="M40.5615234,75.4482656 L6.83918208,75.4482656 C6.83929687,76.6094766 6.83894531,77.6894766 6.83947266,78.7694766 C6.84070313,81.6260977 8.11177734,82.9093008 10.9481836,82.9096523 C19.4656641,82.9108828 27.9829688,82.9121133 36.5004492,82.9056094 C36.995625,82.905082 37.5001172,82.8845156 37.984043,82.7904727 C39.2883398,82.5368203 40.4488477,81.4070742 40.5370898,80.1057656 C40.6413281,78.5694375 40.5615234,77.0206289 40.5615234,75.4482656 L40.5615234,75.4482656 Z M9.275625,85.6054336 C8.65142578,85.3679531 7.98785156,85.2013125 7.41023438,84.8799844 C5.22351563,83.6639297 4.15195313,81.7811367 4.15318359,79.268168 C4.15916016,67.2570352 4.15318359,55.2460781 4.15300781,43.2349453 C4.15283203,34.9737539 4.19115234,26.7122109 4.134375,18.4513711 C4.11679687,15.9037734 4.91800781,13.8756094 7.14480469,12.405375 C5.96285156,10.1820937 4.79021484,7.97691797 3.48855469,5.52846094 C3.22558594,7.08535547 3.00427734,8.39088281 2.78525391,9.69658594 C2.76099609,9.84090234 2.75519531,9.98838281 2.73005859,10.1323477 C2.53089844,11.2657852 1.96382812,11.7857461 1.08597656,11.6437148 C0.219199219,11.5034414 -0.138515625,10.8010195 0.0481640625,9.67144922 C0.491835938,6.98639062 0.931640625,4.30080469 1.355625,1.61258203 C1.59679688,0.0848671875 2.33208984,-0.335425781 3.74958984,0.304417969 C6.28189453,1.44769922 8.81103516,2.59801172 11.3368359,3.75535547 C12.3140039,4.20307031 12.6525586,4.92465234 12.2821875,5.6975625 C11.9139258,6.46555078 11.1680859,6.65627344 10.1861719,6.2150625 C8.83582031,5.60826562 7.49091797,4.98969141 5.94,4.28322656 C6.17220703,4.75783594 6.29771484,5.03539453 6.44080078,5.30363672 C9.81509766,11.6280703 13.1913281,17.951625 16.5673828,24.2751797 C16.6913086,24.5073867 16.8240234,24.7351992 16.9414453,24.9707461 C17.3877539,25.8649453 17.206875,26.6492812 16.4745703,27.0182461 C15.7489453,27.3836953 15.0043359,27.0880313 14.5330664,26.2098281 C12.6655664,22.7291836 10.8079102,19.2434414 8.94568359,15.7601602 C8.79539063,15.4789102 8.63824219,15.2013516 8.43205078,14.8272891 C7.28894531,15.5824453 6.84457031,16.6216641 6.84210938,17.8885195 C6.83560547,21.3159023 6.84017578,24.7434609 6.84017578,28.1710195 C6.84017578,42.6429141 6.84,57.1148086 6.83982422,71.5867031 L6.83982422,72.538207 L40.6017773,72.538207 L40.6017773,71.4334219 C40.6038867,53.8269961 40.6061719,36.2205703 40.6093359,18.6141445 C40.6093359,18.2629336 40.5838477,17.9055703 40.6381641,17.5617422 C40.7575195,16.8043008 41.190293,16.3321523 41.9950195,16.3418203 C42.8011523,16.3516641 43.2100195,16.8436758 43.3265625,17.5961953 C43.3708594,17.8828945 43.3464258,18.180668 43.3464258,18.4735195 C43.3471289,38.5700625 43.3474805,58.6666055 43.3467773,78.7631484 C43.3466016,82.4215078 41.889375,84.4034414 38.4076758,85.4941641 C38.3582813,85.5096328 38.3218945,85.5672891 38.2795313,85.6054336 L9.275625,85.6054336 Z" id="Fill-1" fill="#FFFFFF" mask="url(#mask-8)"></path>
                        </g>
                        <path d="M24.2169609,0 C24.4996172,0.24890625 24.8307891,0.460195312 25.0573711,0.752519531 C26.8151836,3.02080078 28.5635039,5.29664063 30.2919609,7.58742187 C31.0469414,8.58796875 30.619793,9.88400391 29.5009453,9.89138672 C29.0344219,9.894375 28.4432695,9.55019531 28.1203594,9.17964844 C27.2377617,8.16626953 26.4688945,7.05375 25.6513359,5.98341797 C25.5528984,5.85439453 25.4330156,5.74154297 25.1774297,5.461875 L25.1774297,6.68337891 C25.1774297,20.0701758 25.1776055,33.4569727 25.1761992,46.8437695 C25.1761992,47.1654492 25.1841094,47.4904688 25.1454375,47.8088086 C25.0549102,48.5539453 24.6005156,48.9621094 23.8692656,49.0222266 C23.1845977,49.0784766 22.5797344,48.5439258 22.480418,47.8207617 C22.4408672,47.5326563 22.4605547,47.2361133 22.4605547,46.9432617 C22.4614336,37.8917578 22.4633672,28.8402539 22.4649492,19.78875 C22.465125,19.4436914 22.465125,19.0986328 22.465125,18.6604102 C21.1611797,18.6604102 19.9398516,18.6616406 18.7186992,18.6600586 C17.3713359,18.6584766 16.0234453,18.6721875 14.6764336,18.6454688 C13.8499102,18.6291211 13.3241484,18.1023047 13.3049883,17.353125 C13.2849492,16.5675586 13.826707,15.9932813 14.6887383,15.9839648 C16.8854766,15.9604102 19.0825664,15.9713086 21.2794805,15.9684961 C21.6273516,15.9681445 21.9752227,15.9684961 22.3937578,15.9684961 L22.3937578,5.51408203 C22.1478398,5.81484375 21.9562383,6.03685547 21.7778203,6.2690625 C20.9746758,7.31355469 20.1954375,8.37738281 19.3669805,9.40148437 C18.857918,10.0306055 18.0763945,10.1075977 17.488582,9.66814453 C16.93575,9.25505859 16.7450273,8.4571875 17.1869414,7.86533203 C19.0438945,5.37890625 20.9381133,2.92042969 22.8268828,0.457910156 C22.9638164,0.279492187 23.1661406,0.151523438 23.3380547,0 L24.2169609,0 Z" id="Fill-4" fill="#FFFFFF"></path>
                        <path d="M14.581002,37.8145898 L14.581002,60.6698437 L32.9192051,60.6698437 L32.9192051,37.8172266 C31.7799668,37.8172266 30.6760605,37.8254883 29.5723301,37.8149414 C28.4965488,37.8047461 27.8906309,37.2974414 27.9083848,36.4466602 C27.9256113,35.6259375 28.5151816,35.1432422 29.5406895,35.1367383 C31.0640098,35.1270703 32.5875059,35.1200391 34.1108262,35.1332227 C35.181334,35.1423633 35.656998,35.6176758 35.657877,36.7013672 C35.6643809,45.0799805 35.6643809,53.4585938 35.6582285,61.8370313 C35.6573496,62.9500781 35.1651621,63.4383984 34.0387559,63.4394531 C27.1836387,63.4468359 20.3283457,63.4463086 13.4732285,63.440332 C12.3032285,63.4392773 11.7950449,62.9530664 11.7938145,61.7862305 C11.7841465,53.4371484 11.7837949,45.0878906 11.7945176,36.7386328 C11.7960996,35.6083594 12.2905723,35.1453516 13.4168027,35.1374414 C15.1157285,35.1253125 16.8150059,35.1228516 18.5141074,35.132168 C19.5070957,35.1376172 20.1202207,35.6742773 20.1093223,36.4899023 C20.0985996,37.3055273 19.4944395,37.8054492 18.4803574,37.8124805 C17.1987363,37.8214453 15.9169395,37.8145898 14.581002,37.8145898" id="Fill-6" fill="#FFFFFF"></path>
                        <path d="M42.0374707,8.77696875 C40.6085449,9.42525 39.1910449,10.1004258 37.747002,10.7128477 C36.6534668,11.1763828 35.582959,10.3948594 35.8385449,9.30325781 C35.9303027,8.91214453 36.2996191,8.45353125 36.6636621,8.27968359 C39.3283301,7.00737891 42.0184863,5.78745703 44.7125098,4.57720312 C45.7325684,4.11894141 46.5564551,4.52640234 46.7462988,5.61976172 C47.2571191,8.55970312 47.7283887,11.5068516 48.187002,14.455582 C48.3207715,15.3151523 47.832627,15.9455039 47.0602441,16.0453477 C46.2797754,16.1462461 45.6694629,15.6916758 45.5181152,14.8289414 C45.2472363,13.2861094 45.010459,11.7373008 44.7237598,9.970875 C44.4447949,10.4532187 44.2667285,10.7415 44.1072949,11.0399766 C40.7024121,17.4129258 37.2998145,23.7871055 33.8965137,30.1607578 C33.8001855,30.3414609 33.7096582,30.5255039 33.6055957,30.7016367 C33.1371387,31.4951133 32.3876074,31.7679258 31.6941504,31.4017734 C31.0022754,31.0365 30.7941504,30.2560312 31.2327246,29.4256406 C32.9402637,26.1923203 34.6671387,22.9691953 36.3868066,19.7420273 C36.5494043,19.4366953 36.7104199,19.1304844 36.9593262,18.6600937 C36.5235645,18.6600937 36.2235059,18.6602695 35.9232715,18.6600937 C33.667998,18.6583359 31.4125488,18.6609727 29.1572754,18.6525352 C28.1011816,18.648668 27.5465918,18.1974375 27.5247949,17.3554453 C27.5022949,16.4756602 28.0774512,15.9780234 29.1650098,15.9769687 C32.0353418,15.9741563 34.9056738,15.9926133 37.7758301,15.9736289 C38.0407324,15.9718711 38.437998,15.8366953 38.5478613,15.6382383 C39.7785059,13.4131992 40.9648535,11.1637266 42.1631543,8.92058203 L42.0374707,8.77696875 Z" id="Fill-8" fill="#FFFFFF"></path>
                        <path d="M23.741877,84.7765195 C23.0978145,84.7765195 22.4505879,84.8169492 21.8105684,84.7659727 C21.0622676,84.7063828 20.5491621,84.1175156 20.5584785,83.431793 C20.5676191,82.7473008 21.0986543,82.1385703 21.838166,82.1123789 C23.0960566,82.0675547 24.3576387,82.0670273 25.6157051,82.1090391 C26.3770137,82.1347031 26.8748262,82.7049375 26.887834,83.4173789 C26.9018965,84.1837852 26.4177949,84.6931992 25.5867012,84.7865391 C25.5286934,84.793043 25.4699824,84.7979648 25.411623,84.7981406 C24.8550996,84.7990195 24.2985762,84.798668 23.741877,84.798668 L23.741877,84.7765195 Z" id="Fill-10" fill="#FFFFFF"></path>
                    </g>
                </g>
            </g>
        </g>
    </g>
</svg>