<svg xmlns="http://www.w3.org/2000/svg" xmlns:xlink="http://www.w3.org/1999/xlink" width="1440" height="658" viewBox="0 0 1440 658">
    <defs>
        <filter id="prefix__a" width="100%" height="100%" x="0%" y="0%" filterUnits="objectBoundingBox">
            <feGaussianBlur in="SourceGraphic"/>
        </filter>
        <filter id="prefix__d" width="100%" height="100%" x="0%" y="0%" filterUnits="objectBoundingBox">
            <feGaussianBlur in="SourceGraphic"/>
        </filter>
        <linearGradient id="prefix__c" x1="100%" x2="0%" y1="42.602%" y2="42.602%">
            <stop offset="0%" stop-color="#FFF" stop-opacity="0"/>
            <stop offset="8.214%" stop-color="#FFF" stop-opacity=".516"/>
            <stop offset="47.872%" stop-color="#FFF"/>
            <stop offset="85.209%" stop-color="#FFF"/>
            <stop offset="87.887%" stop-color="#FFF"/>
            <stop offset="100%" stop-color="#FFF" stop-opacity="0"/>
        </linearGradient>
        <path id="prefix__b" d="M7.137 751L1037 1082 0 774.128 7.137 751zm19.218-54L1037 1082 18 719.695 26.355 697zm21.202-54L1037 1082 38 665.26 47.557 643zm25.166-52L1037 1082 62 612.716 72.723 591zm27.143-50L1037 1082 88 562.089 99.866 541zm30.106-49L1037 1082 117 512.425 129.972 492zm33.064-48L1037 1082 149 463.726 163.036 444zm35.03-45L1037 1082 183 417.933 198.067 399zm37.978-44L1037 1082 220 373.114 236.044 355zm39.938-42L1037 1082 259 330.243 275.982 313zm41.892-39L1037 1082 300 290.305 317.874 274zm43.846-37L1037 1082 343 252.327 361.72 237zm45.791-35L1037 1082 388 216.312 407.511 202zm47.732-32L1037 1082 435 183.25 455.243 170zm48.7-30L1037 1082 483 152.159 503.943 140zm51.587-27L1037 1082 534 124.028 555.53 113zm51.587-24L1037 1082 585 98.863 607.117 89zm53.493-22L1037 1082 638 75.678 660.61 67zm54.437-18L1037 1082 692 56.458 715.047 49zm55.374-16L1037 1082 747 39.226 770.42 33zm56.294-12L1037 1082 803 25.969 826.715 21zm57.177-10L1037 1082 860 14.703 883.892 11zm57.16-7L1037 1082 917 6.426 941.051 4zm57.213-3L1037 1082 974 2.141 998.265 1zM1032 0l24 .147-18.739 1076.491L1089.688 1 1114 2.436l-76.778 1076.448-.02 1.135L1146.92 6 1171 8.717l-133.805 1071.721-.006.354L1204.099 13 1228 16.993l-190.814 1063.97-.003.169L1260.391 23 1284 28.259l-246.819 1052.967-.002.104L1316.676 37 1340 43.506l-302.822 1037.883-.001.068L1372.048 53 1395 60.74l-357.824 1020.757-.001.047L1425.54 72l22.46 8.95-410.825 1000.624-.001.036L1479.028 94 1501 104.136l-463.826 977.497v.028L1530.612 119 1552 130.291l-514.827 951.389v.023L1581.235 147 1602 159.41l-564.828 922.308v.02L1630.9 177l20.1 13.503-613.828 891.248v.015L1677.663 210 1697 224.55l-659.828 857.227v.014L1723.455 246 1742 261.547 1037.172 1081.8v.012L1766.325 283 1784 299.525l-746.828 782.295v.011L1808.218 323 1825 340.442l-787.828 741.397v.009L1847.177 365 1863 383.315l-825.828 698.54v.009l847-672.864L1899 428.136l-861.828 653.734v.008L1919.202 456 1933 475.87l-895.828 606.014v.007L1951.28 503l12.72 20.603-926.828 558.294v.007L1980.397 553 1992 574.23l-954.828 507.679v.006L2007.539 604 2018 625.814l-980.828 456.106-.003.08-.003-.077-.166.077.166-.082v-.006l-.166.088.166-.093v-.007l-.166.1.166-.105v-.007l-.166.112.166-.118v-.008l-.166.126.166-.132v-.009l-.166.141.166-.147v-.009l-.166.156.166-.163v-.011l-.166.174.166-.182v-.011l-.166.193.166-.202v-.014l-.166.216.166-.226v-.015l-.166.241.166-.253v-.018l-.166.271.166-.285v-.022l-.166.307.166-.324v-.026l-.166.35.166-.371v-.034l-.166.405.166-.432v-.042l-.166.474.166-.51v-.058l-.166.568.165-.618v-.086l-.165.704.165-.78-.001-.133-.164.913.163-1.044-.001-.25L1037 1082l.16-1.568-.003-.64L1037 1082l.153-3.139L1032 0z"/>
    </defs>
    <g fill="none" fill-rule="evenodd" opacity=".035" transform="translate(-307 -327)">
        <path d="M307 327H1747V985H307z" filter="url(#prefix__a)"/>
        <mask id="prefix__e" fill="#fff">
            <use xlink:href="#prefix__b"/>
        </mask>
        <path fill="url(#prefix__c)" d="M307 327H1747V985H307z" filter="url(#prefix__d)" mask="url(#prefix__e)"/>
    </g>
</svg>
