<?xml version="1.0" encoding="UTF-8"?>
<svg width="36px" height="36px" viewBox="0 0 36 36" version="1.1" xmlns="http://www.w3.org/2000/svg" xmlns:xlink="http://www.w3.org/1999/xlink">
    <!-- Generator: Sketch 52.5 (67469) - http://www.bohemiancoding.com/sketch -->
    <title>bgm_pause_btn</title>
    <desc>Created with Sketch.</desc>
    <g id="wizlab-interface-1.1-v" stroke="none" stroke-width="1" fill="none" fill-rule="evenodd">
        <g id="guide-2" transform="translate(-309.000000, -742.000000)">
            <g id="Group-2-Copy-3" transform="translate(309.000000, 742.000000)">
                <g id="sound_pause_btn" transform="translate(0.500000, 0.500000)">
                    <rect id="Rectangle-3-Copy-22" fill="#1FB6FF" fill-rule="nonzero" transform="translate(17.500000, 17.500000) rotate(-360.000000) translate(-17.500000, -17.500000) " x="2.5" y="2.5" width="30" height="30" rx="15"></rect>
                    <path d="M20.8874809,24.8387097 C19.9560101,24.8387097 19.1935484,24.0762696 19.1935484,23.1444411 L19.1935484,12.9830548 C19.1935484,12.0523785 19.9560101,11.2903226 20.8874809,11.2903226 C21.8181835,11.2903226 22.5806452,12.0523785 22.5806452,12.9830548 L22.5806452,23.1444411 C22.5806452,24.0762696 21.8181835,24.8387097 20.8874809,24.8387097 M14.1125191,24.8387097 C13.1818165,24.8387097 12.4193548,24.0762696 12.4193548,23.1444411 L12.4193548,12.9830548 C12.4193548,12.0523785 13.1818165,11.2903226 14.1125191,11.2903226 C15.044374,11.2903226 15.8064516,12.0523785 15.8064516,12.9830548 L15.8064516,23.1444411 C15.8064516,24.0762696 15.044374,24.8387097 14.1125191,24.8387097 M17.5001985,0 C7.83978408,0 0,7.84119388 0,17.5001985 C0,27.1595999 7.83978408,35 17.5001985,35 C27.159819,35 35,27.1595999 35,17.5001985 C35,7.84119388 27.159819,0 17.5001985,0" id="Fill-1" fill="#F4F4F4"></path>
                </g>
            </g>
        </g>
    </g>
</svg>