<?xml version="1.0" encoding="UTF-8"?>
<svg width="24px" height="24px" viewBox="0 0 24 24" version="1.1" xmlns="http://www.w3.org/2000/svg" xmlns:xlink="http://www.w3.org/1999/xlink">
    <!-- Generator: Sketch 52.5 (67469) - http://www.bohemiancoding.com/sketch -->
    <title>bold_on</title>
    <desc>Created with Sketch.</desc>
    <g id="wizlab-interface-1.1-v" stroke="none" stroke-width="1" fill="none" fill-rule="evenodd">
        <g id="guide-2" transform="translate(-292.000000, -974.000000)" fill="#3A405B">
            <g id="Group-2-Copy-2" transform="translate(292.000000, 974.000000)">
                <g id="Group">
                    <g id="bold">
                        <path d="M9.25069932,16.9145712 L9.25069932,13.3948376 L13.1076799,13.3948376 C14.8194569,13.3948376 15.5779534,14.0569525 15.5779534,15.1320566 L15.5779534,15.1773522 C15.5779534,16.3670275 14.6891709,16.9145712 13.2160365,16.9145712 L9.25069932,16.9145712 Z M9.25069932,10.4679434 L9.25069932,7.08676103 L12.5439673,7.08676103 C13.9526037,7.08676103 14.7330295,7.68093256 14.7330295,8.73205662 L14.7330295,8.77735221 C14.7330295,9.96569525 13.8016784,10.4679434 12.327254,10.4679434 L9.25069932,10.4679434 Z M6,18.2401332 C6,19.2233139 6.73656719,20 7.6692083,20 L13.2160365,20 C16.6395905,20 18.8931507,18.5358868 18.8931507,15.611657 L18.8931507,15.5663614 C18.8931507,13.4174854 17.8095842,12.3437136 16.0552386,11.6349709 C17.138805,10.9955037 18.0482269,9.98967527 18.0482269,8.18451291 L18.0482269,8.1378851 C18.0482269,7.04013322 17.7012276,6.14887594 17.0085191,5.41748543 C16.1416659,4.50358035 14.7768882,4 13.0431819,4 L7.6692083,4 C6.73656719,4 6,4.77668609 6,5.75986678 L6,12.1660156 L6,18.2401332 Z" id="B"></path>
                    </g>
                </g>
            </g>
        </g>
    </g>
</svg>