<svg xmlns="http://www.w3.org/2000/svg" xmlns:xlink="http://www.w3.org/1999/xlink" width="30" height="30" viewBox="0 0 30 30">
    <defs>
        <path id="a" d="M0 .004h10.699v8.368H0z"/>
    </defs>
    <g fill="none" fill-rule="evenodd">
        <path fill="#8592A6" d="M16.777 17.819c-1.367-.004-2.599-.846-3.13-2.141-.534-1.302-.238-2.707.82-3.676 2.305-2.11 4.605-4.225 6.954-6.284.433-.38 1.077-.68 1.642-.714 1.31-.079 2.256 1.123 1.746 2.34-1.417 3.383-3.159 6.602-5.542 9.421-.62.734-1.507 1.065-2.49 1.054"/>
        <g transform="translate(5 16.551)">
            <mask id="b" fill="#fff">
                <use xlink:href="#a"/>
            </mask>
            <path fill="#8592A6" d="M.005 2.068c.637.417 1.182.799 1.751 1.141.54.324.972.245 1.22-.403C3.757.774 5.339-.01 7.409.005c.2.001.488.086.584.231.654.987 1.556 1.627 2.645 1.994.483 3.754-1.926 6.05-5.1 6.14-3.338.094-5.66-2.518-5.532-6.302" mask="url(#b)"/>
        </g>
    </g>
</svg>
