<svg xmlns="http://www.w3.org/2000/svg" width="33" height="32" viewBox="0 0 33 32">
    <g fill="none" fill-rule="evenodd">
        <g fill="#DDD">
            <g>
                <path d="M18.035 27.995l-8.616 4.529c-.488.257-1.093.069-1.35-.42-.102-.195-.138-.417-.1-.634l1.645-9.593c.055-.325-.052-.656-.288-.886l-6.97-6.793c-.395-.386-.403-1.02-.018-1.415.154-.157.355-.26.573-.291l9.632-1.4c.325-.047.607-.252.753-.547l4.307-8.728c.245-.495.844-.699 1.34-.454.197.097.356.257.454.454l4.307 8.728c.146.295.428.5.753.547l9.632 1.4c.547.08.926.587.846 1.133-.031.218-.134.419-.291.573l-6.97 6.793c-.236.23-.343.561-.288.886l1.646 9.593c.093.544-.273 1.061-.817 1.154-.217.038-.44.002-.634-.1l-8.616-4.53c-.291-.153-.639-.153-.93 0z" transform="translate(-37 -204) translate(35 203)"/>
            </g>
        </g>
    </g>
</svg>
