<svg xmlns="http://www.w3.org/2000/svg" width="110" height="34" viewBox="0 0 110 34">
    <g fill="none" fill-rule="evenodd">
        <rect width="108" height="32" x="1" y="1" fill="#FFF" stroke="#FF8225" rx="16"/>
        <path fill="#FF8225" fill-rule="nonzero" d="M32.6 21.611l-2.465-2.464c-.49-.49-1.303-.474-1.811.034l-1.242 1.241-.245-.136c-.784-.435-1.857-1.03-2.986-2.16-1.133-1.133-1.729-2.207-2.164-2.992l-.134-.24.833-.831.41-.41c.509-.51.523-1.322.033-1.812l-2.464-2.465c-.49-.49-1.303-.475-1.812.034l-.695.698.02.02c-.234.296-.428.64-.573 1.009a4.185 4.185 0 0 0-.255 1.024c-.325 2.697.908 5.163 4.253 8.509 4.625 4.624 8.352 4.274 8.513 4.257.35-.041.685-.125 1.026-.258a4.003 4.003 0 0 0 1.006-.57l.015.014.704-.689c.508-.509.522-1.322.033-1.813z"/>
        <text fill="#FF8225" font-family="NotoSansCJKkr-Medium, Noto Sans CJK KR" font-size="14" font-weight="400">
            <tspan x="41" y="20">문의하기</tspan>
        </text>
    </g>
</svg>
