<svg xmlns="http://www.w3.org/2000/svg" width="15" height="15" viewBox="0 0 15 15">
    <path fill="#000" fill-rule="nonzero" d="M15.6 12.647l-2.465-2.471c-.49-.49-1.303-.476-1.811.034l-1.242 1.245-.245-.137c-.784-.436-1.857-1.033-2.986-2.166-1.133-1.136-1.729-2.214-2.164-3-.046-.084-.09-.164-.134-.24l.833-.835.41-.411c.509-.51.523-1.325.033-1.817L3.365.377C2.875-.114 2.062-.1 1.553.41l-.695.7.02.02a4.031 4.031 0 0 0-.573 1.012c-.134.353-.217.69-.255 1.027-.325 2.705.908 5.178 4.253 8.533 4.625 4.638 8.352 4.287 8.513 4.27.35-.042.685-.126 1.026-.259a4 4 0 0 0 1.006-.571l.015.014.704-.691c.508-.51.522-1.326.033-1.819z" opacity=".5"/>
</svg>
