<svg xmlns="http://www.w3.org/2000/svg" width="24" height="24" viewBox="0 0 24 24">
    <g fill="#4A4A4A" fill-rule="nonzero" stroke="#4A4A4A">
        <path d="M6.268 18.08c-.425 0-.824.007-1.22 0-1.038-.019-1.846-.71-2.02-1.732-.022-.135-.022-.272-.022-.41C3 14.37 3 12.805 3 11.235c0-1.28.872-2.146 2.152-2.146h6.367c1.21 0 2.098.875 2.101 2.084.006 1.604.006 3.21 0 4.813-.006 1.018-.619 1.805-1.575 2.033-.18.042-.371.056-.557.06-.692.005-1.386 0-2.078.008a.565.565 0 0 0-.293.087c-.709.464-1.415.936-2.118 1.409-.166.112-.331.18-.52.073-.183-.101-.214-.273-.21-.464.002-.36 0-.723 0-1.111zm.819.45c.084-.05.143-.083.2-.12.508-.34 1.012-.686 1.526-1.012a.875.875 0 0 1 .434-.13c.742-.014 1.485-.006 2.227-.006.824 0 1.33-.503 1.33-1.33.003-1.274 0-2.548 0-3.82 0-.362.014-.725-.014-1.085-.05-.65-.562-1.11-1.212-1.114a2516.48 2516.48 0 0 0-6.516 0c-.712 0-1.238.512-1.244 1.224-.01 1.637-.01 3.27 0 4.908.006.711.538 1.215 1.25 1.217.505.003 1.012 0 1.515 0 .349 0 .5.155.5.504.006.245.004.492.004.765z"/>
        <path d="M16.897 14.442c0-.299-.003-.555 0-.81.005-.307.154-.456.466-.456.507-.003 1.013 0 1.516 0 .757-.003 1.283-.526 1.283-1.285.003-1.592.003-3.184 0-4.776 0-.768-.506-1.285-1.274-1.288-2.14-.006-4.284-.006-6.424-.003-.79.003-1.288.52-1.29 1.31 0 .231.002.462 0 .693-.006.264-.172.441-.409.441-.236 0-.413-.174-.407-.441.01-.43-.012-.87.075-1.283a1.953 1.953 0 0 1 1.888-1.533 582.14 582.14 0 0 1 6.648-.003c1.156.006 2.014.923 2.017 2.115.003 1.581.003 3.159-.003 4.74 0 .174-.014.351-.053.52-.217.956-1.016 1.597-2.011 1.611-.394.006-.785 0-1.198 0-.003.08-.009.144-.009.211 0 .318-.003.636 0 .957 0 .18-.05.334-.225.419-.163.078-.312.047-.458-.051-.203-.138-.405-.27-.608-.405l-1.774-1.184c-.147-.099-.231-.234-.203-.41.025-.17.124-.31.29-.327.13-.014.29.02.4.09.53.338 1.051.692 1.577 1.04.048.029.101.057.186.108z"/>
    </g>
</svg>
