<?xml version="1.0" encoding="UTF-8"?>
<svg width="18px" height="18px" viewBox="0 0 18 18" version="1.1" xmlns="http://www.w3.org/2000/svg" xmlns:xlink="http://www.w3.org/1999/xlink">
    <!-- Generator: Sketch 60 (88103) - https://sketch.com -->
    <title>checkbox_on_btn</title>
    <desc>Created with Sketch.</desc>
    <g id="결제-0522" stroke="none" stroke-width="1" fill="none" fill-rule="evenodd">
        <g id="price-list-camps" transform="translate(-936.000000, -1771.000000)">
            <g id="Group-5" transform="translate(397.000000, 1377.000000)">
                <g id="checkbox_on" transform="translate(536.000000, 391.000000)">
                    <rect id="bounds" x="0" y="0" width="24" height="24"></rect>
                    <path d="M19,3 L5,3 C3.9,3 3,3.9 3,5 L3,19 C3,20.1 3.9,21 5,21 L19,21 C20.1,21 21,20.1 21,19 L21,5 C21,3.9 20.1,3 19,3 L19,3 Z M10,17 L5,12.1923077 L6.4,10.8461538 L10,14.3076923 L17.6,7 L19,8.34615385 L10,17 L10,17 Z" id="Shape" fill="#23D8AF"></path>
                </g>
            </g>
        </g>
    </g>
</svg>