<?xml version="1.0" encoding="UTF-8"?>
<svg width="30px" height="30px" viewBox="0 0 30 30" version="1.1" xmlns="http://www.w3.org/2000/svg" xmlns:xlink="http://www.w3.org/1999/xlink">
    <!-- Generator: Sketch 54.1 (76490) - https://sketchapp.com -->
    <title>choice-on</title>
    <desc>Created with Sketch.</desc>
    <g id="1-1-ver" stroke="none" stroke-width="1" fill="none" fill-rule="evenodd">
        <g id="wizclass-community-board(me)" transform="translate(-1068.000000, -1365.000000)">
            <g id="Group-3-Copy" transform="translate(320.000000, 1325.000000)">
                <g id="Search-Copy-11" transform="translate(0.000000, 20.000000)">
                    <g id="Group-3" transform="translate(746.000000, 20.000000)">
                        <g id="tag-copy-4" transform="translate(2.000000, 0.000000)" fill="#23D8AF">
                            <rect id="Rectangle" x="0" y="0" width="30" height="30" rx="15"></rect>
                        </g>
                        <g id="check-simbol" transform="translate(7.000000, 6.000000)" fill="#FFFFFF" fill-rule="nonzero">
                            <path d="M6.15642485,12.5149432 C6.55271725,12.1199202 6.91632574,11.7493315 7.28401972,11.3828152 C10.1683747,8.50362642 13.0568152,5.62851 15.9452557,2.74932117 C16.8072938,1.89004417 18.0533678,1.75565487 18.9971157,2.41945654 C20.1982493,3.26244393 20.3453269,4.94027391 19.3035273,5.99095385 C18.3720359,6.92760651 17.4323735,7.86018676 16.4967966,8.79276702 C13.7431773,11.5375665 10.9813869,14.2823661 8.23593858,17.0353104 C7.71299603,17.556578 7.13694213,17.9393838 6.38112673,17.9923251 C5.55994351,18.0493387 4.86132495,17.7887049 4.27710007,17.2104237 C3.08413739,16.0212821 1.88708921,14.8321405 0.698212018,13.6389264 C-0.221022929,12.714491 -0.233279395,11.2565708 0.665528108,10.3565697 C1.59293403,9.42806187 3.0432825,9.41584466 3.99111587,10.3443525 C4.71016187,11.0448058 5.41695141,11.7696935 6.15642485,12.5149432 Z" id="Path"></path>
                            <path d="M9.66657067,3.32934661 C9.52372724,3.32934661 9.38496505,3.33831674 9.24212162,3.32934661 C8.9197036,3.30692127 8.66666667,3.01539187 8.66666667,2.67004165 C8.66666667,2.32020637 8.90745987,2.02867697 9.23804038,2.0107367 C9.519646,1.9972815 9.80125161,1.9972815 10.0828572,2.00625163 C10.4093565,2.01970684 10.6623934,2.30675117 10.6664747,2.64761631 C10.6746371,3.00193666 10.4216002,3.29795113 10.0869385,3.32486154 C9.94817628,3.33831674 9.8094141,3.32934661 9.66657067,3.32934661 C9.66657067,3.32934661 9.66657067,3.32934661 9.66657067,3.32934661 Z" id="Path"></path>
                            <path d="M13.0080434,2.00399016 C13.1508554,2.00399016 13.2895872,1.99501231 13.4323992,2.00399016 C13.7465858,2.02643478 13.9914065,2.30474812 13.9995671,2.64141748 C14.0118082,2.97808683 13.7629072,3.29680049 13.4446403,3.31924512 C13.1508554,3.33720082 12.8489099,3.33720082 12.5551251,3.32373404 C12.2368582,3.30577834 11.9920375,2.99604253 12.0001982,2.65039532 C12.0083589,2.31372597 12.2450189,2.03541263 12.5632858,2.00847908 C12.7101782,1.99501231 12.8570706,2.00847908 13.0080434,2.00399016 C13.0080434,2.00399016 13.0080434,2.00399016 13.0080434,2.00399016 Z" id="Path"></path>
                            <path d="M11.9941834,0.996784904 C11.9941834,1.14346587 12.0032719,1.29422131 11.9941834,1.44090228 C11.9714621,1.7505621 11.7033515,1.98280697 11.3716215,1.99910486 C11.0398914,2.01540274 10.7217941,1.8076047 10.6899844,1.50201935 C10.6581746,1.16383823 10.6581746,0.821582636 10.6945286,0.483401514 C10.7263383,0.181890634 11.0626126,-0.0259074045 11.3897985,0.00261389491 C11.730617,0.0311351943 11.9805506,0.263380061 11.9987276,0.577114355 C12.0032719,0.715646381 11.9941834,0.858252878 11.9941834,0.996784904 C11.9941834,0.996784904 11.9941834,0.996784904 11.9941834,0.996784904 Z" id="Path"></path>
                            <path d="M4.00449312,4.32514014 C4.00449312,4.18992276 4,4.05880287 4.00449312,3.92358549 C4.0224656,3.58759078 4.28755967,3.34583848 4.63802303,3.33354599 C4.98848638,3.325351 5.29401853,3.5548108 5.31648413,3.88261052 C5.33894973,4.17763027 5.33894973,4.48084501 5.31648413,4.77586476 C5.29401853,5.10776198 4.9929795,5.34131928 4.64251615,5.33312428 C4.28306655,5.32492929 4.01347936,5.07088451 4,4.7266948 C4,4.59557491 4.00449312,4.46035753 4.00449312,4.32514014 C4.00449312,4.32514014 4.00449312,4.32514014 4.00449312,4.32514014 Z" id="Path"></path>
                            <path d="M6.32516968,6.66213922 C6.19048246,6.66213922 6.05987668,6.66666667 5.92518946,6.66213922 C5.58234928,6.64402943 5.32930058,6.35427278 5.33338201,5.99660441 C5.33746344,5.63893605 5.59459357,5.35370685 5.93335233,5.3401245 C6.19864532,5.33106961 6.46801975,5.33106961 6.73331275,5.3401245 C7.07615293,5.35370685 7.32920164,5.63893605 7.33328307,5.99660441 C7.3373645,6.35880023 7.09247866,6.64402943 6.74555704,6.66666667 C6.6067884,6.66666667 6.46801975,6.66213922 6.32516968,6.66213922 C6.32516968,6.66213922 6.32516968,6.66213922 6.32516968,6.66213922 Z" id="Path"></path>
                            <path d="M16.6621735,12.9856167 C16.6621735,13.128136 16.6666667,13.2665833 16.6621735,13.4091026 C16.6442011,13.7430049 16.379107,13.9873236 16.0286436,13.9995396 C15.6781803,14.0117555 15.3726481,13.7796527 15.3501825,13.4498224 C15.3277169,13.1566399 15.3277169,12.8593854 15.3501825,12.5621309 C15.3726481,12.2363726 15.6826734,11.9920538 16.0196574,12.0001978 C16.3746139,12.0083417 16.6531873,12.2689484 16.6666667,12.6069227 C16.6666667,12.733154 16.6621735,12.8593854 16.6621735,12.9856167 C16.6621735,12.9856167 16.6621735,12.9856167 16.6621735,12.9856167 Z" id="Path"></path>
                            <path d="M14.31073,15.3293229 C14.1763458,15.3293229 14.0419615,15.3338346 13.9116495,15.3293229 C13.5817972,15.3112757 13.3374622,15.0315451 13.33339,14.679626 C13.3293177,14.3322186 13.545147,14.0389526 13.870927,14.0163937 C14.180418,13.9938348 14.4939813,13.9938348 14.8034723,14.0209055 C15.1170356,14.0434644 15.3450816,14.3547775 15.3328649,14.6931613 C15.3206481,15.0270333 15.0722408,15.3067639 14.7586776,15.3293229 C14.6080043,15.3383464 14.4614033,15.3293229 14.31073,15.3293229 C14.31073,15.3293229 14.31073,15.3293229 14.31073,15.3293229 Z" id="Path"></path>
                            <path d="M16.6646677,16.331649 C16.6646677,16.4665628 16.6691654,16.5973882 16.6646677,16.7323019 C16.6511744,17.079807 16.3768116,17.329193 16.0124938,17.3332813 C15.6616692,17.3373696 15.3693153,17.1002485 15.3468266,16.7690966 C15.3288356,16.4788276 15.3288356,16.1885587 15.3468266,15.9023781 C15.3693153,15.5630496 15.6796602,15.3177519 16.0349825,15.3341051 C16.3903048,15.3504583 16.6466767,15.5916677 16.6646677,15.9309961 C16.6691654,16.0618216 16.6646677,16.1967353 16.6646677,16.331649 C16.6646677,16.331649 16.6646677,16.331649 16.6646677,16.331649 Z" id="Path"></path>
                            <path d="M2.99579931,6.66265294 C2.85646936,6.66265294 2.71304148,6.67168383 2.57371153,6.66265294 C2.24177843,6.64007571 2,6.36011807 2,6.00339785 C2,5.65119307 2.24177843,5.36220454 2.5696136,5.34414275 C2.85237142,5.33059642 3.13512925,5.33059642 3.41788708,5.33962731 C3.74982018,5.35317365 3.99569655,5.63313129 3.99979449,5.98533606 C4.00799037,6.35560262 3.77030988,6.63104482 3.41788708,6.65813749 C3.27855713,6.66716838 3.13512925,6.66265294 2.99579931,6.66265294 C2.99579931,6.66265294 2.99579931,6.66265294 2.99579931,6.66265294 Z" id="Path"></path>
                            <path d="M4.0044987,7.68686365 C4.0044987,7.54410178 4,7.40541881 4.0044987,7.26265694 C4.01799478,6.93226517 4.2924152,6.6793727 4.63431606,6.66713597 C4.96272082,6.65489924 5.28662689,6.88331824 5.31361907,7.19331545 C5.34061124,7.51147049 5.34061124,7.83370444 5.30912037,8.14778056 C5.2776295,8.4659356 4.96272082,8.68211787 4.62531867,8.66580223 C4.27442042,8.64948658 4.01349609,8.40067303 4,8.06620235 C4,7.93975612 4.0044987,7.81330988 4.0044987,7.68686365 C4.0044987,7.68686365 4.0044987,7.68686365 4.0044987,7.68686365 Z" id="Path"></path>
                            <path d="M18.3358106,15.329301 C18.1886352,15.329301 18.0373715,15.3383738 17.890196,15.329301 C17.5876686,15.3066191 17.3464644,15.0298998 17.3341997,14.7032803 C17.3178469,14.3539789 17.5345219,14.0455049 17.8534021,14.0182866 C18.1763705,13.9910683 18.5075154,13.9956047 18.8304838,14.022823 C19.1289229,14.0500413 19.3333333,14.3403698 19.3333333,14.6715256 C19.3333333,15.0072179 19.1043937,15.2975463 18.8059545,15.329301 C18.6465144,15.3383738 18.4911625,15.3247646 18.3358106,15.329301 C18.3358106,15.3247646 18.3358106,15.329301 18.3358106,15.329301 Z" id="Path"></path>
                            <path d="M11.9941834,4.34740321 C11.9941834,4.4862989 12.0032719,4.62927976 11.9941834,4.76817545 C11.9714621,5.08273333 11.7215285,5.3115027 11.3761657,5.33192853 C11.0444357,5.35235437 10.7172498,5.14809601 10.6899844,4.84579362 C10.6581746,4.50672474 10.6581746,4.16357068 10.6945286,3.8245018 C10.7263383,3.51402908 11.0444357,3.31794105 11.38071,3.33428172 C11.7169843,3.35470755 11.9760064,3.58756209 11.9987276,3.89803481 C12.0032719,4.049186 11.9941834,4.20033719 11.9941834,4.34740321 C11.9941834,4.34740321 11.9941834,4.34740321 11.9941834,4.34740321 Z" id="Path"></path>
                        </g>
                    </g>
                </g>
            </g>
        </g>
    </g>
</svg>