<?xml version="1.0" encoding="UTF-8"?>
<svg width="24px" height="24px" viewBox="0 0 24 24" version="1.1" xmlns="http://www.w3.org/2000/svg" xmlns:xlink="http://www.w3.org/1999/xlink">
    <!-- Generator: Sketch 52.5 (67469) - http://www.bohemiancoding.com/sketch -->
    <title>close_bk_btn</title>
    <desc>Created with Sketch.</desc>
    <defs>
        <polygon id="path-1" points="0 0 24 0 24 24.0012314 0 24.0012314"></polygon>
        <polygon id="path-3" points="0 0 24 0 24 24.0012314 0 24.0012314"></polygon>
    </defs>
    <g id="wizlab-interface-1.1-v" stroke="none" stroke-width="1" fill="none" fill-rule="evenodd">
        <g id="QRcode" transform="translate(-1121.000000, -155.000000)">
            <g id="Group" transform="translate(760.000000, 140.000000)">
                <g id="close" transform="translate(361.000000, 15.000000)">
                    <mask id="mask-2" fill="white">
                        <use xlink:href="#path-1"></use>
                    </mask>
                    <g id="Clip-2"></g>
                    <mask id="mask-4" fill="white">
                        <use xlink:href="#path-3"></use>
                    </mask>
                    <g id="Clip-2"></g>
                    <path d="M16.2999333,16.3009594 C15.9100097,16.6888307 15.2789493,16.6888307 14.8910779,16.3009594 L12.0005131,13.4114207 L9.10994818,16.3009594 C8.72105074,16.6888307 8.08999025,16.6888307 7.7000667,16.3009594 C7.31014314,15.9110359 7.31014314,15.2820276 7.7000667,14.892104 L10.5896055,12.0015392 L7.7000667,9.10994818 C7.31014314,8.72207686 7.31014314,8.09101637 7.7000667,7.70211893 C8.08999025,7.31116926 8.72105074,7.31116926 9.10994818,7.70211893 L12.0005131,10.5926838 L14.8910779,7.70211893 C15.2789493,7.31116926 15.9100097,7.31116926 16.2999333,7.70211893 C16.6898569,8.09101637 16.6898569,8.72207686 16.2999333,9.10994818 L13.4114207,12.0015392 L16.2999333,14.892104 C16.6795957,15.2697142 16.6795957,15.9110359 16.2999333,16.3009594 M2,12.0015392 C2,17.5302447 6.47078139,22.0010261 12.0005131,22.0010261 C17.5281925,22.0010261 22,17.5302447 22,12.0015392 C22,6.4718075 17.5281925,2 12.0005131,2 C6.47078139,2 2,6.4718075 2,12.0015392 Z" id="Fill-1" fill="#3A405B" mask="url(#mask-4)"></path>
                </g>
            </g>
        </g>
    </g>
</svg>