<svg xmlns="http://www.w3.org/2000/svg" width="24" height="24" viewBox="0 0 24 24">
    <g fill="none" fill-rule="evenodd">
        <path d="M0 0H24V24H0z"/>
        <path fill="#FFF" fill-rule="nonzero" d="M2.548 2.548c.197-.197.517-.197.715 0L12 11.285l8.737-8.737c.198-.197.518-.197.715 0 .197.197.197.517 0 .715L12.715 12l8.737 8.737c.175.176.195.448.058.645l-.058.07c-.197.197-.517.197-.715 0L12 12.715l-8.737 8.737c-.198.197-.518.197-.715 0-.197-.197-.197-.517 0-.715L11.285 12 2.548 3.263c-.175-.176-.195-.448-.058-.645z"/>
    </g>
</svg>
