<svg xmlns="http://www.w3.org/2000/svg" width="40" height="40" viewBox="0 0 40 40">
    <g fill="none" fill-rule="evenodd">
        <path d="M0 0H40V40H0z"/>
        <path fill="#222" fill-rule="nonzero" d="M9.97 9.97c.293-.293.767-.293 1.06 0L20 18.939l8.97-8.97c.293-.292.767-.292 1.06 0 .267.267.29.684.073.977l-.073.084L21.061 20l8.97 8.97.072.084c.218.293.194.71-.073.976-.293.293-.767.293-1.06 0L20 21.061l-8.97 8.97c-.293.292-.767.292-1.06 0-.267-.267-.29-.684-.073-.977l.073-.084L18.939 20l-8.97-8.97-.072-.084c-.218-.293-.194-.71.073-.976z" opacity=".5"/>
    </g>
</svg>
