<svg xmlns="http://www.w3.org/2000/svg" width="142" height="142" viewBox="0 0 142 142">
    <defs>
        <filter id="a" width="133.1%" height="128.8%" x="-16.6%" y="-14.4%" filterUnits="objectBoundingBox">
            <feOffset dy="10" in="SourceAlpha" result="shadowOffsetOuter1"/>
            <feGaussianBlur in="shadowOffsetOuter1" result="shadowBlurOuter1" stdDeviation="10"/>
            <feColorMatrix in="shadowBlurOuter1" result="shadowMatrixOuter1" values="0 0 0 0 0 0 0 0 0 0 0 0 0 0 0 0 0 0 0.1 0"/>
            <feMerge>
                <feMergeNode in="shadowMatrixOuter1"/>
                <feMergeNode in="SourceGraphic"/>
            </feMerge>
        </filter>
    </defs>
    <g fill="none" fill-rule="evenodd" filter="url(#a)">
        <path fill="#FFBD1F" d="M-59 118.605L120.605-61l35.355 35.355L-23.645 153.96z"/>
        <path fill="#FFF" fill-rule="nonzero" d="M13.77 75.737c-.732.732-1.04 1.564-.922 2.495.117.932.631 1.854 1.544 2.766.92.92 1.825 1.449 2.715 1.584.89.136 1.728-.188 2.512-.973.34-.34.637-.709.894-1.108.256-.4.498-.834.724-1.302l1.233 1.234a7.01 7.01 0 0 1-.707 1.295 9.35 9.35 0 0 1-1.07 1.25c-.829.83-1.687 1.345-2.573 1.545-.886.2-1.773.12-2.659-.238-.886-.358-1.748-.956-2.585-1.793-.815-.815-1.386-1.68-1.714-2.597a4.802 4.802 0 0 1-.17-2.76c.215-.924.734-1.797 1.556-2.62a7.623 7.623 0 0 1 1.34-1.069c.487-.305.99-.544 1.51-.718l.691 1.686c-.415.158-.826.34-1.233.543-.407.203-.77.464-1.086.78zm12.977-5.193c1.018 1.019 1.54 2.069 1.567 3.151.026 1.083-.413 2.076-1.319 2.982-.558.558-1.18.931-1.866 1.12-.687.188-1.392.17-2.116-.057-.724-.226-1.425-.679-2.104-1.358-1.019-1.018-1.539-2.062-1.562-3.134-.022-1.07.419-2.059 1.324-2.964.566-.565 1.19-.944 1.873-1.137.682-.192 1.384-.177 2.104.046.72.222 1.42.673 2.099 1.351zm-4.379 4.379c.649.649 1.265 1.035 1.85 1.16.585.124 1.133-.07 1.646-.583.505-.505.698-1.052.577-1.64-.12-.589-.505-1.207-1.154-1.856-.649-.649-1.263-1.03-1.844-1.143-.58-.113-1.128.087-1.64.6-.513.513-.71 1.056-.589 1.63.12.572.506 1.183 1.154 1.832zm9.707-16.043c.694-.694 1.394-1.039 2.099-1.035.705.004 1.454.401 2.246 1.193l3.994 3.994-1.426 1.426-3.722-3.722c-.913-.913-1.716-1.023-2.41-.329-.498.498-.69 1.015-.577 1.55.113.536.479 1.113 1.097 1.731l3.19 3.19-1.425 1.426-3.722-3.722c-.912-.912-1.72-1.018-2.421-.317-.52.52-.698 1.06-.532 1.618.166.558.585 1.173 1.256 1.844l2.998 2.999-1.425 1.425-6.132-6.132 1.097-1.097 1.007.6.08-.08a2.396 2.396 0 0 1 .073-1.465c.177-.472.443-.884.797-1.239.46-.46.922-.771 1.386-.933.464-.163.945-.16 1.443.005l.113-.113a2.368 2.368 0 0 1 .068-1.516c.188-.49.471-.924.848-1.3zm2.342-6.845c.211-.21.451-.341.719-.39.267-.05.54.066.82.345.279.28.396.554.35.826a1.314 1.314 0 0 1-.384.724 1.304 1.304 0 0 1-.73.39c-.267.042-.54-.077-.82-.356-.279-.28-.396-.55-.35-.815.045-.264.177-.505.395-.724zm3.078 1.652l6.132 6.132-1.426 1.426-6.132-6.132 1.426-1.426zm4.989-5.216c.686-.686 1.401-1.046 2.144-1.08.743-.034 1.51.345 2.302 1.137l3.994 3.994-1.426 1.425-3.71-3.71c-.46-.46-.896-.715-1.307-.764-.411-.05-.813.122-1.205.514-.573.574-.784 1.147-.634 1.72.151.573.562 1.196 1.234 1.867l2.998 2.998-1.426 1.426-6.132-6.132 1.098-1.098 1.006.6.08-.08a2.45 2.45 0 0 1 .113-1.504c.196-.49.486-.928.871-1.313zm6.041-6.041c.792-.792 1.701-1.098 2.727-.916l.057-.057-.657-.928 1.188-1.188 6.178 6.178c.875.874 1.293 1.783 1.256 2.726-.038.943-.551 1.908-1.54 2.896-.437.438-.868.813-1.295 1.126a6.52 6.52 0 0 1-1.34.764l-1.177-1.177c.498-.196.986-.45 1.465-.763a8.524 8.524 0 0 0 1.364-1.115c.46-.46.684-.945.673-1.454-.012-.509-.266-1.012-.764-1.51l-.158-.158a11.39 11.39 0 0 1-.385-.408 4.676 4.676 0 0 1-.328-.396l-.045.046c.105.528.079 1.018-.08 1.47-.158.453-.43.871-.814 1.256-.747.747-1.61 1.052-2.591.917-.98-.136-1.969-.702-2.964-1.697-.996-.996-1.563-1.99-1.703-2.982-.14-.991.172-1.868.933-2.63zm1.54.792c-.89.89-.653 2.017.712 3.383 1.342 1.342 2.466 1.561 3.371.656.498-.498.728-1.003.69-1.516-.037-.513-.384-1.098-1.04-1.754l-.215-.215c-.724-.724-1.364-1.125-1.918-1.205-.554-.079-1.088.138-1.6.65zm15.295-9.549c.717.717 1.022 1.543.917 2.478-.106.935-.619 1.863-1.539 2.783-.89.89-1.795 1.493-2.715 1.81l-1.358-1.357c.49-.189 1.003-.427 1.539-.713a6.018 6.018 0 0 0 1.425-1.052c.49-.49.75-.943.78-1.358a1.322 1.322 0 0 0-.406-1.075c-.332-.332-.741-.454-1.228-.368-.486.087-1.122.289-1.906.606a7.99 7.99 0 0 1-1.46.452 3.49 3.49 0 0 1-1.504-.011c-.498-.113-.977-.4-1.437-.86-.687-.686-.983-1.469-.888-2.347.094-.88.548-1.726 1.363-2.54a7.35 7.35 0 0 1 1.34-1.07 8.91 8.91 0 0 1 1.51-.74l.702 1.629c-.482.196-.918.405-1.306.627a5.074 5.074 0 0 0-1.07.82c-.392.393-.603.778-.633 1.155-.03.377.098.709.385.995.218.22.462.35.73.39.267.042.584.008.95-.101.366-.11.82-.27 1.363-.481a9.531 9.531 0 0 1 1.708-.52 3.164 3.164 0 0 1 1.437.034c.445.12.879.392 1.301.814zm5.997-7.738c1.018 1.018 1.54 2.068 1.566 3.15.027 1.083-.412 2.076-1.318 2.982-.558.558-1.18.931-1.866 1.12-.687.188-1.392.17-2.116-.057-.724-.226-1.425-.679-2.104-1.358-1.019-1.018-1.539-2.062-1.562-3.133-.022-1.072.419-2.06 1.324-2.965.566-.565 1.19-.944 1.873-1.137.682-.192 1.384-.177 2.104.046.72.222 1.42.673 2.099 1.352zm-4.379 4.378c.649.649 1.265 1.035 1.85 1.16.584.124 1.133-.07 1.646-.583.505-.505.698-1.052.577-1.64-.12-.589-.505-1.207-1.154-1.856-.649-.649-1.263-1.03-1.844-1.143-.58-.113-1.128.087-1.64.6-.513.513-.71 1.056-.589 1.63.12.572.505 1.183 1.154 1.832zm11.325-11.325c1.018 1.018 1.54 2.068 1.567 3.15.027 1.083-.413 2.077-1.318 2.982-.558.558-1.18.931-1.867 1.12-.686.189-1.391.17-2.115-.057-.724-.226-1.426-.678-2.105-1.357-1.018-1.018-1.538-2.063-1.561-3.134-.023-1.071.419-2.06 1.324-2.964.565-.566 1.19-.945 1.872-1.137.683-.193 1.384-.178 2.104.045.72.222 1.42.673 2.1 1.352zm-4.378 4.378c.648.649 1.265 1.036 1.85 1.16.584.124 1.133-.07 1.646-.583.505-.505.697-1.052.577-1.64-.121-.588-.506-1.207-1.154-1.856-.649-.648-1.264-1.03-1.844-1.142-.581-.113-1.128.086-1.64.6-.514.512-.71 1.055-.59 1.629.121.573.506 1.184 1.155 1.832zm5.962-12.298c.686-.686 1.401-1.046 2.144-1.08.743-.034 1.51.345 2.302 1.137l3.994 3.994-1.425 1.425-3.711-3.71c-.46-.46-.896-.715-1.307-.764-.411-.05-.813.122-1.205.514-.573.574-.784 1.147-.634 1.72.151.573.562 1.196 1.234 1.867l2.998 2.998-1.426 1.425-6.132-6.132 1.098-1.097 1.007.6.079-.08a2.45 2.45 0 0 1 .113-1.504c.196-.49.486-.928.871-1.313z"/>
    </g>
</svg>
