<?xml version="1.0" encoding="UTF-8"?>
<svg width="35px" height="22px" viewBox="0 0 35 22" version="1.1" xmlns="http://www.w3.org/2000/svg" xmlns:xlink="http://www.w3.org/1999/xlink">
    <!-- Generator: Sketch 52.5 (67469) - http://www.bohemiancoding.com/sketch -->
    <title>community_btn</title>
    <desc>Created with Sketch.</desc>
    <defs>
        <polygon id="path-1" points="0.000183333333 0.000183333333 34.4950833 0.000183333333 34.4950833 21.9525167 0.000183333333 21.9525167"></polygon>
    </defs>
    <g id="wizlab-interface-1.1-v" stroke="none" stroke-width="1" fill="none" fill-rule="evenodd">
        <g id="landscape-1" transform="translate(-1736.000000, -14.000000)">
            <g id="header">
                <g id="community" transform="translate(1736.000000, 14.000000)">
                    <mask id="mask-2" fill="white">
                        <use xlink:href="#path-1"></use>
                    </mask>
                    <g id="Clip-2"></g>
                    <path d="M23.5200167,12.544125 C23.0662667,12.544125 22.54835,12.5762083 21.9974333,12.621125 C22.03135,12.6394583 22.0469333,12.6697083 22.0625167,12.6852917 C23.8500167,13.9869583 25.0875167,15.725875 25.0875167,18.0312917 L25.0875167,20.384375 C25.0875167,20.9325417 24.9775167,21.465125 24.8061,21.9527917 L32.9277667,21.9527917 C33.7921833,21.9527917 34.4952667,21.2432917 34.4952667,20.384375 L34.4952667,18.0312917 C34.4952667,14.3792917 27.1729333,12.544125 23.5200167,12.544125 M10.9754333,12.544125 C7.3216,12.544125 0.000183333333,14.3792917 0.000183333333,18.0312917 L0.000183333333,20.384375 C0.000183333333,21.2432917 0.706933333,21.9527917 1.56768333,21.9527917 L20.3831833,21.9527917 C21.2466833,21.9527917 21.9516,21.2432917 21.9516,20.384375 L21.9516,18.0312917 C21.9516,14.3792917 14.6292667,12.544125 10.9754333,12.544125 M10.9754333,9.40729167 C13.5787667,9.40729167 15.6641833,7.30720833 15.6641833,4.703875 C15.6641833,2.099625 13.5787667,-0.000458333333 10.9754333,-0.000458333333 C8.3721,-0.000458333333 6.27201667,2.099625 6.27201667,4.703875 C6.27201667,7.30720833 8.3721,9.40729167 10.9754333,9.40729167 M23.5200167,9.40729167 C26.1215167,9.40729167 28.20785,7.30720833 28.20785,4.703875 C28.20785,2.099625 26.1215167,-0.000458333333 23.5200167,-0.000458333333 C20.9166833,-0.000458333333 18.8156833,2.099625 18.8156833,4.703875 C18.8156833,7.30720833 20.9166833,9.40729167 23.5200167,9.40729167" id="Fill-1" fill="#FFFFFF" mask="url(#mask-2)"></path>
                </g>
            </g>
        </g>
    </g>
</svg>