<svg xmlns="http://www.w3.org/2000/svg" width="109" height="42" viewBox="0 0 109 42">
    <g fill="none" fill-rule="evenodd">
        <rect width="107.706" height="41" x=".5" y=".5" fill="#000" stroke="#FFF" opacity=".342" rx="20.5"/>
        <path stroke="#FFF" stroke-linecap="round" d="M54.353 6.176v29.648" opacity=".497"/>
        <g opacity=".7">
            <path d="M66.706 6.176h29.647v29.648H66.706z" opacity=".87"/>
            <path fill="#FFF" fill-rule="nonzero" d="M81.53 9.882A11.107 11.107 0 0 0 70.411 21c0 6.148 4.97 11.118 11.117 11.118 6.148 0 11.118-4.97 11.118-11.118 0-6.148-4.97-11.118-11.118-11.118zm4.78 15.899a1.107 1.107 0 0 1-1.568 0l-3.213-3.213-3.213 3.213a1.107 1.107 0 0 1-1.567 0 1.107 1.107 0 0 1 0-1.568L79.962 21l-3.213-3.213a1.107 1.107 0 0 1 0-1.568 1.107 1.107 0 0 1 1.567 0l3.213 3.213 3.213-3.213a1.107 1.107 0 0 1 1.568 0 1.107 1.107 0 0 1 0 1.568L83.097 21l3.213 3.213a1.128 1.128 0 0 1 0 1.568z"/>
        </g>
        <g opacity=".7">
            <path d="M12.353 6.176H42v29.648H12.353z" opacity=".87"/>
            <path fill="#FFF" fill-rule="nonzero" d="M31.795 12.692a1.151 1.151 0 0 0-1.632 0l-7.658 7.658c-.36.36-.36.94 0 1.3l7.658 7.658c.452.452 1.18.452 1.632 0a1.151 1.151 0 0 0 0-1.63l-6.673-6.683 6.682-6.681a1.149 1.149 0 0 0-.01-1.622z"/>
        </g>
    </g>
</svg>
