<?xml version="1.0" encoding="UTF-8"?>
<svg width="24px" height="24px" viewBox="0 0 24 24" version="1.1" xmlns="http://www.w3.org/2000/svg" xmlns:xlink="http://www.w3.org/1999/xlink">
    <!-- Generator: Sketch 52.5 (67469) - http://www.bohemiancoding.com/sketch -->
    <title>control_icon</title>
    <desc>Created with Sketch.</desc>
    <g id="wizlab-interface-1.1-v" stroke="none" stroke-width="1" fill="none" fill-rule="evenodd">
        <g id="landscape-1" transform="translate(-827.000000, -204.000000)" fill="#FF7043">
            <g id="API" transform="translate(810.000000, 83.000000)">
                <g id="Group-24-Copy-8">
                    <g id="control" transform="translate(17.000000, 121.000000)">
                        <path d="M16.871431,8.80671618 L14.071431,11.6072586 C13.8481832,11.8305112 13.8481832,12.1781681 14.071431,12.4023851 L16.871431,15.2024454 C16.972206,15.3027403 17.1187877,15.3707287 17.264405,15.3707287 L22.0799036,15.3707287 C22.6956432,15.3707287 23.2,14.8673254 23.2,14.2501259 L23.2,9.77012593 C23.2,9.15340868 22.6956432,8.65000538 22.0799036,8.65000538 L17.2750129,8.65000538 C17.1187877,8.63891508 16.9842604,8.69436659 16.871431,8.80671618 M8.64019287,17.2744032 L8.64019287,22.0793973 C8.64019287,22.6951501 9.1440675,23.2 9.75980713,23.2 L14.2397107,23.2 C14.8559325,23.2 15.3598071,22.6951501 15.3598071,22.0793973 L15.3598071,17.2744032 C15.3598071,17.1302293 15.3043568,16.9821978 15.1915275,16.8823851 L12.3924918,14.0818426 C12.1677975,13.8590722 11.8206303,13.8590722 11.5973825,14.0818426 L8.79690029,16.8823851 C8.69564319,16.9821978 8.64019287,17.1176924 8.64019287,17.2744032 M6.72450491,8.63891508 L1.92009644,8.63891508 C1.30435681,8.63891508 0.8,9.14280056 0.8,9.75951781 L0.8,14.2395178 C0.8,14.8543063 1.30435681,15.3596384 1.92009644,15.3596384 L6.72450491,15.3596384 C6.87060444,15.3596384 7.01573962,15.3027403 7.11699673,15.1908729 L9.91699673,12.3908126 C10.1402445,12.1670778 10.1402445,11.8208675 9.91699673,11.5961683 L7.11699673,8.79659025 C7.01573962,8.69436659 6.88169451,8.63891508 6.72450491,8.63891508 M15.3598071,6.72318588 L15.3598071,1.91915617 C15.3598071,1.30243892 14.8559325,0.8 14.2397107,0.8 L9.75980713,0.8 C9.1440675,0.8 8.64019287,1.30243892 8.64019287,1.91915617 L8.64019287,6.72318588 C8.64019287,6.86977075 8.69564319,7.01394468 8.80799036,7.11568615 L11.6075082,9.9167108 C11.8322025,10.1409278 12.1793697,10.1409278 12.4026175,9.9167108 L15.2021354,7.11568615 C15.3043568,7.01394468 15.3598071,6.88134324 15.3598071,6.72318588" id="Fill-2"></path>
                    </g>
                </g>
            </g>
        </g>
    </g>
</svg>