<svg xmlns="http://www.w3.org/2000/svg" width="88" height="22" viewBox="0 0 88 22">
    <defs>
        <filter id="a" width="133.1%" height="128.8%" x="-16.6%" y="-14.4%" filterUnits="objectBoundingBox">
            <feOffset dy="10" in="SourceAlpha" result="shadowOffsetOuter1"/>
            <feGaussianBlur in="shadowOffsetOuter1" result="shadowBlurOuter1" stdDeviation="10"/>
            <feColorMatrix in="shadowBlurOuter1" result="shadowMatrixOuter1" values="0 0 0 0 0 0 0 0 0 0 0 0 0 0 0 0 0 0 0.1 0"/>
            <feMerge>
                <feMergeNode in="shadowMatrixOuter1"/>
                <feMergeNode in="SourceGraphic"/>
            </feMerge>
        </filter>
    </defs>
    <g fill="#7E57C2" fill-rule="evenodd" filter="url(#a)">
        <rect width="88" height="22" fill-opacity=".2" rx="7"/>
        <path fill-rule="nonzero" d="M18.152 14.628c-2.232 0-3.648-1.344-3.648-4.128v-.288c0-2.964 1.716-4.08 3.804-4.08.888 0 1.548.18 2.052.444v1.008c-.66-.24-1.248-.42-2.04-.42-1.452 0-2.484.84-2.484 2.88v.444c0 1.956.708 3.108 2.52 3.108.972 0 1.584-.252 2.1-.492v1.008c-.576.324-1.332.516-2.304.516zm5.4-.132V7.308H21.14V6.276h6.036v1.032h-2.388v7.188h-1.236zm12.984-6.408c0 1.416-1.188 2.352-2.748 2.352-1.488 0-2.712-.9-2.712-2.352 0-1.428 1.164-2.448 2.712-2.448 1.56 0 2.748.996 2.748 2.448zm-1.224-.012c0-.804-.588-1.416-1.524-1.416-.828 0-1.512.624-1.512 1.416 0 .78.648 1.344 1.512 1.344.924 0 1.524-.612 1.524-1.344zm4.308 7.752h-7.224v-2.76h5.64v-.816h-5.664v-.984h6.9v2.712H33.62v.852h6v.996zm1.212-7.32h-1.56v2.124h-1.236V5.256h1.236V7.5h1.56v1.008zm10.176 5.88h-9.66v-.996h3.612v-3.66h1.224v3.66h4.824v.996zm-1.2-8.112c0 1.848-.036 4.224-.468 6l-1.176-.18c.312-1.392.408-3.384.408-4.824h-6.108v-.996h7.344zm8.508 5.832l.132 1.008c-1.176.216-2.856.324-4.788.336l-1.32.012v-4.32h3.624V7.176h-3.672v-.984h4.896v3.936h-3.624v2.316c1.272 0 3.372-.072 4.752-.336zm2.208 3.84H59.3V5.256h1.224v10.692zm10.044-.132h-7.272v-3.564h7.272v3.564zm.648-7.14l-.54.96c-1.632-.204-3.168-1.056-3.732-2.076-.492 1.056-1.968 1.896-3.744 2.088l-.516-.96c1.68-.12 3.252-.84 3.564-2.04H63.14v-.972h7.596v.972h-3.072c.348 1.2 2.064 1.932 3.552 2.028zm.552 2.628h-9.66v-.996h9.66v.996zm-2.424 3.528V13.2H64.52v1.632h4.824z"/>
    </g>
</svg>
