<svg xmlns="http://www.w3.org/2000/svg" width="1801" height="713" viewBox="0 0 1801 713">
    <g fill="#FFF" fill-rule="evenodd">
        <path d="M100 806.183c690.11-65.829 1113.443-265.333 1270-598.514 156.557-333.18 274.221-148.705 352.992 553.428L100 806.183z" opacity=".2"/>
        <path d="M-32 963.54c540.776-47.189 889.443-237.374 1046-570.554 156.557-333.181 303.26-134.076 440.11 597.316L-32 963.541z" opacity=".2"/>
        <path d="M1141 938.374c-397.729-34.716-654.165-174.63-769.31-419.741C256.547 273.52 148.65 419.997 48 958.06l1093-19.687z" opacity=".2"/>
        <path d="M1315 801.355c-397.729-34.716-654.165-174.63-769.31-419.741C430.547 136.502 322.65 282.979 222 821.043l1093-19.688z" opacity=".2"/>
        <path fill-opacity=".2" d="M1659.617 17.422c-114.39 0-94.117 707.814-1409.617 707.814-877 0-379.427 15.522 1492.719 46.565 20.86-502.92-6.841-754.38-83.102-754.38z"/>
    </g>
</svg>
