<?xml version="1.0" encoding="UTF-8"?>
<svg width="24px" height="24px" viewBox="0 0 24 24" version="1.1" xmlns="http://www.w3.org/2000/svg" xmlns:xlink="http://www.w3.org/1999/xlink">
    <!-- Generator: Sketch 52.5 (67469) - http://www.bohemiancoding.com/sketch -->
    <title>data_icon</title>
    <desc>Created with Sketch.</desc>
    <g id="wizlab-interface-1.1-v" stroke="none" stroke-width="1" fill="none" fill-rule="evenodd">
        <g id="landscape-1" transform="translate(-827.000000, -432.000000)" fill="#FFA726" fill-rule="nonzero">
            <g id="API" transform="translate(810.000000, 83.000000)">
                <g id="Group-24-Copy-8">
                    <g id="data" transform="translate(17.000000, 349.000000)">
                        <path d="M23.2,8.4 C23.2,9.5 22.2836364,10.4 21.1636364,10.4 C20.9803636,10.4 20.8072727,10.38 20.6443636,10.33 L17.0196364,13.88 C17.0705455,14.04 17.0909091,14.22 17.0909091,14.4 C17.0909091,15.5 16.1745455,16.4 15.0545455,16.4 C13.9345455,16.4 13.0181818,15.5 13.0181818,14.4 C13.0181818,14.22 13.0385455,14.04 13.0894545,13.88 L10.4930909,11.33 C10.3301818,11.38 10.1469091,11.4 9.96363636,11.4 C9.78036364,11.4 9.59709091,11.38 9.43418182,11.33 L4.80145455,15.89 C4.85236364,16.05 4.87272727,16.22 4.87272727,16.4 C4.87272727,17.5 3.95636364,18.4 2.83636364,18.4 C1.71636364,18.4 0.8,17.5 0.8,16.4 C0.8,15.3 1.71636364,14.4 2.83636364,14.4 C3.01963636,14.4 3.19272727,14.42 3.35563636,14.47 L7.99854545,9.92 C7.94763636,9.76 7.92727273,9.58 7.92727273,9.4 C7.92727273,8.3 8.84363636,7.4 9.96363636,7.4 C11.0836364,7.4 12,8.3 12,9.4 C12,9.58 11.9796364,9.76 11.9287273,9.92 L14.5250909,12.47 C14.688,12.42 14.8712727,12.4 15.0545455,12.4 C15.2378182,12.4 15.4210909,12.42 15.584,12.47 L19.1985455,8.91 C19.1476364,8.75 19.1272727,8.58 19.1272727,8.4 C19.1272727,7.3 20.0436364,6.4 21.1636364,6.4 C22.2836364,6.4 23.2,7.3 23.2,8.4 Z M23.2,8.4 C23.2,9.5 22.2836364,10.4 21.1636364,10.4 C20.9803636,10.4 20.8072727,10.38 20.6443636,10.33 L17.0196364,13.88 C17.0705455,14.04 17.0909091,14.22 17.0909091,14.4 C17.0909091,15.5 16.1745455,16.4 15.0545455,16.4 C13.9345455,16.4 13.0181818,15.5 13.0181818,14.4 C13.0181818,14.22 13.0385455,14.04 13.0894545,13.88 L10.4930909,11.33 C10.3301818,11.38 10.1469091,11.4 9.96363636,11.4 C9.78036364,11.4 9.59709091,11.38 9.43418182,11.33 L4.80145455,15.89 C4.85236364,16.05 4.87272727,16.22 4.87272727,16.4 C4.87272727,17.5 3.95636364,18.4 2.83636364,18.4 C1.71636364,18.4 0.8,17.5 0.8,16.4 C0.8,15.3 1.71636364,14.4 2.83636364,14.4 C3.01963636,14.4 3.19272727,14.42 3.35563636,14.47 L7.99854545,9.92 C7.94763636,9.76 7.92727273,9.58 7.92727273,9.4 C7.92727273,8.3 8.84363636,7.4 9.96363636,7.4 C11.0836364,7.4 12,8.3 12,9.4 C12,9.58 11.9796364,9.76 11.9287273,9.92 L14.5250909,12.47 C14.688,12.42 14.8712727,12.4 15.0545455,12.4 C15.2378182,12.4 15.4210909,12.42 15.584,12.47 L19.1985455,8.91 C19.1476364,8.75 19.1272727,8.58 19.1272727,8.4 C19.1272727,7.3 20.0436364,6.4 21.1636364,6.4 C22.2836364,6.4 23.2,7.3 23.2,8.4 Z" id="Shape"></path>
                    </g>
                </g>
            </g>
        </g>
    </g>
</svg>