<svg xmlns="http://www.w3.org/2000/svg" xmlns:xlink="http://www.w3.org/1999/xlink" width="14" height="14" viewBox="0 0 14 14">
    <defs>
        <path id="a" d="M0 0h13.643v13.644H0z"/>
        <path id="b" d="M0 0h13.643v13.644H0z"/>
    </defs>
    <g fill="none" fill-rule="evenodd" opacity=".5">
        <mask id="c" fill="#fff">
            <use xlink:href="#b"/>
        </mask>
        <path fill="#23D8AF" d="M9.755 9.756a.681.681 0 0 1-.961 0L6.822 7.784 4.85 9.756a.682.682 0 0 1-.962 0 .679.679 0 0 1 0-.962L5.86 6.823 3.89 4.85a.678.678 0 0 1 0-.96.678.678 0 0 1 .961 0L6.822 5.86 8.794 3.89a.677.677 0 0 1 .96 0 .678.678 0 0 1 0 .96l-1.97 1.973 1.97 1.971a.692.692 0 0 1 0 .962M0 6.823a6.816 6.816 0 0 0 6.822 6.821c3.77 0 6.821-3.05 6.821-6.821A6.817 6.817 0 0 0 6.822 0 6.817 6.817 0 0 0 0 6.823z" mask="url(#c)"/>
    </g>
</svg>
