<svg xmlns="http://www.w3.org/2000/svg" width="34" height="34" viewBox="0 0 34 34">
    <g fill="#3A405B" fill-rule="nonzero" stroke="#3A405B" stroke-width="1.5">
        <path d="M9.994 23.988c-.519 0-1.007.007-1.491 0-1.269-.024-2.256-.87-2.469-2.118-.027-.165-.027-.333-.027-.502C6 19.454 6 17.54 6 15.621c0-1.564 1.066-2.623 2.63-2.623h7.782c1.478 0 2.565 1.07 2.568 2.547.007 1.96.007 3.922 0 5.882-.007 1.244-.756 2.207-1.925 2.485-.22.052-.454.069-.68.072-.846.007-1.695 0-2.54.01a.69.69 0 0 0-.358.107c-.867.567-1.73 1.145-2.589 1.722-.203.138-.406.22-.636.09-.223-.124-.261-.334-.258-.567.004-.44 0-.884 0-1.358zm1 .55c.104-.062.176-.103.245-.148.622-.416 1.237-.839 1.866-1.238a1.07 1.07 0 0 1 .53-.158c.907-.017 1.815-.007 2.722-.007 1.007 0 1.626-.615 1.626-1.625.004-1.558 0-3.115 0-4.669 0-.443.017-.886-.017-1.326-.062-.795-.688-1.358-1.482-1.362-2.653-.003-5.31-.003-7.964 0-.87 0-1.513.626-1.52 1.496-.013 2-.013 3.997 0 5.998.007.87.657 1.485 1.527 1.488.618.004 1.237 0 1.852 0 .427 0 .612.19.612.616.007.299.004.601.004.935z"/>
        <path d="M22.985 19.54c0-.365-.004-.677 0-.99.007-.375.189-.557.57-.557.62-.004 1.238 0 1.853 0 .925-.004 1.568-.643 1.568-1.571.003-1.946.003-3.891 0-5.837 0-.938-.62-1.57-1.558-1.574-2.616-.007-5.235-.007-7.85-.004-.967.004-1.575.636-1.579 1.602 0 .282.004.564 0 .846-.007.323-.21.54-.498.54-.289 0-.505-.214-.498-.54.013-.526-.014-1.062.092-1.568a2.388 2.388 0 0 1 2.307-1.873c2.709-.017 5.417-.017 8.126-.004 1.413.007 2.461 1.128 2.465 2.585.003 1.932.003 3.86-.004 5.792 0 .214-.017.43-.065.636-.265 1.17-1.24 1.953-2.458 1.97-.481.007-.959 0-1.464 0-.004.096-.01.175-.01.258 0 .388-.004.777 0 1.169 0 .22-.062.409-.275.512-.2.096-.382.058-.56-.062-.248-.168-.496-.33-.743-.495l-2.17-1.447c-.178-.12-.281-.286-.247-.502.031-.206.151-.378.354-.399a.808.808 0 0 1 .488.11c.65.413 1.286.846 1.929 1.272.058.034.124.069.227.13z"/>
    </g>
</svg>
