<svg xmlns="http://www.w3.org/2000/svg" xmlns:xlink="http://www.w3.org/1999/xlink" width="20" height="20" viewBox="0 0 20 20">
    <defs>
        <path id="a" d="M0 .004h9.17v7.172H0z"/>
    </defs>
    <g fill="none" fill-rule="evenodd">
        <path d="M0 0h20v20H0z"/>
        <path fill="#3A405B" d="M12.095 11.987c-1.172-.003-2.228-.724-2.683-1.835-.458-1.115-.204-2.32.703-3.15 1.975-1.809 3.947-3.621 5.96-5.386.372-.326.923-.584 1.408-.613 1.122-.067 1.933.963 1.496 2.007-1.215 2.899-2.707 5.658-4.75 8.074-.532.63-1.292.913-2.134.903"/>
        <g transform="translate(2 10.901)">
            <mask id="b" fill="#fff">
                <use xlink:href="#a"/>
            </mask>
            <path fill="#3A405B" d="M.004 1.772c.546.358 1.014.685 1.501.979.463.277.833.21 1.047-.346C3.219.663 4.575-.01 6.35.004c.172.001.418.074.5.198.56.846 1.334 1.395 2.268 1.71.414 3.218-1.652 5.185-4.372 5.262-2.861.08-4.852-2.158-4.742-5.402" mask="url(#b)"/>
        </g>
    </g>
</svg>
