<svg xmlns="http://www.w3.org/2000/svg" width="15" height="17" viewBox="0 0 15 17">
    <g fill="#3A405B" fill-rule="evenodd" opacity=".5">
        <path fill-rule="nonzero" d="M10.096 5.324L7.83 3.01 1.874 9.092a.306.306 0 0 0-.09.222v1.877c0 .173.132.309.302.309h1.838a.28.28 0 0 0 .211-.093l5.961-6.083zm1.79-1.828a.624.624 0 0 0 0-.87L10.471 1.18a.593.593 0 0 0-.852 0L8.434 2.39 10.7 4.707l1.185-1.21z"/>
        <path d="M1.538 14.5h12.238c.673 0 1.224.338 1.224.75s-.55.75-1.224.75H1.538c-.673 0-1.223-.338-1.223-.75s.55-.75 1.223-.75z"/>
    </g>
</svg>
