<?xml version="1.0" encoding="utf-8"?>
<!-- Generator: Adobe Illustrator 23.0.1, SVG Export Plug-In . SVG Version: 6.00 Build 0)  -->
<svg version="1.1" id="Layer_1" xmlns="http://www.w3.org/2000/svg" xmlns:xlink="http://www.w3.org/1999/xlink" x="0px" y="0px"
	 viewBox="0 0 20 20" style="enable-background:new 0 0 20 20;" xml:space="preserve">
<style type="text/css">
	.st0{fill:#23D8AF;}
</style>
<title>email_icon</title>
<desc>Created with Sketch.</desc>
<g>
	<g id="dashboard_renewal" transform="translate(-261.000000, -167.000000)">
		<g id="Group-3" transform="translate(120.000000, 100.000000)">
			<g id="round-mail-24px" transform="translate(141.000000, 67.000000)">
				<path id="Shape" class="st0" d="M16,4H4C3.2,4,2.5,4.7,2.5,5.5v9C2.5,15.3,3.2,16,4,16h12c0.8,0,1.5-0.7,1.5-1.5v-9
					C17.5,4.7,16.8,4,16,4z M15.7,7.2l-4.9,3.1c-0.5,0.3-1.1,0.3-1.6,0L4.3,7.2C4.1,7.1,4,6.9,4,6.6c0-0.5,0.5-0.8,1-0.5l5,3.1
					l5-3.1c0.4-0.3,1,0,1,0.5C16,6.9,15.9,7.1,15.7,7.2z"/>
			</g>
		</g>
	</g>
</g>
</svg>
