<?xml version="1.0" encoding="UTF-8"?>
<svg width="24px" height="24px" viewBox="0 0 24 24" version="1.1" xmlns="http://www.w3.org/2000/svg" xmlns:xlink="http://www.w3.org/1999/xlink">
    <!-- Generator: Sketch 52.5 (67469) - http://www.bohemiancoding.com/sketch -->
    <title>emoji_on</title>
    <desc>Created with Sketch.</desc>
    <g id="wizlab-interface-1.1-v" stroke="none" stroke-width="1" fill="none" fill-rule="evenodd">
        <g id="guide-2" transform="translate(-640.000000, -974.000000)" fill="#3A405B">
            <g id="Group-2-Copy-2" transform="translate(292.000000, 974.000000)">
                <g id="Group">
                    <g id="emoji" transform="translate(348.000000, 0.000000)">
                        <path d="M11.8060821,21.4272 C6.58790731,21.4272 2.36100143,17.1660387 2.36100143,11.9038452 C2.36100143,6.64242581 6.58790731,2.38049032 11.8060821,2.38049032 C17.0242569,2.38049032 21.2511628,6.64242581 21.2511628,11.9038452 C21.2511628,17.1660387 17.0242569,21.4272 11.8060821,21.4272 Z M-7.67830314e-05,11.9038452 C-7.67830314e-05,18.4875871 5.27798879,23.8078452 11.7945647,23.8078452 C18.3111405,23.8078452 23.612241,18.4875871 23.612241,11.9038452 C23.612241,5.32087742 18.322658,-0.00015483871 11.7945647,-0.00015483871 C5.27798879,-0.00015483871 -7.67830314e-05,5.32087742 -7.67830314e-05,11.9038452 Z M13.612019,10.0829419 C13.9552392,10.4274581 14.5218979,10.4274581 14.8635824,10.0829419 L15.490132,9.4512 L16.1159137,10.0829419 C16.4575982,10.4274581 17.0242569,10.4274581 17.3667093,10.0829419 C17.7091616,9.73687742 17.7091616,9.16629677 17.3667093,8.82100645 L16.3286027,7.77352258 C15.8671367,7.31055484 15.1246447,7.31055484 14.6631787,7.77352258 L13.6243043,8.82100645 C13.2703345,9.16629677 13.2703345,9.73687742 13.612019,10.0829419 Z M17.4143147,15.1786839 C17.6377534,14.7853935 17.3559596,14.2852645 16.8952614,14.2852645 L6.71767063,14.2852645 C6.26925773,14.2852645 5.97364306,14.7853935 6.19784951,15.1786839 C7.32041743,17.1312 9.40968371,18.4512 11.8060821,18.4512 C14.2024805,18.4512 16.2925146,17.1312 17.4143147,15.1786839 Z M8.12280011,9.4512 L8.74934964,10.0829419 C9.09103413,10.4274581 9.6576929,10.4274581 10.0001452,10.0829419 C10.3418297,9.73687742 10.3418297,9.16629677 10.0001452,8.82100645 L8.96050298,7.77352258 C8.50057262,7.31055484 7.75654505,7.31055484 7.29661469,7.77352258 L6.24545499,8.82100645 C5.9037705,9.16629677 5.9037705,9.73687742 6.24545499,10.0829419 C6.58790731,10.4274581 7.15456608,10.4274581 7.4970184,10.0829419 L8.12280011,9.4512 Z" id="Fill-1"></path>
                    </g>
                </g>
            </g>
        </g>
    </g>
</svg>