<svg xmlns="http://www.w3.org/2000/svg" width="17" height="18" viewBox="0 0 17 18">
    <path fill="#FFF" d="M11.572 17.108c.246 0 .446.2.446.446s-.2.446-.446.446H2.409c-.246 0-.445-.2-.445-.446s.2-.446.445-.446zM9.677 0c.653 0 1.278.26 1.739.723l4.458 4.459c.463.46.723 1.086.723 1.738 0 .653-.26 1.28-.723 1.74L9.32 15.212c-.082.084-.194.132-.312.134l-4.057-.044c-.118-.002-.23-.05-.312-.134l-3.99-4.013c-.865-.87-.865-2.274 0-3.143L7.937.723C8.398.26 9.024 0 9.677 0zM4.148 5.761L1.272 8.637c-.251.251-.393.592-.393.947 0 .356.142.697.393.948l3.88 3.879 3.678.044 2.006-2.006-6.688-6.688z"/>
</svg>
