<svg xmlns="http://www.w3.org/2000/svg" width="1440" height="61" viewBox="0 0 1440 61">
    <path fill="#FF9A3E" fill-rule="evenodd" d="M1481.554 25.297C1484.02 10.931 1496.514 0 1511.557 0 1528.37 0 1542 13.655 1542 30.5S1528.37 61 1511.557 61c-15.043 0-27.538-10.93-30.003-25.297C1479.09 50.069 1466.595 61 1451.553 61c-16.813 0-30.443-13.655-30.443-30.5S1434.739 0 1451.552 0c15.043 0 27.538 10.93 30.003 25.297zm-791.056 0C692.962 10.931 705.458 0 720.5 0c16.813 0 30.443 13.655 30.443 30.5S737.313 61 720.5 61c-15.043 0-27.538-10.93-30.002-25.297C688.033 50.069 675.538 61 660.496 61c-16.814 0-30.444-13.655-30.444-30.5S643.682 0 660.496 0c15.043 0 27.537 10.93 30.002 25.297zm304.022 0C996.984 10.931 1009.479 0 1024.522 0c16.813 0 30.443 13.655 30.443 30.5s-13.63 30.5-30.443 30.5c-15.043 0-27.538-10.93-30.002-25.297C992.055 50.069 979.56 61 964.517 61c-16.813 0-30.443-13.655-30.443-30.5S947.704 0 964.517 0c15.043 0 27.538 10.93 30.003 25.297zM325.119 28.16C326.31 12.41 339.446 0 355.474 0c16.813 0 30.443 13.655 30.443 30.5S372.287 61 355.474 61c-16.028 0-29.163-12.409-30.355-28.16C323.926 48.59 310.79 61 294.764 61c-16.814 0-30.444-13.655-30.444-30.5S277.95 0 294.764 0c16.027 0 29.162 12.409 30.355 28.16zM-70.557 61C-87.37 61-101 47.345-101 30.5S-87.37 0-70.557 0c16.814 0 30.444 13.655 30.444 30.5S-53.743 61-70.557 61zm60.887 0c-16.813 0-30.443-13.655-30.443-30.5S-26.483 0-9.67 0C7.143 0 20.773 13.655 20.773 30.5S7.143 61-9.67 61zm60.887 0c-16.814 0-30.444-13.655-30.444-30.5S34.403 0 51.217 0C68.03 0 81.66 13.655 81.66 30.5S68.03 61 51.217 61zm60.886 0C95.29 61 81.66 47.345 81.66 30.5S95.29 0 112.103 0c16.814 0 30.444 13.655 30.444 30.5S128.917 61 112.103 61zm60.887 0c-16.813 0-30.443-13.655-30.443-30.5S156.177 0 172.99 0c16.814 0 30.444 13.655 30.444 30.5S189.804 61 172.99 61zm60.887 0c-16.813 0-30.443-13.655-30.443-30.5S217.064 0 233.877 0c16.813 0 30.443 13.655 30.443 30.5S250.69 61 233.877 61zm182.601 0c-16.813 0-30.443-13.655-30.443-30.5S399.665 0 416.478 0c16.814 0 30.444 13.655 30.444 30.5S433.292 61 416.478 61zm61.005 0c-16.814 0-30.444-13.655-30.444-30.5S460.67 0 477.483 0c16.813 0 30.443 13.655 30.443 30.5S494.296 61 477.483 61zm608.043 0c-16.813 0-30.443-13.655-30.443-30.5S1068.713 0 1085.526 0c16.814 0 30.443 13.655 30.443 30.5S1102.34 61 1085.526 61zm-547.039 0c-16.813 0-30.443-13.655-30.443-30.5S521.674 0 538.487 0C555.3 0 568.93 13.655 568.93 30.5S555.3 61 538.487 61zm608.044 0c-16.814 0-30.444-13.655-30.444-30.5S1129.717 0 1146.531 0c16.813 0 30.443 13.655 30.443 30.5S1163.344 61 1146.53 61zm-547.04 0c-16.813 0-30.443-13.655-30.443-30.5S582.678 0 599.491 0c16.814 0 30.444 13.655 30.444 30.5S616.305 61 599.49 61zm608.044 0c-16.814 0-30.443-13.655-30.443-30.5S1190.722 0 1207.535 0c16.813 0 30.443 13.655 30.443 30.5s-13.63 30.5-30.443 30.5zm61.004 0c-16.813 0-30.443-13.655-30.443-30.5S1251.726 0 1268.539 0c16.814 0 30.444 13.655 30.444 30.5s-13.63 30.5-30.444 30.5zm61.005 0c-16.814 0-30.444-13.655-30.444-30.5S1312.73 0 1329.544 0c16.813 0 30.443 13.655 30.443 30.5s-13.63 30.5-30.443 30.5zm-548.04 0c-16.813 0-30.443-13.655-30.443-30.5S764.691 0 781.504 0c16.814 0 30.444 13.655 30.444 30.5S798.318 61 781.504 61zm609.044 0c-16.813 0-30.443-13.655-30.443-30.5S1373.735 0 1390.548 0c16.813 0 30.443 13.655 30.443 30.5s-13.63 30.5-30.443 30.5zm-548.04 0c-16.813 0-30.443-13.655-30.443-30.5S825.695 0 842.51 0c16.813 0 30.443 13.655 30.443 30.5S859.322 61 842.51 61zm61.005 0C886.7 61 873.07 47.345 873.07 30.5S886.7 0 903.513 0c16.814 0 30.443 13.655 30.443 30.5S920.326 61 903.513 61z"/>
</svg>
