<svg width="35" height="35" viewBox="0 0 35 35" fill="none" xmlns="http://www.w3.org/2000/svg">
<path fill-rule="evenodd" clip-rule="evenodd" d="M17.9653 26.4946C17.674 26.3415 17.326 26.3415 17.0347 26.4946L9.00723 30.7149C8.2736 31.1006 7.41617 30.4776 7.55628 29.6607L9.08938 20.7221C9.14502 20.3977 9.03747 20.0667 8.80179 19.8369L2.30746 13.5065C1.71394 12.928 2.04145 11.92 2.86167 11.8008L11.8366 10.4967C12.1623 10.4494 12.4439 10.2448 12.5896 9.94966L16.6033 1.81698C16.9701 1.07374 18.0299 1.07374 18.3967 1.81699L22.4105 9.94966C22.5561 10.2448 22.8377 10.4494 23.1634 10.4967L32.1383 11.8008C32.9585 11.92 33.2861 12.928 32.6925 13.5065L26.1982 19.8369C25.9625 20.0667 25.855 20.3977 25.9106 20.7221L27.4437 29.6607C27.5838 30.4776 26.7264 31.1006 25.9928 30.7149L17.9653 26.4946Z" fill="#FFDB28"/>
</svg>
