<svg xmlns="http://www.w3.org/2000/svg" width="31" height="29" viewBox="0 0 31 29">
    <g fill="none" fill-rule="evenodd">
        <g fill-rule="nonzero">
            <g>
                <g>
                    <g>
                        <path fill="#3E2723" d="M15.5.167C6.94.167 0 5.714 0 12.557c0 4.424 2.901 8.306 7.266 10.497-2.168 7.578-3.441 8.071 5.481 1.696.894.128 1.814.195 2.753.195 8.56 0 15.5-5.547 15.5-12.39C31 5.714 24.06.167 15.5.167z" transform="translate(-122 -636) translate(40 625) translate(82 10.833)"/>
                        <g fill="#FFEB3B">
                            <path d="M10.017 1.037c-.424-1.309-2.044-1.31-2.466-.002C6.235 5.51 4.473 8.268 5.556 8.812c1.441.717 1.472-.895 1.817-1.612h2.822c.344.714.377 2.327 1.817 1.612 1.087-.544-.654-3.217-1.995-7.775zM7.86 5.415l.925-2.86.923 2.86H7.86zM3.308 8.966c-1.602 0-.655-2.428-.925-6.95C1.809 1.908.03 2.451.03 1.03.03.486.438.043.938.043c3.366.264 5.646-.689 5.646.987 0 1.446-1.704.864-2.352.986-.268 4.507.675 6.95-.924 6.95zM13.72 8.818c-1.55 0-.607-2.294-.886-7.77 0-1.333 1.889-1.332 1.889 0V6.97c.894.13 2.854-.484 2.854.923-.001 1.476-2.107.737-3.857.925zM22.279 8.526l-2.171-3.132-.321.35v2.2c0 .556-.415 1.007-.927 1.007-1.608 0-.644-2.538-.925-7.902 0-.556.415-1.009.925-1.009 1.397 0 .794 2.167.925 3.175C22.405.47 22.343.178 22.881.178c.744 0 1.2 1.013.705 1.55l-2.11 2.297 2.278 3.288c.744 1.062-.742 2.28-1.475 1.213z" transform="translate(-122 -636) translate(40 625) translate(82 10.833) translate(3 8.167)"/>
                        </g>
                    </g>
                </g>
            </g>
        </g>
    </g>
</svg>
