<?xml version="1.0" encoding="UTF-8"?>
<svg width="143px" height="142px" viewBox="0 0 143 142" version="1.1" xmlns="http://www.w3.org/2000/svg" xmlns:xlink="http://www.w3.org/1999/xlink">
    <!-- Generator: Sketch 53.2 (72643) - https://sketchapp.com -->
    <title>free_label</title>
    <desc>Created with Sketch.</desc>
    <defs>
        <filter x="-16.6%" y="-14.4%" width="133.1%" height="128.8%" filterUnits="objectBoundingBox" id="filter-1">
            <feOffset dx="0" dy="10" in="SourceAlpha" result="shadowOffsetOuter1"></feOffset>
            <feGaussianBlur stdDeviation="10" in="shadowOffsetOuter1" result="shadowBlurOuter1"></feGaussianBlur>
            <feColorMatrix values="0 0 0 0 0   0 0 0 0 0   0 0 0 0 0  0 0 0 0.1 0" type="matrix" in="shadowBlurOuter1" result="shadowMatrixOuter1"></feColorMatrix>
            <feMerge>
                <feMergeNode in="shadowMatrixOuter1"></feMergeNode>
                <feMergeNode in="SourceGraphic"></feMergeNode>
            </feMerge>
        </filter>
    </defs>
    <g id="class" stroke="none" stroke-width="1" fill="none" fill-rule="evenodd">
        <g id="class-label" transform="translate(-544.000000, -137.000000)">
            <g id="class-1" filter="url(#filter-1)" transform="translate(545.000000, 137.000000)">
                <g id="Group-47-Copy" transform="translate(68.986327, 66.986327) rotate(-45.000000) translate(-68.986327, -66.986327) translate(-58.013673, 12.986327)">
                    <rect id="Rectangle" fill="#00BD86" x="-1.8189894e-12" y="5.45696821e-12" width="254" height="50"></rect>
                    <path d="M114.099107,30.3883476 L112.083107,30.3883476 L112.083107,18.9643476 L118.563107,18.9643476 L118.563107,20.6763476 L114.099107,20.6763476 L114.099107,24.0363476 L118.259107,24.0363476 L118.259107,25.7483476 L114.099107,25.7483476 L114.099107,30.3883476 Z M125.043107,21.5563476 C125.181774,21.5563476 125.336439,21.5643476 125.507107,21.5803476 C125.677774,21.5963477 125.81644,21.6150142 125.923107,21.6363476 L125.747107,23.5083476 C125.64044,23.4870142 125.509774,23.4683477 125.355107,23.4523476 C125.200439,23.4363476 125.069774,23.4283476 124.963107,23.4283476 C124.536438,23.4283476 124.136442,23.5163468 123.763107,23.6923476 C123.389772,23.8683485 123.088441,24.1376792 122.859107,24.5003476 C122.629772,24.8630161 122.515107,25.3270115 122.515107,25.8923476 L122.515107,30.3883476 L120.499107,30.3883476 L120.499107,21.7163476 L122.051107,21.7163476 L122.339107,23.2203476 L122.435107,23.2203476 C122.691108,22.7616787 123.043105,22.3696826 123.491107,22.0443476 C123.939109,21.7190127 124.456437,21.5563476 125.043107,21.5563476 Z M131.011107,21.5563476 C132.173779,21.5563476 133.09377,21.9030108 133.771107,22.5963476 C134.448444,23.2896844 134.787107,24.2550081 134.787107,25.4923476 L134.787107,26.5163476 L129.059107,26.5163476 C129.08044,27.3056849 129.299105,27.9163455 129.715107,28.3483476 C130.131109,28.7803498 130.707103,28.9963476 131.443107,28.9963476 C131.997776,28.9963476 132.499105,28.9403482 132.947107,28.8283476 C133.395109,28.7163471 133.853771,28.553682 134.323107,28.3403476 L134.323107,29.9563476 C133.896438,30.1590153 133.453776,30.3083472 132.995107,30.4043476 C132.536438,30.5003481 131.98711,30.5483476 131.347107,30.5483476 C130.493769,30.5483476 129.741777,30.3856826 129.091107,30.0603476 C128.440437,29.7350127 127.931109,29.2443509 127.563107,28.5883476 C127.195105,27.9323444 127.011107,27.1083526 127.011107,26.1163476 C127.011107,24.6336736 127.376436,23.5030182 128.107107,22.7243476 C128.837777,21.9456771 129.805767,21.5563476 131.011107,21.5563476 Z M131.011107,23.0443476 C130.467104,23.0443476 130.027108,23.2176792 129.691107,23.5643476 C129.355105,23.911016 129.16044,24.4256776 129.107107,25.1083476 L132.835107,25.1083476 C132.82444,24.5110113 132.672442,24.0176829 132.379107,23.6283476 C132.085772,23.2390124 131.629777,23.0443476 131.011107,23.0443476 Z M140.307107,21.5563476 C141.469779,21.5563476 142.38977,21.9030108 143.067107,22.5963476 C143.744444,23.2896844 144.083107,24.2550081 144.083107,25.4923476 L144.083107,26.5163476 L138.355107,26.5163476 C138.37644,27.3056849 138.595105,27.9163455 139.011107,28.3483476 C139.427109,28.7803498 140.003103,28.9963476 140.739107,28.9963476 C141.293776,28.9963476 141.795105,28.9403482 142.243107,28.8283476 C142.691109,28.7163471 143.149771,28.553682 143.619107,28.3403476 L143.619107,29.9563476 C143.192438,30.1590153 142.749776,30.3083472 142.291107,30.4043476 C141.832438,30.5003481 141.28311,30.5483476 140.643107,30.5483476 C139.789769,30.5483476 139.037777,30.3856826 138.387107,30.0603476 C137.736437,29.7350127 137.227109,29.2443509 136.859107,28.5883476 C136.491105,27.9323444 136.307107,27.1083526 136.307107,26.1163476 C136.307107,24.6336736 136.672436,23.5030182 137.403107,22.7243476 C138.133777,21.9456771 139.101767,21.5563476 140.307107,21.5563476 Z M140.307107,23.0443476 C139.763104,23.0443476 139.323108,23.2176792 138.987107,23.5643476 C138.651105,23.911016 138.45644,24.4256776 138.403107,25.1083476 L142.131107,25.1083476 C142.12044,24.5110113 141.968442,24.0176829 141.675107,23.6283476 C141.381772,23.2390124 140.925777,23.0443476 140.307107,23.0443476 Z" id="Free" fill="#FFFFFF" fill-rule="nonzero"></path>
                </g>
            </g>
        </g>
    </g>
</svg>