<svg xmlns="http://www.w3.org/2000/svg" width="24" height="24" viewBox="0 0 24 24">
    <g fill="none" fill-rule="evenodd">
        <path d="M0 0h24v24H0z"/>
        <path fill="#8592A6" fill-rule="nonzero" d="M8.968 9.843H7.762c-.675 0-1.017-.831-.539-1.316l4.241-4.302c.296-.3.774-.3 1.07 0l4.241 4.302c.478.485.144 1.316-.531 1.316h-1.206v9.387c0 .424-.342.77-.76.77H9.728a.766.766 0 0 1-.759-.77V9.843z"/>
        <path fill="#8592A6" d="M3 11.5h4v2H3a1 1 0 0 1 0-2z"/>
        <path fill="#8592A6" d="M3 14.5h4v2H3a1 1 0 0 1 0-2z" opacity=".699"/>
        <path fill="#8592A6" d="M3 17.5h4v2H3a1 1 0 0 1 0-2z" opacity=".301"/>
        <path fill="#8592A6" d="M21 11.5h-4v2h4a1 1 0 0 0 0-2z"/>
        <path fill="#8592A6" d="M21 14.5h-4v2h4a1 1 0 0 0 0-2z" opacity=".699"/>
        <path fill="#8592A6" d="M21 17.5h-4v2h4a1 1 0 0 0 0-2z" opacity=".301"/>
    </g>
</svg>
