<svg xmlns="http://www.w3.org/2000/svg" xmlns:xlink="http://www.w3.org/1999/xlink" width="30" height="30" viewBox="0 0 30 30">
    <defs>
        <path id="a" d="M0 0H17.647v17.647H0z"/>
    </defs>
    <g fill="none" fill-rule="evenodd">
        <path fill="#F9FAFC" fill-rule="nonzero" stroke="#E3E8F0" d="M3 .5A2.5 2.5 0 0 0 .5 3v24A2.5 2.5 0 0 0 3 29.5h24a2.5 2.5 0 0 0 2.5-2.5V3A2.5 2.5 0 0 0 27 .5H3z"/>
        <g transform="translate(6.176 6.176)">
            <mask id="b" fill="#fff">
                <use xlink:href="#a"/>
            </mask>
            <path fill="#3A405B" fill-opacity=".7" d="M11.344 1.26c0 .693.568 1.261 1.26 1.261h2.521v2.52c0 .694.568 1.261 1.26 1.261.694 0 1.262-.567 1.262-1.26V1.26C17.647.567 17.08 0 16.386 0h-3.781c-.693 0-1.26.567-1.26 1.26zm3.781 13.866h-2.52c-.693 0-1.26.568-1.26 1.26 0 .694.567 1.261 1.26 1.261h3.78c.694 0 1.262-.567 1.262-1.26v-3.782c0-.693-.568-1.26-1.261-1.26s-1.26.567-1.26 1.26v2.52zM1.261 6.302c.692 0 1.26-.567 1.26-1.26v-2.52h2.52c.694 0 1.261-.569 1.261-1.261C6.302.567 5.735 0 5.042 0H1.26C.567 0 0 .567 0 1.26v3.782c0 .693.567 1.26 1.26 1.26zm0 5.042c-.694 0-1.261.568-1.261 1.26v3.782c0 .694.567 1.261 1.26 1.261h3.782c.693 0 1.26-.567 1.26-1.26 0-.693-.567-1.261-1.26-1.261H2.52v-2.521c0-.693-.568-1.26-1.26-1.26z" mask="url(#b)"/>
        </g>
    </g>
</svg>
