<svg xmlns="http://www.w3.org/2000/svg" width="30" height="30" viewBox="0 0 30 30">
    <g fill="none" fill-rule="evenodd">
        <path d="M0 0h30v30H0z"/>
        <path fill="#4A4A4A" fill-rule="nonzero" d="M7.286 20.143h2.571v2.571A1.29 1.29 0 0 0 11.143 24a1.29 1.29 0 0 0 1.286-1.286v-3.857a1.29 1.29 0 0 0-1.286-1.286H7.286A1.29 1.29 0 0 0 6 18.857a1.29 1.29 0 0 0 1.286 1.286zM9.857 9.857H7.286A1.29 1.29 0 0 0 6 11.143a1.29 1.29 0 0 0 1.286 1.286h3.857a1.29 1.29 0 0 0 1.286-1.286V7.286A1.29 1.29 0 0 0 11.143 6a1.29 1.29 0 0 0-1.286 1.286v2.571zm9 14.143a1.29 1.29 0 0 0 1.286-1.286v-2.571h2.571A1.29 1.29 0 0 0 24 18.857a1.29 1.29 0 0 0-1.286-1.286h-3.857a1.29 1.29 0 0 0-1.286 1.286v3.857A1.29 1.29 0 0 0 18.857 24zm1.286-14.143V7.286A1.29 1.29 0 0 0 18.857 6a1.29 1.29 0 0 0-1.286 1.286v3.857a1.29 1.29 0 0 0 1.286 1.286h3.857A1.29 1.29 0 0 0 24 11.143a1.29 1.29 0 0 0-1.286-1.286h-2.571z"/>
    </g>
</svg>
