<svg xmlns="http://www.w3.org/2000/svg" width="74" height="22" viewBox="0 0 74 22">
    <defs>
        <filter id="a" width="133.1%" height="128.8%" x="-16.6%" y="-14.4%" filterUnits="objectBoundingBox">
            <feOffset dy="10" in="SourceAlpha" result="shadowOffsetOuter1"/>
            <feGaussianBlur in="shadowOffsetOuter1" result="shadowBlurOuter1" stdDeviation="10"/>
            <feColorMatrix in="shadowBlurOuter1" result="shadowMatrixOuter1" values="0 0 0 0 0 0 0 0 0 0 0 0 0 0 0 0 0 0 0.1 0"/>
            <feMerge>
                <feMergeNode in="shadowMatrixOuter1"/>
                <feMergeNode in="SourceGraphic"/>
            </feMerge>
        </filter>
    </defs>
    <g fill="none" fill-rule="evenodd" filter="url(#a)">
        <rect width="74" height="22" fill="#23D8AF" fill-opacity=".2" rx="7"/>
        <path fill="#23D6AD" fill-rule="nonzero" d="M22.958 13.92c0 1.212-1.344 2.028-3.624 2.028-2.292 0-3.624-.816-3.624-2.028 0-1.212 1.332-2.04 3.624-2.04 2.28 0 3.624.828 3.624 2.04zm-3.624-1.056c-1.5 0-2.364.42-2.364 1.056 0 .636.864 1.044 2.364 1.044s2.364-.408 2.364-1.044c0-.636-.864-1.056-2.364-1.056zM20.63 10.5l-.636.972c-.852-.288-1.968-1.056-2.424-2.004-.372.984-1.464 1.92-2.568 2.292l-.696-.948c1.248-.408 2.34-1.296 2.58-2.664H14.75v-.972h5.616v.972h-2.124c.18 1.2 1.212 2.004 2.388 2.352zm3.78-1.524h-1.584v2.736H21.59V5.256h1.236v2.688h1.584v1.032zM19.082 6.48h-3.036v-.984h3.036v.984zM31.07 8.652c0 1.476-1.224 2.436-2.796 2.436-1.56 0-2.736-.984-2.736-2.436 0-1.476 1.188-2.556 2.736-2.556 1.584 0 2.796 1.056 2.796 2.556zm-1.236-.012c0-.924-.696-1.488-1.56-1.488-.828 0-1.536.6-1.536 1.488 0 .852.72 1.404 1.536 1.404.84 0 1.56-.552 1.56-1.404zm4.008-3.384v10.692h-1.224V5.256h1.224zm-1.824 6.972l.096.984c-2.292.252-4.596.36-7.104.372l-.192-1.056c1.14.012 2.304.012 3.552-.06a58.286 58.286 0 0 0 3.648-.24zm15.432 3.72h-1.176V5.256h1.176v10.692zm-2.112-.504h-1.152V10.56h-1.428V9.552h1.428v-4.08h1.152v9.972zM42.95 6.54c-.024 3.264-1.32 5.556-3.888 7.248l-.816-.84c2.124-1.26 3.36-3.192 3.492-5.4h-2.88V6.54h4.092zm11.652 1.848c0 1.512-1.212 2.472-2.748 2.472-1.5 0-2.736-.96-2.736-2.472 0-1.464 1.212-2.544 2.736-2.544 1.512 0 2.748 1.056 2.748 2.544zm-1.2-.012c0-.84-.588-1.512-1.548-1.512-.924 0-1.548.684-1.548 1.512 0 .888.636 1.536 1.548 1.536s1.548-.66 1.548-1.536zm2.988-3.12h1.224v6.012H56.39V5.256zm1.236 10.56H50.63v-3.972h6.996v3.972zm-1.224-.984v-2.028h-4.536v2.028h4.536z"/>
    </g>
</svg>
