<svg xmlns="http://www.w3.org/2000/svg" xmlns:xlink="http://www.w3.org/1999/xlink" width="16" height="16" viewBox="0 0 16 16">
    <defs>
        <path id="ljpn3weoha" d="M13.5 6.344c1.379 0 2.5 1.121 2.5 2.5v2.125c0 1.378-1.121 2.5-2.5 2.5h-.625v.031c0 1.034-.841 1.875-1.875 1.875H9.094v-.02C8.88 15.74 8.47 16 8 16c-.69 0-1.25-.56-1.25-1.25S7.31 13.5 8 13.5c.47 0 .88.26 1.094.645v-.02H11c.345 0 .625-.28.625-.625V6.969c0-.345.28-.625.625-.625zM8 0c1.407 0 2.755.429 3.899 1.24 1.118.792 1.96 1.888 2.434 3.168.12.324-.046.683-.37.803s-.683-.045-.803-.37C12.365 2.694 10.292 1.25 8 1.25c-2.896 0-5.276 2.25-5.485 5.094H3.75c.345 0 .625.28.625.625v5.875c0 .345-.28.625-.625.625H2.5c-1.379 0-2.5-1.122-2.5-2.5V8.844C0 7.92.504 7.112 1.25 6.68c.019-1.777.719-3.445 1.977-4.703C4.502.702 6.197 0 8 0zM3.125 7.594H2.5c-.69 0-1.25.56-1.25 1.25v2.125c0 .689.56 1.25 1.25 1.25h.625V7.594zm10.375 0h-.625v4.625h.625c.69 0 1.25-.561 1.25-1.25V8.844c0-.69-.56-1.25-1.25-1.25z"/>
    </defs>
    <g fill="none" fill-rule="evenodd">
        <path d="M0 0H16V16H0z"/>
        <use fill="#63BAF5" fill-rule="nonzero" xlink:href="#ljpn3weoha"/>
    </g>
</svg>
