<svg xmlns="http://www.w3.org/2000/svg" width="24" height="24" viewBox="0 0 24 24">
    <g fill="none" fill-rule="evenodd">
        <path d="M0 0H24V24H0z"/>
        <path fill="#63BAF5" fill-rule="nonzero" d="M20.25 9.516c2.068 0 3.75 1.682 3.75 3.75v3.187c0 2.068-1.682 3.75-3.75 3.75h-.938v.047c0 1.55-1.261 2.813-2.812 2.813h-2.86v-.03c-.32.576-.934.967-1.64.967-1.036 0-1.875-.84-1.875-1.875 0-1.036.84-1.875 1.875-1.875.706 0 1.32.39 1.64.967v-.03h2.86c.517 0 .938-.42.938-.937v-9.797c0-.518.42-.937.937-.937zM12 0c2.11 0 4.132.643 5.848 1.859 1.678 1.189 2.94 2.832 3.65 4.753.18.486-.068 1.025-.553 1.205-.486.18-1.025-.069-1.205-.554C18.548 4.04 15.438 1.875 12 1.875c-4.344 0-7.915 3.375-8.227 7.64h1.852c.518 0 .938.42.938.938v8.813c0 .517-.42.937-.938.937H3.75c-2.068 0-3.75-1.682-3.75-3.75v-3.187c0-1.386.756-2.597 1.876-3.247.027-2.665 1.077-5.166 2.965-7.053C6.753 1.053 9.296 0 12 0zM4.687 11.39H3.75c-1.034 0-1.875.842-1.875 1.876v3.187c0 1.034.841 1.875 1.875 1.875h.938v-6.937zm15.563 0h-.938v6.938h.938c1.034 0 1.875-.841 1.875-1.875v-3.187c0-1.034-.841-1.875-1.875-1.875z"/>
    </g>
</svg>
