<svg xmlns="http://www.w3.org/2000/svg" xmlns:xlink="http://www.w3.org/1999/xlink" width="20" height="20" viewBox="0 0 20 20">
    <defs>
        <path id="a20csq5i7a" d="M18.144 19.374V7.47c0-.188-.063-.314-.188-.439L10.44.141c-.251-.188-.627-.188-.878 0L2.044 7.032c-.125.125-.188.25-.188.439v11.903c0 .375.25.626.626.626h5.45c.377 0 .627-.25.627-.626v-5.639h2.506v5.639c0 .375.25.626.626.626h5.827c.376 0 .626-.25.626-.626zm-1.253-.627h-4.573V13.11c0-.376-.25-.627-.627-.627H7.933c-.376 0-.627.251-.627.627v5.638H3.11V7.721L10 1.394l6.891 6.327v11.026z"/>
    </defs>
    <g fill="none" fill-rule="evenodd">
        <path d="M0 0H20V20H0z"/>
        <use fill="#333" fill-rule="nonzero" xlink:href="#a20csq5i7a"/>
    </g>
</svg>
