<svg xmlns="http://www.w3.org/2000/svg" width="24" height="24" viewBox="0 0 24 24">
    <path fill="silver" d="M12.65 13.248l.998-.997c.253-.254.665-.254.919 0s.254.665 0 .92l-2.122 2.12c-.253.254-.665.254-.919 0l-2.121-2.12c-.254-.255-.254-.666 0-.92s.665-.254.92 0l1.025 1.026V7.254c0-.359.291-.65.65-.65.359 0 .65.291.65.65v5.994zM6.367 3.571l-1.754 1.75h1.404c.193 0 .35-.157.35-.35v-1.4zM3.65 6.621V21c0 .193.157.35.35.35h16c.193 0 .35-.157.35-.35V3c0-.193-.157-.35-.35-.35H7.667v2.32c0 .912-.739 1.65-1.65 1.65H3.65zM7.021 1.35H20c.911 0 1.65.739 1.65 1.65v18c0 .911-.739 1.65-1.65 1.65H4c-.911 0-1.65-.739-1.65-1.65V6.012c0-.173.069-.338.19-.46L6.563 1.54c.122-.122.287-.19.46-.19zM6 19.15c-.359 0-.65-.291-.65-.65 0-.359.291-.65.65-.65h12c.359 0 .65.291.65.65 0 .359-.291.65-.65.65H6z"/>
</svg>
