<svg xmlns="http://www.w3.org/2000/svg" width="40" height="40" viewBox="0 0 40 40">
    <defs>
        <filter id="prefix__a" width="292.5%" height="138.7%" x="-96.2%" y="-19.3%" filterUnits="objectBoundingBox">
            <feOffset dy="20" in="SourceAlpha" result="shadowOffsetOuter1"/>
            <feGaussianBlur in="shadowOffsetOuter1" result="shadowBlurOuter1" stdDeviation="10"/>
            <feColorMatrix in="shadowBlurOuter1" result="shadowMatrixOuter1" values="0 0 0 0 0 0 0 0 0 0 0 0 0 0 0 0 0 0 0.1 0"/>
            <feMerge>
                <feMergeNode in="shadowMatrixOuter1"/>
                <feMergeNode in="SourceGraphic"/>
            </feMerge>
        </filter>
    </defs>
    <g fill="#FFF" stroke="#FFF" stroke-linejoin="round" stroke-width=".5" filter="url(#prefix__a)" transform="translate(-20 -199)">
        <path d="M28.604 201.043c1.285-.357 2.282-.014 3.048.718h0l5.678 5.678c.692.694 1.038 1.602 1.038 2.51 0 .909-.346 1.817-1.038 2.51h0l-3.214 3.214c1.041 2.359 2.263 3.78 3.588 5.101 1.479 1.484 3.083 2.838 4.794 4.047h0l4.018-3.211c.694-.688 1.6-1.031 2.505-1.03.91 0 1.82.348 2.513 1.042h0l5.678 5.658c.692.694 1.038 1.602 1.038 2.51 0 .909-.346 1.817-1.038 2.511h0l-1.545 1.545c-1.952 1.971-4.606 3.088-7.38 3.105-.81 0-1.618-.096-2.409-.291-3.009-.797-5.87-2.07-8.476-3.77-2.366-1.514-4.559-3.283-6.537-5.276-1.82-1.812-3.456-3.801-4.88-5.937-1.586-2.335-2.84-4.878-3.728-7.559-.605-1.861-.659-3.813-.214-5.644.445-1.83 1.39-3.54 2.782-4.916 1.48-1.452 2.732-2.224 3.78-2.515zm.555 2.202c-.264 0-.528.102-.73.304l-1.798 1.799c-1.059 1.041-1.777 2.335-2.117 3.722-.339 1.387-.3 2.867.157 4.278.816 2.455 1.968 4.786 3.424 6.927 1.335 1.995 2.864 3.85 4.567 5.54 1.85 1.862 3.9 3.514 6.11 4.927 2.377 1.56 4.986 2.73 7.73 3.465 2.657.634 5.46-.168 7.385-2.117l1.537-1.517c.202-.203.303-.468.303-.733 0-.265-.101-.53-.303-.73l-5.689-5.699c-.203-.203-.469-.304-.734-.304-.264 0-.529.101-.73.304l-3.222 3.272c-.514.51-1.172.8-1.85.859-.677.058-1.374-.113-1.966-.526-1.891-1.322-3.66-2.81-5.288-4.444-1.459-1.454-2.802-3.02-4.015-4.686-.434-.593-.617-1.3-.562-1.988.054-.685.346-1.35.863-1.866l3.383-3.94c-.11-.268-.328-.623-.7-1.112-.81-1.068-2.326-2.738-5.024-5.434-.202-.201-.466-.302-.73-.301z"/>
    </g>
</svg>
