<svg xmlns="http://www.w3.org/2000/svg" width="40" height="40" viewBox="0 0 40 40">
    <defs>
        <filter id="prefix__a" width="292.5%" height="138.7%" x="-96.2%" y="-19.3%" filterUnits="objectBoundingBox">
            <feOffset dy="20" in="SourceAlpha" result="shadowOffsetOuter1"/>
            <feGaussianBlur in="shadowOffsetOuter1" result="shadowBlurOuter1" stdDeviation="10"/>
            <feColorMatrix in="shadowBlurOuter1" result="shadowMatrixOuter1" values="0 0 0 0 0 0 0 0 0 0 0 0 0 0 0 0 0 0 0.1 0"/>
            <feMerge>
                <feMergeNode in="shadowMatrixOuter1"/>
                <feMergeNode in="SourceGraphic"/>
            </feMerge>
        </filter>
    </defs>
    <g fill="none" fill-rule="evenodd" filter="url(#prefix__a)" transform="translate(-20 -292)">
        <g>
            <path d="M0 0H40V40H0z" transform="translate(20 292)"/>
            <path fill="#FFF" fill-rule="nonzero" stroke="#FFF" stroke-width=".5" d="M37 5.75c.319 0 .61.12.83.316.227.202.38.485.413.804h0L38.25 33c0 .319-.12.61-.316.83-.202.227-.485.38-.804.413h0L3 34.25c-.319 0-.61-.12-.83-.316-.227-.202-.38-.485-.413-.804h0L1.75 25c0-.345.14-.658.366-.884.226-.226.539-.366.884-.366 1.036 0 1.973-.42 2.652-1.098C6.33 21.973 6.75 21.036 6.75 20s-.42-1.973-1.098-2.652C4.973 16.67 4.036 16.25 3 16.25c-.319 0-.61-.12-.83-.316-.227-.202-.38-.485-.413-.804h0L1.75 7c0-.319.12-.61.316-.83.202-.227.485-.38.804-.413h0zm-9.25 2.5H4.254l.095 5.646c1.32.29 2.485 1.001 3.35 2.043.866 1.043 1.433 2.42 1.551 4.061 0 1.493-.523 2.863-1.439 3.947-.869 1.027-2.092 1.798-3.561 2.166v5.637h23.5V27c0-.345.14-.658.366-.884.226-.226.539-.366.884-.366s.658.14.884.366c.226.226.366.539.366.884v4.75h5.5V8.25h-5.5V13c0 .345-.14.658-.366.884-.226.226-.539.366-.884.366s-.658-.14-.884-.366c-.226-.226-.366-.539-.366-.884V8.25zm-10.25 15c.345 0 .658.14.884.366.226.226.366.539.366.884s-.14.658-.366.884c-.226.226-.539.366-.884.366h0-4c-.345 0-.658-.14-.884-.366-.226-.226-.366-.539-.366-.884s.14-.658.366-.884c.226-.226.539-.366.884-.366h0zm11.5-6.5c.345 0 .658.14.884.366.226.226.366.539.366.884h0v4c0 .345-.14.658-.366.884-.226.226-.539.366-.884.366s-.658-.14-.884-.366c-.226-.226-.366-.539-.366-.884h0v-4c0-.345.14-.658.366-.884.226-.226.539-.366.884-.366zm-6.5 1.5c.345 0 .658.14.884.366.226.226.366.539.366.884s-.14.658-.366.884c-.226.226-.539.366-.884.366h0-9c-.345 0-.658-.14-.884-.366-.226-.226-.366-.539-.366-.884s.14-.658.366-.884c.226-.226.539-.366.884-.366h0zm0-5c.345 0 .658.14.884.366.226.226.366.539.366.884s-.14.658-.366.884c-.226.226-.539.366-.884.366h0-9c-.345 0-.658-.14-.884-.366-.226-.226-.366-.539-.366-.884s.14-.658.366-.884c.226-.226.539-.366.884-.366h0z" transform="translate(20 292)"/>
        </g>
    </g>
</svg>
