<svg width="27" height="27" viewBox="0 0 27 27" fill="none" xmlns="http://www.w3.org/2000/svg">
<rect x="4" y="6" width="19" height="17" rx="1" stroke="#646464" stroke-width="1.8"/>
<path d="M4 7C4 6.44772 4.44772 6 5 6H22C22.5523 6 23 6.44772 23 7V9H4V7Z" fill="#646464"/>
<path d="M23 9V9.8H23.8V9H23ZM4 9H3.2V9.8H4V9ZM5 6.8H22V5.2H5V6.8ZM22.2 7V9H23.8V7H22.2ZM23 8.2H4V9.8H23V8.2ZM4.8 9V7H3.2V9H4.8ZM22 6.8C22.1105 6.8 22.2 6.88954 22.2 7H23.8C23.8 6.00589 22.9941 5.2 22 5.2V6.8ZM5 5.2C4.00589 5.2 3.2 6.00589 3.2 7H4.8C4.8 6.88954 4.88954 6.8 5 6.8V5.2Z" fill="#646464"/>
<path d="M8 4C8 3.44772 7.55228 3 7 3C6.44772 3 6 3.44772 6 4H8ZM6 7C6 7.55228 6.44772 8 7 8C7.55228 8 8 7.55228 8 7H6ZM6 4V7H8V4H6Z" fill="#646464"/>
<path d="M21 4C21 3.44772 20.5523 3 20 3C19.4477 3 19 3.44772 19 4H21ZM19 7C19 7.55228 19.4477 8 20 8C20.5523 8 21 7.55228 21 7H19ZM19 4V7H21V4H19Z" fill="#646464"/>
<rect x="7" y="12" width="3" height="3" rx="0.6" fill="#646464"/>
<rect x="7" y="17" width="3" height="3" rx="0.6" fill="#646464"/>
<rect x="12" y="12" width="3" height="3" rx="0.6" fill="#646464"/>
<rect x="12" y="17" width="3" height="3" rx="0.6" fill="#646464"/>
<rect x="17" y="12" width="3" height="3" rx="0.6" fill="#646464"/>
<rect x="17" y="17" width="3" height="3" rx="0.6" fill="#646464"/>
</svg>
