<svg xmlns="http://www.w3.org/2000/svg" width="40" height="40" viewBox="0 0 40 40">
    <g fill="none" fill-rule="evenodd">
        <g fill="#fff">
            <g transform="translate(-725 -244) translate(725 244)">
                <ellipse cx="12.542" cy="15" rx="4.792" ry="5"/>
                <ellipse cx="26.83" cy="14" rx="5.663" ry="6"/>
                <path d="M20.065 30.998c-3.215.053-4.41-1.048-3.582-3.303C17.723 24.313 20.849 21 26.436 21c.102 0 .201.003.298.008l.105-.005.184-.003c5.587 0 8.712 3.313 9.952 6.695.827 2.255-.367 3.356-3.582 3.303H20.065zM12.737 21c2.265 0 4.136.515 5.65 1.346-1.907 1.516-3.17 3.59-3.878 5.688-.443 1.316-.36 2.304.25 2.965h-2.022l-.009-.016-.007.015H6.173c-3.306.053-4.533-1.048-3.683-3.303C3.765 24.313 6.978 21 12.721 21h.016z"/>
            </g>
        </g>
    </g>
</svg>
