<svg xmlns="http://www.w3.org/2000/svg" xmlns:xlink="http://www.w3.org/1999/xlink" width="40" height="40" viewBox="0 0 40 40">
    <defs>
        <path id="5vustfppsa" d="M25.154 0c1.337 0 1.822.14 2.311.4.49.262.873.646 1.134 1.135.262.489.401.974.401 2.31v18.31c0 1.336-.14 1.821-.4 2.31-.262.49-.646.873-1.135 1.134-.489.262-.974.401-2.31.401H3.844c-1.336 0-1.821-.14-2.31-.4-.49-.262-.873-.646-1.134-1.135-.262-.489-.401-.974-.401-2.31V3.844c0-1.336.14-1.821.4-2.31.262-.49.646-.873 1.135-1.134C2.024.139 2.509 0 3.845 0h21.31zm-.718 5H4.564c-.892 0-1.215.093-1.54.267-.327.174-.583.43-.757.756-.174.326-.267.65-.267 1.54v13.873c0 .892.093 1.215.267 1.54.174.327.43.583.756.757.326.174.65.267 1.54.267h19.873c.892 0 1.215-.093 1.54-.267.327-.174.583-.43.757-.756.174-.326.267-.65.267-1.54V7.563c0-.892-.093-1.215-.267-1.54-.174-.327-.43-.583-.756-.757-.326-.174-.65-.267-1.54-.267z"/>
    </defs>
    <g fill="none" fill-rule="evenodd">
        <g>
            <g transform="translate(-496 -244) translate(496 244)">
                <g transform="translate(4 7)">
                    <use fill="#FFF" xlink:href="#5vustfppsa"/>
                </g>
                <path fill="#FFF" d="M10 21L12 21 12 23 10 23zM15 21L17 21 17 23 15 23zM15 16L17 16 17 18 15 18zM20 21L22 21 22 23 20 23zM20 16L22 16 22 18 20 18zM25 16L27 16 27 18 25 18z"/>
                <ellipse cx="31.476" cy="28" fill="#63BAF5" stroke="#FFF" stroke-width="1.2" rx="6.79" ry="6.6"/>
                <path fill="#FFF" d="M10 26L12 26 12 28 10 28zM15 26L17 26 17 28 15 28zM20 26L22 26 22 28 20 28z"/>
                <path stroke="#FFF" stroke-linecap="round" stroke-linejoin="round" stroke-width="1.2" d="M34.564 26.773L31.31 29 29.161 27.252"/>
            </g>
        </g>
    </g>
</svg>
