<svg xmlns="http://www.w3.org/2000/svg" xmlns:xlink="http://www.w3.org/1999/xlink" width="202" height="180" viewBox="0 0 202 180">
    <defs>
        <path id="hq6s8a3mfa" d="M22.5 34.41l-10.847 2.736c-1.607.406-3.238-.568-3.643-2.175-.121-.481-.121-.986 0-1.468l2.737-10.847L8.01 11.81c-.405-1.606.569-3.237 2.175-3.642.482-.122.986-.122 1.468 0L22.5 10.903l10.847-2.736c1.607-.406 3.238.568 3.643 2.174.121.482.121.987 0 1.468l-2.737 10.847 2.737 10.847c.405 1.607-.569 3.238-2.175 3.643-.482.122-.986.122-1.468 0L22.5 34.41z"/>
        <path id="rvh50m18sc" d="M27 41.291l-13.99 3.53c-1.607.406-3.238-.568-3.644-2.174-.121-.482-.121-.987 0-1.468l3.53-13.991-3.53-13.991c-.405-1.607.569-3.238 2.175-3.643.482-.122.986-.122 1.468 0L27 13.084l13.99-3.53c1.607-.405 3.238.568 3.644 2.175.121.482.121.986 0 1.468l-3.53 13.99 3.53 13.992c.405 1.606-.569 3.237-2.175 3.642-.482.122-.986.122-1.468 0L27 41.291z"/>
        <path id="8ufrfbl02e" d="M23.207 33.702l-11.424 3.25c-1.594.454-3.253-.47-3.707-2.064-.144-.507-.152-1.044-.023-1.555l2.694-10.677L8.01 11.81c-.405-1.606.569-3.237 2.175-3.642.482-.122.986-.122 1.468 0L22.5 10.903l10.847-2.736c1.607-.406 3.238.568 3.643 2.174.121.482.121.987 0 1.468l-2.737 10.847 2.657 10.53c.405 1.607-.568 3.238-2.175 3.643-.536.135-1.098.12-1.626-.044l-9.902-3.083z"/>
    </defs>
    <g fill="none" fill-rule="evenodd">
        <g>
            <g>
                <path fill="#014737" d="M95.433 181.375h-.266s.108.562.266 0" transform="translate(-80 -226) translate(82 223)"/>
                <path stroke="#FFF" d="M95.433 181.375h-.266s.108.562.266 0z" transform="translate(-80 -226) translate(82 223)"/>
                <path fill="#FF6060" d="M98.524 154l6.276-86.943c-.304-2.705-2.38-4.057-6.228-4.057S92.8 64.352 92.8 67.057L98.524 154zM84.556 156c1.984-1.217-8.231-60.547-27.49-81.31-2.295-2.81-5.044-3.418-8.247-1.826-2.692 1.45-2.692 3.745 0 6.885 4.037 4.708 29.768 44.42 35.737 76.251z" transform="translate(-80 -226) translate(82 223)"/>
                <path fill="#FF6060" d="M146.454 155c1.972-1.212-4.31-46.645-23.45-67.321-2.282-2.798-5.015-3.404-8.198-1.818-2.675 1.444-2.675 3.73 0 6.855 4.013 4.69 25.715 30.585 31.648 62.284z" transform="translate(-80 -226) translate(82 223) matrix(-1 0 0 1 259.6 0)"/>
                <g transform="translate(-80 -226) translate(82 223) translate(12 34)">
                    <mask id="oz9xi5u0hb" fill="#fff">
                        <use xlink:href="#hq6s8a3mfa"/>
                    </mask>
                    <use fill="#FFB027" transform="rotate(45 22.5 22.656)" xlink:href="#hq6s8a3mfa"/>
                    <path fill="#FD8E06" d="M19.078 13.232c2.985 3.841.134 5.662 6.536 6.999 6.402 1.337 4.718 7.993-.454 7.993-5.173 0-9.934 10.569-6.082 14.068 2.567 2.333 9.61-1.1 21.13-10.299l9.825-17.41L24.15-2l-3.01 1.625-7.106 5.707c1.373 2.706 3.054 5.34 5.045 7.9z" mask="url(#oz9xi5u0hb)"/>
                </g>
                <g transform="translate(-80 -226) translate(82 223) translate(70.8)">
                    <mask id="8xdgf1xkgd" fill="#fff">
                        <use xlink:href="#rvh50m18sc"/>
                    </mask>
                    <use fill="#FFB027" transform="rotate(45 27 27.188)" xlink:href="#rvh50m18sc"/>
                    <path fill="#FD8E06" d="M22.44 16.736c3.566 4.78.16 7.046 7.808 8.71 7.646 1.664 5.635 9.947-.543 9.947S17.84 48.545 22.44 52.9c3.067 2.903 11.48-1.37 25.238-12.816l11.737-21.666L28.497-2.22 24.903-.197l-8.488 7.102c1.64 3.368 3.648 6.645 6.025 9.831z" mask="url(#8xdgf1xkgd)"/>
                </g>
                <g transform="translate(-80 -226) translate(82 223) translate(138 45)">
                    <mask id="t5jppqsnpf" fill="#fff">
                        <use xlink:href="#8ufrfbl02e"/>
                    </mask>
                    <use fill="#FFB027" transform="rotate(45 22.5 22.656)" xlink:href="#8ufrfbl02e"/>
                    <path fill="#FD8E06" d="M19.13 13.91c2.82 4.01.128 5.912 6.174 7.309 6.046 1.396 4.456 8.348-.429 8.348-4.885 0-9.382 11.039-5.744 14.694 2.425 2.436 9.076-1.15 19.956-10.757l9.28-18.184L23.92-2 21.078-.303l-6.711 5.96c1.296 2.827 2.884 5.578 4.764 8.252z" mask="url(#t5jppqsnpf)"/>
                </g>
                <g stroke="#979797" stroke-linecap="round" stroke-width="4">
                    <path d="M18 0L18 5.957M18 29.043L18 35M4.875 5.213L9.375 9.681M25.875 25.319L30.375 29.787M.375 17.5L6.375 17.5M29.625 17.5L35.625 17.5M4.875 29.787L9.375 25.319M25.875 9.681L30.375 5.213" transform="translate(-80 -226) translate(82 223) translate(0 108)"/>
                </g>
                <g stroke="#979797" stroke-linecap="round" stroke-width="4">
                    <path d="M13.875 0L13.875 4.457M13.875 21.543L13.875 26M3.75 3.714L7.5 6.686M19.5 19.314L23.25 22.286M0 13L4.5 13M22.5 13L27 13M3.75 22.286L7.5 19.314M19.5 6.686L23.25 3.714" transform="translate(-80 -226) translate(82 223) translate(154.8 102)"/>
                </g>
                <g stroke="#979797" stroke-linecap="round" stroke-width="4">
                    <path d="M14.802 0L14.802 5.227M14.802 24.376L14.802 29.603M4.335 4.335L8.032 8.032M21.572 21.572L25.268 25.268M0 14.802L5.227 14.802M24.376 14.802L29.603 14.802M4.335 25.268L8.032 21.572M21.572 8.032L25.268 4.335" transform="translate(-80 -226) translate(82 223) translate(167.8 19)"/>
                </g>
            </g>
        </g>
    </g>
</svg>
