<svg xmlns="http://www.w3.org/2000/svg" width="102" height="17" viewBox="0 0 102 17">
    <g fill="#63BAF5" fill-rule="evenodd">
        <path d="M9 13.5L3.71 16.281 4.72 10.391.44 6.219 6.355 5.359 9 0 11.645 5.359 17.56 6.219 13.28 10.391 14.29 16.281zM30 13.5L24.71 16.281 25.72 10.391 21.44 6.219 27.355 5.359 30 0 32.645 5.359 38.56 6.219 34.28 10.391 35.29 16.281zM51 13.5L45.71 16.281 46.72 10.391 42.44 6.219 48.355 5.359 51 0 53.645 5.359 59.56 6.219 55.28 10.391 56.29 16.281zM72 13.5L66.71 16.281 67.72 10.391 63.44 6.219 69.355 5.359 72 0 74.645 5.359 80.56 6.219 76.28 10.391 77.29 16.281zM93 13.5L87.71 16.281 88.72 10.391 84.44 6.219 90.355 5.359 93 0 95.645 5.359 101.56 6.219 97.28 10.391 98.29 16.281z"/>
    </g>
</svg>
