<?xml version="1.0" encoding="UTF-8"?>
<svg width="24px" height="24px" viewBox="0 0 24 24" version="1.1" xmlns="http://www.w3.org/2000/svg" xmlns:xlink="http://www.w3.org/1999/xlink">
    <!-- Generator: Sketch 52.5 (67469) - http://www.bohemiancoding.com/sketch -->
    <title>italic_on</title>
    <desc>Created with Sketch.</desc>
    <g id="wizlab-interface-1.1-v" stroke="none" stroke-width="1" fill="none" fill-rule="evenodd">
        <g id="guide-2" transform="translate(-336.000000, -974.000000)" fill="#3A405B">
            <g id="Group-2-Copy-2" transform="translate(292.000000, 974.000000)">
                <g id="Group">
                    <g id="italic" transform="translate(44.000000, 0.000000)">
                        <path d="M10.9396944,19.8504174 C11.7010358,19.8504174 12.6558953,19.8998331 13.8055463,20 C13.8768425,19.9292154 13.9277683,19.7956594 13.959597,19.6006678 C13.9914256,19.4056761 13.9888793,19.2721202 13.9532312,19.2013356 C13.7278844,19.2013356 13.4465191,19.166611 13.1078622,19.0958264 C12.7692053,19.0250417 12.5896917,18.9248748 12.5680483,18.7993322 C12.5540436,18.727212 12.5451316,18.6510851 12.5413122,18.569616 C12.5387659,18.4894825 12.5438585,18.3866444 12.5578631,18.2677796 C12.5718677,18.1475793 12.5845992,18.0460768 12.5947843,17.9646077 C12.6049695,17.8831386 12.6253398,17.757596 12.653349,17.5866444 C12.6813583,17.4170284 12.7017286,17.2928214 12.7170063,17.2153589 C12.731011,17.1378965 12.7590202,16.9923205 12.801034,16.7799666 L14.6407301,7.2293823 C14.8457066,6.18230384 15.0290397,5.50918197 15.1907292,5.21135225 C15.2543866,5.08313856 15.4733677,4.98430718 15.8463995,4.9081803 C16.2207045,4.83472454 16.5198938,4.79732888 16.7465138,4.79732888 C16.8165368,4.72520868 16.8687358,4.59165275 16.9043839,4.39799666 C16.9183885,4.31252087 16.9260274,4.23639399 16.9260274,4.17228715 C16.9260274,4.09348915 16.9145691,4.0360601 16.8941987,4 C15.6808905,4.09348915 14.7158457,4.14023372 13.9965182,4.14023372 C13.263186,4.14023372 12.3070533,4.09348915 11.1293931,4 C11.0593701,4.07078464 11.0046248,4.20567613 10.9664304,4.39799666 C10.9269629,4.59165275 10.9256898,4.72520868 10.9613379,4.79732888 C11.1930505,4.79732888 11.4820546,4.83472454 11.8283504,4.9081803 C12.173373,4.98430718 12.356706,5.08313856 12.3783495,5.21135225 C12.3847152,5.28213689 12.3898078,5.35826377 12.3936272,5.43973289 C12.3974467,5.521202 12.3923541,5.62136895 12.3783495,5.74290484 C12.3643449,5.86310518 12.3516134,5.96460768 12.3414282,6.04607679 C12.3299699,6.12754591 12.3108727,6.25308848 12.2828635,6.42136895 C12.2548543,6.59232053 12.2332108,6.71519199 12.2192062,6.79398998 C12.2052016,6.87278798 12.1771924,7.01702838 12.1351786,7.2293823 L10.273839,16.7799666 C10.2585612,16.8360601 10.2381909,16.9415693 10.2101817,17.093823 C10.1821724,17.2460768 10.1618021,17.3502504 10.1516169,17.4063439 C10.1414318,17.463773 10.1210614,17.554591 10.0930522,17.6828047 C10.065043,17.8110184 10.0446727,17.9018364 10.0306681,17.9592654 C10.0153903,18.0153589 9.9962931,18.0928214 9.97210333,18.1929883 C9.94664041,18.2918197 9.92499692,18.3692821 9.90335344,18.4267112 C9.88170995,18.4828047 9.85752018,18.5469115 9.82951096,18.6176962 C9.80150175,18.6884808 9.77221939,18.748581 9.74421017,18.7993322 C9.68055287,18.9248748 9.46411803,19.0250417 9.09363251,19.0958264 C8.72442014,19.166611 8.42268451,19.2013356 8.18969877,19.2013356 C8.12604147,19.2814691 8.07384247,19.415025 8.03182865,19.60601 C8.01018517,19.7048414 8,19.7903172 8,19.8611018 C8,19.9171953 8.00636573,19.9639399 8.02037034,20 C9.23367858,19.8998331 10.2063622,19.8504174 10.9396944,19.8504174" id="I"></path>
                    </g>
                </g>
            </g>
        </g>
    </g>
</svg>