<?xml version="1.0" encoding="UTF-8"?>
<svg width="30px" height="30px" viewBox="0 0 30 30" version="1.1" xmlns="http://www.w3.org/2000/svg" xmlns:xlink="http://www.w3.org/1999/xlink">
    <!-- Generator: Sketch 52.5 (67469) - http://www.bohemiancoding.com/sketch -->
    <title>JS</title>
    <desc>Created with Sketch.</desc>
    <g id="wizschool-1.1v" stroke="none" stroke-width="1" fill="none" fill-rule="evenodd">
        <g id="main-features" transform="translate(-590.000000, -1126.000000)">
            <g id="wizclass" transform="translate(360.000000, 809.000000)">
                <g id="Rectangle-+-New-Mask-Copy-17" transform="translate(0.000000, 72.000000)">
                    <g id="JS" transform="translate(230.000000, 245.000000)">
                        <rect id="Rectangle-Copy-4" stroke="#E3E8F0" fill="#F8F9FB" fill-rule="nonzero" x="0.5" y="0.5" width="29" height="29" rx="7"></rect>
                        <path d="M15.4444465,18.2491929 C16.1437759,18.6163724 17.2627976,18.9835834 18.3993026,18.9835834 C19.6232237,18.9835834 20.2701349,18.4765381 20.2701349,17.6897294 C20.2701349,16.9729168 19.7106398,16.5358043 18.2944032,16.0462107 C16.3361231,15.3468181 15.0423321,14.2627945 15.0423321,12.5318911 C15.0423321,10.5211613 16.7383006,8.99999369 19.5008095,8.99999369 C20.8471132,8.99999369 21.8087227,9.26233688 22.5081467,9.59448679 L21.9136221,11.7275677 C21.459058,11.5003172 20.6022533,11.1680726 19.4659061,11.1680726 C18.3118864,11.1680726 17.7523913,11.7100844 17.7523913,12.3045775 C17.7523913,13.0564197 18.3993026,13.3885696 19.937985,13.9830943 C22.0185215,14.7524197 22.9801941,15.8364434 22.9801941,17.5149286 C22.9801941,19.4906604 21.4765412,21.1691771 18.2419535,21.1691771 C16.8955866,21.1691771 15.5667661,20.8019976 14.9024663,20.4348181 L15.4444465,18.2491929 Z" id="Fill-1" fill="#8592A6"></path>
                        <path d="M10.4794099,9.19231558 L13.1369878,9.19231558 L13.1369878,16.6406469 C13.1369878,19.9976489 11.5284986,21.1691519 8.95824221,21.1691519 C8.32884576,21.1691519 7.5245854,21.0642525 6.99999369,20.8894201 L7.29724024,18.738856 C7.66441972,18.8612387 8.13649862,18.9486548 8.66099566,18.9486548 C9.7799858,18.9486548 10.4794099,18.4415779 10.4794099,16.6232268 L10.4794099,9.19231558 Z" id="Fill-4" fill="#8592A6"></path>
                    </g>
                </g>
            </g>
        </g>
    </g>
</svg>