<svg xmlns="http://www.w3.org/2000/svg" width="100" height="22" viewBox="0 0 100 22">
    <defs>
        <filter id="a" width="133.1%" height="128.8%" x="-16.6%" y="-14.4%" filterUnits="objectBoundingBox">
            <feOffset dy="10" in="SourceAlpha" result="shadowOffsetOuter1"/>
            <feGaussianBlur in="shadowOffsetOuter1" result="shadowBlurOuter1" stdDeviation="10"/>
            <feColorMatrix in="shadowBlurOuter1" result="shadowMatrixOuter1" values="0 0 0 0 0 0 0 0 0 0 0 0 0 0 0 0 0 0 0.1 0"/>
            <feMerge>
                <feMergeNode in="shadowMatrixOuter1"/>
                <feMergeNode in="SourceGraphic"/>
            </feMerge>
        </filter>
    </defs>
    <g fill="#1FB6FF" fill-rule="evenodd" filter="url(#a)">
        <rect width="100" height="22" fill-opacity=".2" rx="7"/>
        <path fill-rule="nonzero" d="M23.252 13.848c0 1.26-1.332 2.1-3.648 2.1-2.304 0-3.624-.84-3.624-2.1 0-1.284 1.32-2.124 3.624-2.124 2.316 0 3.648.84 3.648 2.124zm-8.52-6.888V5.94h5.628v1.02h-2.136v.036c0 1.596 1.188 2.772 2.436 3.156l-.684.972c-.876-.348-1.932-1.188-2.388-2.184-.312 1.044-1.464 2.088-2.532 2.496l-.744-.96c1.5-.552 2.64-1.836 2.64-3.42V6.96h-2.22zm5.46 1.908v-1.02h1.74V5.256h1.236v6.432h-1.236v-2.82h-1.74zm-.588 3.864c-1.476 0-2.352.408-2.352 1.116 0 .696.876 1.104 2.352 1.104 1.512 0 2.388-.408 2.388-1.104 0-.708-.876-1.116-2.388-1.116zm13.584-1.32h-3.024v2.196H34.4v.984h-9.66v-.984h4.2v-2.196h-2.988V6.024h1.224V7.74h4.788V6.012h1.224v5.4zm-1.224-.984V8.712h-4.788v1.716h4.788zm8.004-5.064c2.364 0 3.744.708 3.744 1.896 0 1.08-1.152 1.776-3.168 1.884v.708h4.236v.984h-9.66v-.984h4.2v-.72c-1.956-.12-3.072-.804-3.072-1.872 0-1.188 1.368-1.896 3.72-1.896zm3.936 10.512h-7.548v-2.628h5.916v-.72h-5.94v-.984h7.164v2.592h-5.904v.756h6.312v.984zm-3.936-9.564c-1.548 0-2.472.384-2.472.948s.924.96 2.472.96 2.484-.396 2.484-.96-.936-.948-2.484-.948zm14.328 5.22h-1.224V5.256h1.224v6.276zm0 4.272h-7.188v-3.72h7.188v3.72zm-1.224-.972v-1.788h-4.74v1.788h4.74zm-1.308-5.016l.156.96c-1.056.228-2.976.348-4.536.36H46.04V7.932h3.552V6.84h-3.6v-.984h4.836V8.88h-3.552v1.26c1.308 0 3.54-.096 4.488-.324zm10.788 2.232l.084.96c-.744.12-2.028.24-3.42.312-1.092.06-2.244.084-3.228.084l-.192-1.032c.528 0 1.056 0 1.56-.012l-.348-4.26 1.188-.144.252 4.38c.384-.012.768-.024 1.128-.048h.156l.264-4.344 1.212.12-.36 4.164c.696-.06 1.272-.12 1.704-.18zm2.124 3.9h-1.224V5.256h1.224v10.692zm-2.544-8.724h-5.988V6.24h5.988v.984zm12.432-1.968v4.176h1.656v1.02h-1.656v5.496h-1.236V5.256h1.236zM66.38 9.828c0-2.256 1.02-3.744 2.736-3.744 1.716 0 2.712 1.488 2.712 3.756 0 2.244-.996 3.732-2.712 3.732-1.716 0-2.736-1.488-2.736-3.744zm4.284 0c0-1.716-.636-2.736-1.548-2.736-.9 0-1.524 1.02-1.524 2.736 0 1.716.624 2.748 1.524 2.748.912 0 1.548-1.032 1.548-2.748zm15.636 3.72v.972h-9.66v-.972h9.66zm-1.128-2.424h-7.296V6.216h7.188v.972h-5.952v2.952h6.06v.984z"/>
    </g>
</svg>
