<svg xmlns="http://www.w3.org/2000/svg" width="21" height="20" viewBox="0 0 21 20">
    <path fill="#3A405B" fill-rule="evenodd" d="M13.388 13v5.242c0 .482.521.78.941.532l4.375-2.626c.395-.235.395-.818 0-1.064l-4.375-2.628a.63.63 0 0 0-.941.544m-11.15-1.089h7.434c.682 0 1.239.556 1.239 1.238 0 .68-.557 1.24-1.24 1.24H2.239c-.68 0-1.238-.56-1.238-1.24 0-.682.559-1.238 1.238-1.238m0-9.911h12.39a1.24 1.24 0 0 1 1.238 1.238c0 .68-.557 1.24-1.239 1.24H2.238c-.68 0-1.238-.56-1.238-1.24C1 2.556 1.559 2 2.238 2m0 4.956h12.39a1.24 1.24 0 0 1 1.238 1.238c0 .68-.557 1.24-1.239 1.24H2.238c-.68 0-1.238-.56-1.238-1.24 0-.682.559-1.238 1.238-1.238"/>
</svg>
