<svg xmlns="http://www.w3.org/2000/svg" width="119" height="51" viewBox="0 0 119 51">
    <path fill="#23D8AF" fill-rule="nonzero" d="M29.64 22.824c-.544 0-1.028-.088-1.452-.264a3.068 3.068 0 0 1-1.728-1.764 3.389 3.389 0 0 1-.228-1.236v-.288c0-.864.292-1.552.876-2.064.584-.512 1.428-.768 2.532-.768h12.072v-.624c0-.144-.024-.244-.072-.3-.048-.056-.152-.084-.312-.084H27.816c-.464 0-.8-.144-1.008-.432a1.638 1.638 0 0 1-.312-.984c0-.336.104-.652.312-.948.208-.296.544-.444 1.008-.444h15.84c1.072 0 1.828.184 2.268.552.44.368.66 1.024.66 1.968v3.84h-14.76c-.176 0-.308.044-.396.132a.44.44 0 0 0-.132.324v.072a.44.44 0 0 0 .132.324c.088.088.22.132.396.132H45.84c.48 0 .828.152 1.044.456.216.304.324.64.324 1.008 0 .336-.104.652-.312.948-.208.296-.56.444-1.056.444h-16.2zM26.112 8.016c1.216-.272 2.124-.864 2.724-1.776.6-.912.9-2.104.9-3.576v-.096c0-.368.072-.688.216-.96.144-.272.332-.492.564-.66.232-.168.496-.292.792-.372.296-.08.604-.12.924-.12a2.846 2.846 0 0 1 1.644.54c.472.344.708.868.708 1.572v.096c0 .304-.012.6-.036.888-.024.288-.052.568-.084.84.848.08 1.628.28 2.34.6a4.85 4.85 0 0 1 1.8 1.38c.488.6.856 1.336 1.104 2.208.248.872.34 1.892.276 3.06h-4.68c.112-1.056-.012-1.9-.372-2.532-.36-.632-.924-1.012-1.692-1.14-.72 1.2-1.616 2.136-2.688 2.808-1.072.672-2.208 1.04-3.408 1.104-.624.032-1.14-.096-1.548-.384a1.889 1.889 0 0 1-.78-1.128c-.128-.56-.072-1.06.168-1.5.24-.44.616-.724 1.128-.852zm15.624-5.352c0-.784.244-1.376.732-1.776.488-.4 1.052-.6 1.692-.6.304 0 .604.052.9.156.296.104.556.256.78.456.224.2.404.448.54.744s.204.636.204 1.02v9.192h-4.848V2.664zM48.864 18a9.961 9.961 0 0 0 2.232-2.088A9.791 9.791 0 0 0 52.56 13.2c.368-1.024.632-2.192.792-3.504.16-1.312.24-2.808.24-4.488V3.336c0-.384.068-.72.204-1.008.136-.288.316-.532.54-.732.224-.2.48-.348.768-.444.288-.096.592-.144.912-.144.304 0 .6.052.888.156a2.264 2.264 0 0 1 1.308 1.188c.136.288.204.616.204.984v1.848c0 1.408-.072 2.736-.216 3.984 1.024.384 1.924.9 2.7 1.548.776.648 1.408 1.464 1.896 2.448s.828 2.156 1.02 3.516c.192 1.36.232 2.952.12 4.776h-4.68c.256-1.984.216-3.624-.12-4.92-.336-1.296-.936-2.28-1.8-2.952-.544 1.84-1.284 3.384-2.22 4.632-.936 1.248-2.036 2.232-3.3 2.952-.304.176-.616.3-.936.372-.32.072-.632.092-.936.06a2.483 2.483 0 0 1-.828-.228 1.684 1.684 0 0 1-.612-.492 2.137 2.137 0 0 1-.372-.66 1.964 1.964 0 0 1-.108-.78c.016-.272.092-.532.228-.78s.34-.468.612-.66zm16.92 4.824V2.664c0-.784.24-1.376.72-1.776.48-.4 1.04-.6 1.68-.6.64 0 1.2.2 1.68.6.48.4.72.992.72 1.776v20.16h-4.8zm9.648-12.936a10.77 10.77 0 0 0 2.496-.228c.768-.168 1.436-.428 2.004-.78a4.038 4.038 0 0 0 1.344-1.332c.328-.536.492-1.156.492-1.86v-.264c0-.352-.184-.528-.552-.528h-5.472c-.352 0-.652-.056-.9-.168a1.734 1.734 0 0 1-.96-1.056 2.26 2.26 0 0 1-.108-.696c0-.24.036-.472.108-.696a1.734 1.734 0 0 1 .96-1.056c.248-.112.548-.168.9-.168h7.32c1.312 0 2.224.268 2.736.804s.768 1.348.768 2.436v1.272c0 1.44-.308 2.7-.924 3.78a7.883 7.883 0 0 1-2.472 2.664c-1.032.696-2.232 1.192-3.6 1.488a15.01 15.01 0 0 1-4.308.276 2.012 2.012 0 0 1-1.38-.636c-.376-.392-.548-.908-.516-1.548.032-.56.24-.988.624-1.284.384-.296.864-.436 1.44-.42zm2.616 12.936c-.672 0-1.228-.064-1.668-.192-.44-.128-.788-.328-1.044-.6-.256-.272-.436-.632-.54-1.08-.104-.448-.156-.992-.156-1.632v-2.208c0-.816.244-1.416.732-1.8.488-.384 1.068-.576 1.74-.576.672 0 1.24.192 1.704.576.464.384.696.984.696 1.8v1.392c0 .272.04.44.12.504.08.064.256.096.528.096h12.576c.736 0 1.256.188 1.56.564.304.376.456.804.456 1.284 0 .496-.156.932-.468 1.308-.312.376-.828.564-1.548.564H78.048zm11.184-20.16c0-.784.232-1.376.696-1.776.464-.4 1.016-.6 1.656-.6.624 0 1.172.204 1.644.612.472.408.708.996.708 1.764v3.624h.744c.368 0 .672.064.912.192s.432.292.576.492c.144.2.248.424.312.672.064.248.096.492.096.732s-.032.484-.096.732a1.99 1.99 0 0 1-.312.672c-.144.2-.34.364-.588.492-.248.128-.548.192-.9.192h-.744v6.792h-4.704V2.664zM14.424 31.168a9.019 9.019 0 0 1-.336 2.208 9.441 9.441 0 0 1 3 .6c.992.368 1.888.92 2.688 1.656.8.736 1.468 1.664 2.004 2.784.536 1.12.86 2.448.972 3.984H17.88a6.718 6.718 0 0 0-.672-2.196 5.494 5.494 0 0 0-1.26-1.632 5.192 5.192 0 0 0-1.716-.996 5.74 5.74 0 0 0-2.04-.312c-.544.752-1.16 1.44-1.848 2.064a13.242 13.242 0 0 1-2.172 1.608c-.76.448-1.544.8-2.352 1.056a8.454 8.454 0 0 1-2.388.408c-.592.016-1.104-.14-1.536-.468-.432-.328-.68-.788-.744-1.38-.064-.576.056-1.08.36-1.512.304-.432.76-.712 1.368-.84a8.496 8.496 0 0 0 2.292-.888 8.247 8.247 0 0 0 2.004-1.572 8.7 8.7 0 0 0 1.488-2.196c.4-.832.664-1.752.792-2.76.096-.768.404-1.332.924-1.692.52-.36 1.116-.516 1.788-.468.704.064 1.264.312 1.68.744.416.432.608 1.032.576 1.8zm6.744 15.12c.368 0 .684.06.948.18.264.12.48.276.648.468.168.192.288.412.36.66.072.248.108.492.108.732 0 .256-.04.504-.12.744-.08.24-.204.456-.372.648s-.38.344-.636.456c-.256.112-.568.168-.936.168H2.832c-.368 0-.68-.056-.936-.168a1.776 1.776 0 0 1-.636-.456 1.876 1.876 0 0 1-.372-.648c-.08-.24-.12-.488-.12-.744 0-.24.036-.484.108-.732.072-.248.192-.468.36-.66.168-.192.384-.348.648-.468.264-.12.58-.18.948-.18h18.336zm19.2-3.816c.288-.528.504-1.216.648-2.064H27.672c-.368 0-.68-.06-.936-.18a2.043 2.043 0 0 1-.648-.468 1.786 1.786 0 0 1-.384-.648c-.08-.24-.12-.48-.12-.72s.04-.48.12-.72c.08-.24.204-.456.372-.648s.384-.348.648-.468c.264-.12.58-.18.948-.18h13.656v-2.568a.61.61 0 0 0-.156-.432c-.104-.112-.252-.168-.444-.168H27.936c-.368 0-.684-.06-.948-.18a1.878 1.878 0 0 1-1.032-1.128 2.18 2.18 0 0 1-.132-.732c0-.24.04-.48.12-.72a1.904 1.904 0 0 1 1.044-1.14c.264-.12.58-.18.948-.18h14.376c1.36 0 2.328.304 2.904.912.576.608.864 1.472.864 2.592v2.616c0 2.208-.124 4.096-.372 5.664-.248 1.568-.732 2.84-1.452 3.816-.144.192-.34.36-.588.504a2.786 2.786 0 0 1-1.764.348 2.486 2.486 0 0 1-.96-.324c-.528-.304-.824-.724-.888-1.26a2.433 2.433 0 0 1 .312-1.524zm4.8 3.84c.368 0 .684.06.948.18.264.12.48.276.648.468.168.192.288.408.36.648.072.24.108.48.108.72 0 .256-.04.504-.12.744-.08.24-.204.456-.372.648s-.38.344-.636.456c-.256.112-.568.168-.936.168H26.832c-.368 0-.68-.056-.936-.168a1.776 1.776 0 0 1-.636-.456 1.876 1.876 0 0 1-.372-.648c-.08-.24-.12-.488-.12-.744 0-.24.036-.48.108-.72.072-.24.192-.456.36-.648.168-.192.384-.348.648-.468.264-.12.58-.18.948-.18h18.336zm8.88 4.512c-.672 0-1.228-.064-1.668-.192-.44-.128-.788-.328-1.044-.6-.256-.272-.436-.632-.54-1.08-.104-.448-.156-.992-.156-1.632v-1.536c0-.816.244-1.396.732-1.74.488-.344 1.068-.516 1.74-.516.672 0 1.24.172 1.704.516.464.344.696.924.696 1.74v.72c0 .272.04.44.12.504.08.064.256.096.528.096h13.032c.736 0 1.256.188 1.56.564.304.376.456.804.456 1.284 0 .496-.156.932-.468 1.308-.312.376-.828.564-1.548.564H54.048zm-.744-8.112c-.624 0-1.184-.12-1.68-.36a4.02 4.02 0 0 1-1.26-.936 4.062 4.062 0 0 1-.792-1.332 4.481 4.481 0 0 1-.276-1.548v-.576c0-.528.088-1.024.264-1.488.176-.464.436-.868.78-1.212a3.585 3.585 0 0 1 1.26-.804c.496-.192 1.064-.288 1.704-.288h4.512v-1.032c0-.208-.044-.344-.132-.408-.088-.064-.244-.096-.468-.096H51.12c-.304 0-.564-.056-.78-.168a1.566 1.566 0 0 1-.528-.432 1.802 1.802 0 0 1-.3-.576 2.112 2.112 0 0 1-.096-.624c0-.224.032-.444.096-.66a1.669 1.669 0 0 1 .852-1.02 1.62 1.62 0 0 1 .756-.168h7.92c1.28 0 2.2.296 2.76.888.56.592.84 1.36.84 2.304v5.376h-7.632c-.496 0-.744.224-.744.672v.216c0 .416.248.624.744.624h8.04a1.566 1.566 0 0 1 1.284.6c.136.176.236.376.3.6.064.224.096.44.096.648 0 .208-.032.42-.096.636a1.77 1.77 0 0 1-.288.576c-.128.168-.3.308-.516.42a1.676 1.676 0 0 1-.78.168h-9.744zm12.432-12.048c0-.784.244-1.376.732-1.776.488-.4 1.052-.6 1.692-.6.304 0 .604.052.9.156.296.104.556.256.78.456.224.2.404.448.54.744s.204.636.204 1.02v14.592h-4.848V30.664zm19.896 17.64h-1.824c-.72 0-1.24-.18-1.56-.54-.32-.36-.48-.796-.48-1.308 0-.496.156-.924.468-1.284.312-.36.836-.54 1.572-.54h1.824V30.304c0-.672.208-1.176.624-1.512a2.226 2.226 0 0 1 1.44-.504c.544 0 1.024.172 1.44.516.416.344.624.844.624 1.5v20.52h-4.128v-2.52zm5.208-18c0-.672.208-1.176.624-1.512a2.26 2.26 0 0 1 1.464-.504c.528 0 1.012.172 1.452.516.44.344.66.844.66 1.5v20.52h-4.2v-20.52zM75 47.392a2.632 2.632 0 0 0 1.308-.768c.36-.384.54-.936.54-1.656V43.6H74.88c-.72 0-1.24-.192-1.56-.576a2.036 2.036 0 0 1-.48-1.344c0-.496.156-.944.468-1.344.312-.4.836-.6 1.572-.6h8.304c.368 0 .68.056.936.168.256.112.464.256.624.432.16.176.276.384.348.624.072.24.108.48.108.72 0 .512-.156.96-.468 1.344-.312.384-.828.576-1.548.576H81.12v1.368c0 .96-.152 1.8-.456 2.52a5.653 5.653 0 0 1-1.2 1.824 5.56 5.56 0 0 1-1.692 1.164 6.243 6.243 0 0 1-1.932.516c-.608.064-1.136-.064-1.584-.384-.448-.32-.688-.736-.72-1.248-.032-.56.076-.996.324-1.308.248-.312.628-.532 1.14-.66zm-.864-11.952c.8-.256 1.4-.728 1.8-1.416.4-.688.6-1.688.6-3v-.24c0-.768.208-1.328.624-1.68.416-.352.928-.528 1.536-.528s1.136.176 1.584.528c.448.352.672.912.672 1.68v.24a11.19 11.19 0 0 1-.096 1.464c1.44.192 2.508.796 3.204 1.812.696 1.016.94 2.548.732 4.596H80.52c.176-.72.212-1.34.108-1.86s-.356-.892-.756-1.116c-.512.96-1.172 1.712-1.98 2.256a5.583 5.583 0 0 1-2.724.936c-.608.048-1.124-.072-1.548-.36-.424-.288-.668-.672-.732-1.152-.064-.512 0-.96.192-1.344.192-.384.544-.656 1.056-.816zm39.672 5.616h-3.144v2.856c0 1.056-.16 1.988-.48 2.796-.32.808-.768 1.484-1.344 2.028a5.549 5.549 0 0 1-2.088 1.224c-.816.272-1.72.408-2.712.408-.992 0-1.896-.136-2.712-.408a5.662 5.662 0 0 1-2.1-1.224c-.584-.544-1.036-1.22-1.356-2.028-.32-.808-.48-1.74-.48-2.796v-8.784c0-1.056.16-1.988.48-2.796.32-.808.772-1.484 1.356-2.028a5.662 5.662 0 0 1 2.1-1.224c.816-.272 1.72-.408 2.712-.408.992 0 1.896.136 2.712.408.816.272 1.512.68 2.088 1.224.576.544 1.024 1.22 1.344 2.028.32.808.48 1.74.48 2.796v1.824h3.144v-6.336c0-.768.24-1.348.72-1.74a2.543 2.543 0 0 1 1.656-.588c.304 0 .6.052.888.156.288.104.544.252.768.444.224.192.404.432.54.72s.204.624.204 1.008v20.208h-4.776v-9.768zm-11.712 2.976c0 .816.18 1.42.54 1.812.36.392.828.588 1.404.588s1.044-.196 1.404-.588c.36-.392.54-.996.54-1.812v-9.024c0-.816-.18-1.42-.54-1.812-.36-.392-.828-.588-1.404-.588s-1.044.196-1.404.588c-.36.392-.54.996-.54 1.812v9.024z"/>
</svg>
