<svg xmlns="http://www.w3.org/2000/svg" width="20" height="20" viewBox="0 0 20 20">
    <defs>
        <filter id="a" width="125.3%" height="120.7%" x="-12.6%" y="-10.3%" filterUnits="objectBoundingBox">
            <feOffset dy="2" in="SourceAlpha" result="shadowOffsetOuter1"/>
            <feGaussianBlur in="shadowOffsetOuter1" result="shadowBlurOuter1" stdDeviation="5"/>
            <feColorMatrix in="shadowBlurOuter1" result="shadowMatrixOuter1" values="0 0 0 0 0 0 0 0 0 0 0 0 0 0 0 0 0 0 0.1 0"/>
            <feMerge>
                <feMergeNode in="shadowMatrixOuter1"/>
                <feMergeNode in="SourceGraphic"/>
            </feMerge>
        </filter>
    </defs>
    <g fill="none" fill-rule="evenodd" filter="url(#a)" transform="translate(-15 -107)">
        <path d="M15 107h20v20H15z"/>
        <path fill="#000" fill-rule="nonzero" stroke="#000" stroke-width=".5" d="M30.577 114.551a.5.5 0 1 0-.529.849c.546.34.871.926.871 1.569 0 .643-.325 1.23-.87 1.57l-8.202 5.113c-.579.36-1.28.379-1.876.048a1.827 1.827 0 0 1-.952-1.617v-10.228c0-.682.356-1.286.952-1.617a1.827 1.827 0 0 1 1.876.048l4.774 2.977a.5.5 0 0 0 .53-.849l-4.775-2.977a2.814 2.814 0 0 0-2.89-.073 2.814 2.814 0 0 0-1.467 2.491v10.228c0 1.05.548 1.981 1.467 2.491.437.243.911.364 1.384.364.52 0 1.04-.146 1.506-.437l8.201-5.114a2.833 2.833 0 0 0 1.342-2.418c0-.99-.501-1.894-1.342-2.418z"/>
    </g>
</svg>
