<svg xmlns="http://www.w3.org/2000/svg" width="173" height="51" viewBox="0 0 173 51">
    <path fill="#23D8AF" fill-rule="nonzero" d="M4.448 22.824c-.72 0-1.304-.06-1.752-.18-.448-.12-.796-.32-1.044-.6-.248-.28-.416-.652-.504-1.116-.088-.464-.132-1.048-.132-1.752v-1.944c0-.688.044-1.268.132-1.74.088-.472.256-.848.504-1.128.248-.28.596-.48 1.044-.6.448-.12 1.032-.18 1.752-.18h13.464c.72 0 1.304.06 1.752.18.448.12.796.32 1.044.6.248.28.416.656.504 1.128.088.472.132 1.052.132 1.74v5.592H4.448zM2.12 8.952c.88.048 1.704.02 2.472-.084.768-.104 1.436-.292 2.004-.564.568-.272 1.012-.636 1.332-1.092.32-.456.48-1.028.48-1.716v-.24c0-.352-.184-.528-.552-.528H2.384c-.352 0-.652-.052-.9-.156a1.62 1.62 0 0 1-.96-1.02 2.26 2.26 0 0 1-.108-.696c0-.24.036-.472.108-.696a1.62 1.62 0 0 1 .96-1.02c.248-.104.548-.156.9-.156h7.248c1.312 0 2.22.268 2.724.804s.756 1.348.756 2.436v.768h3.336V2.616c0-.768.24-1.348.72-1.74a2.543 2.543 0 0 1 1.656-.588c.304 0 .6.052.888.156.288.104.544.252.768.444.224.192.404.432.54.72s.204.624.204 1.008v10.08h-4.776v-3.96h-4.08a6.264 6.264 0 0 1-1.692 2.076 8.429 8.429 0 0 1-2.448 1.344c-.92.328-1.924.544-3.012.648-1.088.104-2.208.1-3.36-.012-.544-.048-1-.268-1.368-.66-.368-.392-.528-.908-.48-1.548.048-.56.268-.98.66-1.26s.876-.404 1.452-.372zm3.624 9.84c0 .288.036.468.108.54.072.072.228.108.468.108h10.296v-1.872c0-.272-.04-.444-.12-.516-.08-.072-.24-.108-.48-.108H6.32c-.24 0-.396.036-.468.108-.072.072-.108.244-.108.516v1.224zm34.968-3.96c.752 0 1.408.104 1.968.312.56.208 1.028.492 1.404.852a3.4 3.4 0 0 1 .84 1.272c.184.488.276 1.02.276 1.596 0 .576-.092 1.108-.276 1.596a3.4 3.4 0 0 1-.84 1.272c-.376.36-.844.644-1.404.852-.56.208-1.216.312-1.968.312H28.568c-.752 0-1.412-.104-1.98-.312-.568-.208-1.036-.492-1.404-.852a3.47 3.47 0 0 1-.828-1.272 4.489 4.489 0 0 1-.276-1.596c0-.576.092-1.108.276-1.596a3.47 3.47 0 0 1 .828-1.272c.368-.36.836-.644 1.404-.852.568-.208 1.228-.312 1.98-.312h12.144zM43.016.624c.688 0 1.176.18 1.464.54.288.36.432.772.432 1.236 0 .464-.148.876-.444 1.236-.296.36-.78.54-1.452.54h-5.904c-.08.352-.176.648-.288.888a17.008 17.008 0 0 1 2.208-.048c.784.032 1.532.124 2.244.276.712.152 1.356.4 1.932.744a5.247 5.247 0 0 1 1.5 1.356c.424.56.756 1.264.996 2.112h-4.848a2.795 2.795 0 0 0-.756-.888 4.293 4.293 0 0 0-1.044-.588 5.966 5.966 0 0 0-1.236-.336 8.235 8.235 0 0 0-1.332-.108c-.32 0-.648.012-.984.036-.336.024-.68.076-1.032.156a10.49 10.49 0 0 1-1.896.948c-.688.264-1.408.468-2.16.612-.752.144-1.52.228-2.304.252-.784.024-1.56-.004-2.328-.084-.656-.064-1.144-.284-1.464-.66-.32-.376-.448-.868-.384-1.476.048-.464.256-.832.624-1.104.368-.272.832-.392 1.392-.36a20.5 20.5 0 0 0 2.208.024 11.228 11.228 0 0 0 1.92-.24 5.182 5.182 0 0 0 1.5-.564c.424-.248.748-.564.972-.948h-6.288c-.672 0-1.156-.18-1.452-.54a1.891 1.891 0 0 1-.444-1.236c0-.464.144-.876.432-1.236.288-.36.776-.54 1.464-.54h16.752zM44 10.272c.336 0 .624.052.864.156.24.104.436.24.588.408.152.168.26.36.324.576.064.216.096.436.096.66 0 .464-.144.872-.432 1.224-.288.352-.768.528-1.44.528H25.28c-.672 0-1.152-.176-1.44-.528a1.876 1.876 0 0 1-.432-1.224c0-.224.032-.444.096-.66.064-.216.172-.408.324-.576.152-.168.348-.304.588-.408.24-.104.528-.156.864-.156H44zm-4.704 9.408c.432 0 .712-.092.84-.276a.947.947 0 0 0 .192-.54.947.947 0 0 0-.192-.54c-.128-.184-.408-.276-.84-.276h-9.312c-.432 0-.712.092-.84.276a.947.947 0 0 0-.192.54c0 .176.064.356.192.54.128.184.408.276.84.276h9.312zm18.216-9.912v1.656h3.984c.736 0 1.256.176 1.56.528.304.352.456.776.456 1.272 0 .512-.156.944-.468 1.296-.312.352-.828.528-1.548.528H49.4c-.72 0-1.24-.176-1.56-.528-.32-.352-.48-.784-.48-1.296 0-.496.156-.92.468-1.272.312-.352.836-.528 1.572-.528H53V9.768h-1.512c-.688 0-1.24-.04-1.656-.12-.416-.08-.736-.236-.96-.468-.224-.232-.372-.556-.444-.972-.072-.416-.108-.96-.108-1.632v-2.4c0-.672.036-1.216.108-1.632.072-.416.22-.74.444-.972.224-.232.544-.388.96-.468.416-.08.968-.12 1.656-.12h8.976c.608 0 1.052.18 1.332.54.28.36.42.772.42 1.236 0 .464-.14.868-.42 1.212-.28.344-.724.516-1.332.516h-6.888c-.272 0-.452.044-.54.132-.088.088-.132.268-.132.54v.456c0 .272.044.452.132.54.088.088.268.132.54.132h7.104c.608 0 1.056.172 1.344.516.288.344.432.748.432 1.212 0 .464-.144.872-.432 1.224-.288.352-.736.528-1.344.528h-3.168zm-4.824 13.056c-.672 0-1.228-.064-1.668-.192-.44-.128-.788-.328-1.044-.6-.256-.272-.436-.632-.54-1.08-.104-.448-.156-.992-.156-1.632v-1.152c0-.816.244-1.408.732-1.776.488-.368 1.068-.552 1.74-.552.672 0 1.24.184 1.704.552.464.368.696.96.696 1.776v.264c0 .272.04.46.12.564.08.104.256.156.528.156h13.032c.736 0 1.256.184 1.56.552.304.368.456.792.456 1.272 0 .496-.156.928-.468 1.296-.312.368-.828.552-1.548.552H52.688zm11.688-20.16c0-.784.244-1.376.732-1.776.488-.4 1.052-.6 1.692-.6.304 0 .604.052.9.156.296.104.556.256.78.456.224.2.404.448.54.744s.204.636.204 1.02v14.592h-4.848V2.664zM93.8 14.352c.272-.672.48-1.52.624-2.544H80.96c-.368 0-.68-.06-.936-.18a2.043 2.043 0 0 1-.648-.468 1.77 1.77 0 0 1-.384-.66 2.265 2.265 0 0 1 0-1.452c.08-.24.204-.46.372-.66s.384-.36.648-.48.58-.18.948-.18h13.752v-2.04a.61.61 0 0 0-.156-.432c-.104-.112-.252-.168-.444-.168H81.2c-.368 0-.684-.06-.948-.18A1.878 1.878 0 0 1 79.22 3.78a2.18 2.18 0 0 1-.132-.732c0-.24.04-.48.12-.72a1.904 1.904 0 0 1 1.044-1.14c.264-.12.58-.18.948-.18h14.616c1.36 0 2.328.304 2.904.912.576.608.864 1.472.864 2.592v2.64c0 1.984-.104 3.672-.312 5.064-.208 1.392-.536 2.568-.984 3.528-.304.656-.776 1.116-1.416 1.38-.64.264-1.344.252-2.112-.036a1.859 1.859 0 0 1-.708-.468 1.663 1.663 0 0 1-.384-.684 2.19 2.19 0 0 1-.072-.792c.024-.272.092-.536.204-.792zm-8.76 4.104v-3.48c0-.384.068-.708.204-.972.136-.264.32-.476.552-.636.232-.16.496-.272.792-.336.296-.064.604-.096.924-.096.304 0 .608.036.912.108.304.072.568.184.792.336.224.152.408.36.552.624.144.264.216.588.216.972v3.48h8.592c.368 0 .68.056.936.168.256.112.464.26.624.444.16.184.276.392.348.624.072.232.108.468.108.708 0 .496-.156.944-.468 1.344-.312.4-.828.6-1.548.6H80.144c-.72 0-1.236-.2-1.548-.6a2.13 2.13 0 0 1-.468-1.344c0-.24.036-.476.108-.708.072-.232.188-.44.348-.624a1.73 1.73 0 0 1 .624-.444c.256-.112.568-.168.936-.168h4.896zm18.552-.264c0-.64.104-1.248.312-1.824a4.185 4.185 0 0 1 .924-1.5c.408-.424.924-.76 1.548-1.008s1.352-.372 2.184-.372h10.656c.816 0 1.536.12 2.16.36.624.24 1.144.572 1.56.996.416.424.728.924.936 1.5a5.4 5.4 0 0 1 .312 1.848 5.4 5.4 0 0 1-.312 1.848 4.104 4.104 0 0 1-.936 1.5c-.416.424-.936.756-1.56.996s-1.344.36-2.16.36H108.56c-.832 0-1.56-.124-2.184-.372-.624-.248-1.14-.584-1.548-1.008a4.205 4.205 0 0 1-.924-1.488 5.299 5.299 0 0 1-.312-1.836zm4.872 0c0 .304.096.604.288.9.192.296.552.444 1.08.444h8.112c.528 0 .888-.148 1.08-.444.192-.296.288-.596.288-.9 0-.304-.096-.604-.288-.9-.192-.296-.552-.444-1.08-.444h-8.112c-.528 0-.888.148-1.08.444a1.638 1.638 0 0 0-.288.9zm10.632-15.528c0-.784.244-1.376.732-1.776.488-.4 1.052-.6 1.692-.6.304 0 .604.052.9.156.296.104.556.256.78.456.224.2.404.448.54.744s.204.636.204 1.02v10.032h-4.848V2.664zM114.8.984c.304 0 .564.056.78.168.216.112.392.26.528.444s.232.388.288.612c.056.224.084.44.084.648 0 .208-.032.42-.096.636-.064.216-.16.412-.288.588-.128.176-.3.32-.516.432a1.676 1.676 0 0 1-.78.168h-6.552c-.448 0-.672.192-.672.576V7.92c0 .224.056.38.168.468.112.088.28.132.504.132h7.704c.304 0 .568.056.792.168.224.112.4.256.528.432s.224.368.288.576c.064.208.096.416.096.624 0 .224-.032.444-.096.66-.064.216-.16.412-.288.588-.128.176-.304.32-.528.432a1.751 1.751 0 0 1-.792.168h-9.72c-.672 0-1.224-.056-1.656-.168-.432-.112-.78-.3-1.044-.564-.264-.264-.448-.608-.552-1.032-.104-.424-.156-.948-.156-1.572V4.32c0-.624.052-1.148.156-1.572.104-.424.288-.768.552-1.032.264-.264.612-.452 1.044-.564.432-.112.984-.168 1.656-.168h8.568zm14.88 17.52v-6.648c0-.8.224-1.352.672-1.656.448-.304.992-.456 1.632-.456.624 0 1.164.156 1.62.468.456.312.684.86.684 1.644v6.648h1.68v-6.648c0-.8.224-1.352.672-1.656.448-.304.992-.456 1.632-.456.624 0 1.164.156 1.62.468.456.312.684.86.684 1.644v6.648h6c.736 0 1.256.2 1.56.6.304.4.456.84.456 1.32 0 .496-.156.94-.468 1.332-.312.392-.828.588-1.548.588h-18.432c-.72 0-1.236-.196-1.548-.588a2.082 2.082 0 0 1-.468-1.332c0-.48.152-.92.456-1.32.304-.4.824-.6 1.56-.6h1.536zm12.192-4.248c.256-.784.472-1.812.648-3.084.176-1.272.264-2.724.264-4.356v-1.08a.654.654 0 0 0-.156-.444c-.104-.12-.252-.18-.444-.18h-12.936c-.368 0-.688-.06-.96-.18a1.98 1.98 0 0 1-.672-.468 1.913 1.913 0 0 1-.396-.66 2.246 2.246 0 0 1-.132-.756c0-.24.044-.484.132-.732.088-.248.22-.468.396-.66.176-.192.4-.348.672-.468.272-.12.592-.18.96-.18h14.496c1.392 0 2.384.312 2.976.936.592.624.888 1.512.888 2.664V6.84c0 2.048-.12 3.784-.36 5.208-.24 1.424-.56 2.632-.96 3.624-.272.672-.728 1.144-1.368 1.416-.64.272-1.352.264-2.136-.024a1.59 1.59 0 0 1-.708-.48 1.66 1.66 0 0 1-.336-.684 2.642 2.642 0 0 1-.048-.804 3.35 3.35 0 0 1 .18-.84zm28.848-3.816c.336 0 .624.052.864.156.24.104.436.24.588.408.152.168.26.36.324.576.064.216.096.436.096.66 0 .464-.144.876-.432 1.236-.288.36-.768.54-1.44.54h-2.544v1.68c.72 0 1.304.056 1.752.168.448.112.792.308 1.032.588.24.28.404.648.492 1.104.088.456.132 1.028.132 1.716v3.552h-4.8v-3.048c0-.352-.176-.528-.528-.528H153.08c-.656 0-1.156-.164-1.5-.492-.344-.328-.516-.764-.516-1.308s.172-.972.516-1.284c.344-.312.844-.468 1.5-.468h1.464v-1.68H152c-.672 0-1.152-.18-1.44-.54a1.924 1.924 0 0 1-.432-1.236c0-.224.032-.444.096-.66.064-.216.172-.408.324-.576.152-.168.348-.304.588-.408.24-.104.528-.156.864-.156h18.72zM167.24.528c.768 0 1.436.116 2.004.348a4.181 4.181 0 0 1 1.428.936c.384.392.668.856.852 1.392.184.536.276 1.1.276 1.692 0 .592-.092 1.152-.276 1.68a3.674 3.674 0 0 1-.852 1.38c-.384.392-.86.7-1.428.924-.568.224-1.236.336-2.004.336h-11.76c-.768 0-1.44-.112-2.016-.336-.576-.224-1.052-.532-1.428-.924a3.75 3.75 0 0 1-.84-1.38 5.069 5.069 0 0 1-.276-1.68c0-.592.092-1.156.276-1.692.184-.536.464-1 .84-1.392.376-.392.852-.704 1.428-.936.576-.232 1.248-.348 2.016-.348h11.76zm-1.344 5.256c.368 0 .632-.084.792-.252.16-.168.24-.38.24-.636 0-.272-.08-.492-.24-.66-.16-.168-.424-.252-.792-.252h-9.048c-.368 0-.636.084-.804.252-.168.168-.252.388-.252.66 0 .256.084.468.252.636.168.168.436.252.804.252h9.048zm-6.768 9.912h4.464v-1.68h-4.464v1.68zM40.88 45.88c.816-.08 1.572-.212 2.268-.396a6.389 6.389 0 0 0 1.872-.816 4.917 4.917 0 0 0 1.416-1.428c.392-.592.684-1.336.876-2.232h-6.12c-.368 0-.676-.06-.924-.18a1.94 1.94 0 0 1-.624-.468 1.717 1.717 0 0 1-.36-.66 2.495 2.495 0 0 1 0-1.452c.072-.24.188-.456.348-.648a1.78 1.78 0 0 1 .624-.468c.256-.12.568-.18.936-.18H47.6v-3a.61.61 0 0 0-.156-.432c-.104-.112-.252-.168-.444-.168h-5.592c-.368 0-.676-.064-.924-.192a2.004 2.004 0 0 1-.624-.492 1.826 1.826 0 0 1-.36-.672 2.617 2.617 0 0 1-.108-.732c0-.24.036-.484.108-.732.072-.248.188-.468.348-.66.16-.192.368-.352.624-.48s.568-.192.936-.192h7.08c1.36 0 2.328.304 2.904.912.576.608.864 1.472.864 2.592v4.128h3.624v-6.216c0-.768.24-1.348.72-1.74a2.543 2.543 0 0 1 1.656-.588c.304 0 .6.052.888.156.288.104.544.252.768.444.224.192.404.432.54.72s.204.624.204 1.008v20.208H55.88v-9.912h-3.816c-.224 1.616-.648 2.976-1.272 4.08s-1.4 2.004-2.328 2.7a9.752 9.752 0 0 1-3.18 1.56c-1.192.344-2.484.548-3.876.612a2.563 2.563 0 0 1-.852-.096 2.06 2.06 0 0 1-.744-.384 1.917 1.917 0 0 1-.516-.66 2.095 2.095 0 0 1-.192-.924c0-.512.144-.944.432-1.296.288-.352.736-.56 1.344-.624zm27.36-1.032c0 .416.08.692.24.828.16.136.448.204.864.204h7.08c.368 0 .68.056.936.168.256.112.468.264.636.456.168.192.288.404.36.636.072.232.108.468.108.708 0 .496-.16.948-.48 1.356-.32.408-.84.612-1.56.612h-8.856c-.752 0-1.392-.072-1.92-.216-.528-.144-.956-.376-1.284-.696-.328-.32-.568-.74-.72-1.26-.152-.52-.228-1.156-.228-1.908v-4.368c0-.752.076-1.384.228-1.896.152-.512.392-.928.72-1.248.328-.32.756-.548 1.284-.684s1.168-.204 1.92-.204h4.296v-3.48c0-.16-.04-.312-.12-.456-.08-.144-.256-.216-.528-.216h-5.52c-.368 0-.68-.056-.936-.168a1.664 1.664 0 0 1-.624-.456 1.982 1.982 0 0 1-.36-.648c-.08-.24-.12-.48-.12-.72s.036-.48.108-.72c.072-.24.192-.456.36-.648.168-.192.38-.348.636-.468.256-.12.568-.18.936-.18h6.792c.832 0 1.516.064 2.052.192s.964.336 1.284.624c.32.288.544.664.672 1.128.128.464.192 1.04.192 1.728v8.4h-7.344c-.416 0-.704.068-.864.204-.16.136-.24.412-.24.828v2.568zm11.544 5.976v-20.16c0-.784.24-1.376.72-1.776.48-.4 1.04-.6 1.68-.6.64 0 1.2.2 1.68.6.48.4.72.992.72 1.776v20.16h-4.8zm9.864-19.008c-.688 0-1.18-.148-1.476-.444-.296-.296-.444-.684-.444-1.164 0-.464.148-.844.444-1.14.296-.296.788-.444 1.476-.444h15.48c1.008 0 1.732.152 2.172.456.44.304.66.896.66 1.776v2.64c0 .832-.064 1.552-.192 2.16-.128.608-.296 1.112-.504 1.512h.24c.64 0 1.088.164 1.344.492.256.328.384.7.384 1.116 0 .432-.132.8-.396 1.104-.264.304-.708.456-1.332.456h-2.688v1.152h.744c1.024 0 1.728.184 2.112.552.384.368.576.92.576 1.656v3.648H93.056c-.176 0-.296.036-.36.108a.436.436 0 0 0-.096.3c0 .128.032.232.096.312.064.08.184.12.36.12h14.568c.464 0 .796.136.996.408.2.272.3.576.3.912 0 .288-.096.58-.288.876-.192.296-.528.444-1.008.444h-17.16c-.512 0-.96-.08-1.344-.24-.384-.16-.7-.38-.948-.66s-.432-.6-.552-.96c-.12-.36-.18-.748-.18-1.164v-.072c0-.848.24-1.528.72-2.04s1.248-.768 2.304-.768h12.84v-.432c0-.256-.168-.384-.504-.384H89.048c-.448 0-.788-.136-1.02-.408-.232-.272-.348-.568-.348-.888 0-.32.108-.62.324-.9.216-.28.564-.42 1.044-.42h2.136v-1.152h-2.688c-.624 0-1.068-.152-1.332-.456a1.626 1.626 0 0 1-.396-1.104c0-.416.128-.788.384-1.116.256-.328.704-.492 1.344-.492h14.04c.08-.16.152-.332.216-.516s.128-.388.192-.612h-13.56c-.688 0-1.176-.132-1.464-.396-.288-.264-.432-.644-.432-1.14 0-.464.144-.836.432-1.116.288-.28.776-.42 1.464-.42h13.848v-.672c0-.32-.184-.48-.552-.48H89.648zm6.12 9.672h4.464v-1.152h-4.464v1.152zm20.04 9.336c-.72 0-1.304-.06-1.752-.18-.448-.12-.796-.32-1.044-.6-.248-.28-.416-.652-.504-1.116-.088-.464-.132-1.048-.132-1.752V45.88c0-.688.044-1.268.132-1.74.088-.472.256-.848.504-1.128.248-.28.596-.48 1.044-.6.448-.12 1.032-.18 1.752-.18h13.464c.72 0 1.304.06 1.752.18.448.12.796.32 1.044.6.248.28.416.656.504 1.128.088.472.132 1.052.132 1.74v4.944h-16.896zm-.792-9.624c-.608 0-1.144-.104-1.608-.312a3.376 3.376 0 0 1-1.164-.84 3.586 3.586 0 0 1-.708-1.224 4.387 4.387 0 0 1-.24-1.44v-.432c0-1.024.312-1.856.936-2.496.624-.64 1.552-.96 2.784-.96h3.744v-.792c0-.304-.2-.456-.6-.456h-5.136c-.56 0-.968-.18-1.224-.54-.256-.36-.384-.732-.384-1.116 0-.416.128-.804.384-1.164.256-.36.664-.54 1.224-.54h7.104c1.216 0 2.092.28 2.628.84.536.56.804 1.288.804 2.184v4.704h-6.696c-.224 0-.384.056-.48.168a.606.606 0 0 0-.144.408v.096c0 .16.048.292.144.396.096.104.256.156.48.156h7.92c.272 0 .508.052.708.156.2.104.364.236.492.396.128.16.224.34.288.54a1.966 1.966 0 0 1-.264 1.74c-.24.352-.648.528-1.224.528h-9.768zm12.792-5.016h-1.68c-.368 0-.676-.06-.924-.18a1.862 1.862 0 0 1-.624-.48 1.826 1.826 0 0 1-.36-.672 2.617 2.617 0 0 1-.108-.732c0-.24.036-.484.108-.732.072-.248.188-.468.348-.66.16-.192.368-.352.624-.48s.568-.192.936-.192h1.68v-1.44c0-.768.24-1.348.72-1.74a2.543 2.543 0 0 1 1.656-.588c.304 0 .6.052.888.156.288.104.544.252.768.444.224.192.404.432.54.72s.204.624.204 1.008v10.776h-4.776v-5.208zm-10.704 10.608c0 .24.036.424.108.552.072.128.228.192.468.192h10.296v-1.32c0-.224-.04-.4-.12-.528-.08-.128-.24-.192-.48-.192h-9.696c-.24 0-.396.064-.468.192-.072.128-.108.304-.108.528v.576z"/>
</svg>
