<svg xmlns="http://www.w3.org/2000/svg" width="112" height="51" viewBox="0 0 112 51">
    <path fill="#23D8AF" fill-rule="nonzero" d="M5.456 3.216c.368-.992 1.072-1.488 2.112-1.488.704 0 1.28.204 1.728.612.448.408.672 1.012.672 1.812v16.992h-4.8V9.168H2.912c-.672 0-1.252-.168-1.74-.504C.684 8.328.44 7.824.44 7.152c0-.56.168-1.008.504-1.344a2.071 2.071 0 0 1 1.224-.6c.768-.096 1.452-.292 2.052-.588a2.384 2.384 0 0 0 1.236-1.404zm8.616 2.952c0-.752.224-1.344.672-1.776.448-.432 1.08-.648 1.896-.648.816 0 1.448.22 1.896.66.448.44.672 1.028.672 1.764s-.224 1.324-.672 1.764c-.448.44-1.08.66-1.896.66-.816 0-1.448-.216-1.896-.648-.448-.432-.672-1.024-.672-1.776zm0 10.512c0-.752.224-1.344.672-1.776.448-.432 1.08-.648 1.896-.648.816 0 1.448.22 1.896.66.448.44.672 1.028.672 1.764s-.224 1.324-.672 1.764c-.448.44-1.08.66-1.896.66-.816 0-1.448-.216-1.896-.648-.448-.432-.672-1.024-.672-1.776zM26.144 3.216c.368-.992 1.072-1.488 2.112-1.488.704 0 1.28.204 1.728.612.448.408.672 1.012.672 1.812v16.992h-4.8V9.168H23.6c-.672 0-1.252-.168-1.74-.504-.488-.336-.732-.84-.732-1.512 0-.56.168-1.008.504-1.344a2.071 2.071 0 0 1 1.224-.6c.768-.096 1.452-.292 2.052-.588a2.384 2.384 0 0 0 1.236-1.404zm20.592 13.656c0 .416.08.692.24.828.16.136.448.204.864.204h6.72c.368 0 .68.056.936.168.256.112.468.26.636.444.168.184.288.392.36.624.072.232.108.468.108.708 0 .496-.16.948-.48 1.356-.32.408-.84.612-1.56.612h-8.448c-.752 0-1.392-.072-1.92-.216-.528-.144-.956-.376-1.284-.696-.328-.32-.568-.74-.72-1.26-.152-.52-.228-1.156-.228-1.908v-4.368c0-.752.076-1.384.228-1.896.152-.512.392-.928.72-1.248.328-.32.756-.548 1.284-.684s1.168-.204 1.92-.204h4.032v-3.48c0-.16-.04-.312-.12-.456-.08-.144-.256-.216-.528-.216H44.24c-.368 0-.68-.056-.936-.168a1.664 1.664 0 0 1-.624-.456 1.982 1.982 0 0 1-.36-.648c-.08-.24-.12-.48-.12-.72s.036-.48.108-.72c.072-.24.192-.456.36-.648.168-.192.38-.348.636-.468.256-.12.568-.18.936-.18h6.48c.832 0 1.516.064 2.052.192s.964.336 1.284.624c.32.288.544.664.672 1.128.128.464.192 1.04.192 1.728v8.4h-7.08c-.416 0-.704.068-.864.204-.16.136-.24.412-.24.828v2.592zM57.68 2.616c0-.768.24-1.348.72-1.74a2.543 2.543 0 0 1 1.656-.588c.304 0 .6.052.888.156.288.104.54.252.756.444.216.192.392.432.528.72s.204.624.204 1.008v6.072h.792c.368 0 .672.064.912.192s.432.292.576.492c.144.2.248.424.312.672.064.248.096.492.096.732s-.032.484-.096.732a1.99 1.99 0 0 1-.312.672c-.144.2-.34.364-.588.492-.248.128-.548.192-.9.192h-.792v9.96H57.68V2.616zm8.256 4.56c0-1.056.168-1.988.504-2.796a5.704 5.704 0 0 1 1.404-2.04 5.912 5.912 0 0 1 2.148-1.248c.832-.28 1.752-.42 2.76-.42 1.008 0 1.928.14 2.76.42.832.28 1.552.692 2.16 1.236.608.544 1.08 1.224 1.416 2.04.336.816.504 1.752.504 2.808v8.688c0 1.056-.168 1.992-.504 2.808-.336.816-.804 1.496-1.404 2.04-.6.544-1.32.956-2.16 1.236-.84.28-1.756.42-2.748.42-1.008 0-1.928-.14-2.76-.42a6.127 6.127 0 0 1-2.16-1.236c-.608-.544-1.08-1.224-1.416-2.04-.336-.816-.504-1.752-.504-2.808V7.176zm4.752 8.784c0 .816.196 1.428.588 1.836.392.408.884.612 1.476.612s1.088-.204 1.488-.612c.4-.408.6-1.02.6-1.836V7.08c0-.816-.2-1.432-.6-1.848-.4-.416-.896-.616-1.488-.6-.592.016-1.084.228-1.476.636-.392.408-.588 1.012-.588 1.812v8.88zm11.64 6.864V2.664c0-.784.24-1.376.72-1.776.48-.4 1.04-.6 1.68-.6.64 0 1.2.2 1.68.6.48.4.72.992.72 1.776v20.16h-4.8zm13.104-18.84h10.2V2.856c0-.384.068-.712.204-.984.136-.272.316-.492.54-.66.224-.168.484-.292.78-.372a3.526 3.526 0 0 1 1.824 0c.296.08.556.204.78.372.224.168.408.388.552.66.144.272.216.6.216.984V14.52H93.992c-.72 0-1.308-.06-1.764-.18-.456-.12-.812-.324-1.068-.612s-.428-.668-.516-1.14c-.088-.472-.132-1.06-.132-1.764V2.856c0-.384.068-.712.204-.984.136-.272.32-.492.552-.66.232-.168.496-.292.792-.372.296-.08.604-.12.924-.12.304 0 .6.044.888.132.288.088.548.22.78.396.232.176.42.4.564.672.144.272.216.6.216.984v1.08zm14.28 14.304c.368 0 .684.06.948.18.264.12.48.276.648.468.168.192.288.412.36.66.072.248.108.492.108.732 0 .256-.04.504-.12.744-.08.24-.204.456-.372.648s-.38.344-.636.456c-.256.112-.568.168-.936.168H91.376c-.368 0-.68-.056-.936-.168a1.776 1.776 0 0 1-.636-.456 1.876 1.876 0 0 1-.372-.648c-.08-.24-.12-.488-.12-.744 0-.24.036-.484.108-.732.072-.248.192-.468.36-.66.168-.192.384-.348.648-.468.264-.12.58-.18.948-.18h18.336zm-4.08-7.656V7.728h-10.2v2.184c0 .24.052.42.156.54.104.12.3.18.588.18h9.456zM16.352 28.12c.768 0 1.368.212 1.8.636.432.424.656 1.02.672 1.788h3.48c.592 0 1.048.168 1.368.504.32.336.48.76.48 1.272 0 .48-.148.892-.444 1.236-.296.344-.7.54-1.212.588.256.64.384 1.352.384 2.136v1.008c0 1.648-.376 2.912-1.128 3.792-.752.88-1.776 1.464-3.072 1.752v3.288h3.576c.736 0 1.256.196 1.56.588.304.392.456.836.456 1.332 0 .512-.156.964-.468 1.356-.312.392-.828.588-1.548.588H10.832c-.72 0-1.24-.196-1.56-.588a2.083 2.083 0 0 1-.48-1.356c0-.496.156-.94.468-1.332.312-.392.836-.588 1.572-.588h3.192v-3.288c-1.296-.288-2.32-.872-3.072-1.752-.752-.88-1.128-2.144-1.128-3.792V36.28c0-.816.12-1.528.36-2.136-.512-.048-.916-.244-1.212-.588a1.832 1.832 0 0 1-.444-1.236c0-.512.16-.936.48-1.272.32-.336.776-.504 1.368-.504h3.504c.016-.768.24-1.364.672-1.788.432-.424 1.032-.636 1.8-.636zm8.784 2.496c0-.768.24-1.348.72-1.74a2.543 2.543 0 0 1 1.656-.588c.304 0 .6.052.888.156.288.104.54.252.756.444.216.192.392.432.528.72s.204.624.204 1.008v6.072h.792c.368 0 .672.064.912.192s.432.292.576.492c.144.2.248.424.312.672.064.248.096.492.096.732s-.032.484-.096.732a1.99 1.99 0 0 1-.312.672c-.144.2-.34.364-.588.492-.248.128-.548.192-.9.192h-.792v9.96h-4.752V30.616zm-8.784 8.856c.56 0 1.044-.156 1.452-.468.408-.312.612-.844.612-1.596V36.04c0-.752-.204-1.284-.612-1.596-.408-.312-.892-.468-1.452-.468-.56 0-1.044.156-1.452.468-.408.312-.612.844-.612 1.596v1.368c0 .752.204 1.284.612 1.596.408.312.892.468 1.452.468zm17.88 6.72c0-.64.104-1.248.312-1.824a4.185 4.185 0 0 1 .924-1.5c.408-.424.924-.76 1.548-1.008s1.352-.372 2.184-.372h10.152c.816 0 1.536.12 2.16.36.624.24 1.144.572 1.56.996.416.424.728.924.936 1.5a5.4 5.4 0 0 1 .312 1.848 5.4 5.4 0 0 1-.312 1.848 4.104 4.104 0 0 1-.936 1.5c-.416.424-.936.756-1.56.996s-1.344.36-2.16.36H39.2c-.832 0-1.56-.124-2.184-.372-.624-.248-1.14-.584-1.548-1.008a4.205 4.205 0 0 1-.924-1.488 5.299 5.299 0 0 1-.312-1.836zm-.264-9.24c1.248-.352 2.176-1.012 2.784-1.98.608-.968.912-2.324.912-4.068v-.144c0-.384.068-.716.204-.996.136-.28.32-.512.552-.696.232-.184.496-.32.792-.408.296-.088.604-.132.924-.132a2.576 2.576 0 0 1 1.62.588c.456.376.684.924.684 1.644v.144c0 .384-.012.752-.036 1.104a8.659 8.659 0 0 1-.132 1.032 7.413 7.413 0 0 1 2.28.672 4.949 4.949 0 0 1 1.74 1.404c.472.6.832 1.332 1.08 2.196.248.864.348 1.88.3 3.048H43.04c.08-1.04-.048-1.868-.384-2.484-.336-.616-.864-1.004-1.584-1.164-.688 1.232-1.544 2.188-2.568 2.868-1.024.68-2.104 1.084-3.24 1.212-.624.064-1.16-.052-1.608-.348-.448-.296-.72-.652-.816-1.068-.16-.544-.132-1.052.084-1.524.216-.472.564-.772 1.044-.9zm15.216-6.288c0-.784.236-1.376.708-1.776.472-.4 1.028-.6 1.668-.6.624 0 1.176.204 1.656.612.48.408.72.996.72 1.764v1.968h.744c.368 0 .672.064.912.192s.432.288.576.48c.144.192.248.412.312.66.064.248.096.492.096.732s-.032.484-.096.732a1.99 1.99 0 0 1-.312.672c-.144.2-.34.36-.588.48-.248.12-.548.18-.9.18h-.744v4.152h-4.752V30.664zm-10.08 15.528c0 .304.096.604.288.9.192.296.552.444 1.08.444h7.608c.528 0 .888-.148 1.08-.444.192-.296.288-.596.288-.9 0-.304-.096-.604-.288-.9-.192-.296-.552-.444-1.08-.444h-7.608c-.528 0-.888.148-1.08.444a1.638 1.638 0 0 0-.288.9zm21.216.312v-6.648c0-.8.224-1.352.672-1.656.448-.304.992-.456 1.632-.456.624 0 1.164.156 1.62.468.456.312.684.86.684 1.644v6.648h1.68v-6.648c0-.8.224-1.352.672-1.656.448-.304.992-.456 1.632-.456.624 0 1.164.156 1.62.468.456.312.684.86.684 1.644v6.648h6c.736 0 1.256.2 1.56.6.304.4.456.84.456 1.32 0 .496-.156.94-.468 1.332-.312.392-.828.588-1.548.588H58.784c-.72 0-1.236-.196-1.548-.588a2.082 2.082 0 0 1-.468-1.332c0-.48.152-.92.456-1.32.304-.4.824-.6 1.56-.6h1.536zm12.192-4.248c.256-.784.472-1.812.648-3.084.176-1.272.264-2.724.264-4.356v-1.08a.654.654 0 0 0-.156-.444c-.104-.12-.252-.18-.444-.18H59.888c-.368 0-.688-.06-.96-.18a1.98 1.98 0 0 1-.672-.468 1.913 1.913 0 0 1-.396-.66 2.246 2.246 0 0 1-.132-.756c0-.24.044-.484.132-.732.088-.248.22-.468.396-.66.176-.192.4-.348.672-.468.272-.12.592-.18.96-.18h14.496c1.392 0 2.384.312 2.976.936.592.624.888 1.512.888 2.664v2.232c0 2.048-.12 3.784-.36 5.208-.24 1.424-.56 2.632-.96 3.624-.272.672-.728 1.144-1.368 1.416-.64.272-1.352.264-2.136-.024a1.59 1.59 0 0 1-.708-.48 1.66 1.66 0 0 1-.336-.684 2.642 2.642 0 0 1-.048-.804 3.35 3.35 0 0 1 .18-.84zm28.848-3.816c.336 0 .624.052.864.156.24.104.436.24.588.408.152.168.26.36.324.576.064.216.096.436.096.66 0 .464-.144.876-.432 1.236-.288.36-.768.54-1.44.54h-2.544v1.68c.72 0 1.304.056 1.752.168.448.112.792.308 1.032.588.24.28.404.648.492 1.104.088.456.132 1.028.132 1.716v3.552h-4.8v-3.048c0-.352-.176-.528-.528-.528H83.72c-.656 0-1.156-.164-1.5-.492-.344-.328-.516-.764-.516-1.308s.172-.972.516-1.284c.344-.312.844-.468 1.5-.468h1.464v-1.68H82.64c-.672 0-1.152-.18-1.44-.54a1.924 1.924 0 0 1-.432-1.236c0-.224.032-.444.096-.66.064-.216.172-.408.324-.576.152-.168.348-.304.588-.408.24-.104.528-.156.864-.156h18.72zm-3.48-9.912c.768 0 1.436.116 2.004.348a4.181 4.181 0 0 1 1.428.936c.384.392.668.856.852 1.392.184.536.276 1.1.276 1.692 0 .592-.092 1.152-.276 1.68a3.674 3.674 0 0 1-.852 1.38c-.384.392-.86.7-1.428.924-.568.224-1.236.336-2.004.336H86.12c-.768 0-1.44-.112-2.016-.336-.576-.224-1.052-.532-1.428-.924a3.75 3.75 0 0 1-.84-1.38 5.069 5.069 0 0 1-.276-1.68c0-.592.092-1.156.276-1.692.184-.536.464-1 .84-1.392.376-.392.852-.704 1.428-.936.576-.232 1.248-.348 2.016-.348h11.76zm-1.344 5.256c.368 0 .632-.084.792-.252.16-.168.24-.38.24-.636 0-.272-.08-.492-.24-.66-.16-.168-.424-.252-.792-.252h-9.048c-.368 0-.636.084-.804.252-.168.168-.252.388-.252.66 0 .256.084.468.252.636.168.168.436.252.804.252h9.048zm-6.768 9.912h4.464v-1.68h-4.464v1.68z"/>
</svg>
