<svg xmlns="http://www.w3.org/2000/svg" width="24" height="24" viewBox="0 0 24 24">
    <path fill="#FFF" fill-rule="nonzero" d="M16.125 22.063c0 .517-.42.937-.938.937H3.75A3.754 3.754 0 0 1 0 19.25V8.844a.937.937 0 1 1 1.875 0V19.25c0 1.034.841 1.875 1.875 1.875h11.438c.517 0 .937.42.937.938zm5.938-18.25v3.812c0 .518 0 2.375.062.938v3.843a.937.937 0 1 1-1.875 0V8.562H1a.937.937 0 0 1-.938-.937V4.812C.063 3.263.325 2 1.875 2H20.25c1.55 0 1.813.262 1.813 1.813zM1.938 6.687h18.25V4.813a.939.939 0 0 0-.938-.937H2.875a.939.939 0 0 0-.938.938v1.875zm16.976 8.016H13.97l1.175-1.161a.937.937 0 1 0-1.319-1.334l-1.74 1.722a2.317 2.317 0 0 0-.694 1.656c-.001.626.243 1.214.688 1.657l1.744 1.734a.935.935 0 0 0 1.326-.003.937.937 0 0 0-.004-1.326l-1.075-1.07h4.844a2.276 2.276 0 0 1 2.273 2.274c0 1.253-1.008 2.273-2.247 2.273a.937.937 0 1 0 0 1.875 4.082 4.082 0 0 0 2.924-1.219 4.138 4.138 0 0 0 1.198-2.93 4.153 4.153 0 0 0-4.148-4.148z"/>
</svg>
