<?xml version="1.0" encoding="UTF-8"?>
<svg width="24px" height="24px" viewBox="0 0 24 24" version="1.1" xmlns="http://www.w3.org/2000/svg" xmlns:xlink="http://www.w3.org/1999/xlink">
    <!-- Generator: Sketch 52.5 (67469) - http://www.bohemiancoding.com/sketch -->
    <title>looks_icon</title>
    <desc>Created with Sketch.</desc>
    <g id="wizlab-interface-1.1-v" stroke="none" stroke-width="1" fill="none" fill-rule="evenodd">
        <g id="landscape-1" transform="translate(-827.000000, -128.000000)" fill="#7E57C2">
            <g id="API" transform="translate(810.000000, 83.000000)">
                <g id="Group-24-Copy-8">
                    <g id="looks" transform="translate(17.000000, 45.000000)">
                        <path d="M20.2541714,11.81136 L18.7416571,11.81136 L18.7416571,8.04576 C18.7416571,7.00992 17.8339429,6.16368 16.7251429,6.16368 L12.6916,6.16368 L12.6916,4.752 C12.6916,3.4536 11.5622286,2.4 10.1705714,2.4 C8.77942857,2.4 7.65005714,3.4536 7.65005714,4.752 L7.65005714,6.16368 L3.61651429,6.16368 C2.5072,6.16368 1.60977143,7.00992 1.60977143,8.04576 L1.60977143,11.62176 L3.11251429,11.62176 C4.61577143,11.62176 5.83514286,12.76176 5.83514286,14.16336 C5.83514286,15.56592 4.61577143,16.70352 3.11251429,16.70352 L1.6,16.70352 L1.6,20.28144 C1.6,21.31584 2.5072,22.16352 3.61651429,22.16352 L7.44794286,22.16352 L7.44794286,20.75184 C7.44794286,19.34976 8.66885714,18.20928 10.1705714,18.20928 C11.6733143,18.20928 12.8932,19.34976 12.8932,20.75184 L12.8932,22.16352 L16.7251429,22.16352 C17.8339429,22.16352 18.7416571,21.31584 18.7416571,20.28144 L18.7416571,16.51632 L20.2541714,16.51632 C21.6458286,16.51632 22.7746857,15.46176 22.7746857,14.16336 C22.7746857,12.86352 21.6458286,11.81136 20.2541714,11.81136" id="Fill-2"></path>
                    </g>
                </g>
            </g>
        </g>
    </g>
</svg>