<?xml version="1.0" encoding="UTF-8"?>
<svg width="24px" height="18px" viewBox="0 0 24 18" version="1.1" xmlns="http://www.w3.org/2000/svg" xmlns:xlink="http://www.w3.org/1999/xlink">
    <!-- Generator: Sketch 54.1 (76490) - https://sketchapp.com -->
    <title>mail</title>
    <desc>Created with Sketch.</desc>
    <defs>
        <polygon id="path-1" points="0 -2.84217094e-14 23.897168 -2.84217094e-14 23.897168 16.8275889 0 16.8275889"></polygon>
    </defs>
    <g id="pc" stroke="none" stroke-width="1" fill="none" fill-rule="evenodd">
        <g id="dashboard_livetutor-02_tutor" transform="translate(-543.000000, -597.000000)">
            <g id="예약-후-2" transform="translate(320.000000, 460.000000)">
                <g id="예약-후">
                    <g id="Group-3" transform="translate(223.000000, 138.000000)">
                        <mask id="mask-2" fill="white">
                            <use xlink:href="#path-1"></use>
                        </mask>
                        <g id="Clip-2"></g>
                        <path d="M22.4728213,2.61077333 C20.518048,4.53898667 18.5403413,6.48970667 16.577888,8.42528 C18.5384213,10.36768 20.5089813,12.3198933 22.4728213,14.2656 L22.4728213,2.61077333 Z M1.42834133,2.56266667 L1.42834133,14.2450133 C3.39015467,12.3060267 5.364448,10.35488 7.32263467,8.41962667 C5.36423467,6.47370667 3.39538133,4.51733333 1.42834133,2.56266667 L1.42834133,2.56266667 Z M21.251488,15.3936 C19.302688,13.4605867 17.349088,11.5226667 15.3435413,9.53333333 C14.8563947,10.02912 14.2929813,10.64128 13.684768,11.2049067 C13.3797013,11.4875733 13.0218347,11.7658667 12.637088,11.8996267 C11.7533547,12.2066133 10.957408,11.9650133 10.3015147,11.2967467 C9.685088,10.6689067 9.07570133,10.03424 8.634528,9.5792 C6.58898133,11.58144 4.625568,13.5034667 2.694368,15.3936 L21.251488,15.3936 Z M2.52327467,1.44458667 C2.659488,1.61077333 2.73767467,1.72394667 2.83314133,1.81984 C5.60295467,4.6016 8.37287467,7.38293333 11.1467413,10.1605333 C11.7797013,10.7943467 12.122528,10.7952 12.756128,10.1607467 C15.5301013,7.38325333 18.2999147,4.60170667 21.0696213,1.81994667 C21.1648747,1.72416 21.2432747,1.61152 21.3805547,1.44458667 L2.52327467,1.44458667 Z M11.9264747,16.8269867 C8.78023467,16.8269867 5.63410133,16.8282667 2.487968,16.8264533 C0.825461333,16.8254933 0.00135466667,15.99936 0.000928,14.3352533 C-0.000138666667,10.3713067 -0.000565333333,6.40746667 0.00114133333,2.44373333 C0.00178133333,0.853546667 0.846154667,0.00234666667 2.430688,0.00181333333 C8.776288,-0.000533333333 15.1219947,-0.00064 21.4675947,0.00170666667 C23.067808,0.00224 23.895328,0.835626667 23.895968,2.43893333 C23.897568,6.42058667 23.897568,10.4021333 23.895968,14.3837867 C23.895328,15.9860267 23.063968,16.8247467 21.4715413,16.8261333 C18.2897813,16.8288 15.108128,16.8269867 11.9264747,16.8269867 L11.9264747,16.8269867 Z" id="Fill-1" fill="#000000" mask="url(#mask-2)"></path>
                    </g>
                </g>
            </g>
        </g>
    </g>
</svg>