<svg width="36" height="36" viewBox="0 0 36 36" fill="none" xmlns="http://www.w3.org/2000/svg">
<path fill-rule="evenodd" clip-rule="evenodd" d="M8 12C8 11.4477 8.44772 11 9 11H27C27.5523 11 28 11.4477 28 12C28 12.5523 27.5523 13 27 13H9C8.44772 13 8 12.5523 8 12ZM8 18C8 17.4477 8.44772 17 9 17H27C27.5523 17 28 17.4477 28 18C28 18.5523 27.5523 19 27 19H9C8.44772 19 8 18.5523 8 18ZM9 23C8.44772 23 8 23.4477 8 24C8 24.5523 8.44772 25 9 25H27C27.5523 25 28 24.5523 28 24C28 23.4477 27.5523 23 27 23H9Z" fill="black"/>
<mask id="mask0_1788_2214" style="mask-type:alpha" maskUnits="userSpaceOnUse" x="8" y="11" width="20" height="14">
<path fill-rule="evenodd" clip-rule="evenodd" d="M8 12C8 11.4477 8.44772 11 9 11H27C27.5523 11 28 11.4477 28 12C28 12.5523 27.5523 13 27 13H9C8.44772 13 8 12.5523 8 12ZM8 18C8 17.4477 8.44772 17 9 17H27C27.5523 17 28 17.4477 28 18C28 18.5523 27.5523 19 27 19H9C8.44772 19 8 18.5523 8 18ZM9 23C8.44772 23 8 23.4477 8 24C8 24.5523 8.44772 25 9 25H27C27.5523 25 28 24.5523 28 24C28 23.4477 27.5523 23 27 23H9Z" fill="white"/>
</mask>
<g mask="url(#mask0_1788_2214)">
<rect x="8" y="8" width="20" height="20" fill="#333333"/>
</g>
</svg>
