<svg xmlns="http://www.w3.org/2000/svg" xmlns:xlink="http://www.w3.org/1999/xlink" width="32" height="32" viewBox="0 0 32 32">
    <defs>
        <path id="5rgdha7daa" d="M15.998 19.79c2.517 0 4.548-2.032 4.548-4.548V6.147c0-2.516-2.031-4.547-4.548-4.547-2.516 0-4.547 2.031-4.547 4.547v9.095c0 2.516 2.031 4.547 4.547 4.547zm8.959-4.548c-.743 0-1.365.546-1.486 1.289-.621 3.562-3.729 6.29-7.473 6.29-3.744 0-6.851-2.728-7.472-6.29-.122-.743-.743-1.289-1.486-1.289-.925 0-1.652.819-1.516 1.728.743 4.547 4.38 8.11 8.959 8.761v3.153c0 .834.682 1.516 1.515 1.516.834 0 1.516-.682 1.516-1.516v-3.153c4.578-.651 8.216-4.214 8.958-8.76.152-.91-.59-1.729-1.515-1.729z"/>
    </defs>
    <g fill="none" fill-rule="evenodd">
        <path d="M0 0H32V32H0z"/>
        <use fill="#333" fill-rule="nonzero" xlink:href="#5rgdha7daa"/>
    </g>
</svg>
