<svg xmlns="http://www.w3.org/2000/svg" xmlns:xlink="http://www.w3.org/1999/xlink" width="38" height="26" viewBox="0 0 38 26">
    <defs>
        <path id="a" d="M.037.015h29.842v25.713H.037z"/>
    </defs>
    <g fill="none" fill-rule="evenodd">
        <path fill="#FFF" d="M12.806 9.875l.997 3.803 1.226-3.803h1.196l1.227 3.803.997-3.803h1.572l-1.726 5.888h-1.533l-1.135-3.413-1.134 3.413h-1.534l-1.726-5.888zM20.655 15.763h1.54V9.875h-1.54zM25.447 14.467h2.428v1.296H22.92l2.742-4.592h-2.28V9.875h4.792z"/>
        <g transform="translate(7.062)">
            <mask id="b" fill="#fff">
                <use xlink:href="#a"/>
            </mask>
            <path fill="#FFF" d="M2.347 1.722a.593.593 0 0 0-.417.172.608.608 0 0 0-.187.44v21.074a.612.612 0 0 0 .62.612c3.223-.094 7.21-.573 7.899-2.32.32-.812 1.111-1.364 2.016-1.404 7.126-.32 12.482-4.188 15.72-7.377a.603.603 0 0 0 .016-.842c-1.395-1.47-6.655-6.292-15.797-6.635a2.296 2.296 0 0 1-2.04-1.416c-.246-.578-.9-2.112-7.814-2.303h-.016m-.003 24.005c-.601 0-1.168-.23-1.603-.653a2.307 2.307 0 0 1-.704-1.667V2.335c0-.633.25-1.225.703-1.666C1.19.23 1.803.014 2.41.015c7.055.195 8.679 1.798 9.336 3.34a.6.6 0 0 0 .535.38c9.786.367 15.463 5.577 16.97 7.166.86.907.834 2.358-.056 3.236-3.452 3.399-9.174 7.522-16.841 7.866-.226.01-.434.143-.505.323-.85 2.159-3.85 3.239-9.436 3.4-.023.002-.047.002-.07.002" mask="url(#b)"/>
        </g>
        <path fill="#FFF" d="M5.433 9.989v5.766a.834.834 0 0 1-1.34.663L.327 13.535a.836.836 0 0 1 0-1.327l3.764-2.883a.834.834 0 0 1 1.34.664"/>
    </g>
</svg>
