<?xml version="1.0" encoding="UTF-8"?>
<svg width="24px" height="24px" viewBox="0 0 24 24" version="1.1" xmlns="http://www.w3.org/2000/svg" xmlns:xlink="http://www.w3.org/1999/xlink">
    <!-- Generator: Sketch 52.5 (67469) - http://www.bohemiancoding.com/sketch -->
    <title>motion_icon</title>
    <desc>Created with Sketch.</desc>
    <g id="wizlab-interface-1.1-v" stroke="none" stroke-width="1" fill="none" fill-rule="evenodd">
        <g id="landscape-1" transform="translate(-827.000000, -91.000000)" fill="#42A5F5">
            <g id="API" transform="translate(810.000000, 83.000000)">
                <g id="Group-24-Copy-8">
                    <g id="move_icon" transform="translate(17.000000, 6.000000)">
                        <g id="rocket" transform="translate(13.000000, 12.888889) rotate(-315.000000) translate(-13.000000, -12.888889) translate(6.000000, 2.000000)">
                            <g id="Group">
                                <path d="M4.43569062,2.46817796 C5.06831942,1.55270637 5.74767876,0.607318275 6.71466575,0.0211964408 C7.66819256,0.592784851 8.34088889,1.52135889 8.9644846,2.42059776 C10.4333443,4.64550856 11.3313758,7.31791467 11.1502222,10.0038257 C11.6249062,10.4017285 12.1133187,10.7837563 12.5809373,11.1897979 C13.2522026,11.8067753 13.5656327,12.769201 13.404021,13.6639233 C13.17882,14.7941766 12.9623838,15.9269788 12.7240356,17.0541465 C12.5915355,17.6340525 11.8069541,17.8995446 11.3456856,17.5290541 C10.5800648,16.8899859 9.83349395,16.2273958 9.06809674,15.5875227 C8.48899567,16.1448013 7.71970796,16.5164098 6.91205202,16.5611727 C5.98231531,16.6267296 5.06183527,16.2411691 4.3877974,15.6112681 C3.83865754,16.0316642 3.32949578,16.5363094 2.79296646,16.9865772 C2.53364545,17.1949642 2.31801415,17.4688186 2.01111294,17.611112 C1.53531097,17.8152507 0.922581793,17.5105854 0.815034451,16.9991431 C0.570023272,15.8971964 0.314056126,14.7972174 0.0762892996,13.6935715 C-0.11693817,12.7599443 0.22529044,11.7434095 0.944672599,11.1174885 C1.36113347,10.7677025 1.78340771,10.4249373 2.20764956,10.0846762 C2.32583984,10.0225179 2.26645403,9.87915127 2.27316176,9.77383984 C2.14669861,7.18237372 3.03189596,4.62086881 4.43569062,2.46817796 Z M5.18709103,5.88160986 C4.63151175,6.59683322 4.69872325,7.70468264 5.34306822,8.34343783 C6.02524481,9.09510655 7.31737805,9.12251882 8.03090212,8.40112434 C8.58169655,7.89791011 8.76794798,7.0530486 8.50504951,6.35879808 C8.26415241,5.68950034 7.6192261,5.18740406 6.90990554,5.12497741 C6.25487292,5.04958248 5.57663153,5.35093863 5.18709103,5.88160986 Z" id="Shape" fill-rule="nonzero"></path>
                                <path d="M4.17055624,17.923916 C4.16103126,17.5989934 4.56541821,17.3755811 4.83873603,17.5475227 C5.99559662,18.1431695 7.43360073,18.1429012 8.59041661,17.5472097 C8.85590874,17.3842117 9.24938444,17.5799881 9.25917773,17.896146 C9.26306822,18.5862377 9.26387315,19.2770449 9.26025097,19.9673603 C9.26557244,20.3042227 8.82058134,20.5190491 8.55902441,20.3083815 C8.35993885,20.1328177 8.18039516,19.9353867 7.98886699,19.7511476 C7.68585626,20.341473 7.40024093,20.940742 7.09472599,21.529681 C6.94800548,21.8102879 6.48955419,21.8122108 6.34001643,21.5343765 C6.03280219,20.9443194 5.74915446,20.341473 5.44024093,19.7519973 C5.25148528,19.9378909 5.07140497,20.1342487 4.87258773,20.3095441 C4.61214876,20.5212402 4.1680073,20.3022998 4.17162948,19.9675838 C4.16608442,19.2865699 4.16970659,18.605243 4.17055624,17.923916 Z" id="Path"></path>
                            </g>
                            <circle id="Oval" cx="6.70017705" cy="7.04352361" r="1"></circle>
                        </g>
                    </g>
                </g>
            </g>
        </g>
    </g>
</svg>