<svg xmlns="http://www.w3.org/2000/svg" width="20" height="20" viewBox="0 0 20 20">
    <g fill="none" fill-rule="evenodd">
        <path d="M0 0L20 0 20 20 0 20z" transform="matrix(-1 0 0 1 20 0)"/>
        <path fill="#FFF" fill-rule="nonzero" d="M17.479 1.583h.042l.11.01.106.021.103.035.098.046.092.057.085.068.077.078.067.088.057.097.046.106.024.074.022.107.005.04.004.069v.042l-.01.11-.021.106-.024.074-5.445 15.07c-.224.49-.713.803-1.25.803-.493 0-.945-.263-1.179-.662l-.058-.112-2.78-5.561-5.532-2.766c-.448-.205-.749-.632-.796-1.116l-.006-.134c0-.493.263-.944.738-1.21l.135-.069 15-5.416.074-.024.107-.022.04-.005.069-.004z" transform="matrix(-1 0 0 1 20 0)"/>
        <path fill="#000" fill-rule="nonzero" d="M15.974 4.025L3.85 8.4l4.893 2.447c.142.07.263.177.35.307l.06.103 2.444 4.889 4.377-12.121z" transform="matrix(-1 0 0 1 20 0)"/>
    </g>
</svg>
