<svg xmlns="http://www.w3.org/2000/svg" width="20" height="20" viewBox="0 0 20 20">
    <defs>
        <filter id="a" width="125.3%" height="120.7%" x="-12.6%" y="-10.3%" filterUnits="objectBoundingBox">
            <feOffset dy="2" in="SourceAlpha" result="shadowOffsetOuter1"/>
            <feGaussianBlur in="shadowOffsetOuter1" result="shadowBlurOuter1" stdDeviation="5"/>
            <feColorMatrix in="shadowBlurOuter1" result="shadowMatrixOuter1" values="0 0 0 0 0 0 0 0 0 0 0 0 0 0 0 0 0 0 0.1 0"/>
            <feMerge>
                <feMergeNode in="shadowMatrixOuter1"/>
                <feMergeNode in="SourceGraphic"/>
            </feMerge>
        </filter>
    </defs>
    <g fill="none" fill-rule="evenodd" filter="url(#a)" transform="translate(-15 -64)">
        <path d="M15 64h20v20H15z"/>
        <g fill="#000" fill-rule="nonzero">
            <path d="M31 66H19c-1.103 0-2 .897-2 2v12c0 1.103.897 2 2 2h12c1.103 0 2-.897 2-2V68c0-1.103-.897-2-2-2zm.667 14c0 .368-.3.667-.667.667H19a.667.667 0 0 1-.667-.667V68c0-.367.3-.667.667-.667h12c.367 0 .667.3.667.667v12z"/>
            <path d="M21.613 69.747a.688.688 0 0 0-.14-.22l-.1-.08a.506.506 0 0 0-.12-.06.637.637 0 0 0-.507 0 .77.77 0 0 0-.22.14.688.688 0 0 0-.14.22.663.663 0 0 0-.053.253c0 .087.02.173.054.253.033.087.08.154.14.22.126.12.3.194.473.194a1 1 0 0 0 .133-.014c.04-.006.08-.02.12-.04a.506.506 0 0 0 .12-.06l.1-.08c.12-.126.194-.3.194-.473a.665.665 0 0 0-.054-.253zM29 69.333h-5.333a.667.667 0 0 0 0 1.334H29a.667.667 0 0 0 0-1.334zM21.653 73.867a.423.423 0 0 0-.04-.12.506.506 0 0 0-.06-.12l-.08-.1a.77.77 0 0 0-.22-.14.667.667 0 0 0-.506 0 .77.77 0 0 0-.22.14l-.08.1a.506.506 0 0 0-.06.12.423.423 0 0 0-.04.12c-.007.046-.014.093-.014.133 0 .173.074.347.194.473.126.12.3.194.473.194a.701.701 0 0 0 .473-.194c.12-.126.194-.3.194-.473 0-.04-.007-.087-.014-.133zM29 73.333h-5.333a.667.667 0 0 0 0 1.334H29a.667.667 0 0 0 0-1.334zM21.613 77.747a.688.688 0 0 0-.14-.22.69.69 0 0 0-.946 0 .77.77 0 0 0-.14.22.663.663 0 0 0 .14.726.663.663 0 0 0 .473.194.663.663 0 0 0 .667-.667.56.56 0 0 0-.054-.253zM29 77.333h-5.333a.666.666 0 1 0 0 1.334H29a.666.666 0 1 0 0-1.334z"/>
        </g>
    </g>
</svg>
