<svg xmlns="http://www.w3.org/2000/svg" xmlns:xlink="http://www.w3.org/1999/xlink" width="32" height="32" viewBox="0 0 32 32">
    <defs>
        <path id="qo9a80gs7a" d="M22.026 4.827c-.263 0-.495.14-.634.355l-.108.232-8.002 17.998c-.247.448-.402.942-.402 1.483 0 1.714 1.39 3.105 3.105 3.105 1.483 0 2.735-1.05 3.028-2.457l.016-.046L22.799 5.6c0-.432-.34-.772-.773-.772zM.645 12.644c.788.788 2.055.85 2.92.139 4.264-3.491 9.64-4.913 14.8-4.264l1.838-4.14C13.483 3.174 6.36 4.843.784 9.4c-.989.82-1.05 2.334-.139 3.245zm30.712 0c.911-.911.85-2.425-.155-3.244-2.1-1.715-4.418-3.013-6.859-3.909l-.819 4.357c1.746.726 3.383 1.684 4.897 2.92.896.71 2.148.664 2.936-.124zM25.13 18.87c.927-.927.865-2.518-.216-3.275-.711-.51-1.453-.943-2.225-1.329l-.85 4.511c.17.108.34.216.495.34.88.618 2.054.494 2.796-.247zm-18.276-.016c.773.773 1.962.835 2.858.201 1.452-1.02 3.105-1.637 4.79-1.885l1.977-4.449c-3.29-.092-6.612.834-9.408 2.843-1.066.788-1.144 2.363-.217 3.29z"/>
    </defs>
    <g fill="none" fill-rule="evenodd">
        <path d="M0 0H32V32H0z"/>
        <use fill="#333" fill-rule="nonzero" xlink:href="#qo9a80gs7a"/>
    </g>
</svg>
