<svg xmlns="http://www.w3.org/2000/svg" width="142" height="142" viewBox="0 0 142 142">
    <defs>
        <filter id="a" width="133.1%" height="128.8%" x="-16.6%" y="-14.4%" filterUnits="objectBoundingBox">
            <feOffset dy="10" in="SourceAlpha" result="shadowOffsetOuter1"/>
            <feGaussianBlur in="shadowOffsetOuter1" result="shadowBlurOuter1" stdDeviation="10"/>
            <feColorMatrix in="shadowBlurOuter1" result="shadowMatrixOuter1" values="0 0 0 0 0 0 0 0 0 0 0 0 0 0 0 0 0 0 0.1 0"/>
            <feMerge>
                <feMergeNode in="shadowMatrixOuter1"/>
                <feMergeNode in="SourceGraphic"/>
            </feMerge>
        </filter>
    </defs>
    <g fill="none" fill-rule="evenodd" filter="url(#a)">
        <path fill="#FF5A60" d="M-59 118.605L120.605-61l35.355 35.355L-23.645 153.96z"/>
        <path fill="#FFF" fill-rule="nonzero" d="M48.175 55.271l-1.8 1.799-10.159-2.512-.045.045c.354.325.735.672 1.143 1.041.407.37.814.743 1.221 1.12l4.073 4.073-1.3 1.301-8.079-8.078 1.788-1.787L45.12 54.75l.034-.034c-.31-.295-.67-.628-1.08-1.002a58.552 58.552 0 0 1-1.183-1.103l-4.107-4.107 1.313-1.312 8.078 8.078zm-1.81-10.68c.822-.822 1.717-1.228 2.687-1.216.969.01 1.89.454 2.766 1.329l.724.724-4.05 4.05c.573.543 1.16.82 1.759.832.6.011 1.16-.243 1.68-.764.392-.392.707-.786.945-1.182a8.05 8.05 0 0 0 .628-1.318l1.142 1.143a5.904 5.904 0 0 1-.622 1.255c-.256.393-.611.815-1.064 1.268-.603.603-1.25 1.02-1.94 1.25-.69.23-1.397.243-2.121.04-.724-.204-1.437-.657-2.138-1.358-1.049-1.049-1.59-2.107-1.624-3.174-.034-1.067.375-2.027 1.228-2.88zm1.052 1.052c-.385.385-.573.818-.566 1.301.008.483.234.984.679 1.505l2.636-2.636c-.43-.415-.886-.656-1.369-.724-.483-.068-.943.117-1.38.554zm14.323-3.937l-3.315-1.957c-.173-.098-.396-.23-.668-.396l-.842-.515a64.54 64.54 0 0 1-.804-.498l-.548-.345-.046.045.345.549c.155.245.321.513.498.803l.515.843c.166.272.302.498.407.679l1.912 3.337-1.561 1.562-7.863-4.424 1.437-1.437 3.688 2.172c.257.151.534.327.832.527a35 35 0 0 1 .843.582c.264.189.475.347.633.475l.045-.045c-.12-.15-.277-.364-.47-.64a39.334 39.334 0 0 1-.554-.814 13.21 13.21 0 0 1-.39-.616l-2.251-4.017 1.561-1.561 3.982 2.285.651.413c.268.17.53.345.786.526.257.181.46.34.611.476l.045-.046a15.702 15.702 0 0 1-.446-.605c-.185-.26-.378-.543-.577-.848-.2-.306-.376-.594-.527-.866l-2.16-3.7 1.414-1.414 4.4 7.886-1.583 1.584z"/>
    </g>
</svg>
