<svg xmlns="http://www.w3.org/2000/svg" xmlns:xlink="http://www.w3.org/1999/xlink" width="24" height="24" viewBox="0 0 24 24">
    <defs>
        <path id="a" d="M0 0h21.468v23.995H0z"/>
    </defs>
    <g fill="none" fill-rule="evenodd" transform="translate(1)">
        <mask id="b" fill="#fff">
            <use xlink:href="#a"/>
        </mask>
        <path fill="#3A405B" d="M19.845 18.975a.272.272 0 0 1-.256.19H1.879a.272.272 0 0 1-.269-.269.27.27 0 0 1 .016-.09c0-.002 0-.005.002-.007l.002-.005a.252.252 0 0 1 .038-.064l.046-.037a8.82 8.82 0 0 0 3.116-6.731V8.968a5.913 5.913 0 0 1 5.448-5.886.782.782 0 0 0 .19-.008c.016-.003.031-.004.046-.005a5.984 5.984 0 0 1 .439 0c.015.001.03.002.046.005.064.01.128.012.191.008a5.913 5.913 0 0 1 5.447 5.886V11.962a8.82 8.82 0 0 0 3.116 6.731c.016.013.03.025.047.037a.254.254 0 0 1 .037.064l.003.005.002.007a.27.27 0 0 1 .003.17m-9.111 3.409a2.42 2.42 0 0 1-2.277-1.61h4.553a2.42 2.42 0 0 1-2.276 1.61m10.73-3.591a1.877 1.877 0 0 0-.653-1.325.74.74 0 0 0-.086-.065 7.25 7.25 0 0 1-1.377-1.612l-.001-.001a7.147 7.147 0 0 1-.098-.162l-.013-.023a7.086 7.086 0 0 1-.082-.143l-.028-.05-.063-.118-.034-.067-.052-.103-.039-.083-.042-.09-.044-.1-.033-.075-.047-.114-.025-.063-.045-.117-.023-.062-.042-.12-.02-.06-.038-.117-.02-.066-.035-.117-.02-.067-.028-.11-.02-.076-.024-.106-.019-.081-.02-.1c-.006-.03-.013-.059-.018-.089l-.017-.093-.017-.096-.016-.106-.012-.085-.013-.105c-.004-.03-.008-.058-.01-.087l-.012-.12-.007-.073-.01-.136c0-.02-.002-.039-.003-.058l-.006-.143-.002-.052a7.231 7.231 0 0 1-.003-.196V8.968c0-3.3-2.137-6.108-5.1-7.116A2.503 2.503 0 0 0 10.734 0 2.503 2.503 0 0 0 8.32 1.852C5.358 2.86 3.22 5.67 3.22 8.968V11.962c0 .066 0 .13-.003.196l-.002.052-.005.143-.004.058-.01.136-.006.073-.012.12-.01.087-.013.105-.013.085-.016.106c-.005.032-.01.064-.017.096l-.016.093-.018.09-.02.099-.02.081-.024.106-.02.076-.028.11-.02.067c-.01.039-.022.078-.034.117l-.02.066-.038.116-.02.061-.042.12-.024.062-.044.117-.026.063-.046.114-.033.075-.044.1-.043.09-.039.083-.052.103-.034.067c-.02.04-.041.078-.063.117l-.027.051a7.334 7.334 0 0 1-.082.143l-.013.023a7.337 7.337 0 0 1-.098.162l-.002.001a7.25 7.25 0 0 1-1.376 1.612.74.74 0 0 0-.086.065 1.877 1.877 0 0 0-.598 1.896c.209.81.945 1.41 1.82 1.41h4.91a4.033 4.033 0 0 0 3.945 3.22 4.032 4.032 0 0 0 3.944-3.22h4.911a1.882 1.882 0 0 0 1.876-1.981" mask="url(#b)"/>
    </g>
</svg>
