<svg xmlns="http://www.w3.org/2000/svg" xmlns:xlink="http://www.w3.org/1999/xlink" width="25" height="24" viewBox="0 0 25 24">
    <defs>
        <path id="a" d="M0 0h21.468v23.995H0z"/>
    </defs>
    <g fill="none" fill-rule="evenodd" transform="translate(1)">
        <mask id="b" fill="#fff">
            <use xlink:href="#a"/>
        </mask>
        <path fill="#3A405B" d="M21.47 18.798a1.878 1.878 0 0 0-.655-1.326.734.734 0 0 0-.086-.064 7.253 7.253 0 0 1-1.377-1.612l-.001-.002a7.459 7.459 0 0 1-.098-.162l-.013-.022a7.603 7.603 0 0 1-.082-.143l-.028-.052-.063-.117-.034-.067-.052-.103-.039-.083-.042-.09-.044-.1-.033-.075-.047-.114-.025-.063-.045-.117-.023-.062-.042-.12-.02-.06-.038-.117-.021-.066-.034-.117-.02-.067-.028-.11-.02-.076-.024-.106-.019-.081-.02-.1-.018-.089-.017-.093-.017-.097-.016-.105c-.004-.028-.009-.057-.012-.086l-.013-.104c-.004-.03-.008-.059-.01-.088l-.012-.12-.007-.073-.01-.136c0-.02-.002-.038-.003-.058-.003-.047-.004-.095-.006-.142l-.002-.053a7.232 7.232 0 0 1-.003-.195V8.969c0-3.3-2.138-6.108-5.1-7.116A2.504 2.504 0 0 0 10.735 0a2.504 2.504 0 0 0-2.414 1.853C5.359 2.86 3.22 5.67 3.22 8.969v2.996l-.003.195-.002.053a7.41 7.41 0 0 1-.006.142c0 .02-.002.039-.004.058-.002.046-.005.091-.009.136l-.007.073-.011.12-.01.088-.013.104-.013.086-.016.105-.017.097-.016.093-.019.09-.02.099-.019.081-.024.106-.02.075-.029.11-.019.068-.034.117-.021.066-.037.116-.021.061-.042.12-.023.062-.044.117-.026.063c-.015.038-.03.076-.047.114l-.033.075c-.014.033-.028.067-.044.1l-.042.09-.04.083-.051.103-.034.067c-.02.04-.042.079-.063.117l-.028.052a7.334 7.334 0 0 1-.082.143l-.013.022a7.263 7.263 0 0 1-.098.162l-.001.002a7.251 7.251 0 0 1-1.377 1.612.743.743 0 0 0-.086.064 1.878 1.878 0 0 0-.598 1.897c.21.81.946 1.41 1.82 1.41H6.79A4.033 4.033 0 0 0 10.736 24a4.033 4.033 0 0 0 3.945-3.22h4.912a1.882 1.882 0 0 0 1.876-1.982" mask="url(#b)"/>
    </g>
</svg>
