<svg xmlns="http://www.w3.org/2000/svg" width="60" height="66" viewBox="0 0 60 66">
    <path fill="#FFF" fill-rule="nonzero" d="M28.37 50C36.226 50 42 45.557 42 32.759v-2.222C42 21.216 37.646 16 29.885 16 22.69 16 19 21.023 19 27.494c0 6.375 4.117 10.287 9.654 10.287 3.408 0 5.963-1.4 7.62-2.946-.284 8.404-3.502 10.384-8.235 10.384-2.319 0-5.253-.918-6.578-1.642l-.994 4.346C21.981 48.841 25.105 50 28.37 50zm1.988-16.517c-3.313 0-5.774-1.98-5.774-6.423 0-4.057 1.893-6.665 5.443-6.665 4.354 0 6.2 3.525 6.2 9.031v.821c-1.09 1.594-3.503 3.236-5.869 3.236z"/>
</svg>
