<svg xmlns="http://www.w3.org/2000/svg" width="60" height="66" viewBox="0 0 60 66">
    <path fill="#FFF" fill-rule="nonzero" d="M30.403 50C38.33 50 43 45.997 43 40.403c0-4.63-3.502-7.041-7.393-8.343 3.453-1.64 6.08-4.244 6.08-7.861 0-5.16-4.28-8.199-11.284-8.199-7.004 0-11.43 3.52-11.43 8.633 0 4.099 2.432 6.366 5.885 7.909C21.21 33.989 18 36.93 18 41.078 18 46.431 22.475 50 30.403 50zm.827-19.918c-4.135-1.012-6.275-2.749-6.275-5.594 0-2.604 2.14-4.196 5.545-4.196 3.745 0 5.545 1.881 5.545 4.34 0 2.653-2.238 4.39-4.815 5.45zm-.973 15.578c-4.037 0-6.615-1.881-6.615-5.064 0-2.942 2.821-5.16 5.788-6.173 4.961 1.302 7.539 2.99 7.539 6.414 0 2.845-2.627 4.823-6.712 4.823z"/>
</svg>
