<svg xmlns="http://www.w3.org/2000/svg" width="60" height="66" viewBox="0 0 60 66">
    <path fill="#FFF" fill-rule="nonzero" d="M30.926 50C38.119 50 42 44.977 42 38.65c0-6.326-4.07-9.9-9.654-9.9-3.36 0-5.916 1.449-7.572 2.898.473-8.5 3.644-10.915 8.47-10.915 2.13 0 4.875.773 6.106 1.449l1.136-4.347C39.113 17.015 36.179 16 32.914 16 25.2 16 19 20.588 19 32.952v2.366C19 44.398 23.07 50 30.926 50zm-.142-4.395c-4.26 0-5.963-3.477-5.963-9.08v-.29C25.957 34.69 28.276 33 30.642 33c3.313 0 5.726 1.642 5.726 6.085 0 4.154-2.13 6.52-5.584 6.52z"/>
</svg>
