<svg xmlns="http://www.w3.org/2000/svg" width="60" height="66" viewBox="0 0 60 66">
    <path fill="#FFF" fill-rule="nonzero" d="M28.74 50C36.3 50 41 46.18 41 40.085c0-4.933-2.907-7.303-7.075-8.125 3.634-1.257 5.96-3.772 5.96-7.738 0-5.32-4.167-8.222-10.321-8.222-3.247 0-7.269.919-9.304 2.08l.678 4.4c1.987-.918 4.604-1.74 7.075-1.74 3.635 0 5.912 1.209 5.912 4.546 0 3.095-2.568 4.836-6.396 4.933l-3.053.048v4.305l3.44.097c4.216.048 6.881 1.499 6.881 5.03 0 3.723-2.616 5.561-7.075 5.561-2.47 0-6.057-.822-7.753-1.886L19 47.68C20.89 48.888 24.767 50 28.74 50z"/>
</svg>
