<?xml version="1.0" encoding="UTF-8"?>
<svg width="24px" height="24px" viewBox="0 0 24 24" version="1.1" xmlns="http://www.w3.org/2000/svg" xmlns:xlink="http://www.w3.org/1999/xlink">
    <!-- Generator: Sketch 52.5 (67469) - http://www.bohemiancoding.com/sketch -->
    <title>operator_icon</title>
    <desc>Created with Sketch.</desc>
    <g id="wizlab-interface-1.1-v" stroke="none" stroke-width="1" fill="none" fill-rule="evenodd">
        <g id="landscape-1" transform="translate(-827.000000, -280.000000)" fill="#66BB6B">
            <g id="API" transform="translate(810.000000, 83.000000)">
                <g id="Group-24-Copy-8">
                    <g id="operation" transform="translate(17.000000, 197.000000)">
                        <path d="M14.4314286,15.9384 L14.4314286,17.24016 C14.4314286,17.66736 14.8104571,18.02112 15.2681714,18.02112 C15.7264,18.02112 16.1054286,17.66736 16.1054286,17.24016 L16.1054286,15.9384 L17.5001714,15.9384 C17.9573714,15.9384 18.3369143,15.58464 18.3369143,15.15792 C18.3369143,14.73024 17.9573714,14.37504 17.5001714,14.37504 L16.1054286,14.37504 L16.1054286,13.07376 C16.1054286,12.64752 15.7264,12.29376 15.2681714,12.29376 C14.8104571,12.29376 14.4314286,12.64752 14.4314286,13.07376 L14.4314286,14.37504 L13.0366857,14.37504 C12.5794857,14.37504 12.1999429,14.73024 12.1999429,15.15792 C12.1999429,15.58464 12.5794857,15.9384 13.0366857,15.9384 L14.4314286,15.9384 Z M18.3369143,19.06272 L3.83148571,19.06272 L19.4529143,4.4832 L19.4529143,18.02112 C19.4529143,18.59184 18.9504571,19.06272 18.3369143,19.06272 Z M5.78422857,6.56544 L9.6892,6.56544 C10.1469143,6.56544 10.5264571,6.92016 10.5264571,7.34688 C10.5264571,7.7736 10.1469143,8.12784 9.6892,8.12784 L5.78422857,8.12784 C5.32651429,8.12784 4.94748571,7.7736 4.94748571,7.34688 C4.94748571,6.92016 5.32651429,6.56544 5.78422857,6.56544 Z M19.4529143,2.4 L3.83148571,2.4 C2.60388571,2.4 1.6,3.33648 1.6,4.4832 L1.6,19.06272 C1.6,20.20752 2.60388571,21.14592 3.83148571,21.14592 L19.4529143,21.14592 C20.6794857,21.14592 21.6844,20.20752 21.6844,19.06272 L21.6844,4.4832 C21.6844,3.33648 20.6794857,2.4 19.4529143,2.4 Z" id="Fill-2"></path>
                    </g>
                </g>
            </g>
        </g>
    </g>
</svg>