<svg xmlns="http://www.w3.org/2000/svg" width="24" height="24" viewBox="0 0 24 24">
    <g fill="#4A4A4A" fill-rule="evenodd">
        <path d="M2 20.4c.467-1.6.94-3.197 1.401-4.799A979.562 979.562 0 0 0 5.192 9.3c.097-.344.262-.533.642-.536 1.961-.018 3.738-.665 5.405-1.646.388-.228.65-.201.967.12a469.54 469.54 0 0 0 4.584 4.588c.293.29.323.539.113.895-.998 1.691-1.662 3.491-1.673 5.486-.002.367-.213.51-.53.6-3.337.946-6.672 1.897-10.007 2.85-.367.105-.729.228-1.093.343h-.267c-.394-.325-.414-.551-.047-.899 1.772-1.681 3.554-3.353 5.32-5.04.34-.326.685-.497 1.178-.482.878.025 1.534-.831 1.328-1.653-.177-.705-.83-1.163-1.525-1.068a1.372 1.372 0 0 0-1.173 1.397c.01.374-.055.688-.325.971-1.735 1.823-3.459 3.657-5.19 5.484-.348.367-.576.348-.899-.043V20.4zM22 9.111c-.24.328-.455.68-.728.977-.47.511-.97.995-1.47 1.477-.603.58-1.386.585-1.977-.003-1.803-1.792-3.6-3.59-5.39-5.395-.588-.593-.584-1.374-.001-1.98a53.43 53.43 0 0 1 1.79-1.783c.184-.174.441-.271.665-.404h.533c.326.217.695.389.969.658a387.479 387.479 0 0 1 4.916 4.92c.28.285.464.664.693 1v.533z"/>
    </g>
</svg>
