<?xml version="1.0" encoding="UTF-8"?>
<svg width="24px" height="24px" viewBox="0 0 24 24" version="1.1" xmlns="http://www.w3.org/2000/svg" xmlns:xlink="http://www.w3.org/1999/xlink">
    <!-- Generator: Sketch 52.5 (67469) - http://www.bohemiancoding.com/sketch -->
    <title>physics_icon</title>
    <desc>Created with Sketch.</desc>
    <g id="wizlab-interface-1.1-v" stroke="none" stroke-width="1" fill="none" fill-rule="evenodd">
        <g id="landscape-1" transform="translate(-827.000000, -318.000000)" fill="#EC3F7A" fill-rule="nonzero">
            <g id="API" transform="translate(810.000000, 83.000000)">
                <g id="Group-24-Copy-8">
                    <g id="-physics" transform="translate(17.000000, 235.000000)">
                        <path d="M12,12 C12,8.91121155 14.5739904,6.33722117 17.6627788,6.33722117 C20.3088409,6.33722117 22.5739525,8.22138213 23.1711182,10.7027088 C23.3255577,11.3616504 22.8416475,12 22.17241,12 L12,12 Z M12,12 C12,15.0887885 9.42600962,17.6627788 6.33722117,17.6627788 C3.69115906,17.6627788 1.42604753,15.7786179 0.828881761,13.2972912 C0.674442339,12.6383496 1.15835253,12 1.82759003,12 L12,12 Z M12,12 C8.91121155,12 6.33722117,9.42600962 6.33722117,6.33722117 C6.33722117,3.69115906 8.22138213,1.42604753 10.7027088,0.828881761 C11.3616504,0.674442339 12,1.15835253 12,1.82759003 L12,12 Z M12,12 C15.0887885,12 17.6627788,14.5739904 17.6627788,17.6627788 C17.6627788,20.3088409 15.7786179,22.5739525 13.2972912,23.1711182 C12.6383496,23.3255577 12,22.8416475 12,22.17241 L12,12 Z" id="Shape"></path>
                    </g>
                </g>
            </g>
        </g>
    </g>
</svg>