<svg xmlns="http://www.w3.org/2000/svg" width="24" height="24" viewBox="0 0 24 24">
    <g fill="none" fill-rule="evenodd">
        <path d="M0 0H24V24H0z"/>
        <path fill="#FFF" d="M16.8.6c.331 0 .6.269.6.6 0 .331-.269.6-.6.6h-.901l3 12h.901c.331 0 .6.269.6.6 0 .331-.269.6-.6.6l-.601-.001.001.001h-6.601l.001 7.8c0 .331-.269.6-.6.6-.331 0-.6-.269-.6-.6l-.001-7.8H4.8l-.001-.001L4.2 15c-.331 0-.6-.269-.6-.6 0-.331.269-.6.6-.6h.899l3-12H7.2c-.331 0-.6-.269-.6-.6 0-.331.269-.6.6-.6h9.6zm-2.138 1.2H9.337l-3 12h11.325l-3-12z"/>
    </g>
</svg>
