<svg xmlns="http://www.w3.org/2000/svg" width="133" height="133" viewBox="0 0 133 133">
    <g fill="none" fill-rule="evenodd">
        <path fill="#833EF1" d="M-57 118.605L122.605-61l35.355 35.355L-21.645 153.96z"/>
        <path fill="#FFF" fill-rule="nonzero" d="M23.608 66.16c1.049-1.048 2.03-1.595 2.942-1.64.913-.045 1.757.32 2.534 1.098.46.46.792.988.996 1.583.203.596.198 1.25-.017 1.963-.215.713-.719 1.466-1.51 2.257l-.804.804 2.976 2.975-1.448 1.448-8.078-8.078 2.41-2.41zm1.11 1.29l-.872.872 2.704 2.703.656-.656c.588-.588.935-1.15 1.041-1.685.106-.536-.087-1.049-.577-1.54-.445-.444-.909-.644-1.392-.599-.482.046-1.003.347-1.56.905zm8.394-7.127c.098-.098.213-.202.345-.311.132-.11.243-.195.334-.255l1.199 1.448a4.3 4.3 0 0 0-.317.238c-.12.098-.219.185-.294.26a2.779 2.779 0 0 0-.662 1.035c-.14.389-.162.792-.068 1.21.095.42.342.829.741 1.228l3.18 3.18-1.426 1.425-6.132-6.132 1.097-1.097 1.267.86.068-.069a3.633 3.633 0 0 1-.084-1.578 2.572 2.572 0 0 1 .752-1.442zm4.22-4.22c.822-.822 1.718-1.228 2.687-1.217.97.012 1.891.455 2.766 1.33l.724.724-4.05 4.05c.573.543 1.16.82 1.76.832.599.011 1.159-.243 1.68-.764.391-.392.706-.786.944-1.182a8.05 8.05 0 0 0 .628-1.318l1.143 1.142a5.904 5.904 0 0 1-.623 1.256c-.256.393-.61.815-1.063 1.267-.604.604-1.25 1.02-1.94 1.25-.69.23-1.398.244-2.122.04-.724-.203-1.437-.656-2.138-1.357-1.049-1.049-1.59-2.107-1.624-3.174-.034-1.067.376-2.027 1.228-2.88zm1.052 1.052c-.385.385-.573.818-.566 1.301.008.483.234.984.68 1.505l2.635-2.636c-.43-.415-.886-.657-1.369-.724-.482-.068-.942.116-1.38.554zm10.08-12.185c.694-.694 1.394-1.039 2.1-1.035.705.004 1.453.401 2.245 1.193l3.994 3.994-1.426 1.426-3.722-3.723c-.913-.912-1.716-1.022-2.41-.328-.498.498-.69 1.015-.577 1.55.113.536.48 1.113 1.098 1.731l3.19 3.19-1.425 1.426-3.723-3.722c-.912-.913-1.72-1.018-2.42-.317-.521.52-.698 1.06-.532 1.618.165.558.584 1.173 1.255 1.844l2.998 2.998-1.425 1.426-6.132-6.132 1.097-1.097 1.007.6.08-.08a2.396 2.396 0 0 1 .073-1.465c.177-.472.443-.885.798-1.239.46-.46.922-.771 1.386-.933.463-.163.944-.16 1.442.005l.113-.113a2.368 2.368 0 0 1 .068-1.516c.189-.49.471-.924.849-1.301zm2.343-6.845c.21-.211.45-.341.718-.39.268-.05.541.066.82.345.28.279.396.554.35.826a1.314 1.314 0 0 1-.384.724 1.304 1.304 0 0 1-.73.39c-.267.042-.54-.077-.82-.356-.279-.28-.396-.55-.35-.815.045-.264.177-.505.396-.724zm3.077 1.652l6.132 6.132-1.426 1.426-6.132-6.132 1.426-1.426zm7.263-7.263l6.132 6.132-1.12 1.12-.984-.6-.068.068c.12.513.08 1.014-.124 1.505-.204.49-.498.927-.883 1.312-.686.686-1.4 1.047-2.144 1.08-.743.034-1.506-.34-2.29-1.125L55.66 38l1.426-1.426 3.722 3.722c.46.46.894.713 1.3.758.408.046.808-.128 1.2-.52.573-.573.786-1.148.64-1.725-.148-.577-.557-1.201-1.228-1.873l-2.998-2.998 1.425-1.425zm8.734-8.96c.694-.695 1.394-1.04 2.1-1.036.704.004 1.453.402 2.245 1.194l3.994 3.993-1.426 1.426-3.722-3.722c-.913-.913-1.716-1.022-2.41-.328-.498.497-.69 1.014-.577 1.55.113.535.479 1.112 1.098 1.73l3.19 3.191-1.426 1.425-3.722-3.722c-.912-.912-1.72-1.018-2.42-.317-.521.52-.699 1.06-.533 1.618.166.559.585 1.173 1.256 1.844l2.998 2.999-1.425 1.425-6.132-6.132 1.097-1.097 1.007.6.08-.08a2.396 2.396 0 0 1 .073-1.465c.177-.471.443-.884.797-1.239.46-.46.923-.771 1.386-.933.464-.162.945-.16 1.443.005l.113-.113a2.368 2.368 0 0 1 .068-1.516c.188-.49.471-.924.848-1.3z"/>
    </g>
</svg>
