<svg xmlns="http://www.w3.org/2000/svg" xmlns:xlink="http://www.w3.org/1999/xlink" width="14" height="14" viewBox="0 0 14 14">
    <defs>
        <path id="qy1z6bnd1a" d="M6.89 0c2.03 0 3.684 1.654 3.684 3.684 0 1.37-.753 2.568-1.866 3.203 2.687.82 4.667 3.529 4.667 6.745 0 .203-.147.368-.327.368H.952c-.18 0-.327-.165-.327-.368 0-3.16 1.912-5.831 4.528-6.701-1.158-.62-1.948-1.844-1.948-3.247C3.205 1.654 4.86 0 6.89 0zM7 7.368c-3.005 0-5.422 2.612-5.597 5.895h11.194C12.422 9.98 10.005 7.368 7 7.368zM6.89.737c-1.633 0-2.948 1.315-2.948 2.947 0 1.632 1.315 2.948 2.947 2.948 1.633 0 2.948-1.316 2.948-2.948S8.522.737 6.889.737z"/>
    </defs>
    <g fill="none" fill-rule="evenodd">
        <path d="M0 0H14V14H0z"/>
        <use fill="#333" fill-rule="nonzero" xlink:href="#qy1z6bnd1a"/>
    </g>
</svg>
