<svg xmlns="http://www.w3.org/2000/svg" xmlns:xlink="http://www.w3.org/1999/xlink" width="20" height="20" viewBox="0 0 20 20">
    <defs>
        <path id="b618krnw6a" d="M19.89 6.565c-.1-.125-.25-.2-.399-.2H17.5v-1.99c0-.275-.224-.499-.498-.499H6.995l-.174-.97c-.05-.25-.25-.399-.498-.399H2.539c-.249 0-.448.175-.498.399l-.174.97H.497C.225 3.876 0 4.1 0 4.374v12.62c0 .275.224.499.498.499h16.504c.224 0 .423-.15.473-.374l2.489-10.131c.075-.15.025-.299-.075-.423zM.995 4.872H2.29c.25 0 .448-.174.498-.398l.174-.971h2.962l.175.97c.05.25.249.4.498.4h9.932v1.493H2.987c-.224 0-.423.149-.473.373L.996 12.888V4.872zm15.632 11.625H1.145l2.24-9.136H18.87l-2.24 9.136z"/>
    </defs>
    <g fill="none" fill-rule="evenodd">
        <path d="M0 0H20V20H0z"/>
        <use fill="#333" fill-rule="nonzero" xlink:href="#b618krnw6a"/>
    </g>
</svg>
