<svg xmlns="http://www.w3.org/2000/svg" xmlns:xlink="http://www.w3.org/1999/xlink" width="24" height="24" viewBox="0 0 24 24">
    <defs>
        <rect id="a" width="24" height="24" rx="4"/>
        <mask id="b" width="24" height="24" x="0" y="0" fill="#fff">
            <use xlink:href="#a"/>
        </mask>
    </defs>
    <g fill="none" fill-rule="evenodd">
        <use stroke="#4A4A4A" stroke-dasharray="2" stroke-width="2" mask="url(#b)" xlink:href="#a"/>
        <path fill="#4A4A4A" fill-rule="nonzero" d="M14.509 9.986c0-1.092-.574-1.666-1.47-1.666h-2.044v3.332h2.044c.896 0 1.47-.574 1.47-1.666zm2.1 0c0 2.17-1.288 3.346-3.416 3.346h-2.198v2.926c0 .56-.364.882-1.05.882s-1.05-.322-1.05-.882V7.83c0-.77.42-1.19 1.19-1.19h3.108c2.128 0 3.416 1.176 3.416 3.346z"/>
    </g>
</svg>
