<svg xmlns="http://www.w3.org/2000/svg" width="24" height="21" viewBox="0 0 24 21">
    <path fill="#000" fill-rule="nonzero" d="M0 20.25v-3.467c1.326-.352 2.335-.851 3.026-1.498.69-.648 1.243-1.475 1.658-2.483.414-1.008.621-2.233.621-3.676-1.713 0-2.975-.485-3.785-1.456C.71 6.7.304 5.668.304 4.577c0-1.294.451-2.38 1.354-3.26C2.56.44 3.61 0 4.808 0 6.355 0 7.69.67 8.814 2.011 9.938 3.351 10.5 5.187 10.5 7.517c0 2.053-.442 3.976-1.326 5.77a14.065 14.065 0 0 1-3.606 4.605C4.048 19.168 2.192 19.954 0 20.25zm12.75 0v-3.467c1.308-.352 2.312-.851 3.012-1.498.7-.648 1.257-1.475 1.672-2.483.414-1.008.621-2.233.621-3.676-1.713 0-2.975-.485-3.785-1.456-.81-.97-1.216-2.002-1.216-3.093 0-1.294.447-2.38 1.34-3.26C15.288.44 16.333 0 17.53 0c1.566 0 2.91.67 4.034 2.011 1.124 1.34 1.686 3.176 1.686 5.506 0 2.053-.442 3.976-1.326 5.77a14.065 14.065 0 0 1-3.606 4.605c-1.52 1.276-3.376 2.062-5.568 2.358z"/>
</svg>
