<svg xmlns="http://www.w3.org/2000/svg" width="25" height="21" viewBox="0 0 25 21">
    <g fill="#000" fill-rule="evenodd">
        <path d="M24.665.014v3.487c-1.286.353-2.264.856-2.934 1.506-.67.651-1.206 1.484-1.608 2.497-.402 1.014-.603 2.246-.603 3.696 1.644 0 2.863.488 3.658 1.465.795.976 1.192 2.013 1.192 3.11 0 1.302-.438 2.394-1.313 3.278-.875.883-1.893 1.325-3.054 1.325-1.519 0-2.818-.674-3.899-2.023-1.08-1.348-1.621-3.194-1.621-5.537 0-2.064.429-3.998 1.286-5.802a14.082 14.082 0 0 1 3.497-4.63C20.739 1.101 22.539.311 24.665.013zM10.847.014v3.487c-1.287.353-2.265.856-2.934 1.506-.67.651-1.206 1.484-1.608 2.497-.402 1.014-.603 2.246-.603 3.696 1.661 0 2.885.488 3.67 1.465.787.976 1.18 2.013 1.18 3.11 0 1.302-.438 2.394-1.313 3.278-.875.883-1.894 1.325-3.055 1.325-1.5 0-2.795-.674-3.885-2.023C1.21 17.007.665 15.161.665 12.818c0-2.064.428-3.998 1.286-5.802a14.082 14.082 0 0 1 3.497-4.63C6.92 1.101 8.72.311 10.847.013z"/>
    </g>
</svg>
