<svg xmlns="http://www.w3.org/2000/svg" width="160" height="40" viewBox="0 0 160 40">
    <g fill="none" fill-rule="evenodd">
        <rect width="160" height="40" fill="#FFE8D8" rx="4"/>
        <path fill="#FF8225" fill-rule="nonzero" d="M14.398 12.796v16.787h16.787v2.398H14.398A2.397 2.397 0 0 1 12 29.583V12.796h2.398zM33.583 8a2.397 2.397 0 0 1 2.398 2.398v14.389a2.397 2.397 0 0 1-2.398 2.398H19.194a2.397 2.397 0 0 1-2.398-2.398V10.398A2.397 2.397 0 0 1 19.194 8zm-11.99 5.995h-2.998v7.195h1.798v-2.398h1.2c.995 0 1.798-.804 1.798-1.799v-1.2c0-.994-.803-1.798-1.798-1.798zm5.995 0H24.59v7.195h2.998c.995 0 1.798-.804 1.798-1.799v-3.597c0-.995-.803-1.799-1.798-1.799zm6.595 0h-3.598v7.195h1.8v-2.398h1.798v-1.799h-1.799v-1.2h1.799v-1.798zm-6.595 1.799v3.597h-1.2v-3.597h1.2zm-5.996 0v1.199h-1.199v-1.2h1.2z"/>
        <text fill="#FF8225" font-family="NotoSansCJKkr-Medium, Noto Sans CJK KR" font-size="12" font-weight="400" letter-spacing="-.113">
            <tspan x="44.239" y="25">학습 리포트 다운로드</tspan>
        </text>
    </g>
</svg>
