<?xml version="1.0" encoding="UTF-8"?>
<svg width="50px" height="32px" viewBox="0 0 50 32" version="1.1" xmlns="http://www.w3.org/2000/svg" xmlns:xlink="http://www.w3.org/1999/xlink">
    <!-- Generator: Sketch 52.5 (67469) - http://www.bohemiancoding.com/sketch -->
    <title>scene_portrait_icon</title>
    <desc>Created with Sketch.</desc>
    <g id="wizschool-1.1v" stroke="none" stroke-width="1" fill="none" fill-rule="evenodd">
        <g id="landscape-1" transform="translate(-850.000000, -944.000000)" fill="#23D8AF">
            <g id="select-scene" transform="translate(830.000000, 925.000000)">
                <g id="scene" transform="translate(20.000000, 19.000000)">
                    <g id="Group-7" transform="translate(25.000000, 16.000000) rotate(-90.000000) translate(-25.000000, -16.000000) translate(9.000000, -9.000000)">
                        <path d="M4.54545455,38.6356331 L27.2712662,38.6356331 L27.2712662,6.81891236 L4.54545455,6.81891236 L4.54545455,38.6356331 Z M19.317086,45.4530844 L12.4996347,45.4530844 C11.8640601,45.4530844 11.3643669,44.9548523 11.3643669,44.3163555 C11.3643669,43.6793197 11.8640601,43.1796265 12.4996347,43.1796265 L19.317086,43.1796265 C19.9526606,43.1796265 20.4538149,43.6793197 20.4538149,44.3163555 C20.4538149,44.9548523 19.9526606,45.4530844 19.317086,45.4530844 Z M6.81891236,0 C3.04491394,0 7.10542736e-15,3.04491394 7.10542736e-15,6.81745127 L7.10542736e-15,43.1796265 C7.10542736e-15,46.9521639 3.04491394,50 6.81891236,50 L24.9992695,50 C28.7732679,50 31.8167207,46.9521639 31.8167207,43.1796265 L31.8167207,6.81745127 C31.8167207,3.04491394 28.7732679,0 24.9992695,0 L6.81891236,0 Z" id="Fill-1"></path>
                    </g>
                </g>
            </g>
        </g>
    </g>
</svg>