<svg xmlns="http://www.w3.org/2000/svg" width="420" height="50" viewBox="0 0 420 50">
    <path fill="#FFF" fill-rule="nonzero" d="M14.208 46.792c-1.664 0-3.112-.216-4.344-.648-1.232-.432-2.248-1.032-3.048-1.8a7.107 7.107 0 0 1-1.776-2.736c-.384-1.056-.576-2.208-.576-3.456 0-1.248.192-2.408.576-3.48a7.077 7.077 0 0 1 1.776-2.76c.8-.768 1.816-1.376 3.048-1.824 1.232-.448 2.68-.672 4.344-.672h20.688c1.632 0 3.064.216 4.296.648 1.232.432 2.248 1.032 3.048 1.8.8.768 1.4 1.688 1.8 2.76.4 1.072.6 2.248.6 3.528 0 2.56-.8 4.64-2.4 6.24-1.6 1.6-4.048 2.4-7.344 2.4H14.208zm6.624-33.696v.288c0 .768-.048 1.504-.144 2.208 3.648-.032 6.344.896 8.088 2.784 1.744 1.888 2.584 4.896 2.52 9.024H22.32c.16-1.824-.152-3.192-.936-4.104-.784-.912-1.864-1.32-3.24-1.224-1.44 1.952-3.232 3.408-5.376 4.368a16.156 16.156 0 0 1-6.672 1.44c-1.184 0-2.184-.312-3-.936-.816-.624-1.224-1.48-1.224-2.568 0-1.12.28-1.992.84-2.616.56-.624 1.32-.984 2.28-1.08 2.208-.256 3.904-1.04 5.088-2.352 1.184-1.312 1.776-2.96 1.776-4.944v-.288h-6.24c-.576 0-1.08-.112-1.512-.336a3.392 3.392 0 0 1-1.08-.864 4.083 4.083 0 0 1-.672-1.176 3.773 3.773 0 0 1-.24-1.32c0-.416.064-.856.192-1.32.128-.464.336-.872.624-1.224a3.6 3.6 0 0 1 1.104-.888c.448-.24.976-.36 1.584-.36h6.096v-.144c0-1.44.4-2.496 1.2-3.168.8-.672 1.952-1.008 3.456-1.008s2.664.336 3.48 1.008c.816.672 1.224 1.728 1.224 3.168v.144h6.288c.608 0 1.136.12 1.584.36a3.6 3.6 0 0 1 1.104.888c.288.352.496.76.624 1.224.128.464.192.904.192 1.32 0 .448-.08.888-.24 1.32-.16.432-.384.824-.672 1.176-.288.352-.648.64-1.08.864-.432.224-.936.336-1.512.336h-6.528zm13.536-6.768c0-1.568.472-2.752 1.416-3.552.944-.8 2.056-1.2 3.336-1.2 1.248 0 2.352.408 3.312 1.224.96.816 1.44 1.992 1.44 3.528v4.08h1.488c.736 0 1.344.128 1.824.384s.864.576 1.152.96c.288.384.496.824.624 1.32.128.496.192.984.192 1.464s-.064.968-.192 1.464a3.979 3.979 0 0 1-.624 1.344c-.288.4-.68.72-1.176.96-.496.24-1.096.36-1.8.36h-1.488v9.216h-9.504V6.328zm-2.064 33.984c.992 0 1.672-.208 2.04-.624.368-.416.552-.928.552-1.536s-.184-1.104-.552-1.488c-.368-.384-1.048-.576-2.04-.576H16.8c-.992 0-1.672.192-2.04.576-.368.384-.552.88-.552 1.488s.184 1.12.552 1.536c.368.416 1.048.624 2.04.624h15.504zm45.504-3.504c.736 0 1.36.112 1.872.336.512.224.928.528 1.248.912.32.384.552.816.696 1.296.144.48.216.96.216 1.44a5.15 5.15 0 0 1-.216 1.488c-.144.48-.384.904-.72 1.272-.336.368-.76.664-1.272.888-.512.224-1.12.336-1.824.336H53.664c-1.44 0-2.48-.408-3.12-1.224a4.357 4.357 0 0 1-.96-2.76c0-.48.072-.96.216-1.44.144-.48.384-.912.72-1.296.336-.384.76-.688 1.272-.912.512-.224 1.136-.336 1.872-.336h24.144zM50.736 14.536c0-2.08.36-3.888 1.08-5.424.72-1.536 1.712-2.8 2.976-3.792s2.744-1.728 4.44-2.208c1.696-.48 3.536-.72 5.52-.72 1.952 0 3.784.24 5.496.72 1.712.48 3.192 1.216 4.44 2.208 1.248.992 2.232 2.256 2.952 3.792.72 1.536 1.08 3.344 1.08 5.424v4.608c0 2.08-.36 3.888-1.08 5.424-.72 1.536-1.704 2.8-2.952 3.792s-2.728 1.728-4.44 2.208c-1.712.48-3.544.72-5.496.72-1.984 0-3.824-.24-5.52-.72-1.696-.48-3.176-1.216-4.44-2.208-1.264-.992-2.256-2.256-2.976-3.792-.72-1.536-1.08-3.344-1.08-5.424v-4.608zm9.408 4.944c0 .768.128 1.424.384 1.968s.6.984 1.032 1.32c.432.336.928.584 1.488.744.56.16 1.128.24 1.704.24.576 0 1.136-.08 1.68-.24a4.368 4.368 0 0 0 1.464-.744 3.782 3.782 0 0 0 1.056-1.32c.272-.544.408-1.2.408-1.968V14.2c0-.768-.136-1.424-.408-1.968a3.782 3.782 0 0 0-1.056-1.32 4.368 4.368 0 0 0-1.464-.744 5.923 5.923 0 0 0-1.68-.24c-.576 0-1.144.08-1.704.24-.56.16-1.056.408-1.488.744a3.556 3.556 0 0 0-1.032 1.32c-.256.544-.384 1.2-.384 1.968v5.28zm23.424 27.168V6.328c0-1.568.48-2.752 1.44-3.552.96-.8 2.08-1.2 3.36-1.2 1.28 0 2.4.4 3.36 1.2.96.8 1.44 1.984 1.44 3.552v40.32h-9.6zm45.312-16.944c.544-1.344.96-3.04 1.248-5.088H103.2c-.736 0-1.36-.12-1.872-.36a4.086 4.086 0 0 1-1.296-.936 3.54 3.54 0 0 1-.768-1.32 4.75 4.75 0 0 1-.24-1.464c0-.48.08-.96.24-1.44.16-.48.408-.92.744-1.32s.768-.72 1.296-.96 1.16-.36 1.896-.36h27.504v-4.08c0-.352-.104-.64-.312-.864-.208-.224-.504-.336-.888-.336H103.68c-.736 0-1.368-.12-1.896-.36a3.757 3.757 0 0 1-1.296-.936 4.03 4.03 0 0 1-.768-1.32 4.36 4.36 0 0 1-.264-1.464c0-.48.08-.96.24-1.44.16-.48.416-.92.768-1.32.352-.4.792-.72 1.32-.96s1.16-.36 1.896-.36h29.232c2.72 0 4.656.608 5.808 1.824 1.152 1.216 1.728 2.944 1.728 5.184v5.28c0 3.968-.208 7.344-.624 10.128-.416 2.784-1.072 5.136-1.968 7.056-.608 1.312-1.552 2.232-2.832 2.76-1.28.528-2.688.504-4.224-.072-.576-.224-1.048-.536-1.416-.936a3.326 3.326 0 0 1-.768-1.368 4.38 4.38 0 0 1-.144-1.584 5.032 5.032 0 0 1 .408-1.584zm-17.52 8.208v-6.96c0-.768.136-1.416.408-1.944.272-.528.64-.952 1.104-1.272.464-.32.992-.544 1.584-.672a8.722 8.722 0 0 1 1.848-.192 7.89 7.89 0 0 1 1.824.216 4.737 4.737 0 0 1 1.584.672c.448.304.816.72 1.104 1.248.288.528.432 1.176.432 1.944v6.96h17.184c.736 0 1.36.112 1.872.336.512.224.928.52 1.248.888.32.368.552.784.696 1.248.144.464.216.936.216 1.416 0 .992-.312 1.888-.936 2.688-.624.8-1.656 1.2-3.096 1.2h-36.864c-1.44 0-2.472-.4-3.096-1.2a4.261 4.261 0 0 1-.936-2.688c0-.48.072-.952.216-1.416.144-.464.376-.88.696-1.248.32-.368.736-.664 1.248-.888.512-.224 1.136-.336 1.872-.336h9.792zm37.104-.528c0-1.28.208-2.496.624-3.648a8.37 8.37 0 0 1 1.848-3c.816-.848 1.848-1.52 3.096-2.016s2.704-.744 4.368-.744h21.312c1.632 0 3.072.24 4.32.72 1.248.48 2.288 1.144 3.12 1.992a8.207 8.207 0 0 1 1.872 3 10.8 10.8 0 0 1 .624 3.696 10.8 10.8 0 0 1-.624 3.696 8.207 8.207 0 0 1-1.872 3c-.832.848-1.872 1.512-3.12 1.992s-2.688.72-4.32.72H158.4c-1.664 0-3.12-.248-4.368-.744-1.248-.496-2.28-1.168-3.096-2.016a8.41 8.41 0 0 1-1.848-2.976c-.416-1.136-.624-2.36-.624-3.672zm9.744 0c0 .608.192 1.208.576 1.8.384.592 1.104.888 2.16.888h16.224c1.056 0 1.776-.296 2.16-.888.384-.592.576-1.192.576-1.8 0-.608-.192-1.208-.576-1.8-.384-.592-1.104-.888-2.16-.888h-16.224c-1.056 0-1.776.296-2.16.888-.384.592-.576 1.192-.576 1.8zm21.264-31.056c0-1.568.488-2.752 1.464-3.552.976-.8 2.104-1.2 3.384-1.2.608 0 1.208.104 1.8.312a4.61 4.61 0 0 1 1.56.912c.448.4.808.896 1.08 1.488s.408 1.272.408 2.04v20.064h-9.696V6.328zm-8.592-3.36c.608 0 1.128.112 1.56.336.432.224.784.52 1.056.888s.464.776.576 1.224c.112.448.168.88.168 1.296 0 .416-.064.84-.192 1.272-.128.432-.32.824-.576 1.176-.256.352-.6.64-1.032.864-.432.224-.952.336-1.56.336h-13.104c-.896 0-1.344.384-1.344 1.152v5.328c0 .448.112.76.336.936.224.176.56.264 1.008.264h15.408c.608 0 1.136.112 1.584.336.448.224.8.512 1.056.864s.448.736.576 1.152c.128.416.192.832.192 1.248 0 .448-.064.888-.192 1.32-.128.432-.32.824-.576 1.176-.256.352-.608.64-1.056.864-.448.224-.976.336-1.584.336h-19.44c-1.344 0-2.448-.112-3.312-.336-.864-.224-1.56-.6-2.088-1.128-.528-.528-.896-1.216-1.104-2.064-.208-.848-.312-1.896-.312-3.144V9.64c0-1.248.104-2.296.312-3.144.208-.848.576-1.536 1.104-2.064.528-.528 1.224-.904 2.088-1.128.864-.224 1.968-.336 3.312-.336h17.136zm49.968 4.368a18.037 18.037 0 0 1-.672 4.416c2.016.064 4.016.464 6 1.2a16.205 16.205 0 0 1 5.376 3.312c1.6 1.472 2.936 3.328 4.008 5.568 1.072 2.24 1.72 4.896 1.944 7.968h-9.744c-.224-1.632-.672-3.096-1.344-4.392-.672-1.296-1.512-2.384-2.52-3.264a10.384 10.384 0 0 0-3.432-1.992 11.478 11.478 0 0 0-4.08-.624 26.63 26.63 0 0 1-3.696 4.128 26.483 26.483 0 0 1-4.344 3.216c-1.52.896-3.088 1.6-4.704 2.112-1.616.512-3.208.784-4.776.816-1.184.032-2.208-.28-3.072-.936-.864-.656-1.36-1.576-1.488-2.76-.128-1.152.112-2.16.72-3.024.608-.864 1.52-1.424 2.736-1.68a16.992 16.992 0 0 0 4.584-1.776 16.495 16.495 0 0 0 4.008-3.144c1.184-1.264 2.176-2.728 2.976-4.392.8-1.664 1.328-3.504 1.584-5.52.192-1.536.808-2.664 1.848-3.384 1.04-.72 2.232-1.032 3.576-.936 1.408.128 2.528.624 3.36 1.488.832.864 1.216 2.064 1.152 3.6zm13.488 30.24c.736 0 1.368.12 1.896.36.528.24.96.552 1.296.936.336.384.576.824.72 1.32.144.496.216.984.216 1.464 0 .512-.08 1.008-.24 1.488-.16.48-.408.912-.744 1.296s-.76.688-1.272.912c-.512.224-1.136.336-1.872.336h-36.672c-.736 0-1.36-.112-1.872-.336a3.553 3.553 0 0 1-1.272-.912 3.751 3.751 0 0 1-.744-1.296c-.16-.48-.24-.976-.24-1.488 0-.48.072-.968.216-1.464.144-.496.384-.936.72-1.32a3.757 3.757 0 0 1 1.296-.936c.528-.24 1.16-.36 1.896-.36h36.672zm12.96-28.848c-1.376 0-2.36-.304-2.952-.912-.592-.608-.888-1.392-.888-2.352 0-.928.296-1.696.888-2.304.592-.608 1.576-.912 2.952-.912h30.96c2.016 0 3.464.304 4.344.912.88.608 1.32 1.792 1.32 3.552v5.328c0 1.728-.136 3.208-.408 4.44-.272 1.232-.616 2.248-1.032 3.048h.528c1.28 0 2.176.328 2.688.984.512.656.768 1.4.768 2.232 0 .864-.264 1.6-.792 2.208-.528.608-1.416.912-2.664.912h-14.16v2.112h10.272c2.048 0 3.456.368 4.224 1.104.768.736 1.152 1.84 1.152 3.312v7.296h-30.384c-.352 0-.592.072-.72.216-.128.144-.192.344-.192.6s.064.464.192.624c.128.16.368.24.72.24h29.136c.928 0 1.592.272 1.992.816.4.544.6 1.152.6 1.824 0 .576-.192 1.16-.576 1.752-.384.592-1.056.888-2.016.888h-34.32c-1.024 0-1.92-.16-2.688-.48-.768-.32-1.4-.76-1.896-1.32a5.476 5.476 0 0 1-1.104-1.92 7.318 7.318 0 0 1-.36-2.328v-.144c0-1.696.48-3.056 1.44-4.08s2.496-1.536 4.608-1.536h25.68v-.864c0-.512-.336-.768-1.008-.768h-27.504c-.896 0-1.576-.272-2.04-.816-.464-.544-.696-1.136-.696-1.776 0-.64.216-1.24.648-1.8.432-.56 1.128-.84 2.088-.84h13.056v-2.112h-14.16c-1.248 0-2.136-.304-2.664-.912-.528-.608-.792-1.344-.792-2.208 0-.832.256-1.576.768-2.232.512-.656 1.408-.984 2.688-.984h27.984c.384-.608.672-1.36.864-2.256h-27.072c-1.376 0-2.352-.272-2.928-.816-.576-.544-.864-1.312-.864-2.304 0-.928.288-1.68.864-2.256.576-.576 1.552-.864 2.928-.864h27.696V9.688c0-.64-.368-.96-1.104-.96h-26.064zm56.208 31.776c.64 0 1.192.112 1.656.336.464.224.84.52 1.128.888.288.368.496.784.624 1.248.128.464.192.92.192 1.368 0 .448-.064.912-.192 1.392-.128.48-.336.912-.624 1.296a3.249 3.249 0 0 1-1.128.936c-.464.24-1.016.36-1.656.36H302.4c-1.792 0-3.424-.272-4.896-.816a9.491 9.491 0 0 1-3.768-2.52c-1.04-1.136-1.848-2.56-2.424-4.272-.576-1.712-.864-3.736-.864-6.072V13.576c0-2.336.288-4.36.864-6.072.576-1.712 1.384-3.128 2.424-4.248a9.838 9.838 0 0 1 3.768-2.52c1.472-.56 3.104-.84 4.896-.84h1.104c.64 0 1.192.12 1.656.36.464.24.84.552 1.128.936.288.384.496.816.624 1.296.128.48.192.944.192 1.392 0 .448-.064.904-.192 1.368-.128.464-.336.88-.624 1.248a3.134 3.134 0 0 1-1.128.888c-.464.224-1.016.336-1.656.336h-.432c-.416 0-.864.104-1.344.312a3.93 3.93 0 0 0-1.32.96c-.4.432-.728.992-.984 1.68s-.384 1.512-.384 2.472v21.984c0 .96.128 1.776.384 2.448.256.672.584 1.224.984 1.656.4.432.84.752 1.32.96.48.208.928.312 1.344.312h.432zm15.696 6.144c-1.44 0-2.608-.12-3.504-.36-.896-.24-1.592-.64-2.088-1.2-.496-.56-.832-1.304-1.008-2.232-.176-.928-.264-2.096-.264-3.504v-3.936c0-1.376.088-2.536.264-3.48.176-.944.512-1.696 1.008-2.256.496-.56 1.192-.96 2.088-1.2.896-.24 2.064-.36 3.504-.36h25.68c1.44 0 2.608.12 3.504.36.896.24 1.592.64 2.088 1.2.496.56.832 1.312 1.008 2.256.176.944.264 2.104.264 3.48v11.232H319.2zm-7.68-27.744c2.496-.704 4.352-2.024 5.568-3.96 1.216-1.936 1.824-4.648 1.824-8.136V6.52c0-.768.136-1.432.408-1.992a3.95 3.95 0 0 1 1.104-1.392c.464-.368.992-.64 1.584-.816a6.45 6.45 0 0 1 1.848-.264c1.248.032 2.328.424 3.24 1.176.912.752 1.368 1.848 1.368 3.288v.288c0 .768-.024 1.504-.072 2.208a17.317 17.317 0 0 1-.264 2.064c1.664.224 3.184.672 4.56 1.344a9.898 9.898 0 0 1 3.48 2.808c.944 1.2 1.664 2.664 2.16 4.392.496 1.728.696 3.76.6 6.096h-9.264c.16-2.08-.096-3.736-.768-4.968-.672-1.232-1.728-2.008-3.168-2.328-1.376 2.464-3.088 4.376-5.136 5.736-2.048 1.36-4.208 2.168-6.48 2.424-1.248.128-2.32-.104-3.216-.696-.896-.592-1.44-1.304-1.632-2.136-.32-1.088-.264-2.104.168-3.048.432-.944 1.128-1.544 2.088-1.8zm30.432-12.576c0-1.568.472-2.752 1.416-3.552.944-.8 2.056-1.2 3.336-1.2 1.248 0 2.352.408 3.312 1.224.96.816 1.44 1.992 1.44 3.528V9.88h1.488c.736 0 1.344.128 1.824.384s.864.576 1.152.96c.288.384.496.824.624 1.32.128.496.192.984.192 1.464s-.064.968-.192 1.464a3.979 3.979 0 0 1-.624 1.344c-.288.4-.68.72-1.176.96-.496.24-1.096.36-1.8.36h-1.488v8.256h-9.504V6.328zm-20.16 32.256c0 .576.072.936.216 1.08.144.144.456.216.936.216h19.344v-3.792c0-.544-.08-.888-.24-1.032-.16-.144-.48-.216-.96-.216h-18.144c-.48 0-.792.072-.936.216-.144.144-.216.488-.216 1.032v2.496zm38.256-1.2c0-1.28.208-2.496.624-3.648a8.37 8.37 0 0 1 1.848-3c.816-.848 1.848-1.52 3.096-2.016s2.704-.744 4.368-.744h21.312c1.632 0 3.072.24 4.32.72 1.248.48 2.288 1.144 3.12 1.992a8.207 8.207 0 0 1 1.872 3 10.8 10.8 0 0 1 .624 3.696 10.8 10.8 0 0 1-.624 3.696 8.207 8.207 0 0 1-1.872 3c-.832.848-1.872 1.512-3.12 1.992s-2.688.72-4.32.72h-21.312c-1.664 0-3.12-.248-4.368-.744-1.248-.496-2.28-1.168-3.096-2.016a8.41 8.41 0 0 1-1.848-2.976c-.416-1.136-.624-2.36-.624-3.672zm-.528-18.48c2.496-.704 4.336-2.024 5.52-3.96 1.184-1.936 1.776-4.648 1.776-8.136V6.52c0-.768.136-1.432.408-1.992a3.95 3.95 0 0 1 1.104-1.392c.464-.368.992-.64 1.584-.816a6.45 6.45 0 0 1 1.848-.264c1.248.032 2.328.424 3.24 1.176.912.752 1.368 1.848 1.368 3.288v.288c0 .832-.032 1.616-.096 2.352-.064.736-.16 1.472-.288 2.208 1.632.192 3.128.624 4.488 1.296a10.44 10.44 0 0 1 3.48 2.76c.96 1.168 1.68 2.608 2.16 4.32.48 1.712.672 3.704.576 5.976h-9.216c.16-2.016-.096-3.632-.768-4.848-.672-1.216-1.728-1.984-3.168-2.304-1.344 2.4-3.024 4.28-5.04 5.64-2.016 1.36-4.144 2.152-6.384 2.376-1.248.128-2.32-.104-3.216-.696-.896-.592-1.44-1.304-1.632-2.136-.32-1.088-.264-2.104.168-3.048.432-.944 1.128-1.544 2.088-1.8zm31.68-3.84h-4.032c-1.184 0-2.104-.408-2.76-1.224-.656-.816-.984-1.736-.984-2.76 0-1.024.304-1.944.912-2.76.608-.816 1.552-1.224 2.832-1.224h4.032v-.864c0-1.536.48-2.696 1.44-3.48a5.087 5.087 0 0 1 3.312-1.176c.608 0 1.2.104 1.776.312a4.888 4.888 0 0 1 1.536.888c.448.384.808.864 1.08 1.44s.408 1.248.408 2.016v20.16H391.2V15.064zm-21.408 22.32c0 .608.192 1.208.576 1.8.384.592 1.104.888 2.16.888h16.224c1.056 0 1.776-.296 2.16-.888.384-.592.576-1.192.576-1.8 0-.608-.192-1.208-.576-1.8-.384-.592-1.104-.888-2.16-.888h-16.224c-1.056 0-1.776.296-2.16.888-.384.592-.576 1.192-.576 1.8zm38.304 3.12c.416 0 .864-.104 1.344-.312a3.93 3.93 0 0 0 1.32-.96c.4-.432.728-.984.984-1.656.256-.672.384-1.488.384-2.448V13.144c0-.96-.128-1.784-.384-2.472s-.584-1.248-.984-1.68a3.93 3.93 0 0 0-1.32-.96c-.48-.208-.928-.312-1.344-.312h-.432c-.64 0-1.192-.112-1.656-.336a3.134 3.134 0 0 1-1.128-.888 3.523 3.523 0 0 1-.624-1.248 5.13 5.13 0 0 1-.192-1.368c0-.448.064-.912.192-1.392.128-.48.336-.912.624-1.296a3.249 3.249 0 0 1 1.128-.936c.464-.24 1.016-.36 1.656-.36h1.104c1.792 0 3.424.28 4.896.84a9.838 9.838 0 0 1 3.768 2.52c1.04 1.12 1.848 2.536 2.424 4.248.576 1.712.864 3.736.864 6.072v21.072c0 2.336-.288 4.36-.864 6.072-.576 1.712-1.384 3.136-2.424 4.272a9.491 9.491 0 0 1-3.768 2.52c-1.472.544-3.104.816-4.896.816h-1.104c-.64 0-1.192-.12-1.656-.36a3.249 3.249 0 0 1-1.128-.936 3.746 3.746 0 0 1-.624-1.296 5.395 5.395 0 0 1-.192-1.392c0-.448.064-.904.192-1.368.128-.464.336-.88.624-1.248a3.134 3.134 0 0 1 1.128-.888c.464-.224 1.016-.336 1.656-.336h.432z"/>
</svg>
