<svg xmlns="http://www.w3.org/2000/svg" xmlns:xlink="http://www.w3.org/1999/xlink" width="30" height="30" viewBox="0 0 30 30">
    <defs>
        <path id="a" d="M0 0h17.72v17.917H0V10z"/>
    </defs>
    <g fill="none" fill-rule="evenodd">
        <path fill="#F9FAFC" fill-rule="nonzero" stroke="#E3E8F0" d="M3 .5A2.5 2.5 0 0 0 .5 3v24A2.5 2.5 0 0 0 3 29.5h24a2.5 2.5 0 0 0 2.5-2.5V3A2.5 2.5 0 0 0 27 .5H3z"/>
        <g transform="translate(6 6)">
            <mask id="b" fill="#fff">
                <use xlink:href="#a"/>
            </mask>
            <path fill="#3A405B" fill-opacity=".7" d="M6.507 15.047l-.994.994a7.852 7.852 0 0 1-4.4-5.872.55.55 0 0 0-.642-.463.554.554 0 0 0-.463.642 8.971 8.971 0 0 0 4.661 6.536 8.854 8.854 0 0 0 4.333 1.031c.134 0 .194-.164.104-.26l-2.6-2.608zM13.05 1.033A8.84 8.84 0 0 0 8.718.002c-.135 0-.194.165-.105.261l2.6 2.6.993-.993a7.847 7.847 0 0 1 4.4 5.87.552.552 0 0 0 .643.465.554.554 0 0 0 .462-.644 8.972 8.972 0 0 0-4.66-6.528zm-2.606 14.254l-7.919-7.92a.744.744 0 0 1 0-1.053l3.698-3.697a.742.742 0 0 1 1.053 0l7.926 7.924a.745.745 0 0 1 0 1.054l-3.698 3.699a.762.762 0 0 1-1.06-.007zM7.538 1.295c-.44-.44-1.15-.44-1.584 0l-4.75 4.75c-.441.44-.441 1.15 0 1.584l8.978 8.979c.44.44 1.15.44 1.584 0l4.75-4.75a1.114 1.114 0 0 0 0-1.585L7.538 1.295z" mask="url(#b)"/>
        </g>
    </g>
</svg>
