<?xml version="1.0" encoding="UTF-8"?>
<svg width="34px" height="34px" viewBox="0 0 34 34" version="1.1" xmlns="http://www.w3.org/2000/svg" xmlns:xlink="http://www.w3.org/1999/xlink">
    <!-- Generator: Sketch 52.5 (67469) - http://www.bohemiancoding.com/sketch -->
    <title>screen_add_btn</title>
    <desc>Created with Sketch.</desc>
    <g id="wizlab-interface-1.1-v" stroke="none" stroke-width="1" fill="none" fill-rule="evenodd">
        <g id="landscape-2" transform="translate(-1201.000000, -944.000000)" fill="#23D8AF">
            <g id="screen_add_btn-copy" transform="translate(1174.000000, 926.000000)">
                <g id="Group-3" transform="translate(35.000000, 25.000000)">
                    <path d="M17.6945385,11.7961538 L11.7968462,11.7961538 L11.7968462,17.6946154 C11.7968462,18.7746154 10.9122308,19.6607692 9.82992308,19.6607692 C8.74992308,19.6607692 7.86530769,18.7746154 7.86530769,17.6946154 L7.86530769,11.7961538 L1.96684615,11.7961538 C0.885307692,11.7961538 -7.69230769e-05,10.9107692 -7.69230769e-05,9.82923077 C-7.69230769e-05,8.74769231 0.885307692,7.86461538 1.96684615,7.86461538 L7.86530769,7.86461538 L7.86530769,1.96692308 C7.86530769,0.883846154 8.74992308,-3.55271368e-15 9.82992308,-3.55271368e-15 C10.9122308,-3.55271368e-15 11.7968462,0.883846154 11.7968462,1.96692308 L11.7968462,7.86461538 L17.6945385,7.86461538 C18.7753077,7.86461538 19.6622308,8.74769231 19.6622308,9.82923077 C19.6622308,10.9107692 18.7753077,11.7961538 17.6945385,11.7961538" id="Fill-1"></path>
                </g>
            </g>
        </g>
    </g>
</svg>