<svg xmlns="http://www.w3.org/2000/svg" width="24" height="24" viewBox="0 0 24 24">
    <g fill="none" fill-rule="evenodd">
        <path d="M0 0h24v24H0z"/>
        <path fill="#FFF" fill-rule="nonzero" d="M20.8 1H3.2C1.99 1 1 1.9 1 3v12c0 1.1.99 2 2.2 2h17.6c1.21 0 2.2-.9 2.2-2V3c0-1.1-.99-2-2.2-2zM12 3.75c1.24 0 2.25 1.01 2.25 2.25S13.24 8.25 12 8.25 9.75 7.24 9.75 6 10.76 3.75 12 3.75zM17 14H7v-1.5c0-1.67 3.33-2.5 5-2.5s5 .83 5 2.5V14zm-4.358 8.64c-.19.19-.51.19-.7 0l-2.79-2.79c-.32-.31-.1-.85.35-.85h5.58a.5.5 0 0 1 .35.85l-2.79 2.79z"/>
    </g>
</svg>
