<svg xmlns="http://www.w3.org/2000/svg" xmlns:xlink="http://www.w3.org/1999/xlink" width="12" height="12" viewBox="0 0 12 12">
    <defs>
        <path id="a" d="M0 0h11.747v11.754H0z"/>
    </defs>
    <g fill="none" fill-rule="evenodd">
        <mask id="b" fill="#fff">
            <use xlink:href="#a"/>
        </mask>
        <path fill="#B8BFD3" d="M4.48 7.58a3.096 3.096 0 0 1-3.102-3.1c0-1.716 1.385-3.102 3.101-3.102A3.097 3.097 0 0 1 7.58 4.48c0 1.716-1.385 3.1-3.1 3.1zm4.134 0h-.545l-.193-.186a4.48 4.48 0 0 0 1.02-3.68C8.57 1.8 6.974.27 5.044.035a4.482 4.482 0 0 0-5.01 5.01C.27 6.974 1.8 8.572 3.715 8.896a4.478 4.478 0 0 0 3.68-1.02l.186.193v.544l2.928 2.928a.727.727 0 0 0 1.027-1.026L8.614 7.58z" mask="url(#b)"/>
    </g>
</svg>
