<?xml version="1.0" encoding="UTF-8"?>
<svg width="24px" height="24px" viewBox="0 0 24 24" version="1.1" xmlns="http://www.w3.org/2000/svg" xmlns:xlink="http://www.w3.org/1999/xlink">
    <!-- Generator: Sketch 52.5 (67469) - http://www.bohemiancoding.com/sketch -->
    <title>sensing_icon</title>
    <desc>Created with Sketch.</desc>
    <g id="wizlab-interface-1.1-v" stroke="none" stroke-width="1" fill="none" fill-rule="evenodd" opacity="0.800000012">
        <g id="landscape-1" transform="translate(-827.000000, -242.000000)" fill="#27C5DA">
            <g id="API" transform="translate(810.000000, 83.000000)">
                <g id="Group-24-Copy-8">
                    <g id="Sensing" transform="translate(17.000000, 159.000000)">
                        <path d="M9.7598914,12.3630721 C9.7598914,13.5124751 10.7682253,14.4535867 11.9997285,14.4535867 C13.2317747,14.4535867 14.2401086,13.5124751 14.2401086,12.3630721 C14.2401086,11.2121488 13.2317747,10.2720507 11.9997285,10.2720507 C10.7682253,10.2720507 9.7598914,11.2121488 9.7598914,12.3630721 Z M17.3878263,16.1361343 C18.2712724,15.0171388 18.7197828,13.6898521 18.7197828,12.3630721 C18.7197828,11.0347718 18.2712724,9.71711407 17.3753376,8.59913218 C17.0397692,8.19217867 17.0842945,7.6053142 17.4774198,7.24042437 C17.9590527,6.79140717 18.7529052,6.83195048 19.1682932,7.33418079 C20.3672169,8.80793025 20.9596199,10.5746052 20.9596199,12.3524295 C20.9596199,14.1191044 20.3672169,15.8847657 19.179696,17.368651 C18.764851,17.8815239 17.9693695,17.9342302 17.4882796,17.485213 C17.0956973,17.1177893 17.050629,16.5441014 17.3878263,16.1361343 Z M7.5200543,12.3630721 C7.5200543,10.0515964 9.52477638,8.18153605 11.9997285,8.18153605 C14.4752236,8.18153605 16.4799457,10.0515964 16.4799457,12.3630721 C16.4799457,14.6725206 14.4752236,16.5441014 11.9997285,16.5441014 C9.52477638,16.5441014 7.5200543,14.6725206 7.5200543,12.3630721 Z M4.83224978,17.3792936 C3.63332606,15.9070645 3.04038009,14.1287334 3.04038009,12.3630721 C3.04038009,10.5958904 3.63332606,8.82820191 4.82030398,7.34482341 C5.23514896,6.84208631 6.03008751,6.79140717 6.51226335,7.24042437 C6.90430272,7.6053142 6.94937095,8.18153605 6.62466245,8.58848956 C5.72764163,9.70647145 5.27967421,11.0347718 5.27967421,12.3630721 C5.27967421,13.6898521 5.72764163,15.007003 6.62466245,16.1254916 C6.96023077,16.5339655 6.91516253,17.1071466 6.52258018,17.4745704 C6.04149032,17.9246012 5.24655177,17.8815239 4.83224978,17.3792936 Z M3.04038009,4 C1.80779095,4 0.8,4.94009809 0.8,6.09102142 L0.8,18.634616 C0.8,19.7840189 1.80779095,20.7251306 3.04038009,20.7251306 L20.9596199,20.7251306 C22.1916661,20.7251306 23.2,19.7840189 23.2,18.634616 L23.2,6.09102142 C23.2,4.94009809 22.1916661,4 20.9596199,4 L3.04038009,4 Z" id="Fill-2"></path>
                    </g>
                </g>
            </g>
        </g>
    </g>
</svg>