<svg xmlns="http://www.w3.org/2000/svg" width="20" height="20" viewBox="0 0 20 20">
    <defs>
        <filter id="a" width="125.3%" height="120.7%" x="-12.6%" y="-10.3%" filterUnits="objectBoundingBox">
            <feOffset dy="2" in="SourceAlpha" result="shadowOffsetOuter1"/>
            <feGaussianBlur in="shadowOffsetOuter1" result="shadowBlurOuter1" stdDeviation="5"/>
            <feColorMatrix in="shadowBlurOuter1" result="shadowMatrixOuter1" values="0 0 0 0 0 0 0 0 0 0 0 0 0 0 0 0 0 0 0.1 0"/>
            <feMerge>
                <feMergeNode in="shadowMatrixOuter1"/>
                <feMergeNode in="SourceGraphic"/>
            </feMerge>
        </filter>
    </defs>
    <g fill="none" fill-rule="evenodd" filter="url(#a)" transform="translate(-15 -150)">
        <path d="M15 150h20v20H15z"/>
        <g fill="#000" fill-rule="nonzero">
            <path d="M25.028 156.692a3.352 3.352 0 0 0-3.348 3.348 3.352 3.352 0 0 0 3.348 3.348 3.352 3.352 0 0 0 3.348-3.348 3.352 3.352 0 0 0-3.348-3.348zm0 5.357a2.011 2.011 0 0 1-2.009-2.009c0-1.107.902-2.009 2.009-2.009a2.01 2.01 0 0 1 2.009 2.01 2.011 2.011 0 0 1-2.009 2.008z"/>
            <path d="M32.488 158.04l-1.903-.307 1.138-1.513a.67.67 0 0 0-.058-.873l-1.903-1.93a.668.668 0 0 0-.877-.066l-1.556 1.093-.301-1.875a.67.67 0 0 0-.66-.563h-2.68a.67.67 0 0 0-.662.575l-.313 1.897-1.548-1.131a.668.668 0 0 0-.868.066l-1.895 1.888a.67.67 0 0 0-.062.877l1.11 1.553-1.876.268a.67.67 0 0 0-.574.663v2.678c0 .333.245.616.574.661l1.904.307-1.138 1.513a.67.67 0 0 0 .061.877l1.895 1.894c.237.238.61.262.877.062l1.552-1.11.268 1.875a.67.67 0 0 0 .662.575h2.679a.669.669 0 0 0 .663-.573l.306-1.903 1.513 1.138c.268.2.641.175.877-.062l1.895-1.894a.67.67 0 0 0 .061-.877l-1.127-1.55 1.949-.227a.669.669 0 0 0 .592-.665v-2.679a.67.67 0 0 0-.575-.662zm-.764 2.744l-1.366.16c-.498.064-.914.398-1.068.828-.194.439-.137.952.152 1.343l.789 1.048-1.073 1.072-1.053-.792c-.387-.286-.9-.343-1.297-.165-.471.171-.804.587-.87 1.077l-.184 1.3h-1.517l-.186-1.292c-.065-.497-.398-.913-.827-1.067a1.345 1.345 0 0 0-1.344.151l-1.048.789-1.073-1.073.792-1.052c.286-.387.343-.9.165-1.297a1.332 1.332 0 0 0-1.077-.87l-1.3-.185v-1.517l1.292-.185c.498-.065.914-.399 1.068-.828.194-.44.138-.951-.151-1.344l-.788-1.047 1.076-1.073 1.083.792c.387.286.899.341 1.296.165.473-.172.805-.589.869-1.077l.185-1.3h1.528l.207 1.29c.065.499.397.915.828 1.07.439.193.952.138 1.342-.15l1.045-.782 1.088 1.102-.794 1.056c-.286.386-.343.899-.165 1.297.171.472.589.805 1.077.869l1.3.185v1.502z"/>
        </g>
    </g>
</svg>
