<svg xmlns="http://www.w3.org/2000/svg" width="24" height="24" viewBox="0 0 24 24">
    <path fill="#4A4A4A" fill-rule="nonzero" d="M16.426 13.957c-.818 0-1.539.387-2.01.978l-4.37-2.216c.058-.211.099-.43.099-.66 0-.25-.049-.486-.117-.715l4.35-2.206a2.563 2.563 0 0 0 2.048 1.022A2.561 2.561 0 0 0 19 7.61c0-1.409-1.151-2.55-2.574-2.55-1.42 0-2.572 1.141-2.572 2.55 0 .23.042.45.1.662l-4.37 2.215a2.569 2.569 0 0 0-2.012-.98A2.561 2.561 0 0 0 5 12.06a2.56 2.56 0 0 0 2.572 2.551 2.57 2.57 0 0 0 2.05-1.024l4.349 2.205a2.5 2.5 0 0 0-.118.718 2.562 2.562 0 0 0 2.572 2.55 2.561 2.561 0 0 0 2.574-2.55 2.56 2.56 0 0 0-2.573-2.552z"/>
</svg>
