<svg xmlns="http://www.w3.org/2000/svg" width="24" height="24" viewBox="0 0 24 24">
    <path fill="#D3E157" fill-rule="nonzero" d="M17.511.8H6.251A2.253 2.253 0 0 0 4 3.04v17.92c0 1.232 1.013 2.229 2.252 2.229l11.26.011a2.253 2.253 0 0 0 2.251-2.24V3.04A2.253 2.253 0 0 0 17.511.8zm-5.63 2.24a2.253 2.253 0 0 1 2.252 2.24 2.253 2.253 0 0 1-4.503 0 2.245 2.245 0 0 1 2.251-2.24zm0 17.92c-3.107 0-5.63-2.509-5.63-5.6 0-3.091 2.523-5.6 5.63-5.6 3.108 0 5.63 2.509 5.63 5.6 0 3.091-2.522 5.6-5.63 5.6zm0-8.96a3.364 3.364 0 0 0-3.377 3.36c0 1.86 1.508 3.36 3.377 3.36 1.87 0 3.378-1.5 3.378-3.36 0-1.86-1.508-3.36-3.378-3.36z"/>
</svg>
