<?xml version="1.0" encoding="UTF-8"?>
<svg width="36px" height="36px" viewBox="0 0 36 36" version="1.1" xmlns="http://www.w3.org/2000/svg" xmlns:xlink="http://www.w3.org/1999/xlink">
    <!-- Generator: Sketch 52.5 (67469) - http://www.bohemiancoding.com/sketch -->
    <title>sound_play_btn</title>
    <desc>Created with Sketch.</desc>
    <g id="wizlab-interface-1.1-v" stroke="none" stroke-width="1" fill="none" fill-rule="evenodd">
        <g id="guide-2" transform="translate(-578.000000, -739.000000)" fill-rule="nonzero">
            <g id="Group-5-Copy-3" transform="translate(578.000000, 739.000000)">
                <g id="sound_pause_btn" transform="translate(0.550725, 0.500000)">
                    <rect id="Rectangle-3-Copy-22" fill="#8A5CFF" transform="translate(17.449275, 17.500000) rotate(-360.000000) translate(-17.449275, -17.500000) " x="3.44927536" y="3.5" width="28" height="28" rx="14"></rect>
                    <path d="M17.5,35 C7.83501688,35 0,27.1649831 0,17.5 C0,7.83501688 7.83501688,0 17.5,0 C27.1649831,0 35,7.83501688 35,17.5 C35,27.1649831 27.1649831,35 17.5,35 Z M12,11.2149179 L12,23.7847409 C12,24.74316 13.1732407,25.3263056 14.0766769,24.803866 L25.0500886,18.5186479 C25.8860737,18.0464901 25.8860737,16.9537819 25.0500886,16.468747 L14.0766769,10.196406 C13.1732407,9.67335321 12,10.257112 12,11.2149179 Z" id="Combined-Shape" fill="#F4F4F4"></path>
                </g>
            </g>
        </g>
    </g>
</svg>