<svg xmlns="http://www.w3.org/2000/svg" width="24" height="24" viewBox="0 0 24 24">
    <g fill="#FFF" fill-rule="nonzero">
        <path d="M21.17 7.323c-.637-1.045-1.53-2.038-2.135-2.56-1.318-1.137-2.417-1.11-2.955-.991-.226.05-.434.13-.617.24C14.524 3.332 13.382 3 12 3c-1.382 0-2.524.333-3.463 1.012a2.065 2.065 0 0 0-.617-.24c-.538-.118-1.637-.146-2.955.992-.604.521-1.498 1.514-2.135 2.559-.862 1.413-1.054 2.557-.57 3.399.59 1.028 1.485 1.29 2.207 1.356a8.678 8.678 0 0 0-.287 2.286c0 1.188.277 2.21.824 3.036.481.728 1.173 1.31 2.058 1.732 1.634.778 3.6.868 4.938.868 1.337 0 3.304-.09 4.938-.868.885-.422 1.577-1.004 2.058-1.732.547-.827.824-1.848.824-3.036 0-.895-.11-1.614-.287-2.286.723-.065 1.617-.328 2.207-1.356.484-.842.292-1.986-.57-3.4zm-16.323 3.58c-.64-.017-1.16-.137-1.519-.763-.244-.425-.042-1.23.555-2.208.566-.929 1.378-1.83 1.893-2.275.851-.735 1.49-.776 1.79-.736-.894 1.06-1.441 2.44-1.899 3.78-.19.556-.372 1.03-.55 1.488-.094.245-.185.481-.27.714zm6.354 3.91c-.316-.308-.482-.631-.482-.792 0-.143.025-.153.119-.192.267-.11.79-.122 1.162-.122.371 0 .895.013 1.162.122.094.039.119.049.119.192 0 .16-.166.484-.482.793-.312.303-.644.467-.799.467-.155 0-.487-.164-.799-.467zm5.2 3.247c-.94.447-2.184.69-3.789.738v-2.443c.48-.181.872-.522 1.052-.697.253-.247.841-.9.841-1.637 0-.603-.308-1.062-.868-1.291-.373-.153-.848-.216-1.637-.216-.79 0-1.264.063-1.637.216-.56.23-.868.688-.868 1.291 0 .738.588 1.39.841 1.637.18.175.571.516 1.052.697v2.443c-1.605-.048-2.849-.29-3.788-.738-1.478-.704-2.196-1.913-2.196-3.696 0-1.525.36-2.46.86-3.755.172-.447.367-.954.564-1.53C7.911 5.908 9.055 4.192 12 4.192s4.09 1.717 5.171 4.885c.197.577.393 1.084.565 1.53.5 1.295.86 2.23.86 3.756 0 1.783-.718 2.992-2.196 3.696zm4.271-7.92c-.36.626-.88.746-1.519.763a52.42 52.42 0 0 0-.27-.714c-.178-.458-.36-.932-.55-1.488-.458-1.34-1.005-2.72-1.899-3.78.3-.04.939.001 1.79.736.515.445 1.327 1.346 1.893 2.275.597.978.799 1.783.555 2.208z"/>
        <path d="M10 9a1 1 0 1 0 0 2 1 1 0 0 0 0-2zM14 9a1 1 0 1 0 0 2 1 1 0 0 0 0-2z"/>
    </g>
</svg>
