<?xml version="1.0" encoding="UTF-8"?>
<svg width="35px" height="35px" viewBox="0 0 35 35" version="1.1" xmlns="http://www.w3.org/2000/svg" xmlns:xlink="http://www.w3.org/1999/xlink">
    <!-- Generator: Sketch 53.2 (72643) - https://sketchapp.com -->
    <title>spritebox_bgm</title>
    <desc>Created with Sketch.</desc>
    <g id="lab-1.4-ver." stroke="none" stroke-width="1" fill="none" fill-rule="evenodd">
        <g id="Rectangle-state-2.0ver." transform="translate(-1423.000000, -480.000000)" fill="#FFFFFF" fill-rule="nonzero">
            <g id="Group-4" transform="translate(1406.000000, 463.000000)">
                <g id="sound-waves" transform="translate(17.000000, 17.000000)">
                    <path d="M16.4368359,14.0363281 C15.8857031,14.0363281 15.439043,14.4829883 15.439043,15.0341211 L15.439043,20.8877539 C15.439043,21.4388867 15.8857031,21.8855469 16.4368359,21.8855469 C16.9879688,21.8855469 17.4346289,21.4388867 17.4346289,20.8877539 L17.4346289,15.0341211 C17.4345703,14.4829883 16.9879102,14.0363281 16.4368359,14.0363281 Z" id="Path"></path>
                    <path d="M13.3436719,10.9432227 C12.7925391,10.9432227 12.3458789,11.3898828 12.3458789,11.9410156 L12.3458789,23.9812695 C12.3458789,24.5324023 12.7925391,24.9790625 13.3436719,24.9790625 C13.8948047,24.9790625 14.3414648,24.5324023 14.3414648,23.9809766 L14.3414648,11.940957 C14.3414648,11.3898828 13.8948047,10.9432227 13.3436719,10.9432227 Z" id="Path"></path>
                    <path d="M10.2172852,8.04962891 C9.66615234,8.04962891 9.21949219,8.49628906 9.21949219,9.04742187 L9.21949219,26.8744531 C9.21949219,27.4255859 9.66615234,27.8722461 10.2172852,27.8722461 C10.768418,27.8722461 11.2150781,27.4255859 11.2150781,26.8744531 L11.2150781,9.04742187 C11.2150781,8.49628906 10.768418,8.04962891 10.2172852,8.04962891 Z" id="Path"></path>
                    <path d="M7.12417969,10.9432227 C6.57304687,10.9432227 6.12638672,11.3898828 6.12638672,11.9410156 L6.12638672,23.9812695 C6.12638672,24.5324023 6.57304687,24.9790625 7.12417969,24.9790625 C7.6753125,24.9790625 8.12197266,24.5324023 8.12197266,23.9809766 L8.12197266,11.940957 C8.12197266,11.3898828 7.67525391,10.9432227 7.12417969,10.9432227 Z" id="Path"></path>
                    <path d="M3.99779297,13.8367578 C3.44666016,13.8367578 3,14.283418 3,14.8345508 L3,21.0873242 C3,21.638457 3.44666016,22.0851172 3.99779297,22.0851172 C4.54892578,22.0851172 4.99558594,21.63875 4.99558594,21.0873242 L4.99558594,14.8345508 C4.99558594,14.283418 4.54886719,13.8367578 3.99779297,13.8367578 Z" id="Path"></path>
                    <path d="M25.7827148,8.04962891 C25.231582,8.04962891 24.7849219,8.49628906 24.7849219,9.04742187 L24.7849219,26.8744531 C24.7849219,27.4255859 25.231582,27.8722461 25.7827148,27.8722461 C26.3338477,27.8722461 26.7805078,27.4255859 26.7805078,26.8744531 L26.7805078,9.04742187 C26.7805078,8.49628906 26.3337891,8.04962891 25.7827148,8.04962891 Z" id="Path"></path>
                    <path d="M22.6563281,10.9432227 C22.1051953,10.9432227 21.6585352,11.3898828 21.6585352,11.9410156 L21.6585352,23.9812695 C21.6585352,24.5324023 22.1051953,24.9790625 22.6563281,24.9790625 C23.2074609,24.9790625 23.6541211,24.5324023 23.6541211,23.9809766 L23.6541211,11.940957 C23.6541211,11.3898828 23.2074023,10.9432227 22.6563281,10.9432227 Z" id="Path"></path>
                    <path d="M19.5632227,12.5063867 C19.0120898,12.5063867 18.5654297,12.9530469 18.5654297,13.5041797 L18.5654297,22.4176953 C18.5654297,22.9688281 19.0120898,23.4154883 19.5632227,23.4154883 C20.1143555,23.4154883 20.5610156,22.9691211 20.5610156,22.4176953 L20.5610156,13.5041797 C20.560957,12.9530469 20.1142969,12.5063867 19.5632227,12.5063867 Z" id="Path"></path>
                    <path d="M28.8758203,10.9432227 C28.3246875,10.9432227 27.8780273,11.3898828 27.8780273,11.9410156 L27.8780273,23.9812695 C27.8780273,24.5324023 28.3246875,24.9790625 28.8758203,24.9790625 C29.4269531,24.9790625 29.8736133,24.5324023 29.8736133,23.9809766 L29.8736133,11.940957 C29.8736133,11.3898828 29.4269531,10.9432227 28.8758203,10.9432227 Z" id="Path"></path>
                    <path d="M32.002207,13.8367578 C31.4510742,13.8367578 31.0044141,14.283418 31.0044141,14.8345508 L31.0044141,21.0873242 C31.0044141,21.638457 31.4510742,22.0851172 32.002207,22.0851172 C32.5533398,22.0851172 33,21.63875 33,21.0873242 L33,14.8345508 C33,14.283418 32.5533398,13.8367578 32.002207,13.8367578 Z" id="Path"></path>
                </g>
            </g>
        </g>
    </g>
</svg>