<svg xmlns="http://www.w3.org/2000/svg" width="24" height="24" viewBox="0 0 24 24">
    <path fill="#4A4A4A" fill-rule="nonzero" d="M14.025 5.225a1.444 1.444 0 0 0-1.023-.425H7.84c-.792 0-1.44.648-1.44 1.44v11.52c0 .792.64 1.44 1.433 1.44h8.647c.792 0 1.44-.648 1.44-1.44V9.718c0-.382-.151-.75-.425-1.016l-3.47-3.477zm.295 9.655h-1.44v1.44c0 .396-.324.72-.72.72a.722.722 0 0 1-.72-.72v-1.44H10a.722.722 0 0 1-.72-.72c0-.396.324-.72.72-.72h1.44V12c0-.396.324-.72.72-.72.396 0 .72.324.72.72v1.44h1.44c.396 0 .72.324.72.72 0 .396-.324.72-.72.72zm-1.44-5.76V5.88l3.96 3.96H13.6a.722.722 0 0 1-.72-.72z"/>
</svg>
