<svg xmlns="http://www.w3.org/2000/svg" width="76" height="76" viewBox="0 0 76 76">
    <g fill="none" fill-rule="evenodd">
        <circle cx="38.5" cy="39.5" r="27.5" fill="#4BE1AB"/>
        <path fill="#3A405B" fill-rule="nonzero" d="M38 0C17.024 0 0 17.024 0 38s17.024 38 38 38 38-17.024 38-38S58.976 0 38 0zm15.96 42.56h-11.4v11.4c0 2.09-1.71 3.8-3.8 3.8s-3.8-1.71-3.8-3.8v-11.4h-11.4c-2.09 0-3.8-1.71-3.8-3.8s1.71-3.8 3.8-3.8h11.4v-11.4c0-2.09 1.71-3.8 3.8-3.8s3.8 1.71 3.8 3.8v11.4h11.4c2.09 0 3.8 1.71 3.8 3.8s-1.71 3.8-3.8 3.8z"/>
    </g>
</svg>
