<svg xmlns="http://www.w3.org/2000/svg" width="30" height="30" viewBox="0 0 30 30">
    <path fill="#8592A6" fill-rule="nonzero" d="M17.531 6.531A1.806 1.806 0 0 0 16.253 6H9.8C8.81 6 8 6.81 8 7.8v14.4c0 .99.801 1.8 1.791 1.8H20.6c.99 0 1.8-.81 1.8-1.8V12.147a1.77 1.77 0 0 0-.531-1.269l-4.338-4.347zM17.9 18.6h-1.8v1.8c0 .495-.405.9-.9.9a.903.903 0 0 1-.9-.9v-1.8h-1.8a.903.903 0 0 1-.9-.9c0-.495.405-.9.9-.9h1.8V15c0-.495.405-.9.9-.9s.9.405.9.9v1.8h1.8c.495 0 .9.405.9.9s-.405.9-.9.9zm-1.8-7.2V7.35l4.95 4.95H17a.903.903 0 0 1-.9-.9z"/>
</svg>
