<svg xmlns="http://www.w3.org/2000/svg" width="101" height="19" viewBox="0 0 101 19">
    <path fill="#00DCAC" fill-rule="nonzero" d="M15.74 18.28l.08-.04-2.22-6.74 5.64-4.1v-.1h-7L10.04.58h-.08L7.76 7.3h-7v.1l5.64 4.1-2.22 6.74.08.04L10 14.1l5.74 4.18zm20.208 0l.08-.04-2.22-6.74 5.64-4.1v-.1h-7l-2.2-6.72h-.08l-2.2 6.72h-7v.1l5.64 4.1-2.22 6.74.08.04 5.74-4.18 5.74 4.18zm20.209 0l.08-.04-2.22-6.74 5.64-4.1v-.1h-7l-2.2-6.72h-.08l-2.2 6.72h-7v.1l5.64 4.1-2.22 6.74.08.04 5.74-4.18 5.74 4.18zm20.208 0l.08-.04-2.22-6.74 5.64-4.1v-.1h-7l-2.2-6.72h-.08l-2.2 6.72h-7v.1l5.64 4.1-2.22 6.74.08.04 5.74-4.18 5.74 4.18zm20.208 0l.08-.04-2.22-6.74 5.64-4.1v-.1h-7l-2.2-6.72h-.08l-2.2 6.72h-7v.1l5.64 4.1-2.22 6.74.08.04 5.74-4.18 5.74 4.18z"/>
</svg>
