<svg xmlns="http://www.w3.org/2000/svg" width="24" height="23" viewBox="0 0 24 23">
    <path fill="#000" fill-rule="evenodd" d="M13.162.754l2.645 5.36c.197.398.578.675 1.018.739l5.915.86c1.11.16 1.552 1.524.75 2.306l-4.28 4.172c-.32.31-.464.758-.39 1.197l1.01 5.89c.19 1.105-.969 1.947-1.961 1.426l-5.29-2.781a1.353 1.353 0 0 0-1.259 0l-5.29 2.78c-.992.522-2.151-.32-1.962-1.425l1.01-5.89a1.352 1.352 0 0 0-.388-1.197L.41 10.019c-.803-.782-.36-2.145.75-2.307l5.914-.859c.44-.064.82-.34 1.018-.74l2.645-5.36c.496-1.004 1.93-1.004 2.425 0" opacity=".199"/>
</svg>
