<svg xmlns="http://www.w3.org/2000/svg" width="529" height="50" viewBox="0 0 529 50">
    <path fill="#FFF" fill-rule="nonzero" d="M33.712 47.648V36.224h-6.864c-.448 3.52-1.832 6.152-4.152 7.896-2.32 1.744-5.224 2.616-8.712 2.616-1.92 0-3.688-.264-5.304-.792s-3.008-1.328-4.176-2.4c-1.168-1.072-2.08-2.416-2.736-4.032-.656-1.616-.984-3.496-.984-5.64V16.208c0-2.144.328-4.024.984-5.64.656-1.616 1.568-2.96 2.736-4.032 1.168-1.072 2.56-1.872 4.176-2.4 1.616-.528 3.384-.792 5.304-.792 3.264 0 6.024.768 8.28 2.304 2.256 1.536 3.72 3.824 4.392 6.864h7.056V7.328c0-1.568.464-2.752 1.392-3.552.928-.8 2.032-1.2 3.312-1.2 1.248 0 2.352.408 3.312 1.224.96.816 1.44 1.992 1.44 3.528v40.32h-9.456zm-23.664-13.44c0 1.664.376 2.864 1.128 3.6.752.736 1.688 1.104 2.808 1.104 1.12 0 2.056-.368 2.808-1.104.752-.736 1.128-1.936 1.128-3.6V15.872c0-1.632-.376-2.824-1.128-3.576-.752-.752-1.688-1.128-2.808-1.128-1.12 0-2.056.376-2.808 1.128-.752.752-1.128 1.944-1.128 3.576v18.336zm16.992-5.952h6.672V20.48H27.04v7.776zm28.464-6.288c-2.048 0-3.592-.584-4.632-1.752-1.04-1.168-1.56-2.584-1.56-4.248v-.288c0-1.728.512-3.088 1.536-4.08s2.576-1.488 4.656-1.488h24.624v-.816c0-.288-.064-.488-.192-.6-.128-.112-.368-.168-.72-.168H52.24c-.896 0-1.56-.288-1.992-.864-.432-.576-.648-1.184-.648-1.824 0-.64.2-1.256.6-1.848.4-.592 1.08-.888 2.04-.888h32.4c2.048 0 3.456.376 4.224 1.128.768.752 1.152 1.864 1.152 3.336v7.392h-29.52c-.608 0-.912.256-.912.768 0 .544.304.816.912.816H88.48c.928 0 1.592.296 1.992.888.4.592.6 1.224.6 1.896 0 .576-.192 1.16-.576 1.752-.384.592-1.056.888-2.016.888H55.504zm.24 25.68c-1.344 0-2.424-.096-3.24-.288-.816-.192-1.44-.536-1.872-1.032-.432-.496-.72-1.168-.864-2.016-.144-.848-.216-1.928-.216-3.24v-2.256c0-1.312.072-2.392.216-3.24.144-.848.432-1.52.864-2.016s1.056-.84 1.872-1.032c.816-.192 1.896-.288 3.24-.288h28.512c1.344 0 2.424.096 3.24.288.816.192 1.44.536 1.872 1.032.432.496.72 1.168.864 2.016.144.848.216 1.928.216 3.24v8.832H55.744zm3.552-7.2c0 .384.064.648.192.792.128.144.368.216.72.216h20.496v-2.112c0-.352-.072-.592-.216-.72-.144-.128-.408-.192-.792-.192H60.208c-.352 0-.592.064-.72.192s-.192.368-.192.72v1.104zm29.712-16.704c1.28 0 2.176.344 2.688 1.032.512.688.768 1.448.768 2.28 0 .864-.264 1.632-.792 2.304-.528.672-1.416 1.008-2.664 1.008H50.992c-1.248 0-2.136-.336-2.664-1.008a3.627 3.627 0 0 1-.792-2.304c0-.832.256-1.592.768-2.28.512-.688 1.408-1.032 2.688-1.032h38.016zm19.296 24.048c-1.664 0-3.112-.232-4.344-.696-1.232-.464-2.256-1.096-3.072-1.896a7.54 7.54 0 0 1-1.824-2.856c-.4-1.104-.6-2.312-.6-3.624 0-1.28.2-2.48.6-3.6a7.723 7.723 0 0 1 1.824-2.904c.816-.816 1.84-1.464 3.072-1.944s2.68-.72 4.344-.72H128.8c1.632 0 3.064.232 4.296.696 1.232.464 2.256 1.104 3.072 1.92a7.981 7.981 0 0 1 1.848 2.904c.416 1.12.624 2.336.624 3.648 0 1.312-.208 2.528-.624 3.648a7.756 7.756 0 0 1-1.848 2.88c-.816.8-1.84 1.424-3.072 1.872-1.232.448-2.664.672-4.296.672h-20.496zm-4.752-20.88c-1.312 0-2.4-.12-3.264-.36-.864-.24-1.544-.632-2.04-1.176-.496-.544-.84-1.256-1.032-2.136-.192-.88-.288-1.944-.288-3.192V8.144c0-1.6.448-2.76 1.344-3.48.896-.72 2-1.08 3.312-1.08 1.344 0 2.408.36 3.192 1.08.784.72 1.176 1.88 1.176 3.48v.24h8.688v-.24c0-1.632.408-2.8 1.224-3.504.816-.704 1.896-1.056 3.24-1.056 1.344 0 2.44.36 3.288 1.08.848.72 1.272 1.88 1.272 3.48v18.768h-20.112zm24.816-19.584c0-1.568.472-2.752 1.416-3.552.944-.8 2.056-1.2 3.336-1.2 1.248 0 2.352.408 3.312 1.224.96.816 1.44 1.992 1.44 3.528v3.744h1.488c.736 0 1.344.128 1.824.384s.864.576 1.152.96c.288.384.496.824.624 1.32.128.496.192.984.192 1.464s-.064.968-.192 1.464a3.979 3.979 0 0 1-.624 1.344c-.288.4-.68.72-1.176.96-.496.24-1.096.36-1.8.36h-1.488v8.784h-9.504V7.328zm-2.112 33.792c1.056 0 1.76-.264 2.112-.792.352-.528.528-1.064.528-1.608s-.176-1.064-.528-1.56c-.352-.496-1.056-.744-2.112-.744h-15.408c-1.056 0-1.76.248-2.112.744-.352.496-.528 1.016-.528 1.56s.176 1.08.528 1.608c.352.528 1.056.792 2.112.792h15.408zM114.64 19.904v-4.992h-8.688v3.792c0 .544.08.88.24 1.008.16.128.512.192 1.056.192h7.392zm43.536 9.408c-1.696 0-3.312-.2-4.848-.6-1.536-.4-2.88-1.008-4.032-1.824a9.097 9.097 0 0 1-2.76-3.12c-.688-1.264-1.032-2.76-1.032-4.488v-2.784c0-1.088.304-2.144.912-3.168-1.184 0-2.072-.344-2.664-1.032-.592-.688-.888-1.464-.888-2.328 0-.864.296-1.672.888-2.424.592-.752 1.48-1.128 2.664-1.128h6.96c.032-1.376.48-2.44 1.344-3.192.864-.752 2.016-1.128 3.456-1.128s2.592.384 3.456 1.152c.864.768 1.328 1.824 1.392 3.168h6.912c1.216 0 2.104.376 2.664 1.128.56.752.84 1.56.84 2.424 0 .864-.272 1.64-.816 2.328-.544.688-1.424 1.032-2.64 1.032h-.048c.608 1.024.912 2.08.912 3.168v2.784c0 1.728-.344 3.224-1.032 4.488a9.097 9.097 0 0 1-2.76 3.12c-1.152.816-2.496 1.424-4.032 1.824-1.536.4-3.152.6-4.848.6zm-7.584 9.456c-1.344 0-2.376-.352-3.096-1.056-.72-.704-1.08-1.616-1.08-2.736s.36-2.032 1.08-2.736c.72-.704 1.752-1.056 3.096-1.056h28.704c1.504 0 2.72.112 3.648.336.928.224 1.648.624 2.16 1.2.512.576.856 1.336 1.032 2.28.176.944.264 2.136.264 3.576v9.072h-9.6V39.92c0-.768-.384-1.152-1.152-1.152h-25.056zm25.776-31.44c0-1.568.472-2.752 1.416-3.552.944-.8 2.056-1.2 3.336-1.2 1.248 0 2.352.408 3.312 1.224.96.816 1.44 1.992 1.44 3.528v4.32h1.488c.736 0 1.344.128 1.824.384s.864.576 1.152.96c.288.384.496.824.624 1.32.128.496.192.984.192 1.464s-.064.968-.192 1.464a3.979 3.979 0 0 1-.624 1.344c-.288.4-.68.72-1.176.96-.496.24-1.096.36-1.8.36h-1.488v9.6h-9.504V7.328zm-18.192 15.168c.992 0 1.896-.296 2.712-.888.816-.592 1.224-1.464 1.224-2.616v-2.496c0-1.152-.408-2.024-1.224-2.616a4.512 4.512 0 0 0-2.712-.888c-.992 0-1.896.296-2.712.888-.816.592-1.224 1.464-1.224 2.616v2.496c0 1.152.408 2.024 1.224 2.616.816.592 1.72.888 2.712.888zm78.144 8.208c.544-1.344.96-3.04 1.248-5.088H210.64c-.736 0-1.36-.12-1.872-.36a4.086 4.086 0 0 1-1.296-.936 3.54 3.54 0 0 1-.768-1.32 4.75 4.75 0 0 1-.24-1.464c0-.48.08-.96.24-1.44.16-.48.408-.92.744-1.32s.768-.72 1.296-.96 1.16-.36 1.896-.36h27.504v-4.08c0-.352-.104-.64-.312-.864-.208-.224-.504-.336-.888-.336H211.12c-.736 0-1.368-.12-1.896-.36a3.757 3.757 0 0 1-1.296-.936 4.03 4.03 0 0 1-.768-1.32 4.36 4.36 0 0 1-.264-1.464c0-.48.08-.96.24-1.44.16-.48.416-.92.768-1.32.352-.4.792-.72 1.32-.96s1.16-.36 1.896-.36h29.232c2.72 0 4.656.608 5.808 1.824 1.152 1.216 1.728 2.944 1.728 5.184v5.28c0 3.968-.208 7.344-.624 10.128-.416 2.784-1.072 5.136-1.968 7.056-.608 1.312-1.552 2.232-2.832 2.76-1.28.528-2.688.504-4.224-.072-.576-.224-1.048-.536-1.416-.936a3.326 3.326 0 0 1-.768-1.368 4.38 4.38 0 0 1-.144-1.584 5.032 5.032 0 0 1 .408-1.584zm-17.52 8.208v-6.96c0-.768.136-1.416.408-1.944.272-.528.64-.952 1.104-1.272.464-.32.992-.544 1.584-.672a8.722 8.722 0 0 1 1.848-.192 7.89 7.89 0 0 1 1.824.216 4.737 4.737 0 0 1 1.584.672c.448.304.816.72 1.104 1.248.288.528.432 1.176.432 1.944v6.96h17.184c.736 0 1.36.112 1.872.336.512.224.928.52 1.248.888.32.368.552.784.696 1.248.144.464.216.936.216 1.416 0 .992-.312 1.888-.936 2.688-.624.8-1.656 1.2-3.096 1.2h-36.864c-1.44 0-2.472-.4-3.096-1.2a4.261 4.261 0 0 1-.936-2.688c0-.48.072-.952.216-1.416.144-.464.376-.88.696-1.248.32-.368.736-.664 1.248-.888.512-.224 1.136-.336 1.872-.336h9.792zm37.104-.528c0-1.28.208-2.496.624-3.648a8.37 8.37 0 0 1 1.848-3c.816-.848 1.848-1.52 3.096-2.016s2.704-.744 4.368-.744h21.312c1.632 0 3.072.24 4.32.72 1.248.48 2.288 1.144 3.12 1.992a8.207 8.207 0 0 1 1.872 3 10.8 10.8 0 0 1 .624 3.696 10.8 10.8 0 0 1-.624 3.696 8.207 8.207 0 0 1-1.872 3c-.832.848-1.872 1.512-3.12 1.992s-2.688.72-4.32.72H265.84c-1.664 0-3.12-.248-4.368-.744-1.248-.496-2.28-1.168-3.096-2.016a8.41 8.41 0 0 1-1.848-2.976c-.416-1.136-.624-2.36-.624-3.672zm9.744 0c0 .608.192 1.208.576 1.8.384.592 1.104.888 2.16.888h16.224c1.056 0 1.776-.296 2.16-.888.384-.592.576-1.192.576-1.8 0-.608-.192-1.208-.576-1.8-.384-.592-1.104-.888-2.16-.888h-16.224c-1.056 0-1.776.296-2.16.888-.384.592-.576 1.192-.576 1.8zm21.264-31.056c0-1.568.488-2.752 1.464-3.552.976-.8 2.104-1.2 3.384-1.2.608 0 1.208.104 1.8.312a4.61 4.61 0 0 1 1.56.912c.448.4.808.896 1.08 1.488s.408 1.272.408 2.04v20.064h-9.696V7.328zm-8.592-3.36c.608 0 1.128.112 1.56.336.432.224.784.52 1.056.888s.464.776.576 1.224c.112.448.168.88.168 1.296 0 .416-.064.84-.192 1.272-.128.432-.32.824-.576 1.176-.256.352-.6.64-1.032.864-.432.224-.952.336-1.56.336h-13.104c-.896 0-1.344.384-1.344 1.152v5.328c0 .448.112.76.336.936.224.176.56.264 1.008.264h15.408c.608 0 1.136.112 1.584.336.448.224.8.512 1.056.864s.448.736.576 1.152c.128.416.192.832.192 1.248 0 .448-.064.888-.192 1.32-.128.432-.32.824-.576 1.176-.256.352-.608.64-1.056.864-.448.224-.976.336-1.584.336h-19.44c-1.344 0-2.448-.112-3.312-.336-.864-.224-1.56-.6-2.088-1.128-.528-.528-.896-1.216-1.104-2.064-.208-.848-.312-1.896-.312-3.144V10.64c0-1.248.104-2.296.312-3.144.208-.848.576-1.536 1.104-2.064.528-.528 1.224-.904 2.088-1.128.864-.224 1.968-.336 3.312-.336h17.136zm32.496 43.68c-1.44 0-2.608-.12-3.504-.36-.896-.24-1.592-.64-2.088-1.2-.496-.56-.832-1.304-1.008-2.232-.176-.928-.264-2.096-.264-3.504v-3.264c0-1.376.088-2.536.264-3.48.176-.944.512-1.696 1.008-2.256.496-.56 1.192-.96 2.088-1.2.896-.24 2.064-.36 3.504-.36h27.696c1.44 0 2.608.12 3.504.36.896.24 1.592.64 2.088 1.2.496.56.832 1.312 1.008 2.256.176.944.264 2.104.264 3.48v10.56h-34.56zm26.16-28.32h-2.256v8.736h-8.352V6.656c0-1.344.416-2.36 1.248-3.048.832-.688 1.808-1.032 2.928-1.032 1.088 0 2.056.344 2.904 1.032.848.688 1.272 1.704 1.272 3.048v5.28h2.256v-5.28c0-1.344.416-2.36 1.248-3.048.832-.688 1.808-1.032 2.928-1.032 1.088 0 2.064.344 2.928 1.032.864.688 1.296 1.704 1.296 3.048v21.408h-8.4v-8.736zm-31.968 2.448c4.544.288 7.728-.688 9.552-2.928-.96.352-1.904.528-2.832.528l-6.72.048c-1.216 0-2.088-.32-2.616-.96a3.37 3.37 0 0 1-.792-2.208c0-.832.264-1.576.792-2.232.528-.656 1.4-.984 2.616-.984h11.232v-1.2c0-.608-.32-.912-.96-.912h-9.84c-1.216 0-2.088-.368-2.616-1.104-.528-.736-.792-1.52-.792-2.352 0-.832.264-1.608.792-2.328.528-.72 1.4-1.08 2.616-1.08h12.384c2.368 0 4.008.488 4.92 1.464.912.976 1.368 2.44 1.368 4.392v3.456c0 2.72-.464 5.04-1.392 6.96-.928 1.92-2.192 3.488-3.792 4.704-1.6 1.216-3.48 2.112-5.64 2.688-2.16.576-4.456.88-6.888.912h-.816c-.288 0-.56-.032-.816-.096-1.056-.16-1.912-.536-2.568-1.128-.656-.592-.936-1.448-.84-2.568.064-.928.416-1.688 1.056-2.28.64-.592 1.504-.856 2.592-.792zm8.4 18c0 .512.064.824.192.936.128.112.4.168.816.168h21.504v-3.264c0-.448-.072-.744-.216-.888-.144-.144-.424-.216-.84-.216h-20.448c-.416 0-.688.072-.816.216-.128.144-.192.44-.192.888v2.16zm43.968-16.608v-4.272c0-1.728.456-2.976 1.368-3.744.912-.768 2.104-1.152 3.576-1.152 1.44 0 2.608.392 3.504 1.176.896.784 1.344 2.024 1.344 3.72v4.272h8.544v-4.272c0-1.728.456-2.976 1.368-3.744.912-.768 2.104-1.152 3.576-1.152 1.44 0 2.608.392 3.504 1.176.896.784 1.344 2.024 1.344 3.72v4.272h3.264c1.472 0 2.512.4 3.12 1.2.608.8.912 1.68.912 2.64 0 .992-.312 1.88-.936 2.664-.624.784-1.656 1.176-3.096 1.176h-34.656c-1.44 0-2.472-.392-3.096-1.176a4.164 4.164 0 0 1-.936-2.664c0-.96.304-1.84.912-2.64.608-.8 1.648-1.2 3.12-1.2h3.264zm32.4 15.408c.736 0 1.368.12 1.896.36.528.24.96.552 1.296.936.336.384.576.824.72 1.32.144.496.216.984.216 1.464 0 .512-.08 1.008-.24 1.488-.16.48-.408.912-.744 1.296s-.76.688-1.272.912c-.512.224-1.136.336-1.872.336h-36.672c-.736 0-1.36-.112-1.872-.336a3.553 3.553 0 0 1-1.272-.912 3.751 3.751 0 0 1-.744-1.296c-.16-.48-.24-.976-.24-1.488 0-.48.072-.968.216-1.464.144-.496.384-.936.72-1.32a3.757 3.757 0 0 1 1.296-.936c.528-.24 1.16-.36 1.896-.36h36.672zM388.192 4.16c.736 0 1.36.12 1.872.36s.928.552 1.248.936c.32.384.552.816.696 1.296.144.48.216.96.216 1.44s-.072.96-.216 1.44c-.144.48-.384.912-.72 1.296-.336.384-.76.696-1.272.936-.512.24-1.12.36-1.824.36h-33.504c-.736 0-1.352-.12-1.848-.36a3.879 3.879 0 0 1-1.248-.936 3.456 3.456 0 0 1-.72-1.296 4.989 4.989 0 0 1-.216-1.44c0-.48.072-.96.216-1.44.144-.48.376-.912.696-1.296a3.56 3.56 0 0 1 1.248-.936c.512-.24 1.136-.36 1.872-.36h33.504zm22.752 37.344c.64 0 1.192.112 1.656.336.464.224.84.52 1.128.888.288.368.496.784.624 1.248.128.464.192.92.192 1.368 0 .448-.064.912-.192 1.392-.128.48-.336.912-.624 1.296a3.249 3.249 0 0 1-1.128.936c-.464.24-1.016.36-1.656.36h-1.104c-1.792 0-3.424-.272-4.896-.816a9.491 9.491 0 0 1-3.768-2.52c-1.04-1.136-1.848-2.56-2.424-4.272-.576-1.712-.864-3.736-.864-6.072V14.576c0-2.336.288-4.36.864-6.072.576-1.712 1.384-3.128 2.424-4.248a9.838 9.838 0 0 1 3.768-2.52c1.472-.56 3.104-.84 4.896-.84h1.104c.64 0 1.192.12 1.656.36.464.24.84.552 1.128.936.288.384.496.816.624 1.296.128.48.192.944.192 1.392 0 .448-.064.904-.192 1.368-.128.464-.336.88-.624 1.248a3.134 3.134 0 0 1-1.128.888c-.464.224-1.016.336-1.656.336h-.432c-.416 0-.864.104-1.344.312a3.93 3.93 0 0 0-1.32.96c-.4.432-.728.992-.984 1.68s-.384 1.512-.384 2.472v21.984c0 .96.128 1.776.384 2.448.256.672.584 1.224.984 1.656.4.432.84.752 1.32.96.48.208.928.312 1.344.312h.432zM416.752 38c1.76-1.184 3.216-2.568 4.368-4.152 1.152-1.584 2.08-3.416 2.784-5.496.704-2.08 1.2-4.432 1.488-7.056.288-2.624.432-5.584.432-8.88V8.672c0-1.536.48-2.696 1.44-3.48a5.087 5.087 0 0 1 3.312-1.176c.608 0 1.2.104 1.776.312.576.208 1.08.512 1.512.912.432.4.784.888 1.056 1.464s.408 1.232.408 1.968v3.696c0 3.456-.192 6.64-.576 9.552 2.016.736 3.776 1.704 5.28 2.904 1.504 1.2 2.736 2.72 3.696 4.56.96 1.84 1.632 4.032 2.016 6.576.384 2.544.48 5.528.288 8.952h-9.312c.864-7.2-.4-11.968-3.792-14.304-2.08 6.592-5.504 11.168-10.272 13.728a7.581 7.581 0 0 1-1.872.696 6.251 6.251 0 0 1-1.872.144 4.598 4.598 0 0 1-1.656-.432 3.368 3.368 0 0 1-1.224-.984 4.274 4.274 0 0 1-.744-1.32 3.85 3.85 0 0 1-.216-1.536 3.791 3.791 0 0 1 .456-1.56c.272-.512.68-.96 1.224-1.344zm34.032-13.488h-6.096c-.736 0-1.352-.12-1.848-.36a3.724 3.724 0 0 1-1.248-.96 3.652 3.652 0 0 1-.72-1.344 5.234 5.234 0 0 1-.216-1.464c0-.48.072-.968.216-1.464.144-.496.376-.936.696-1.32.32-.384.736-.704 1.248-.96s1.136-.384 1.872-.384h6.096V7.232c0-1.536.48-2.696 1.44-3.48a5.087 5.087 0 0 1 3.312-1.176c.608 0 1.2.104 1.776.312a4.888 4.888 0 0 1 1.536.888c.448.384.808.864 1.08 1.44s.408 1.248.408 2.016v40.416h-9.552V24.512zm21.168 23.136c-1.024 0-1.92-.168-2.688-.504-.768-.336-1.4-.784-1.896-1.344a5.44 5.44 0 0 1-1.104-1.944 7.54 7.54 0 0 1-.36-2.352v-.144c0-1.696.48-3.072 1.44-4.128s2.496-1.584 4.608-1.584h25.68v-.864c0-.512-.336-.768-1.008-.768H469.12c-.896 0-1.576-.28-2.04-.84-.464-.56-.696-1.16-.696-1.8 0-.64.216-1.248.648-1.824.432-.576 1.128-.864 2.088-.864h13.056v-2.112h-14.16c-1.248 0-2.136-.304-2.664-.912-.528-.608-.792-1.344-.792-2.208 0-.832.256-1.576.768-2.232.512-.656 1.408-.984 2.688-.984h38.016c1.28 0 2.176.328 2.688.984.512.656.768 1.4.768 2.232 0 .864-.264 1.6-.792 2.208-.528.608-1.416.912-2.664.912h-14.16v2.112h10.272c2.048 0 3.456.376 4.224 1.128.768.752 1.152 1.864 1.152 3.336v7.44h-30.384c-.352 0-.592.072-.72.216-.128.144-.192.344-.192.6s.064.464.192.624c.128.16.368.24.72.24h29.136c.928 0 1.592.28 1.992.84.4.56.6 1.176.6 1.848 0 .576-.192 1.168-.576 1.776-.384.608-1.056.912-2.016.912h-34.32zm36-36.912c0 1.088-.176 2.096-.528 3.024a6.502 6.502 0 0 1-1.608 2.424c-.72.688-1.624 1.232-2.712 1.632-1.088.4-2.384.6-3.888.6h-24.384c-1.504 0-2.8-.2-3.888-.6-1.088-.4-1.992-.944-2.712-1.632a6.502 6.502 0 0 1-1.608-2.424c-.352-.928-.528-1.936-.528-3.024s.176-2.096.528-3.024a6.502 6.502 0 0 1 1.608-2.424c.72-.688 1.624-1.232 2.712-1.632 1.088-.4 2.384-.6 3.888-.6h24.384c1.504 0 2.8.2 3.888.6 1.088.4 1.992.944 2.712 1.632a6.502 6.502 0 0 1 1.608 2.424c.352.928.528 1.936.528 3.024zm-9.84 0c0-.448-.136-.808-.408-1.08-.272-.272-.776-.408-1.512-.408h-18.336c-.736 0-1.24.136-1.512.408-.272.272-.408.632-.408 1.08 0 .448.136.808.408 1.08.272.272.776.408 1.512.408h18.336c.736 0 1.24-.136 1.512-.408.272-.272.408-.632.408-1.08zm17.424 30.768c.416 0 .864-.104 1.344-.312a3.93 3.93 0 0 0 1.32-.96c.4-.432.728-.984.984-1.656.256-.672.384-1.488.384-2.448V14.144c0-.96-.128-1.784-.384-2.472s-.584-1.248-.984-1.68a3.93 3.93 0 0 0-1.32-.96c-.48-.208-.928-.312-1.344-.312h-.432c-.64 0-1.192-.112-1.656-.336a3.134 3.134 0 0 1-1.128-.888 3.523 3.523 0 0 1-.624-1.248 5.13 5.13 0 0 1-.192-1.368c0-.448.064-.912.192-1.392.128-.48.336-.912.624-1.296a3.249 3.249 0 0 1 1.128-.936c.464-.24 1.016-.36 1.656-.36h1.104c1.792 0 3.424.28 4.896.84a9.838 9.838 0 0 1 3.768 2.52c1.04 1.12 1.848 2.536 2.424 4.248.576 1.712.864 3.736.864 6.072v21.072c0 2.336-.288 4.36-.864 6.072-.576 1.712-1.384 3.136-2.424 4.272a9.491 9.491 0 0 1-3.768 2.52c-1.472.544-3.104.816-4.896.816h-1.104c-.64 0-1.192-.12-1.656-.36a3.249 3.249 0 0 1-1.128-.936 3.746 3.746 0 0 1-.624-1.296 5.395 5.395 0 0 1-.192-1.392c0-.448.064-.904.192-1.368.128-.464.336-.88.624-1.248a3.134 3.134 0 0 1 1.128-.888c.464-.224 1.016-.336 1.656-.336h.432z"/>
</svg>
