<svg xmlns="http://www.w3.org/2000/svg" width="20" height="20" viewBox="0 0 20 20">
    <g fill="#9B9B9B" fill-rule="nonzero">
        <path d="M11.172 7.07c.97 0 1.758.789 1.758 1.758a.586.586 0 1 0 1.172 0c0-.97.788-1.758 1.757-1.758a.586.586 0 1 0 0-1.172 1.76 1.76 0 0 1-1.757-1.757.586.586 0 1 0-1.172 0 1.76 1.76 0 0 1-1.758 1.757.586.586 0 1 0 0 1.172zm2.344-1.173c.167.222.365.42.587.587-.222.168-.42.366-.587.588a2.95 2.95 0 0 0-.588-.588c.222-.167.42-.365.588-.587zM19.414 10.586c-.974 0-1.797-.805-1.797-1.758a.586.586 0 1 0-1.172 0 1.76 1.76 0 0 1-1.758 1.758.586.586 0 1 0 0 1.172c.97 0 1.758.788 1.758 1.758a.586.586 0 1 0 1.172 0c0-.953.823-1.758 1.797-1.758a.586.586 0 1 0 0-1.172zm-2.086.853a2.999 2.999 0 0 0-.29.329 2.956 2.956 0 0 0-.595-.596c.226-.17.426-.37.594-.596a2.999 2.999 0 0 0 .604.596c-.11.081-.214.17-.313.267z"/>
        <path d="M19.414 18.828H13.88a9.477 9.477 0 0 1-.95-4.14v-1.172a1.76 1.76 0 0 0-1.757-1.758A1.76 1.76 0 0 1 9.414 10V1.758A1.76 1.76 0 0 0 7.656 0a1.76 1.76 0 0 0-1.758 1.758V10a1.76 1.76 0 0 1-1.757 1.758 1.76 1.76 0 0 0-1.758 1.758v1.171c0 1.426.287 2.845.834 4.141H.586a.586.586 0 1 0 0 1.172h18.828a.586.586 0 1 0 0-1.172zM7.656 1.172c.323 0 .586.263.586.586v7.656H7.07V1.758c0-.323.263-.586.586-.586zM3.555 13.516c0-.323.263-.586.586-.586a2.935 2.935 0 0 0 2.87-2.344h1.29a2.935 2.935 0 0 0 2.87 2.344c.324 0 .587.263.587.586v.586H3.555v-.586zm.018 1.757h8.201a10.68 10.68 0 0 0 .818 3.555h-1.643a9.76 9.76 0 0 1-.685-1.935.586.586 0 1 0-1.139.276c.14.576.324 1.14.54 1.66H7.433a9.76 9.76 0 0 1-.685-1.936.586.586 0 1 0-1.138.276c.14.576.323 1.14.539 1.66H4.504a9.454 9.454 0 0 1-.93-3.556z"/>
    </g>
</svg>
