<svg xmlns="http://www.w3.org/2000/svg" width="30" height="30" viewBox="0 0 30 30">
    <path fill="#8592A6" fill-rule="evenodd" d="M21.948 11.341h-.778a5.334 5.334 0 0 0-.368-.964 8.636 8.636 0 0 0-.593-1.054 5.283 5.283 0 0 0-.74-.908c-.268-.26-.526-.408-.774-.445-.234-.03-.528-.053-.882-.068a24.043 24.043 0 0 0-.983-.023h-.655v12.798c0 .248.052.476.158.682.105.207.289.367.552.48.136.052.419.123.851.214.433.09.769.14 1.01.147v.8H11.19v-.8c.21-.015.532-.046.964-.09.432-.046.731-.102.896-.17.248-.097.43-.238.547-.423.117-.184.175-.43.175-.738v-12.9h-.654c-.233 0-.522.006-.868.017-.346.012-.677.036-.992.074-.248.03-.506.178-.773.445s-.513.57-.738.908A7.662 7.662 0 0 0 9.15 10.4c-.173.38-.293.693-.36.941H8V7h13.948v4.341z"/>
</svg>
