<svg xmlns="http://www.w3.org/2000/svg" xmlns:xlink="http://www.w3.org/1999/xlink" width="38" height="38" viewBox="0 0 38 38">
    <defs>
        <rect id="b" width="30" height="30" x="4" y="4" rx="15"/>
        <filter id="a" width="140%" height="140%" x="-20%" y="-20%" filterUnits="objectBoundingBox">
            <feOffset in="SourceAlpha" result="shadowOffsetOuter1"/>
            <feGaussianBlur in="shadowOffsetOuter1" result="shadowBlurOuter1" stdDeviation="2"/>
            <feColorMatrix in="shadowBlurOuter1" values="0 0 0 0 0 0 0 0 0 0 0 0 0 0 0 0 0 0 0.1 0"/>
        </filter>
    </defs>
    <g fill="none" fill-rule="evenodd">
        <g opacity=".801">
            <use fill="#000" filter="url(#a)" xlink:href="#b"/>
            <use fill="#FFF" xlink:href="#b"/>
        </g>
        <path stroke="#4A4A4A" stroke-linecap="round" stroke-width="2" d="M23 23l2.12 2.12"/>
        <path fill="#4A4A4A" fill-rule="nonzero" d="M18.522 25.045A6.53 6.53 0 0 1 12 18.522 6.53 6.53 0 0 1 18.522 12a6.53 6.53 0 0 1 6.522 6.522 6.53 6.53 0 0 1-6.522 6.523zm0-11.967a5.45 5.45 0 0 0-5.444 5.444 5.45 5.45 0 0 0 5.444 5.444 5.45 5.45 0 0 0 5.444-5.444 5.45 5.45 0 0 0-5.444-5.444z"/>
        <rect width="5" height="1" x="16" y="18" fill="#4A4A4A" rx=".5"/>
    </g>
</svg>
