<svg xmlns="http://www.w3.org/2000/svg" width="25" height="25" viewBox="0 0 25 25">
    <g fill="none" fill-rule="evenodd">
        <path stroke="#3A405B" stroke-linecap="round" stroke-width="2" d="M19.5 19.5L24 24"/>
        <rect width="21.75" height="21.75" x=".75" y=".75" fill="#F0F2F7" opacity=".505" rx="10.875"/>
        <path fill="#3A405B" fill-rule="nonzero" d="M11.647 23.294C5.224 23.294 0 18.07 0 11.647 0 5.224 5.224 0 11.647 0c6.422 0 11.647 5.224 11.647 11.647 0 6.422-5.225 11.647-11.647 11.647zm0-21.963C5.959 1.33 1.33 5.959 1.33 11.647c0 5.688 4.628 10.315 10.316 10.315 5.688 0 10.315-4.627 10.315-10.315S17.335 1.33 11.647 1.33z"/>
        <path fill="#3A405B" fill-rule="nonzero" d="M16.239 12.312H7.055a.665.665 0 1 1 0-1.331h9.184a.666.666 0 0 1 0 1.331z"/>
    </g>
</svg>
