<svg xmlns="http://www.w3.org/2000/svg" width="30" height="30" viewBox="0 0 30 30">
    <path fill="#8592A6" fill-rule="evenodd" d="M23.434 10.426h-.972a6.668 6.668 0 0 0-.46-1.205 10.795 10.795 0 0 0-.74-1.317 6.603 6.603 0 0 0-.926-1.135c-.334-.324-.657-.51-.968-.557-.291-.037-.659-.065-1.101-.085a30.054 30.054 0 0 0-1.23-.028h-.819v15.997c0 .31.066.595.198.853.131.259.361.458.69.6.17.065.524.154 1.064.267.54.113.961.174 1.262.183V25H9.989v-1c.263-.02.664-.057 1.205-.114.54-.056.913-.126 1.12-.21.31-.123.538-.299.684-.53.145-.23.218-.537.218-.923V6.1H12.4c-.292 0-.653.007-1.085.021-.433.015-.846.045-1.24.092-.31.038-.633.223-.966.557a7.43 7.43 0 0 0-.924 1.135c-.281.422-.53.871-.747 1.346a8.17 8.17 0 0 0-.45 1.176H6V5h17.434v5.426z"/>
</svg>
