<?xml version="1.0" encoding="UTF-8"?>
<svg width="24px" height="24px" viewBox="0 0 24 24" version="1.1" xmlns="http://www.w3.org/2000/svg" xmlns:xlink="http://www.w3.org/1999/xlink">
    <!-- Generator: Sketch 52.5 (67469) - http://www.bohemiancoding.com/sketch -->
    <title>time_icon</title>
    <desc>Created with Sketch.</desc>
    <g id="wizlab-interface-1.1-v" stroke="none" stroke-width="1" fill="none" fill-rule="evenodd">
        <g id="landscape-1" transform="translate(-827.000000, -394.000000)" fill="#8D6E63" fill-rule="nonzero">
            <g id="API" transform="translate(810.000000, 83.000000)">
                <g id="Group-24-Copy-8">
                    <g id="time" transform="translate(17.000000, 311.000000)">
                        <path d="M11.9888,0.8 C5.8064,0.8 0.8,5.64457931 0.8,11.6137931 C0.8,17.5830069 5.8064,22.4275862 11.9888,22.4275862 C18.1824,22.4275862 23.2,17.5830069 23.2,11.6137931 C23.2,5.64457931 18.1824,0.8 11.9888,0.8 Z M12,20.2648276 C7.0496,20.2648276 3.04,16.3934897 3.04,11.6137931 C3.04,6.83409655 7.0496,2.96275862 12,2.96275862 C16.9504,2.96275862 20.96,6.83409655 20.96,11.6137931 C20.96,16.3934897 16.9504,20.2648276 12,20.2648276 Z M11.7536,6.20689655 L11.6864,6.20689655 C11.2384,6.20689655 10.88,6.55293793 10.88,6.98548966 L10.88,12.0896 C10.88,12.4680828 11.0816,12.8249379 11.4288,13.0195862 L16.0768,15.7122207 C16.4576,15.9284966 16.9504,15.8203586 17.1744,15.4526897 C17.4096,15.0850207 17.2864,14.5984 16.8944,14.3821241 L12.56,11.8949517 L12.56,6.98548966 C12.56,6.55293793 12.2016,6.20689655 11.7536,6.20689655 Z" id="Shape"></path>
                    </g>
                </g>
            </g>
        </g>
    </g>
</svg>