<svg xmlns="http://www.w3.org/2000/svg" width="32" height="32" viewBox="0 0 32 32">
    <g fill="none" fill-rule="evenodd">
        <path d="M0 0H32V32H0z"/>
        <path fill="#FE494A" fill-rule="nonzero" d="M19.2 2.4c.28 0 .537.146.68.38l.063.123 1.362 3.408h6.073c.442 0 .8.358.8.8 0 .393-.283.72-.656.787l-.144.013h-2.319c.058.197.089.406.089.622l-.004.134-1.796 18.982c-.128 1.04-.961 1.838-1.984 1.94l-.222.011H10.858c-1.052 0-1.95-.736-2.173-1.764l-.035-.21L6.87 8.806c-.039-.31-.012-.612.07-.893H4.623c-.442 0-.8-.36-.8-.8 0-.394.283-.72.656-.788l.144-.013h6.071l1.364-3.408c.104-.26.335-.444.605-.491L12.8 2.4h6.4zm3.725 5.511H9.05L9 7.916c-.299.037-.522.279-.543.582l.004.134 1.78 18.822c.034.273.241.486.503.535l.115.011h10.284c.275 0 .512-.18.591-.418l.024-.106 1.79-18.943c0-.3-.213-.551-.496-.61l-.126-.012zm-4.024 4.447c.391.027.697.332.739.71l.002.144-.71 10.11c-.032.44-.414.773-.855.742-.392-.027-.698-.333-.739-.71l-.003-.144.711-10.11c.031-.441.414-.773.855-.742zm-4.97.599l.023.142.71 10.11c.032.442-.3.824-.741.855-.392.028-.738-.232-.831-.6l-.023-.142-.711-10.11c-.031-.441.3-.823.741-.854.392-.028.738.231.832.599zM18.658 4H13.34l-.925 2.311h7.166L18.658 4z"/>
    </g>
</svg>
