<svg xmlns="http://www.w3.org/2000/svg" width="15" height="14" viewBox="0 0 15 14">
    <path fill="#63BAF5" fill-rule="evenodd" d="M7.267 11.372l-3.279 1.724c-.244.129-.546.035-.675-.21-.051-.097-.069-.209-.05-.317l.626-3.651c.028-.162-.026-.328-.144-.443L1.093 5.89c-.198-.193-.202-.51-.01-.708.077-.078.178-.13.287-.145l3.666-.533c.163-.024.303-.126.376-.274L7.052.908c.122-.247.422-.349.67-.227.098.05.178.129.226.227l1.64 3.322c.073.148.213.25.376.274l3.666.533c.274.04.463.293.423.566-.016.11-.067.21-.146.287l-2.652 2.585c-.118.115-.172.28-.144.443l.626 3.651c.047.272-.136.53-.408.577-.109.019-.22.001-.317-.05l-3.28-1.724c-.145-.076-.319-.076-.465 0z"/>
</svg>
