<svg xmlns="http://www.w3.org/2000/svg" width="24" height="24" viewBox="0 0 24 24">
    <g fill="#23D8AF" fill-rule="nonzero">
        <path d="M21.21 5.447a.405.405 0 0 0-.3-.117h-4.02l-.91-2.172c-.13-.321-.364-.594-.702-.82C14.94 2.113 14.598 2 14.25 2h-4.162c-.347 0-.69.113-1.027.338-.339.226-.573.499-.703.82l-.91 2.172h-4.02a.406.406 0 0 0-.299.117.406.406 0 0 0-.117.299v.832c0 .122.04.221.117.3a.405.405 0 0 0 .3.116h1.248v12.383c0 .72.204 1.333.611 1.84.408.508.898.761 1.47.761H17.58c.573 0 1.063-.262 1.47-.786.408-.525.611-1.147.611-1.867V6.995h1.249a.405.405 0 0 0 .299-.118.406.406 0 0 0 .117-.299v-.832a.406.406 0 0 0-.117-.3zM9.892 3.807a.367.367 0 0 1 .221-.142h4.123c.087.017.16.065.221.143l.625 1.521H9.256l.637-1.521zm8.103 15.518c0 .191-.03.367-.09.527-.061.16-.124.277-.19.351-.064.074-.11.11-.136.11H6.758c-.026 0-.071-.036-.136-.11a1.479 1.479 0 0 1-.28-.878V6.995h11.654v12.33z"/>
        <path d="M8.423 17.816h.833a.405.405 0 0 0 .299-.116.406.406 0 0 0 .117-.3V9.908a.406.406 0 0 0-.117-.3.406.406 0 0 0-.3-.116h-.832a.405.405 0 0 0-.299.117.406.406 0 0 0-.117.299V17.4c0 .122.039.221.117.3a.405.405 0 0 0 .3.116zM11.753 17.816h.832a.404.404 0 0 0 .3-.116.405.405 0 0 0 .117-.3V9.908a.405.405 0 0 0-.118-.3.405.405 0 0 0-.299-.116h-.832a.406.406 0 0 0-.3.117.405.405 0 0 0-.116.299V17.4c0 .122.039.221.117.3a.405.405 0 0 0 .299.116zM15.083 17.816h.832a.405.405 0 0 0 .3-.116.406.406 0 0 0 .116-.3V9.908a.406.406 0 0 0-.117-.3.406.406 0 0 0-.299-.116h-.832a.406.406 0 0 0-.3.117.406.406 0 0 0-.116.299V17.4c0 .122.039.221.117.3a.406.406 0 0 0 .299.116z"/>
    </g>
</svg>
