<?xml version="1.0" encoding="utf-8"?>
<!-- Generator: Adobe Illustrator 23.0.1, SVG Export Plug-In . SVG Version: 6.00 Build 0)  -->
<svg version="1.1" id="Layer_1" xmlns="http://www.w3.org/2000/svg" xmlns:xlink="http://www.w3.org/1999/xlink" x="0px" y="0px"
	 viewBox="0 0 20 20" style="enable-background:new 0 0 20 20;" xml:space="preserve">
<style type="text/css">
	.st0{fill-rule:evenodd;clip-rule:evenodd;fill:#FFEE58;}
	.st1{fill-rule:evenodd;clip-rule:evenodd;fill:#FFA726;}
	.st2{fill-rule:evenodd;clip-rule:evenodd;fill:#D2DCE7;}
	.st3{fill-rule:evenodd;clip-rule:evenodd;fill:#FAECD8;}
	.st4{fill-rule:evenodd;clip-rule:evenodd;fill:#F4D7AF;}
	.st5{fill-rule:evenodd;clip-rule:evenodd;fill:#32DAB4;}
	.st6{fill-rule:evenodd;clip-rule:evenodd;fill:#09C399;}
</style>
<title>vc-publish</title>
<desc>Created with Sketch.</desc>
<g>
	<g id="dashboard_renewal" transform="translate(-811.000000, -153.000000)">
		<g id="Group-3" transform="translate(120.000000, 100.000000)">
			<g id="Group-8-Copy" transform="translate(670.000000, 50.000000)">
				<g id="start-up" transform="translate(21.000000, 3.000000)">
					<path id="Path" class="st0" d="M5.5,7.4C4.3,7.3,2.8,7.8,1.8,8.8l-1.7,1.7c-0.2,0.2-0.2,0.5-0.1,0.7c0.1,0.2,0.4,0.3,0.7,0.3
						c1-0.3,2.4-0.4,2.8-0.1L5.5,7.4z"/>
					<path class="st1" d="M12.5,14.5l-3.9,1.9c0.2,0.3,0.2,1.2-0.1,2.9c0,0.3,0.1,0.5,0.3,0.6c0.2,0.1,0.5,0.1,0.7-0.1l1.7-1.7
						C12.2,17.2,12.7,15.8,12.5,14.5L12.5,14.5z"/>
					<path class="st2" d="M9.2,16.6c-1.4,0.7-1.5,0.8-1.7,0.9c-0.2,0.1-0.5,0.1-0.7-0.1l-4.1-4.1c-0.2-0.2-0.2-0.5-0.1-0.7
						c0.1-0.2,0.2-0.3,0.9-1.8l1.6,0l4.1,4.1L9.2,16.6z"/>
					<path class="st3" d="M9.2,16.6l-5.8-5.8C6.3,5.4,9.8,2,13.8,0.7l2.8,2.8l2.7,2.7C18,10.2,14.6,13.7,9.2,16.6z"/>
					<path class="st4" d="M9.2,16.6l-2.9-2.9L16.6,3.5l2.7,2.7C18,10.2,14.6,13.7,9.2,16.6L9.2,16.6z"/>
					<path class="st5" d="M14.7,5.3c-1.1-1.1-3-1.1-4.1,0c-1.1,1.1-1.1,3,0,4.1l0,0c1.1,1.1,3,1.1,4.1,0C15.9,8.3,15.9,6.4,14.7,5.3
						L14.7,5.3z"/>
					<path class="st6" d="M14.7,9.4c-1.1,1.1-3,1.1-4.1,0l4.1-4.1C15.9,6.4,15.9,8.3,14.7,9.4z"/>
					<path class="st0" d="M19.3,6.2c-1.3-0.1-2.6-0.7-3.7-1.8l0,0c-1.1-1.1-1.7-2.5-1.8-3.7c0.4-0.1,0.8-0.2,1.2-0.3
						C16.3,0,17.8,0,19.4,0.1c0.1,0,0.3,0.1,0.4,0.2c0.1,0.1,0.1,0.2,0.1,0.3c0.2,1.5,0.1,3-0.2,4.4C19.5,5.5,19.4,5.8,19.3,6.2
						L19.3,6.2z"/>
					<path class="st1" d="M19.3,6.2c-1.3-0.1-2.6-0.7-3.7-1.8l4.1-4.1c0.1,0.1,0.1,0.2,0.1,0.3c0.2,1.5,0.1,3-0.2,4.4
						C19.5,5.5,19.4,5.8,19.3,6.2L19.3,6.2z"/>
					<path class="st0" d="M9.1,11.5c0-0.1-0.1-0.3-0.2-0.4c-0.1-0.1-0.3-0.2-0.4-0.2c-2.2,0-2.6,0.7-2.8,0.9
						c-3.6,3.6-3.6,5.3-3.6,5.5c0,0.2,0.1,0.3,0.2,0.4c0,0,0,0,0,0c0.1,0.1,0.2,0.1,0.3,0.1c0.3,0,2,0,5.6-3.6
						C9.1,13.4,9.1,12.7,9.1,11.5z"/>
					<path class="st1" d="M9.1,11.5c0,1.2,0,2-0.9,2.8c-3.6,3.6-5.3,3.6-5.6,3.6c-0.1,0-0.2-0.1-0.3-0.1L9,11.1
						C9.1,11.2,9.1,11.3,9.1,11.5z"/>
				</g>
			</g>
		</g>
	</g>
</g>
</svg>
