<svg id="Layer_1" data-name="Layer 1" xmlns="http://www.w3.org/2000/svg" viewBox="0 0 20 20"><defs><style>.cls-1{fill:#e95454;}.cls-2{fill:#ed6362;}.cls-3{fill:#ffcc5b;}.cls-4{fill:#fdbc4b;}.cls-5{fill:#ffdb70;}.cls-6{fill:#fff;opacity:0.2;isolation:isolate;}.cls-7{fill:#ec9922;}.cls-8{fill:none;}</style></defs><title>vc-reward</title><g id="dashboard_renewal" data-name="dashboard renewal"><g id="Group-3"><g id="Group-8"><g id="medal"><polygon id="Path" class="cls-1" points="6.44 8.64 2.02 16.87 6.03 16.5 7.97 19.99 12.39 11.77 6.44 8.64"/><g id="Group"><path class="cls-2" d="M6.94,17.59a.54.54,0,0,0-.26-.71l-.26-.13A.54.54,0,0,1,6.21,16,.55.55,0,0,1,7,15.81l.72.37A.45.45,0,0,0,8.28,16l0,0a.43.43,0,0,0-.17-.6L6,14.24a.54.54,0,1,1,.49-1l2,1.05a.45.45,0,0,0,.61-.19l0,0h0a.47.47,0,0,0-.2-.65l-1.11-.58a.56.56,0,0,1-.27-.72.55.55,0,0,1,.75-.25l1.23.65a.47.47,0,0,0,.63-.21h0A.45.45,0,0,0,10,11.7L8.62,11a.54.54,0,1,1,.48-1l3.29,1.72L8,20,6.75,17.8A.43.43,0,0,0,6.94,17.59Z"/><polygon class="cls-2" points="14.7 8.64 19.11 16.87 15.1 16.5 13.16 19.99 8.75 11.77 14.7 8.64"/></g><path class="cls-1" d="M14.19,17.59a.56.56,0,0,1,.26-.71l.26-.13a.54.54,0,0,0-.52-.94l-.72.37a.46.46,0,0,1-.62-.19v0a.42.42,0,0,1,.16-.6l2.15-1.13a.54.54,0,1,0-.48-1l-2,1.05a.46.46,0,0,1-.62-.19v0h0a.49.49,0,0,1,.2-.65l1.12-.58a.55.55,0,0,0,.26-.72.54.54,0,0,0-.74-.25l-1.24.65a.46.46,0,0,1-.62-.21h0a.45.45,0,0,1,.17-.63l1.34-.7a.56.56,0,0,0,.26-.71A.55.55,0,0,0,12,10L8.75,11.77,13.16,20l1.22-2.19A.43.43,0,0,1,14.19,17.59Z"/><ellipse id="Oval" class="cls-3" cx="10.57" cy="7.29" rx="7.38" ry="7.29"/><path class="cls-4" d="M11.57,6.46H6.89a.67.67,0,0,1-.66-.66v0h0a.68.68,0,0,1,.69-.69h3.24A.81.81,0,0,0,11,4.32a.79.79,0,0,0-.79-.82H6.78a.65.65,0,0,1-.65-.69h0a.66.66,0,0,1,.65-.69h3.59a.8.8,0,0,0,.83-.73.79.79,0,0,0-.79-.82H7.78A7.26,7.26,0,0,0,7.78,14h3.34a.8.8,0,0,0,.83-.73.79.79,0,0,0-.79-.82H7.37a.79.79,0,0,1-.79-.82.81.81,0,0,1,.83-.74H8.88a.78.78,0,0,0,.77-.78.79.79,0,0,0-.79-.78H6.63A.65.65,0,0,1,6,8.72V8.66A.61.61,0,0,1,6.59,8h4.93a.82.82,0,0,0,.84-.73A.79.79,0,0,0,11.57,6.46Z"/><path class="cls-5" d="M10.57,12.5a5.21,5.21,0,1,1,5.26-5.21A5.25,5.25,0,0,1,10.57,12.5Z"/><path class="cls-6" d="M15.83,7.29a5.23,5.23,0,0,0-5-5.19h-.49a.62.62,0,0,0-.63.56.59.59,0,0,0,.6.63h2.89a.59.59,0,0,1,.6.62.61.61,0,0,1-.63.56H12.09a.6.6,0,1,0,0,1.19h1.71a.51.51,0,0,1,.5.5v0a.47.47,0,0,1-.48.5H10.07a.62.62,0,0,0-.63.56.6.6,0,0,0,.6.63H13.6a.5.5,0,0,1,.51.49v0h0a.51.51,0,0,1-.52.52H11.11a.63.63,0,0,0-.64.57.6.6,0,0,0,.6.62h2.62a.51.51,0,0,1,.5.53h0a.51.51,0,0,1-.5.53H11a.62.62,0,0,0-.63.56.59.59,0,0,0,.6.62h.72A5.23,5.23,0,0,0,15.83,7.29Z"/><path class="cls-7" d="M14.24,6.14H11.68l-.79-2.41a.34.34,0,0,0-.65,0L9.45,6.14H6.89a.34.34,0,0,0-.2.61L8.76,8.24,8,10.65A.34.34,0,0,0,8.5,11l2.07-1.49L12.64,11a.33.33,0,0,0,.52-.37l-.79-2.41,2.07-1.49A.34.34,0,0,0,14.24,6.14Z"/></g></g></g></g><rect class="cls-8" width="20" height="20"/></svg>