<svg xmlns="http://www.w3.org/2000/svg" width="24" height="24" viewBox="0 0 24 24">
    <g fill="#4A4A4A" fill-rule="nonzero" stroke="#4A4A4A">
        <path d="M13.688 11.428l-2.507-1.37a.456.456 0 0 0-.455.007.456.456 0 0 0-.226.396v2.72a.456.456 0 0 0 .46.46.46.46 0 0 0 .218-.056l2.507-1.347a.46.46 0 0 0 .003-.81z"/>
        <path d="M20.833 8.211l-.001-.008c-.015-.144-.167-1.43-.792-2.085-.723-.77-1.542-.863-1.936-.907a4.753 4.753 0 0 1-.09-.011l-.03-.003C15.607 5.024 12.021 5 11.985 5h-.007c-.036 0-3.622.024-6.019.197L5.93 5.2l-.085.01c-.39.045-1.2.139-1.924.936-.596.647-.768 1.906-.786 2.047l-.002.018A37.31 37.31 0 0 0 3 11.142v1.344c0 1.438.127 2.87.132 2.931l.001.01c.015.142.167 1.404.789 2.059.68.743 1.539.842 2.001.895.073.008.136.015.179.023l.041.005c1.372.13 5.671.195 5.853.198h.011c.036 0 3.623-.024 5.998-.197l.031-.003.101-.011c.387-.041 1.194-.127 1.908-.913.596-.648.768-1.906.786-2.048l.002-.018c.005-.06.132-1.493.132-2.93v-1.345c0-1.438-.127-2.87-.132-2.93zm-.92 4.275c0 1.331-.117 2.702-.128 2.828-.045.347-.226 1.143-.516 1.458-.448.493-.907.541-1.243.577a5.76 5.76 0 0 0-.112.012c-2.297.167-5.749.192-5.908.193-.178-.003-4.414-.067-5.744-.19a4.621 4.621 0 0 0-.22-.03c-.393-.044-.931-.106-1.346-.562l-.01-.01c-.284-.297-.46-1.042-.506-1.444a36.789 36.789 0 0 1-.127-2.832v-1.344c0-1.33.116-2.699.127-2.827.053-.408.238-1.156.516-1.459.461-.507.948-.563 1.27-.6l.085-.01c2.33-.167 5.807-.192 5.931-.193.125 0 3.6.026 5.91.192l.093.011c.33.038.83.095 1.289.584l.004.005c.285.297.462 1.055.507 1.465.007.09.127 1.48.127 2.832v1.344z"/>
    </g>
</svg>
