<?xml version="1.0" encoding="UTF-8"?>
<svg width="30px" height="30px" viewBox="0 0 30 30" version="1.1" xmlns="http://www.w3.org/2000/svg" xmlns:xlink="http://www.w3.org/1999/xlink">
    <!-- Generator: Sketch 52.5 (67469) - http://www.bohemiancoding.com/sketch -->
    <title>view_off_btn</title>
    <desc>Created with Sketch.</desc>
    <g id="wizschool-1.1v" stroke="none" stroke-width="1" fill="none" fill-rule="evenodd">
        <g id="landscape-1" transform="translate(-978.000000, -1040.000000)" fill="#8592A6">
            <g id="bottom" transform="translate(810.000000, 1030.000000)">
                <g id="view" transform="translate(153.000000, 10.000000)">
                    <g id="view_off_btn" transform="translate(15.000000, 0.000000)">
                        <g id="Group-4">
                            <path d="M17.7,14.6020588 C17.564,13.4779412 16.564,12.6035294 15.299,12.4835294 L17.7,14.6020588 Z M15,18.8770588 C12.491,18.8770588 10.454,17.0805882 10.454,14.8658824 C10.454,14.2482353 10.618,13.6641176 10.899,13.1497059 L12.327,14.4088235 C12.299,14.5526471 12.272,14.7052941 12.272,14.8658824 C12.272,16.1982353 13.49,17.2729412 15,17.2729412 C15.182,17.2729412 15.345,17.2482353 15.518,17.2164706 L16.945,18.4764706 C16.355,18.7332353 15.699,18.8770588 15,18.8770588 Z M6.554,8.17676471 C6.2,8.48823529 6.2,8.99470588 6.554,9.30705882 L8.345,10.8873529 C6.872,11.9223529 5.699,13.2855882 5,14.8658824 C6.572,18.3882353 10.454,20.8817647 15,20.8817647 C16.381,20.8817647 17.7,20.6417647 18.919,20.2244118 L21.39,22.4073529 C21.745,22.7179412 22.318,22.7179412 22.672,22.4073529 C23.027,22.0932353 23.027,21.5876471 22.672,21.2752941 L7.845,8.17676471 C7.491,7.86264706 6.909,7.86264706 6.554,8.17676471 Z M15,10.8555882 C17.509,10.8555882 19.545,12.6529412 19.545,14.8658824 C19.545,15.2752941 19.454,15.6688235 19.327,16.0367647 L22.109,18.4914706 C23.372,17.505 24.373,16.2714706 25,14.8588235 C23.427,11.3444118 19.545,8.85 15,8.85 C13.845,8.85 12.735,9.01058824 11.69,9.30705882 L13.663,11.0488235 C14.09,10.9367647 14.536,10.8555882 15,10.8555882 Z" id="Fill-2"></path>
                        </g>
                    </g>
                </g>
            </g>
        </g>
    </g>
</svg>