<svg xmlns="http://www.w3.org/2000/svg" width="60" height="60" viewBox="0 0 60 60">
    <g fill="none" fill-rule="evenodd">
        <path d="M0 0h60v60H0z"/>
        <path d="M0 0h60v60H0z"/>
        <path fill="#FFF" fill-rule="nonzero" d="M31.6 3.9a3.5 3.5 0 0 1 3.5 3.5v1.9h18.3a2.7 2.7 0 0 1 2.695 2.53l.005.17v30.6a2.7 2.7 0 0 1-2.53 2.695l-.17.005H36.3v8.1h4.1a1 1 0 0 1 1 1v1a1 1 0 0 1-1 1H19.6a1 1 0 0 1-1-1v-1a1 1 0 0 1 1-1h3.799v-8.1H6.6a2.7 2.7 0 0 1-2.695-2.53L3.9 42.6V28.06A3.499 3.499 0 0 1 2.1 25V7.4a3.5 3.5 0 0 1 3.5-3.5h26zm1.7 41.4h-6.901v8.1H33.3v-8.1zm19.8-5.4H6.9v2.4h46.2v-2.4zm0-27.6h-18V25a3.5 3.5 0 0 1-3.5 3.5H6.9v8.4h46.2V12.3zm-36.4 19v.5h32.8v3H16.7v.5h-4v-.5h-2.2v-3h2.2v-.5h4zm32.8-5.5v3h-7.2v-3h7.2zm-9 0v3h-4.2v-3h4.2zM31.6 6.9h-26a.5.5 0 0 0-.5.5V25a.5.5 0 0 0 .5.5h26a.5.5 0 0 0 .5-.5V7.4a.5.5 0 0 0-.5-.5zM45.9 21v3h-9.6v-3h9.6zm-29-7.878a1 1 0 0 1 .537.156l3.737 2.378a1 1 0 0 1 0 1.688l-3.737 2.378a1 1 0 0 1-1.537-.844v-4.756a1 1 0 0 1 1-1zM49.5 16.2v3H36.3v-3h13.2z"/>
    </g>
</svg>
