<svg xmlns="http://www.w3.org/2000/svg" width="60" height="60" viewBox="0 0 60 60">
    <g fill="none" fill-rule="evenodd">
        <path d="M0 2h60v60H0z"/>
        <path fill="#FFF" fill-rule="nonzero" d="M47.4 2.7a1.5 1.5 0 0 1 1.493 1.356l.007.144-.001 4.499L51.6 8.7a1.5 1.5 0 0 1 1.493 1.356l.007.144v26.108h-.106A11.987 11.987 0 0 1 58.2 46.2c0 6.627-5.373 12-12 12-6.325 0-11.507-4.893-11.967-11.1H8.4a1.5 1.5 0 0 1-1.493-1.356L6.9 45.6l-.001-2.701L1.8 42.9a1.5 1.5 0 0 1-1.493-1.356L.3 41.4V4.2a1.5 1.5 0 0 1 1.356-1.493L1.8 2.7h45.6zm-1.2 34.5a9 9 0 1 0 0 18 9 9 0 0 0 0-18zm4.18 4.388l2.44 1.743-5.4 7.563a1.5 1.5 0 0 1-2.176.285l-.113-.104-4.353-4.423 2.138-2.104 3.101 3.15 4.362-6.11zm-15.72 1.311H9.898l.001 1.2h24.484c.072-.407.165-.808.277-1.2zM45.899 14.4h-42.6L3.3 39.899h32.685a11.993 11.993 0 0 1 9.914-5.695V14.4zm-18.187 2.016l2.758 1.181-8.382 19.558-2.758-1.182 8.382-19.557zM16.05 17.689l2.121 2.122-7.425 7.423 7.425 7.426-2.121 2.121-8.485-8.485a1.5 1.5 0 0 1-.098-2.014l.098-.107 8.485-8.486zm15.6 0l8.485 8.486.098.107a1.5 1.5 0 0 1-.098 2.014L31.65 36.78l-2.121-2.121 7.424-7.425-7.424-7.424 2.121-2.122zm18.448.011h-1.199v16.805c.41.094.81.209 1.201.343L50.098 17.7zm.001-6.001h-1.2V14.7h1.199l.001-3.001zm-4.199-6H3.3L3.299 11.4h42.6l.001-5.701zM6.3 7.8a.9.9 0 1 1 0 1.8.9.9 0 0 1 0-1.8zm3.6 0a.9.9 0 1 1 0 1.8.9.9 0 0 1 0-1.8zm3.6 0a.9.9 0 1 1 0 1.8.9.9 0 0 1 0-1.8z"/>
    </g>
</svg>
