<svg xmlns="http://www.w3.org/2000/svg" width="24" height="24" viewBox="0 0 24 24">
    <path fill="#FFF" fill-rule="nonzero" d="M7.59 16.445l-4.579-4.291L7.59 7.862a1.036 1.036 0 0 0 0-1.54 1.21 1.21 0 0 0-1.644 0l-5.388 5.05a1.048 1.048 0 0 0 0 1.552l5.388 5.062a1.21 1.21 0 0 0 1.644 0 1.036 1.036 0 0 0 0-1.54zm7.749 0l4.578-4.291-4.578-4.292a1.036 1.036 0 0 1 0-1.54 1.21 1.21 0 0 1 1.643 0l5.389 5.05c.458.43.458 1.123 0 1.552l-5.389 5.062a1.21 1.21 0 0 1-1.643 0 1.036 1.036 0 0 1 0-1.54z"/>
</svg>
