<svg width="136" height="23" viewBox="0 0 136 23" fill="none" xmlns="http://www.w3.org/2000/svg">
<g clip-path="url(#clip0_1152_2891)">
<path d="M38.1998 0.0498047H31.3698C31.0661 0.0498047 30.8198 0.296048 30.8198 0.599805V22.1998C30.8198 22.5036 31.0661 22.7498 31.3698 22.7498H38.1998C38.5036 22.7498 38.7498 22.5036 38.7498 22.1998V0.599805C38.7498 0.296048 38.5036 0.0498047 38.1998 0.0498047Z" fill="black"/>
<path d="M60.9998 0.0400438H41.9998C41.8539 0.0400438 41.714 0.0980011 41.6109 0.201146C41.5078 0.304291 41.4498 0.444162 41.4498 0.590032V6.46006C41.4498 6.53182 41.4641 6.60287 41.4918 6.66904C41.5196 6.73522 41.5603 6.79519 41.6115 6.84546C41.6627 6.89574 41.7234 6.93532 41.7901 6.96186C41.8568 6.9884 41.9281 7.00136 41.9998 7.00004H49.2298C49.3491 6.99257 49.4677 7.02349 49.5682 7.08826C49.6687 7.15304 49.7458 7.24826 49.7883 7.36002C49.8307 7.47178 49.8363 7.59419 49.8042 7.70936C49.7721 7.82452 49.704 7.92638 49.6098 8.00004L41.7298 15.56C41.6413 15.6457 41.571 15.7483 41.5229 15.8616C41.4748 15.975 41.4499 16.0969 41.4498 16.22V22.22C41.4484 22.2926 41.4617 22.3648 41.4889 22.4321C41.5161 22.4994 41.5565 22.5606 41.6079 22.612C41.6592 22.6633 41.7204 22.7038 41.7877 22.7309C41.8551 22.7581 41.9272 22.7714 41.9998 22.7701H60.9998C61.0724 22.7714 61.1445 22.7581 61.2119 22.7309C61.2792 22.7038 61.3404 22.6633 61.3917 22.612C61.4431 22.5606 61.4835 22.4994 61.5107 22.4321C61.5379 22.3648 61.5512 22.2926 61.5498 22.22V16.3601C61.5498 16.2878 61.5356 16.2163 61.5079 16.1496C61.4803 16.0828 61.4398 16.0222 61.3887 15.9711C61.3376 15.9201 61.277 15.8795 61.2103 15.8519C61.1435 15.8243 61.072 15.81 60.9998 15.81H53.7698C53.6616 15.8085 53.5562 15.7751 53.4668 15.7139C53.3775 15.6528 53.3082 15.5666 53.2676 15.4662C53.2271 15.3659 53.217 15.2557 53.2388 15.1497C53.2605 15.0436 53.313 14.9464 53.3898 14.8701L61.2698 7.31003C61.4438 7.12967 61.5437 6.89058 61.5498 6.64005V0.64005C61.5568 0.563733 61.5477 0.486801 61.5232 0.414189C61.4987 0.341577 61.4593 0.27488 61.4075 0.218388C61.3557 0.161897 61.2927 0.116868 61.2225 0.0861558C61.1523 0.0554432 61.0764 0.0397264 60.9998 0.0400438Z" fill="black"/>
<path d="M80.8799 15.7403H72.2399C72.0957 15.7403 71.9573 15.6837 71.8545 15.5827C71.7516 15.4817 71.6925 15.3444 71.6899 15.2003V0.580292C71.6899 0.434423 71.6319 0.294521 71.5288 0.191376C71.4256 0.0882307 71.2857 0.0302734 71.1399 0.0302734H64.3199C64.1757 0.0328944 64.0384 0.0920229 63.9374 0.194885C63.8364 0.297748 63.7799 0.436139 63.7799 0.580292V22.1403C63.7785 22.212 63.7915 22.2833 63.8181 22.35C63.8446 22.4167 63.8842 22.4774 63.9345 22.5286C63.9847 22.5798 64.0447 22.6205 64.1109 22.6483C64.1771 22.676 64.2481 22.6903 64.3199 22.6903H80.8799C80.9516 22.6903 81.0227 22.676 81.0889 22.6483C81.155 22.6205 81.215 22.5798 81.2653 22.5286C81.3156 22.4774 81.3551 22.4167 81.3817 22.35C81.4082 22.2833 81.4212 22.212 81.4199 22.1403V16.2903C81.4199 16.1461 81.3633 16.0077 81.2623 15.9049C81.1613 15.802 81.024 15.7429 80.8799 15.7403Z" fill="black"/>
<path d="M102.53 11.7303V15.2003C102.533 15.3444 102.592 15.4817 102.695 15.5827C102.798 15.6837 102.936 15.7403 103.08 15.7403H104.62C104.764 15.7403 104.903 15.6837 105.006 15.5827C105.108 15.4817 105.168 15.3444 105.17 15.2003V0.580292C105.17 0.434423 105.228 0.294521 105.331 0.191376C105.434 0.0882307 105.574 0.0302734 105.72 0.0302734H112.53C112.676 0.0302734 112.816 0.0882307 112.919 0.191376C113.022 0.294521 113.08 0.434423 113.08 0.580292V22.1403C113.08 22.2862 113.022 22.4261 112.919 22.5292C112.816 22.6324 112.676 22.6903 112.53 22.6903H95.1602C95.0885 22.6903 95.0174 22.676 94.9512 22.6483C94.8851 22.6205 94.8251 22.5798 94.7748 22.5286C94.7245 22.4774 94.685 22.4167 94.6584 22.35C94.6319 22.2833 94.6189 22.212 94.6202 22.1403V0.580292C94.6202 0.436139 94.6768 0.297748 94.7778 0.194885C94.8787 0.0920229 95.0161 0.0328944 95.1602 0.0302734H101.98C102.126 0.0302734 102.266 0.0882307 102.369 0.191376C102.472 0.294521 102.53 0.434423 102.53 0.580292V11.7303Z" fill="black"/>
<path d="M134.73 9.35028H124C123.904 9.34767 123.812 9.30754 123.745 9.23843C123.678 9.16933 123.64 9.07671 123.64 8.98029V7.35028C123.639 7.30217 123.647 7.25428 123.665 7.20944C123.682 7.1646 123.708 7.12373 123.742 7.08923C123.776 7.05474 123.816 7.02732 123.86 7.00861C123.904 6.98989 123.952 6.98027 124 6.98029H135.27C135.343 6.98164 135.415 6.96835 135.482 6.94119C135.55 6.91403 135.611 6.87355 135.662 6.8222C135.713 6.77086 135.754 6.70971 135.781 6.64236C135.808 6.57502 135.822 6.5029 135.82 6.4303V0.580292C135.82 0.434423 135.762 0.294521 135.659 0.191376C135.556 0.0882307 135.416 0.0302734 135.27 0.0302734H116.27C116.124 0.0302734 115.984 0.0882307 115.881 0.191376C115.778 0.294521 115.72 0.434423 115.72 0.580292V22.1403C115.72 22.2862 115.778 22.4261 115.881 22.5292C115.984 22.6324 116.124 22.6903 116.27 22.6903H135.27C135.343 22.6916 135.415 22.6783 135.482 22.6512C135.55 22.624 135.611 22.5836 135.662 22.5322C135.713 22.4809 135.754 22.4197 135.781 22.3524C135.808 22.285 135.822 22.2129 135.82 22.1403V16.2903C135.82 16.1444 135.762 16.0045 135.659 15.9014C135.556 15.7982 135.416 15.7403 135.27 15.7403H124C123.953 15.7403 123.906 15.731 123.862 15.7129C123.819 15.6948 123.779 15.6683 123.746 15.6349C123.712 15.6014 123.686 15.5617 123.668 15.5181C123.65 15.4744 123.64 15.4276 123.64 15.3803V13.7403C123.64 13.6448 123.678 13.5532 123.746 13.4857C123.813 13.4182 123.905 13.3803 124 13.3803H134.73C134.874 13.3777 135.012 13.3186 135.113 13.2157C135.214 13.1128 135.27 12.9744 135.27 12.8303V9.89029C135.27 9.74707 135.213 9.60972 135.112 9.50845C135.011 9.40718 134.873 9.35028 134.73 9.35028Z" fill="black"/>
<path d="M91.4301 0.0400391H84.6101C84.3063 0.0400391 84.0601 0.286282 84.0601 0.590039V22.15C84.0601 22.4538 84.3063 22.7 84.6101 22.7H91.4301C91.7338 22.7 91.9801 22.4538 91.9801 22.15V0.590039C91.9801 0.286282 91.7338 0.0400391 91.4301 0.0400391Z" fill="black"/>
<path d="M18.4502 7.98007C18.5473 7.97194 18.6404 7.93819 18.7201 7.88226C18.7999 7.82633 18.8633 7.75023 18.904 7.66174C18.9447 7.57326 18.9611 7.47556 18.9517 7.37863C18.9422 7.2817 18.9072 7.18904 18.8502 7.11008L14.5302 0.610077C14.4869 0.541933 14.427 0.48583 14.3562 0.44696C14.2854 0.408091 14.206 0.387695 14.1252 0.387695C14.0445 0.387695 13.965 0.408091 13.8942 0.44696C13.8234 0.48583 13.7636 0.541933 13.7202 0.610077L9.43023 7.07007C9.37323 7.14903 9.33821 7.24173 9.32877 7.33865C9.31932 7.43558 9.33578 7.53325 9.37646 7.62173C9.41714 7.71022 9.48059 7.78633 9.56031 7.84225C9.64004 7.89818 9.73318 7.93193 9.83023 7.94006L18.4502 7.98007Z" fill="black"/>
<path d="M0.52998 9.45029C0.459063 9.44896 0.388579 9.46163 0.322556 9.48755C0.256532 9.51347 0.196262 9.55213 0.145187 9.60135C0.0941127 9.65057 0.0532337 9.70937 0.0248871 9.77439C-0.00345951 9.83941 -0.0187184 9.90937 -0.0200195 9.98029V22.2003C-0.0187184 22.2712 -0.00345951 22.3412 0.0248871 22.4062C0.0532337 22.4712 0.0941127 22.53 0.145187 22.5792C0.196262 22.6284 0.256532 22.6671 0.322556 22.693C0.388579 22.7189 0.459063 22.7316 0.52998 22.7303H7.36998C7.4409 22.7316 7.51138 22.7189 7.5774 22.693C7.64343 22.6671 7.7037 22.6284 7.75477 22.5792C7.80585 22.53 7.84673 22.4712 7.87507 22.4062C7.90342 22.3412 7.91868 22.2712 7.91998 22.2003V19.4603C7.97472 17.8543 8.64885 16.3318 9.80115 15.2119C10.9534 14.0919 12.4945 13.4613 14.1013 13.4523C15.7082 13.4432 17.2562 14.0564 18.4211 15.1633C19.5859 16.2703 20.2772 17.785 20.35 19.3903V22.2003C20.3513 22.2712 20.3665 22.3412 20.3949 22.4062C20.4232 22.4712 20.4641 22.53 20.5152 22.5792C20.5663 22.6284 20.6265 22.6671 20.6926 22.693C20.7586 22.7189 20.8291 22.7316 20.9 22.7303H27.74C27.8109 22.7316 27.8814 22.7189 27.9474 22.693C28.0134 22.6671 28.0737 22.6284 28.1248 22.5792C28.1758 22.53 28.2167 22.4712 28.2451 22.4062C28.2734 22.3412 28.2887 22.2712 28.29 22.2003V9.98029C28.2887 9.90937 28.2734 9.83941 28.2451 9.77439C28.2167 9.70937 28.1758 9.65057 28.1248 9.60135C28.0737 9.55213 28.0134 9.51347 27.9474 9.48755C27.8814 9.46163 27.8109 9.44896 27.74 9.45029H0.52998Z" fill="black"/>
<path d="M0.599998 -0.0195312C0.599998 -0.0195312 0 0.0604749 0 0.580475V7.32047C0 7.32047 -1.54972e-06 7.92047 0.599998 7.92047H7.34C7.34 7.92047 7.94 7.92046 7.94 7.32047V0.580475C7.94 0.580475 7.87 -0.0195312 7.34 -0.0195312H0.599998Z" fill="black"/>
<path d="M20.9801 -0.0195312C20.9801 -0.0195312 20.3701 0.0604749 20.3701 0.580475V7.32047C20.3701 7.32047 20.3701 7.92047 20.9801 7.92047H27.7101C27.7101 7.92047 28.3101 7.92046 28.3101 7.32047V0.580475C28.3101 0.580475 28.2401 -0.0195312 27.7101 -0.0195312H20.9801Z" fill="black"/>
</g>
<defs>
<clipPath id="clip0_1152_2891">
<rect width="135.82" height="22.75" fill="white"/>
</clipPath>
</defs>
</svg>
