<?xml version="1.0" encoding="UTF-8"?>
<svg width="35px" height="35px" viewBox="0 0 35 35" version="1.1" xmlns="http://www.w3.org/2000/svg" xmlns:xlink="http://www.w3.org/1999/xlink">
    <!-- Generator: Sketch 53.2 (72643) - https://sketchapp.com -->
    <title>youtube</title>
    <desc>Created with Sketch.</desc>
    <g id="app-/-ranking" stroke="none" stroke-width="1" fill="none" fill-rule="evenodd">
        <g id="wizclass-update-wizapp" transform="translate(-259.000000, -2025.000000)" fill="#FFFFFF" fill-rule="nonzero">
            <g id="footer" transform="translate(0.000000, 1765.000000)">
                <g id="youtube" transform="translate(259.000000, 260.000000)">
                    <g id="youtube-logo" transform="translate(9.000000, 8.000000)">
                        <path d="M16.2482031,10.3271875 C16.1516797,9.88839844 15.9376953,9.52042969 15.6069531,9.223125 C15.2759375,8.92582031 14.8949609,8.75105469 14.4635937,8.69898437 C13.095625,8.5503125 11.0324609,8.47601562 8.27386719,8.47601562 C5.51535156,8.47601562 3.45585938,8.55035156 2.09519531,8.69898437 C1.65664063,8.75105469 1.27375,8.92582031 0.946484375,9.223125 C0.619296875,9.52054687 0.403671875,9.88855469 0.29953125,10.3271875 C0.10625,11.1898047 0.0095703125,12.4908984 0.0095703125,14.2307422 C0.0095703125,16.0002344 0.10625,17.3014453 0.29953125,18.1342578 C0.396328125,18.5727344 0.610117188,18.9410156 0.940976563,19.2382031 C1.27183594,19.535625 1.65289063,19.7066016 2.0840625,19.75125 C3.45226563,19.9073828 5.51558594,19.9854687 8.27394531,19.9854687 C11.0321094,19.9854687 13.0958203,19.9073828 14.4635156,19.75125 C14.8948828,19.7066016 15.2739844,19.535625 15.60125,19.2382031 C15.9284766,18.9410547 16.1441016,18.5727344 16.248125,18.1342578 C16.4414062,17.2716406 16.5382031,15.9705469 16.5382031,14.2307422 C16.5381641,12.4612109 16.4413672,11.1599609 16.2482031,10.3271875 Z M4.72753906,11.4538281 L3.53421875,11.4538281 L3.53421875,17.7995313 L2.41902344,17.7995313 L2.41902344,11.4538281 L1.24792969,11.4538281 L1.24792969,10.4055078 L4.72757812,10.4055078 L4.72757812,11.4538281 L4.72753906,11.4538281 Z M7.73867187,17.7995313 L6.74609375,17.7995313 L6.74609375,17.1971484 C6.34460937,17.6508594 5.96527344,17.8775781 5.60839844,17.8775781 C5.26644531,17.8775781 5.05078125,17.7399219 4.96167969,17.4649219 C4.90226562,17.2864844 4.87238281,17.0149609 4.87238281,16.6507031 L4.87238281,12.2901172 L5.86496094,12.2901172 L5.86496094,16.3496484 C5.86496094,16.5874609 5.86871094,16.7176563 5.87621094,16.74 C5.89851562,16.8961328 5.97652344,16.9741797 6.11042969,16.9741797 C6.31113281,16.9741797 6.52316406,16.8180469 6.74613281,16.5057813 L6.74613281,12.2901172 L7.73871094,12.2901172 L7.73871094,17.7995313 L7.73867187,17.7995313 Z M11.5305859,16.1488672 C11.5305859,16.6916016 11.4971875,17.0635937 11.4305859,17.2644141 C11.3038672,17.6730859 11.0401172,17.8775781 10.6386719,17.8775781 C10.2817578,17.8775781 9.93609375,17.6730859 9.60132812,17.2644141 L9.60132812,17.7996484 L8.60890625,17.7996484 L8.60890625,10.4055078 L9.60132812,10.4055078 L9.60132812,12.825625 C9.92121094,12.4243359 10.2667969,12.2235547 10.6386719,12.2235547 C11.0401172,12.2235547 11.3038672,12.4317969 11.4305859,12.8480859 C11.4971484,13.0413672 11.5305859,13.409375 11.5305859,13.9521484 L11.5305859,16.1488672 Z M15.3001953,15.2344922 L13.3039453,15.2344922 L13.3039453,16.2047656 C13.3039453,16.7178125 13.4748047,16.9741797 13.816875,16.9741797 C14.0621484,16.9741797 14.2109766,16.8405078 14.2629687,16.5726172 C14.2776562,16.4983203 14.2852734,16.2716016 14.2852734,15.8924609 L15.3001562,15.8924609 L15.3001562,16.0373828 C15.3001562,16.4017969 15.2925391,16.6173047 15.2778125,16.684375 C15.2556641,16.8848828 15.1778125,17.0856641 15.0436328,17.2864453 C14.7759766,17.6805469 14.3741406,17.8775781 13.8389062,17.8775781 C13.3261328,17.8775781 12.9245703,17.6879297 12.6344922,17.3089062 C12.4189844,17.0337891 12.31125,16.6025391 12.31125,16.0151563 L12.31125,14.085625 C12.31125,13.4982813 12.4152344,13.0670312 12.6232422,12.7919141 C12.9133594,12.4128125 13.3111328,12.2232422 13.816875,12.2232422 C14.3151172,12.2232422 14.7094531,12.4128125 14.9990234,12.7919141 C15.2000391,13.0670312 15.3001953,13.4982812 15.3001953,14.085625 L15.3001953,15.2344922 L15.3001953,15.2344922 Z" id="Shape"></path>
                        <path d="M10.1028906,13.1266797 C9.93179687,13.1266797 9.7646875,13.20875 9.60105469,13.3721094 L9.60105469,16.7289062 C9.76464844,16.8924219 9.93179687,16.9741797 10.1028906,16.9741797 C10.3926953,16.9741797 10.5380469,16.7252734 10.5380469,16.2269141 L10.5380469,13.8739453 C10.5380078,13.3757031 10.3930078,13.1266797 10.1028906,13.1266797 Z" id="Path"></path>
                        <path d="M13.8057812,13.1266797 C13.4712109,13.1266797 13.3039453,13.3796094 13.3039453,13.8848828 L13.3039453,14.3979297 L14.3075781,14.3979297 L14.3075781,13.8848828 C14.3075781,13.3793359 14.1402344,13.1266797 13.8057812,13.1266797 Z" id="Path"></path>
                        <path d="M4.08097656,4.44988281 L4.08097656,7.47234375 L5.19617188,7.47234375 L5.19617188,4.44988281 L6.54542969,0 L5.40789062,0 L4.6496875,2.93316406 L3.85777344,0 L2.67566406,0 C2.88386719,0.624609375 3.12550781,1.31972656 3.400625,2.08558594 C3.75011719,3.1115625 3.97675781,3.89980469 4.08097656,4.44988281 Z" id="Path"></path>
                        <path d="M8.03984375,7.55042969 C8.55289062,7.55042969 8.94683594,7.36082031 9.22195312,6.98164062 C9.43023437,6.70652344 9.53421875,6.2678125 9.53421875,5.66566406 L9.53421875,3.71386719 C9.53421875,3.11914062 9.42996094,2.6840625 9.22195312,2.40894531 C8.94683594,2.02976563 8.55289062,1.84015625 8.03984375,1.84015625 C7.5415625,1.84015625 7.15117187,2.02976563 6.86875,2.40894531 C6.66066406,2.6840625 6.5565625,3.11914062 6.5565625,3.71386719 L6.5565625,5.665625 C6.5565625,6.26035156 6.66054688,6.69910156 6.86875,6.98160156 C7.15128906,7.36082031 7.54152344,7.55042969 8.03984375,7.55042969 Z M7.56019531,3.51308594 C7.56019531,3.00003906 7.72007812,2.74351563 8.03984375,2.74351563 C8.35960937,2.74351563 8.51933594,3.00003906 8.51933594,3.51308594 L8.51933594,5.85507812 C8.51933594,6.37570312 8.35960937,6.63574219 8.03984375,6.63574219 C7.72007812,6.63574219 7.56019531,6.37554687 7.56019531,5.85507812 L7.56019531,3.51308594 L7.56019531,3.51308594 Z" id="Shape"></path>
                        <path d="M11.1065625,7.55042969 C11.4785547,7.55042969 11.8615625,7.31992187 12.2555078,6.85882813 L12.2555078,7.47222656 L13.2703906,7.47222656 L13.2703906,1.90710938 L12.2555078,1.90710938 L12.2555078,6.15621094 C12.0323828,6.47597656 11.820625,6.63570312 11.6196094,6.63570312 C11.4856641,6.63570312 11.4075781,6.55394531 11.3853906,6.39039062 C11.3779297,6.37550781 11.3741797,6.24527344 11.3741797,6 L11.3741797,1.90710938 L10.3592969,1.90710938 L10.3592969,6.30132813 C10.3592969,6.68042969 10.3892578,6.95914063 10.4485938,7.13769531 C10.5453516,7.4128125 10.7646094,7.55042969 11.1065625,7.55042969 Z" id="Path"></path>
                    </g>
                </g>
            </g>
        </g>
    </g>
</svg>