<svg width="42" height="42" viewBox="0 0 42 42" fill="none" xmlns="http://www.w3.org/2000/svg">
<rect width="42" height="42" rx="6.63158" fill="#F5F8FC"/>
<path d="M31.6831 13.6686C31.6831 13.6204 31.678 13.5748 31.6677 13.5266C31.6651 13.5165 31.6651 13.5038 31.6625 13.4936C31.6522 13.4454 31.6367 13.3972 31.6161 13.3516C31.611 13.3389 31.6058 13.3288 31.6007 13.3186C31.5929 13.3009 31.5852 13.2806 31.5749 13.2628C31.2218 12.6237 31.0362 11.9009 31.0362 11.1679C31.0362 10.4349 31.2218 9.71209 31.5749 9.07296C31.7269 8.79651 31.7192 8.46426 31.5568 8.19541C31.3945 7.92657 31.1006 7.76172 30.781 7.76172H12.3706C10.4608 7.76172 8.90918 9.29107 8.90918 11.1679V30.7578C8.90918 32.3962 10.0922 33.7683 11.6618 34.093V36.3477C11.6618 36.8372 12.0665 37.2354 12.5639 37.2354C13.0614 37.2354 13.466 36.8372 13.466 36.3477V34.1665H30.781C31.2785 34.1665 31.6831 33.7683 31.6831 33.2788V13.6889C31.6857 13.6788 31.6831 13.6737 31.6831 13.6686ZM12.3732 9.53202H29.4563C29.3093 10.0621 29.232 10.6125 29.232 11.1654C29.232 11.7183 29.3068 12.2661 29.4563 12.7962H12.3732C11.4582 12.7962 10.7159 12.0632 10.7159 11.1654C10.7134 10.265 11.4582 9.53202 12.3732 9.53202ZM12.3732 32.3861C11.4582 32.3861 10.7159 31.6531 10.7159 30.7553V14.153C11.2082 14.4193 11.7727 14.5715 12.3732 14.5715H29.8815V32.3861H12.3732Z" fill="#424242"/>
<mask id="path-3-inside-1_1113_12661" fill="white">
<path d="M25.5076 17.0352H15.0872C14.5897 17.0352 14.1851 17.4333 14.1851 17.9228C14.1851 18.4123 14.5897 18.8105 15.0872 18.8105H25.5076C26.005 18.8105 26.4097 18.4123 26.4097 17.9228C26.4097 17.4333 26.005 17.0352 25.5076 17.0352Z"/>
</mask>
<path d="M25.5076 17.0352H15.0872C14.5897 17.0352 14.1851 17.4333 14.1851 17.9228C14.1851 18.4123 14.5897 18.8105 15.0872 18.8105H25.5076C26.005 18.8105 26.4097 18.4123 26.4097 17.9228C26.4097 17.4333 26.005 17.0352 25.5076 17.0352Z" fill="#2F69FF"/>
<path d="M25.5076 15.0352H15.0872V19.0352H25.5076V15.0352ZM15.0872 15.0352C13.5156 15.0352 12.1851 16.2985 12.1851 17.9228H16.1851C16.1851 18.5682 15.6638 19.0352 15.0872 19.0352V15.0352ZM12.1851 17.9228C12.1851 19.5471 13.5156 20.8105 15.0872 20.8105V16.8105C15.6638 16.8105 16.1851 17.2775 16.1851 17.9228H12.1851ZM15.0872 20.8105H25.5076V16.8105H15.0872V20.8105ZM25.5076 20.8105C27.0791 20.8105 28.4097 19.5471 28.4097 17.9228H24.4097C24.4097 17.2775 24.9309 16.8105 25.5076 16.8105V20.8105ZM28.4097 17.9228C28.4097 16.2985 27.0791 15.0352 25.5076 15.0352V19.0352C24.9309 19.0352 24.4097 18.5682 24.4097 17.9228H28.4097Z" fill="#2F69FF" mask="url(#path-3-inside-1_1113_12661)"/>
</svg>
