<svg width="42" height="42" viewBox="0 0 42 42" fill="none" xmlns="http://www.w3.org/2000/svg">
<rect width="42" height="42" rx="6" fill="#F5F8FC"/>
<mask id="path-2-outside-1_1113_12669" maskUnits="userSpaceOnUse" x="6" y="6" width="30" height="30" fill="black">
<rect fill="white" x="6" y="6" width="30" height="30"/>
<path fill-rule="evenodd" clip-rule="evenodd" d="M31.348 28.87C33.012 26.6854 34 23.9581 34 21C34 13.8203 28.1797 8 21 8C13.8203 8 8 13.8203 8 21C8 28.1797 13.8203 34 21 34C23.9581 34 26.6854 33.012 28.87 31.348L31.9168 32.5667C32.3249 32.73 32.73 32.3249 32.5667 31.9168L31.348 28.87Z"/>
</mask>
<path d="M31.348 28.87L29.757 27.6581C29.3308 28.2176 29.2299 28.9598 29.491 29.6128L31.348 28.87ZM28.87 31.348L29.6128 29.491C28.9598 29.2299 28.2176 29.3308 27.6581 29.757L28.87 31.348ZM31.9168 32.5667L31.174 34.4237L31.174 34.4237L31.9168 32.5667ZM32.5667 31.9168L34.4237 31.174L34.4237 31.174L32.5667 31.9168ZM32 21C32 23.5052 31.1649 25.8097 29.757 27.6581L32.939 30.0819C34.8591 27.5611 36 24.411 36 21H32ZM21 10C27.0751 10 32 14.9249 32 21H36C36 12.7157 29.2843 6 21 6V10ZM10 21C10 14.9249 14.9249 10 21 10V6C12.7157 6 6 12.7157 6 21H10ZM21 32C14.9249 32 10 27.0751 10 21H6C6 29.2843 12.7157 36 21 36V32ZM27.6581 29.757C25.8097 31.1649 23.5052 32 21 32V36C24.411 36 27.5611 34.8591 30.0819 32.939L27.6581 29.757ZM32.6596 30.7098L29.6128 29.491L28.1272 33.205L31.174 34.4237L32.6596 30.7098ZM30.7098 32.6596C30.22 31.4351 31.4351 30.22 32.6596 30.7098L31.174 34.4237C33.2148 35.24 35.24 33.2148 34.4237 31.174L30.7098 32.6596ZM29.491 29.6128L30.7098 32.6596L34.4237 31.174L33.205 28.1272L29.491 29.6128Z" fill="#424242" mask="url(#path-2-outside-1_1113_12669)"/>
<path d="M13 26L14.8409 21.5M22 26L20.1591 21.5M14.8409 21.5L17.5 15L20.1591 21.5M14.8409 21.5H20.1591" stroke="#2F69FF" stroke-width="2" stroke-linecap="round" stroke-linejoin="round"/>
<path d="M24.9178 23.5927C26.1902 21.5185 27.5454 21.6362 28.0639 21.9543C28.4096 22.1664 29.2013 23.0088 28.0879 24.8237C26.4974 27.4165 23.6454 25.6669 24.9178 23.5927Z" stroke="#2F69FF" stroke-width="2" stroke-linecap="round" stroke-linejoin="round"/>
<path d="M28.6665 22.793L29.9998 26.1263" stroke="#2F69FF" stroke-width="2" stroke-linecap="round" stroke-linejoin="round"/>
</svg>
