<svg width="180" height="180" viewBox="0 0 180 180" fill="none" xmlns="http://www.w3.org/2000/svg">
<path d="M150.869 20H102.174C98.8121 20 96.0869 22.7252 96.0869 26.0869V50.4344C96.0869 53.7961 98.8121 56.5213 102.174 56.5213H150.869C154.231 56.5213 156.956 53.7961 156.956 50.4344V26.0869C156.956 22.7252 154.231 20 150.869 20Z" stroke="black" stroke-width="2" stroke-linejoin="round"/>
<path d="M114.349 41.3066C117.71 41.3066 120.435 38.5814 120.435 35.2197C120.435 31.858 117.71 29.1328 114.349 29.1328C110.987 29.1328 108.262 31.858 108.262 35.2197C108.262 38.5814 110.987 41.3066 114.349 41.3066Z" stroke="black" stroke-width="2" stroke-linejoin="round"/>
<path d="M138.696 41.3066C142.058 41.3066 144.783 38.5814 144.783 35.2197C144.783 31.858 142.058 29.1328 138.696 29.1328C135.335 29.1328 132.609 31.858 132.609 35.2197C132.609 38.5814 135.335 41.3066 138.696 41.3066Z" stroke="black" stroke-width="2" stroke-linejoin="round"/>
<path d="M120.436 56.5205V50.4336H132.609V56.5205" stroke="black" stroke-width="2" stroke-linejoin="round"/>
<path d="M126.522 56.5195V65.6499" stroke="black" stroke-width="2" stroke-linejoin="round"/>
<path d="M150.871 65.6523H108.263C106.648 65.6523 105.1 66.2936 103.959 67.4352C102.817 68.5767 102.176 70.1249 102.176 71.7392V96.0867" stroke="black" stroke-width="2" stroke-linejoin="round"/>
<path d="M150.871 83.913C155.913 83.913 160.001 79.8252 160.001 74.7827C160.001 69.7401 155.913 65.6523 150.871 65.6523C145.828 65.6523 141.74 69.7401 141.74 74.7827C141.74 79.8252 145.828 83.913 150.871 83.913Z" stroke="black" stroke-width="2" stroke-linejoin="round"/>
<path d="M120.435 114.343C125.478 114.343 129.565 110.255 129.565 105.212C129.565 100.17 125.478 96.082 120.435 96.082C115.392 96.082 111.305 100.17 111.305 105.212C111.305 110.255 115.392 114.343 120.435 114.343Z" stroke="black" stroke-width="2" stroke-linejoin="round"/>
<path d="M129.565 108.262H150.87V83.9141L129.565 105.218" stroke="black" stroke-width="2" stroke-linejoin="round"/>
<path d="M120.435 114.35H90.001V96.0892H120.435L141.739 74.7852" stroke="black" stroke-width="2" stroke-linejoin="round"/>
<path d="M90.0008 111.299H64.1316C62.9208 111.299 61.7596 110.818 60.9035 109.962C60.0474 109.106 59.5664 107.945 59.5664 106.734V106.734C59.5664 105.523 60.0474 104.362 60.9035 103.506C61.7596 102.65 62.9208 102.169 64.1316 102.169H77.827V96.082H90.0008" stroke="black" stroke-width="2" stroke-linejoin="round"/>
<path d="M102.175 159.999C107.218 159.999 111.306 155.911 111.306 150.869C111.306 145.826 107.218 141.738 102.175 141.738C97.1327 141.738 93.0449 145.826 93.0449 150.869C93.0449 155.911 97.1327 159.999 102.175 159.999Z" stroke="black" stroke-width="2" stroke-linejoin="round"/>
<path d="M29.1323 160C27.3268 159.999 25.5619 159.464 24.0608 158.46C22.5597 157.457 21.3897 156.031 20.6988 154.363C20.0079 152.695 19.8271 150.86 20.1792 149.089C20.5314 147.318 21.4006 145.691 22.6771 144.414L77.8273 111.305" stroke="black" stroke-width="2" stroke-linejoin="round"/>
<path d="M26.0889 141.74H102.175L150.87 108.262H160V160H102.175H29.1323" stroke="black" stroke-width="2" stroke-linejoin="round"/>
<path d="M147.827 150.868V144.781" stroke="black" stroke-width="2" stroke-linejoin="round"/>
<path d="M147.827 138.692V132.605" stroke="black" stroke-width="2" stroke-linejoin="round"/>
<path d="M135.653 150.868V144.781" stroke="black" stroke-width="2" stroke-linejoin="round"/>
<path d="M123.479 126.52H53.4795" stroke="black" stroke-width="2" stroke-linejoin="round"/>
</svg>
