<svg width="180" height="180" viewBox="0 0 180 180" fill="none" xmlns="http://www.w3.org/2000/svg">
<path d="M120.615 22H60.6679C56.927 22 53.3393 23.4861 50.694 26.1313C48.0488 28.7766 46.5627 32.3643 46.5627 36.1053V106.632L25.4048 127.789H46.5627V141.895C46.5627 145.636 48.0488 149.223 50.694 151.869C53.3393 154.514 56.927 156 60.6679 156H120.615C124.356 156 127.944 154.514 130.589 151.869C133.234 149.223 134.721 145.636 134.721 141.895V36.1053C134.721 32.3643 133.234 28.7766 130.589 26.1313C127.944 23.4861 124.356 22 120.615 22Z" stroke="black" stroke-width="2" stroke-linejoin="round"/>
<path d="M102.984 39.6328H81.8261C77.931 39.6328 74.7734 42.7904 74.7734 46.6854C74.7734 50.5805 77.931 53.7381 81.8261 53.7381H102.984C106.879 53.7381 110.037 50.5805 110.037 46.6854C110.037 42.7904 106.879 39.6328 102.984 39.6328Z" stroke="#2F69FF" stroke-width="2" stroke-linejoin="round"/>
<path d="M110.037 67.8438H74.7734V81.949H110.037V67.8438Z" stroke="#2F69FF" stroke-width="2" stroke-linejoin="round"/>
<path d="M102.984 96.0508H81.8261C77.931 96.0508 74.7734 99.2084 74.7734 103.103C74.7734 106.998 77.931 110.156 81.8261 110.156H102.984C106.879 110.156 110.037 106.998 110.037 103.103C110.037 99.2084 106.879 96.0508 102.984 96.0508Z" stroke="#2F69FF" stroke-width="2" stroke-linejoin="round"/>
<path d="M110.037 124.262H74.7734V138.367H110.037V124.262Z" stroke="#2F69FF" stroke-width="2" stroke-linejoin="round"/>
<path d="M92.4053 124.262V110.156" stroke="black" stroke-width="2" stroke-linejoin="round"/>
<path d="M92.4053 96.0545V81.9492" stroke="black" stroke-width="2" stroke-linejoin="round"/>
<path d="M92.4053 67.8435V53.7383" stroke="black" stroke-width="2" stroke-linejoin="round"/>
<path d="M74.7737 103.105H67.7211C65.8506 103.105 64.0568 102.362 62.7341 101.039C61.4115 99.7164 60.6685 97.9225 60.6685 96.052V53.7362C60.6685 51.8658 61.4115 50.0719 62.7341 48.7493C64.0568 47.4266 65.8506 46.6836 67.7211 46.6836H74.7737" stroke="black" stroke-width="2" stroke-linejoin="round"/>
<path d="M110.036 131.316H113.562C115.433 131.316 117.227 130.573 118.549 129.25C119.872 127.928 120.615 126.134 120.615 124.263V110.158C120.615 108.288 119.872 106.494 118.549 105.171C117.227 103.849 115.433 103.105 113.562 103.105H110.036" stroke="black" stroke-width="2" stroke-linejoin="round"/>
</svg>
