<svg width="180" height="180" viewBox="0 0 180 180" fill="none" xmlns="http://www.w3.org/2000/svg">
<rect width="180" height="180" fill="white"/>
<path d="M143.833 30.9961H35.1663C27.6645 30.9961 21.583 37.0776 21.583 44.5794V112.496C21.583 119.998 27.6645 126.079 35.1663 126.079H143.833C151.335 126.079 157.416 119.998 157.416 112.496V44.5794C157.416 37.0776 151.335 30.9961 143.833 30.9961Z" stroke="black" stroke-width="2" stroke-linecap="round" stroke-linejoin="round"/>
<path d="M63 154H117.333" stroke="black" stroke-width="2" stroke-linecap="round" stroke-linejoin="round"/>
<path d="M21.7363 107.152L157.264 107.152" stroke="black" stroke-width="2" stroke-linecap="round" stroke-linejoin="round"/>
<path d="M25.3984 23.7344L38.9492 23.7344L52.5 23.7344" stroke="black" stroke-width="2" stroke-linecap="round" stroke-linejoin="round"/>
<path d="M106.479 126.457V153.624" stroke="black" stroke-width="2" stroke-linecap="round" stroke-linejoin="round"/>
<path d="M73.6523 126.457V153.624" stroke="black" stroke-width="2" stroke-linecap="round" stroke-linejoin="round"/>
<path d="M71.1468 76.4284C74.4289 76.4284 77.0895 73.7677 77.0895 70.4857C77.0895 67.2036 74.4289 64.543 71.1468 64.543C67.8647 64.543 65.2041 67.2036 65.2041 70.4857C65.2041 73.7677 67.8647 76.4284 71.1468 76.4284Z" stroke="#2F69FF" stroke-width="2" stroke-linecap="round" stroke-linejoin="round"/>
<path d="M85.806 76.4279C85.5423 77.0254 85.4637 77.6882 85.5802 78.3308C85.6967 78.9734 86.0031 79.5663 86.4597 80.0332L86.5786 80.152C86.9469 80.52 87.2392 80.9569 87.4385 81.4379C87.6379 81.9188 87.7405 82.4344 87.7405 82.955C87.7405 83.4757 87.6379 83.9912 87.4385 84.4721C87.2392 84.9531 86.9469 85.39 86.5786 85.758C86.2106 86.1263 85.7737 86.4186 85.2927 86.6179C84.8118 86.8173 84.2962 86.9199 83.7756 86.9199C83.255 86.9199 82.7394 86.8173 82.2585 86.6179C81.7775 86.4186 81.3406 86.1263 80.9726 85.758L80.8538 85.6391C80.3869 85.1825 79.794 84.8761 79.1514 84.7596C78.5088 84.6431 77.846 84.7217 77.2485 84.9854C76.6626 85.2365 76.163 85.6535 75.811 86.1849C75.459 86.7164 75.2702 87.3392 75.2676 87.9766V88.3134C75.2676 89.3641 74.8502 90.3718 74.1072 91.1148C73.3643 91.8578 72.3566 92.2752 71.3058 92.2752C70.2551 92.2752 69.2474 91.8578 68.5044 91.1148C67.7614 90.3718 67.344 89.3641 67.344 88.3134V88.1351C67.3287 87.4794 67.1164 86.8435 66.7349 86.3101C66.3534 85.7766 65.8202 85.3703 65.2046 85.1439C64.6072 84.8802 63.9444 84.8016 63.3018 84.9181C62.6592 85.0346 62.0663 85.3409 61.5994 85.7976L61.4805 85.9165C61.1126 86.2848 60.6757 86.577 60.1947 86.7764C59.7137 86.9758 59.1982 87.0784 58.6776 87.0784C58.1569 87.0784 57.6414 86.9758 57.1604 86.7764C56.6795 86.577 56.2425 86.2848 55.8746 85.9165C55.5062 85.5485 55.214 85.1116 55.0146 84.6306C54.8153 84.1497 54.7126 83.6341 54.7126 83.1135C54.7126 82.5928 54.8153 82.0773 55.0146 81.5964C55.214 81.1154 55.5062 80.6785 55.8746 80.3105L55.9934 80.1917C56.4501 79.7248 56.7565 79.1318 56.873 78.4892C56.9895 77.8467 56.9108 77.1839 56.6471 76.5864C56.396 76.0005 55.9791 75.5008 55.4476 75.1489C54.9162 74.7969 54.2934 74.6081 53.656 74.6055H53.3192C52.2685 74.6055 51.2608 74.1881 50.5178 73.4451C49.7748 72.7021 49.3574 71.6944 49.3574 70.6437C49.3574 69.593 49.7748 68.5853 50.5178 67.8423C51.2608 67.0993 52.2685 66.6819 53.3192 66.6819H53.4975C54.1532 66.6666 54.7891 66.4543 55.3225 66.0728C55.856 65.6913 56.2623 65.1581 56.4887 64.5425C56.7524 63.9451 56.831 63.2823 56.7145 62.6397C56.598 61.9971 56.2916 61.4041 55.835 60.9373L55.7161 60.8184C55.3478 60.4505 55.0555 60.0135 54.8562 59.5326C54.6568 59.0516 54.5542 58.5361 54.5542 58.0155C54.5542 57.4948 54.6568 56.9793 54.8562 56.4983C55.0555 56.0174 55.3478 55.5804 55.7161 55.2125C56.0841 54.8441 56.521 54.5519 57.002 54.3525C57.4829 54.1532 57.9985 54.0505 58.5191 54.0505C59.0397 54.0505 59.5553 54.1532 60.0362 54.3525C60.5172 54.5519 60.9541 54.8441 61.3221 55.2125L61.4409 55.3313C61.9078 55.788 62.5007 56.0943 63.1433 56.2109C63.7859 56.3274 64.4487 56.2487 65.0462 55.985H65.2046C65.7905 55.7339 66.2902 55.317 66.6422 54.7855C66.9941 54.2541 67.183 53.6313 67.1855 52.9939V52.6571C67.1855 51.6064 67.6029 50.5987 68.3459 49.8557C69.0889 49.1127 70.0966 48.6953 71.1473 48.6953C72.1981 48.6953 73.2058 49.1127 73.9488 49.8557C74.6918 50.5987 75.1092 51.6064 75.1092 52.6571V52.8354C75.1117 53.4728 75.3006 54.0956 75.6525 54.6271C76.0045 55.1585 76.5042 55.5755 77.0901 55.8266C77.6875 56.0902 78.3503 56.1689 78.9929 56.0524C79.6355 55.9359 80.2284 55.6295 80.6953 55.1729L80.8142 55.054C81.1821 54.6857 81.619 54.3934 82.1 54.1941C82.581 53.9947 83.0965 53.8921 83.6171 53.8921C84.1378 53.8921 84.6533 53.9947 85.1343 54.1941C85.6152 54.3934 86.0522 54.6857 86.4201 55.054C86.7885 55.422 87.0807 55.8589 87.2801 56.3399C87.4794 56.8208 87.5821 57.3363 87.5821 57.857C87.5821 58.3776 87.4794 58.8932 87.2801 59.3741C87.0807 59.8551 86.7885 60.292 86.4201 60.66L86.3013 60.7788C85.8446 61.2457 85.5382 61.8386 85.4217 62.4812C85.3052 63.1238 85.3839 63.7866 85.6476 64.3841V64.5425C85.8987 65.1284 86.3156 65.6281 86.8471 65.9801C87.3785 66.332 88.0013 66.5209 88.6387 66.5234H88.9755C90.0262 66.5234 91.0339 66.9408 91.7769 67.6838C92.5199 68.4268 92.9373 69.4345 92.9373 70.4852C92.9373 71.536 92.5199 72.5437 91.7769 73.2867C91.0339 74.0296 90.0262 74.447 88.9755 74.447H88.7972C88.1598 74.4496 87.537 74.6385 87.0055 74.9904C86.4741 75.3424 86.0571 75.8421 85.806 76.4279V76.4279Z" stroke="#2F69FF" stroke-width="2" stroke-linecap="round" stroke-linejoin="round"/>
<g clip-path="url(#clip0_1252_2956)">
<path d="M108.272 85.9741C109.979 85.9741 111.363 84.5904 111.363 82.8836C111.363 81.1767 109.979 79.793 108.272 79.793C106.565 79.793 105.182 81.1767 105.182 82.8836C105.182 84.5904 106.565 85.9741 108.272 85.9741Z" stroke="#2F69FF" stroke-width="2" stroke-linecap="round" stroke-linejoin="round"/>
<path d="M115.896 85.9774C115.759 86.2882 115.718 86.6328 115.779 86.967C115.839 87.3012 115.999 87.6096 116.236 87.8524L116.298 87.9142C116.489 88.1056 116.641 88.3328 116.745 88.5829C116.849 88.8331 116.902 89.1012 116.902 89.3719C116.902 89.6427 116.849 89.9108 116.745 90.1609C116.641 90.4111 116.489 90.6383 116.298 90.8297C116.106 91.0212 115.879 91.1732 115.629 91.2769C115.379 91.3806 115.111 91.4339 114.84 91.4339C114.569 91.4339 114.301 91.3806 114.051 91.2769C113.801 91.1732 113.574 91.0212 113.382 90.8297L113.321 90.7679C113.078 90.5304 112.769 90.371 112.435 90.3104C112.101 90.2498 111.756 90.2908 111.446 90.4279C111.141 90.5585 110.881 90.7753 110.698 91.0517C110.515 91.3281 110.417 91.652 110.415 91.9835V92.1586C110.415 92.7051 110.198 93.2291 109.812 93.6155C109.426 94.0019 108.901 94.219 108.355 94.219C107.809 94.219 107.284 94.0019 106.898 93.6155C106.512 93.2291 106.295 92.7051 106.295 92.1586V92.0659C106.287 91.7249 106.176 91.3942 105.978 91.1168C105.779 90.8394 105.502 90.628 105.182 90.5103C104.871 90.3732 104.527 90.3323 104.192 90.3929C103.858 90.4534 103.55 90.6128 103.307 90.8503L103.245 90.9121C103.054 91.1036 102.827 91.2556 102.577 91.3593C102.326 91.463 102.058 91.5164 101.788 91.5164C101.517 91.5164 101.249 91.463 100.998 91.3593C100.748 91.2556 100.521 91.1036 100.33 90.9121C100.138 90.7207 99.9862 90.4935 99.8825 90.2434C99.7789 89.9932 99.7255 89.7251 99.7255 89.4544C99.7255 89.1836 99.7789 88.9155 99.8825 88.6653C99.9862 88.4152 100.138 88.188 100.33 87.9966L100.392 87.9348C100.629 87.692 100.788 87.3836 100.849 87.0494C100.91 86.7153 100.869 86.3706 100.732 86.0599C100.601 85.7552 100.384 85.4953 100.108 85.3122C99.8313 85.1292 99.5075 85.031 99.176 85.0297H99.0008C98.4544 85.0297 97.9303 84.8126 97.5439 84.4262C97.1575 84.0398 96.9404 83.5157 96.9404 82.9693C96.9404 82.4228 97.1575 81.8987 97.5439 81.5123C97.9303 81.1259 98.4544 80.9089 99.0008 80.9089H99.0935C99.4345 80.9009 99.7652 80.7905 100.043 80.5921C100.32 80.3937 100.531 80.1164 100.649 79.7963C100.786 79.4855 100.827 79.1409 100.767 78.8067C100.706 78.4725 100.547 78.1641 100.309 77.9213L100.247 77.8595C100.056 77.6681 99.9038 77.4409 99.8001 77.1908C99.6964 76.9406 99.6431 76.6725 99.6431 76.4018C99.6431 76.131 99.6964 75.8629 99.8001 75.6128C99.9038 75.3626 100.056 75.1354 100.247 74.944C100.439 74.7525 100.666 74.6005 100.916 74.4968C101.166 74.3931 101.434 74.3397 101.705 74.3397C101.976 74.3397 102.244 74.3931 102.494 74.4968C102.744 74.6005 102.971 74.7525 103.163 74.944L103.225 75.0058C103.467 75.2433 103.776 75.4027 104.11 75.4633C104.444 75.5239 104.789 75.4829 105.1 75.3458H105.182C105.487 75.2152 105.747 74.9984 105.93 74.722C106.113 74.4456 106.211 74.1217 106.212 73.7902V73.6151C106.212 73.0686 106.429 72.5446 106.816 72.1582C107.202 71.7718 107.726 71.5547 108.273 71.5547C108.819 71.5547 109.343 71.7718 109.73 72.1582C110.116 72.5446 110.333 73.0686 110.333 73.6151V73.7078C110.334 74.0393 110.433 74.3632 110.616 74.6396C110.799 74.916 111.058 75.1328 111.363 75.2634C111.674 75.4005 112.019 75.4414 112.353 75.3808C112.687 75.3202 112.995 75.1609 113.238 74.9234L113.3 74.8616C113.491 74.6701 113.719 74.5181 113.969 74.4144C114.219 74.3107 114.487 74.2573 114.758 74.2573C115.028 74.2573 115.297 74.3107 115.547 74.4144C115.797 74.5181 116.024 74.6701 116.215 74.8616C116.407 75.053 116.559 75.2802 116.663 75.5303C116.766 75.7805 116.82 76.0486 116.82 76.3193C116.82 76.5901 116.766 76.8582 116.663 77.1084C116.559 77.3585 116.407 77.5857 116.215 77.7771L116.154 77.8389C115.916 78.0817 115.757 78.3901 115.696 78.7242C115.636 79.0584 115.676 79.4031 115.814 79.7138V79.7963C115.944 80.101 116.161 80.3608 116.437 80.5439C116.714 80.7269 117.038 80.8251 117.369 80.8265H117.544C118.091 80.8265 118.615 81.0435 119.001 81.4299C119.388 81.8163 119.605 82.3404 119.605 82.8868C119.605 83.4333 119.388 83.9574 119.001 84.3438C118.615 84.7302 118.091 84.9472 117.544 84.9472H117.452C117.12 84.9486 116.796 85.0468 116.52 85.2298C116.243 85.4129 116.027 85.6727 115.896 85.9774V85.9774Z" stroke="#2F69FF" stroke-width="2" stroke-linecap="round" stroke-linejoin="round"/>
</g>
<g clip-path="url(#clip1_1252_2956)">
<path d="M102.778 60.1028C103.853 60.1028 104.724 59.2316 104.724 58.1569C104.724 57.0822 103.853 56.2109 102.778 56.2109C101.703 56.2109 100.832 57.0822 100.832 58.1569C100.832 59.2316 101.703 60.1028 102.778 60.1028Z" stroke="#2F69FF" stroke-width="2" stroke-linecap="round" stroke-linejoin="round"/>
<path d="M107.578 60.1044C107.491 60.3001 107.465 60.5171 107.504 60.7275C107.542 60.9379 107.642 61.1321 107.792 61.285L107.831 61.3239C107.951 61.4444 108.047 61.5874 108.112 61.7449C108.177 61.9024 108.211 62.0712 108.211 62.2417C108.211 62.4122 108.177 62.581 108.112 62.7385C108.047 62.896 107.951 63.0391 107.831 63.1595C107.71 63.2802 107.567 63.3758 107.41 63.4411C107.252 63.5064 107.083 63.54 106.913 63.54C106.742 63.54 106.573 63.5064 106.416 63.4411C106.258 63.3758 106.115 63.2802 105.995 63.1595L105.956 63.1206C105.803 62.9711 105.609 62.8708 105.399 62.8326C105.188 62.7945 104.971 62.8202 104.775 62.9066C104.584 62.9888 104.42 63.1253 104.305 63.2993C104.19 63.4734 104.128 63.6773 104.127 63.886V63.9963C104.127 64.3403 103.99 64.6703 103.747 64.9136C103.504 65.1569 103.174 65.2936 102.83 65.2936C102.485 65.2936 102.156 65.1569 101.912 64.9136C101.669 64.6703 101.532 64.3403 101.532 63.9963V63.9379C101.527 63.7232 101.458 63.515 101.333 63.3403C101.208 63.1656 101.033 63.0326 100.832 62.9585C100.636 62.8721 100.419 62.8464 100.209 62.8845C99.9982 62.9227 99.8041 63.023 99.6512 63.1725L99.6123 63.2114C99.4918 63.332 99.3487 63.4277 99.1912 63.493C99.0337 63.5583 98.8649 63.5919 98.6944 63.5919C98.524 63.5919 98.3551 63.5583 98.1977 63.493C98.0402 63.4277 97.8971 63.332 97.7766 63.2114C97.656 63.0909 97.5603 62.9479 97.495 62.7904C97.4297 62.6329 97.3961 62.4641 97.3961 62.2936C97.3961 62.1231 97.4297 61.9543 97.495 61.7968C97.5603 61.6393 97.656 61.4963 97.7766 61.3758L97.8155 61.3368C97.9651 61.184 98.0654 60.9898 98.1035 60.7794C98.1417 60.569 98.1159 60.352 98.0296 60.1563C97.9474 59.9645 97.8108 59.8009 97.6368 59.6856C97.4628 59.5704 97.2589 59.5085 97.0501 59.5077H96.9399C96.5958 59.5077 96.2658 59.371 96.0225 59.1277C95.7793 58.8844 95.6426 58.5545 95.6426 58.2104C95.6426 57.8663 95.7793 57.5364 96.0225 57.2931C96.2658 57.0498 96.5958 56.9131 96.9399 56.9131H96.9982C97.2129 56.9081 97.4212 56.8386 97.5958 56.7137C97.7705 56.5887 97.9036 56.4141 97.9777 56.2126C98.064 56.0169 98.0898 55.7999 98.0516 55.5895C98.0135 55.3791 97.9132 55.1849 97.7636 55.032L97.7247 54.9931C97.6041 54.8726 97.5084 54.7296 97.4431 54.5721C97.3778 54.4146 97.3442 54.2458 97.3442 54.0753C97.3442 53.9048 97.3778 53.736 97.4431 53.5785C97.5084 53.421 97.6041 53.278 97.7247 53.1575C97.8452 53.0369 97.9883 52.9412 98.1458 52.8759C98.3033 52.8106 98.4721 52.777 98.6425 52.777C98.813 52.777 98.9818 52.8106 99.1393 52.8759C99.2968 52.9412 99.4399 53.0369 99.5604 53.1575L99.5993 53.1964C99.7522 53.3459 99.9463 53.4462 100.157 53.4844C100.367 53.5225 100.584 53.4968 100.78 53.4104H100.832C101.024 53.3282 101.187 53.1917 101.302 53.0177C101.418 52.8436 101.48 52.6397 101.48 52.431V52.3207C101.48 51.9767 101.617 51.6467 101.86 51.4034C102.104 51.1601 102.434 51.0234 102.778 51.0234C103.122 51.0234 103.452 51.1601 103.695 51.4034C103.938 51.6467 104.075 51.9767 104.075 52.3207V52.3791C104.076 52.5878 104.138 52.7918 104.253 52.9658C104.368 53.1398 104.532 53.2763 104.724 53.3585C104.919 53.4449 105.136 53.4707 105.347 53.4325C105.557 53.3943 105.751 53.294 105.904 53.1445L105.943 53.1056C106.064 52.985 106.207 52.8893 106.364 52.824C106.522 52.7587 106.69 52.7251 106.861 52.7251C107.031 52.7251 107.2 52.7587 107.358 52.824C107.515 52.8893 107.658 52.985 107.779 53.1056C107.899 53.2261 107.995 53.3691 108.06 53.5266C108.126 53.6841 108.159 53.8529 108.159 54.0234C108.159 54.1939 108.126 54.3627 108.06 54.5202C107.995 54.6777 107.899 54.8208 107.779 54.9412L107.74 54.9802C107.59 55.133 107.49 55.3272 107.452 55.5376C107.414 55.748 107.439 55.965 107.526 56.1607V56.2126C107.608 56.4044 107.744 56.568 107.918 56.6833C108.093 56.7985 108.296 56.8604 108.505 56.8612H108.615C108.959 56.8612 109.289 56.9979 109.533 57.2412C109.776 57.4845 109.913 57.8144 109.913 58.1585C109.913 58.5026 109.776 58.8325 109.533 59.0758C109.289 59.3191 108.959 59.4558 108.615 59.4558H108.557C108.348 59.4566 108.144 59.5185 107.97 59.6337C107.796 59.749 107.66 59.9126 107.578 60.1044V60.1044Z" stroke="#2F69FF" stroke-width="2" stroke-linecap="round" stroke-linejoin="round"/>
</g>
<path d="M123.382 42.1367H147.191V65.9457" stroke="black" stroke-width="2" stroke-linejoin="round"/>
<path d="M164.674 91.5L164.674 118.14" stroke="black" stroke-width="2" stroke-linecap="round" stroke-linejoin="round"/>
<g clip-path="url(#clip2_1252_2956)">
<path d="M123.29 69.7617L134.979 89.8716L136.899 80.1852L145.75 75.8085L123.29 69.7617Z" stroke="black" stroke-width="2" stroke-linecap="round" stroke-linejoin="round"/>
<path d="M137.494 80.6406L146.017 87.1689" stroke="black" stroke-width="2" stroke-linecap="round" stroke-linejoin="round"/>
</g>
<defs>
<clipPath id="clip0_1252_2956">
<rect width="24.7247" height="24.7247" fill="white" transform="translate(95.9102 70.5234)"/>
</clipPath>
<clipPath id="clip1_1252_2956">
<rect width="15.5674" height="15.5674" fill="white" transform="translate(94.9941 50.375)"/>
</clipPath>
<clipPath id="clip2_1252_2956">
<rect width="30.3659" height="30.3659" fill="white" transform="translate(119.028 66.4961) rotate(-7.54949)"/>
</clipPath>
</defs>
</svg>
