<svg width="104" height="104" viewBox="0 0 104 104" fill="none" xmlns="http://www.w3.org/2000/svg">
<rect width="104" height="104" rx="20" fill="#F5F8FC"/>
<path d="M45.8636 74.9891C45.6588 74.9893 45.4564 74.944 45.2706 74.8566C45.0848 74.7691 44.9201 74.6415 44.788 74.4827L40.6753 69.525C40.5522 69.3822 40.4585 69.216 40.3995 69.0361C40.3405 68.8561 40.3175 68.6661 40.3317 68.477C40.346 68.2879 40.3972 68.1036 40.4825 67.9349C40.5678 67.7661 40.6854 67.6163 40.8284 67.4942C40.9714 67.3721 41.1369 67.2802 41.3154 67.2238C41.4938 67.1674 41.6815 67.1476 41.8676 67.1657C42.0536 67.1837 42.2342 67.2392 42.3989 67.3289C42.5635 67.4186 42.7089 67.5408 42.8265 67.6882L46.9392 72.6565C47.1111 72.8645 47.2209 73.1178 47.2558 73.3869C47.2907 73.6559 47.2493 73.9295 47.1364 74.1755C47.0235 74.4215 46.8437 74.6297 46.6183 74.7757C46.3929 74.9217 46.131 74.9995 45.8636 74.9998V74.9891Z" fill="#2A2A2A"/>
<path d="M66.1396 54.3058C66.3062 54.2528 66.4594 54.165 66.5883 54.0486C66.7172 53.9323 66.8187 53.7901 66.8858 53.6322L68.9707 48.7033C69.0345 48.5602 69.0685 48.4064 69.0707 48.251C69.073 48.0955 69.0434 47.9415 68.9837 47.798C68.924 47.6544 68.8354 47.5241 68.7231 47.4149C68.6108 47.3056 68.4771 47.2194 68.3297 47.1615C68.1823 47.1035 68.0243 47.0748 67.8647 47.0772C67.7052 47.0796 67.5475 47.1129 67.4007 47.1753C67.254 47.2377 67.1212 47.3278 67.01 47.4404C66.8989 47.553 66.8117 47.6859 66.7535 47.8312L64.6713 52.7683C64.5844 52.9749 64.5595 53.2007 64.5995 53.4193C64.6395 53.6379 64.7428 53.8403 64.8972 54.0026C65.0516 54.1648 65.2508 54.2803 65.4713 54.3355C65.6919 54.3907 65.9246 54.3833 66.1423 54.3142L66.1396 54.3058Z" fill="#2A2A2A"/>
<path d="M59.4999 53.8878C59.4999 57.4601 57.5761 60.8077 54.2411 63.3132C50.9055 65.8192 46.229 67.4134 40.9999 67.4134C35.7709 67.4134 31.0944 65.8192 27.7588 63.3132C24.4238 60.8077 22.5 57.4601 22.5 53.8878C22.5 50.3155 24.4238 46.968 27.7588 44.4624C31.0944 41.9565 35.7709 40.3623 40.9999 40.3623C46.229 40.3623 50.9055 41.9565 54.2411 44.4624C57.5761 46.968 59.4999 50.3155 59.4999 53.8878Z" stroke="#2A2A2A" stroke-width="3"/>
<path d="M79.5001 38.0714C79.5001 40.5491 78.1611 42.9079 75.7667 44.699C73.3721 46.4904 69.9947 47.6429 66.2001 47.6429C62.4055 47.6429 59.0281 46.4904 56.6335 44.699C54.2392 42.9079 52.9001 40.5491 52.9001 38.0714C52.9001 35.5938 54.2392 33.235 56.6335 31.4439C59.0281 29.6525 62.4055 28.5 66.2001 28.5C69.9947 28.5 73.3721 29.6525 75.7667 31.4439C78.1611 33.235 79.5001 35.5938 79.5001 38.0714Z" stroke="#2A2A2A" stroke-width="3"/>
<path d="M34.8217 53.6173C34.8217 54.033 34.6978 54.4393 34.4659 54.7849C34.2339 55.1306 33.9043 55.3999 33.5186 55.559C33.1329 55.7181 32.7084 55.7597 32.2989 55.6786C31.8895 55.5975 31.5134 55.3974 31.2181 55.1034C30.9229 54.8095 30.7219 54.435 30.6404 54.0273C30.559 53.6196 30.6008 53.1971 30.7605 52.813C30.9203 52.429 31.1909 52.1008 31.538 51.8698C31.8851 51.6389 32.2932 51.5156 32.7107 51.5156C33.2702 51.5169 33.8064 51.7388 34.2019 52.1326C34.5975 52.5265 34.8203 53.0603 34.8217 53.6173Z" fill="#2F69FF"/>
<path d="M42.7789 53.6173C42.7789 54.033 42.6551 54.4393 42.4232 54.7849C42.1912 55.1306 41.8616 55.3999 41.4758 55.559C41.0901 55.7181 40.6657 55.7597 40.2562 55.6786C39.8468 55.5975 39.4706 55.3974 39.1754 55.1034C38.8802 54.8095 38.6791 54.435 38.5977 54.0273C38.5162 53.6196 38.558 53.1971 38.7178 52.813C38.8776 52.429 39.1481 52.1008 39.4953 51.8698C39.8424 51.6389 40.2506 51.5156 40.668 51.5156C41.2279 51.5156 41.7648 51.737 42.1607 52.1312C42.5565 52.5253 42.7789 53.0599 42.7789 53.6173Z" fill="#2F69FF"/>
<path d="M50.7362 53.6173C50.7362 54.033 50.6124 54.4393 50.3805 54.7849C50.1485 55.1306 49.8188 55.3999 49.4331 55.559C49.0474 55.7181 48.623 55.7597 48.2135 55.6786C47.804 55.5975 47.4279 55.3974 47.1327 55.1034C46.8375 54.8095 46.6364 54.435 46.555 54.0273C46.4735 53.6196 46.5153 53.1971 46.6751 52.813C46.8349 52.429 47.1054 52.1008 47.4525 51.8698C47.7997 51.6389 48.2078 51.5156 48.6253 51.5156C49.1852 51.5156 49.722 51.737 50.1179 52.1312C50.5138 52.5253 50.7362 53.0599 50.7362 53.6173Z" fill="#2F69FF"/>
</svg>
