<svg width="104" height="104" viewBox="0 0 104 104" fill="none" xmlns="http://www.w3.org/2000/svg">
<rect width="104" height="104" rx="20" fill="#F5F8FC"/>
<path d="M36.4529 70.1012C36.3771 70.1065 36.3009 70.1065 36.2251 70.1012L31.8861 69.28C31.607 69.2268 31.3552 69.0777 31.174 68.8583C30.9928 68.6389 30.8936 68.363 30.8936 68.0782V59.4317C30.8927 59.2552 30.9301 59.0806 31.0031 58.9201C31.0762 58.7595 31.1831 58.6168 31.3166 58.5018C32.5044 57.4794 38.5627 52.3568 41.3234 52.1012C43.2705 51.9108 52.3661 53.8033 59.6502 55.4129C60.0892 55.5099 60.4946 55.7219 60.825 56.0275C61.1554 56.333 61.399 56.721 61.5309 57.1519C61.6627 57.5828 61.6781 58.041 61.5754 58.4798C61.4727 58.9185 61.2557 59.3221 60.9465 59.6492L60.4041 60.193L63.5987 60.7966L73.5729 58.3332C74.3594 58.1396 75.1782 58.1181 75.9737 58.2701C76.7692 58.4221 77.5227 58.7441 78.1831 59.2141L78.7254 59.6111C79.1763 59.9327 79.5299 60.3729 79.7471 60.8831C79.9644 61.3934 80.0369 61.9538 79.9567 62.5027C79.8765 63.0517 79.6466 63.5677 79.2925 63.994C78.9384 64.4203 78.4738 64.7403 77.9499 64.9187L64.038 69.6607C63.9166 69.6986 63.7908 69.7206 63.6638 69.7259L36.4583 70.0903L36.4529 70.1012ZM33.3126 67.0395L36.5668 67.6486L63.4577 67.2897L77.1906 62.6129C77.2895 62.5815 77.3773 62.5222 77.4436 62.4422C77.5099 62.3622 77.552 62.2648 77.5648 62.1616C77.583 62.0586 77.5712 61.9525 77.5308 61.856C77.4904 61.7596 77.4231 61.6769 77.337 61.6178L76.7946 61.2208C76.4218 60.953 75.9955 60.7696 75.545 60.6832C75.0946 60.5968 74.6308 60.6096 74.1858 60.7205L63.9566 63.2438C63.7782 63.2851 63.5927 63.2851 63.4143 63.2438L57.4482 62.1235C57.3473 62.1043 57.249 62.0732 57.1553 62.0311C56.4241 62.1694 55.6736 62.1694 54.9424 62.0311L47.8916 60.7096C47.5729 60.6498 47.2911 60.4655 47.108 60.1972C46.9249 59.929 46.8556 59.5989 46.9153 59.2794C46.975 58.9599 47.1588 58.6774 47.4263 58.4938C47.6938 58.3102 48.0231 58.2407 48.3417 58.3005L55.3926 59.622C55.9612 59.7303 56.5479 59.6935 57.0986 59.5148C57.6492 59.3362 58.1462 59.0214 58.5438 58.5996L59.1566 57.9471C59.1652 57.9322 59.1697 57.9153 59.1697 57.8981C59.1697 57.881 59.1652 57.8641 59.1566 57.8492C59.1533 57.8322 59.1447 57.8168 59.132 57.805C59.1193 57.7933 59.1033 57.7859 59.0861 57.7839C47.5933 55.2389 42.4732 54.4286 41.5132 54.5211C40.1248 54.6516 36.0244 57.6752 33.2963 59.9592L33.3126 67.0395Z" fill="#2A2A2A"/>
<path d="M75.8239 60.2692C75.5582 60.2716 75.2991 60.1866 75.0863 60.0272C74.8734 59.8679 74.7185 59.643 74.6452 59.3869C74.572 59.1309 74.5845 58.8578 74.6808 58.6096C74.7771 58.3613 74.9519 58.1516 75.1784 58.0125L75.9974 57.4958L75.4117 57.1152C75.0278 56.8812 74.5997 56.7296 74.1544 56.6697C73.7092 56.6098 73.2564 56.6429 72.8245 56.7671L70.655 57.4034L66.6198 58.4094C66.4615 58.4578 66.2951 58.4734 66.1306 58.4552C65.9661 58.4371 65.807 58.3856 65.663 58.3039C65.519 58.2222 65.393 58.1119 65.2928 57.9799C65.1926 57.8478 65.1203 57.6967 65.0801 57.5358C65.04 57.3748 65.0329 57.2073 65.0594 57.0435C65.0858 56.8797 65.1452 56.7231 65.2339 56.583C65.3226 56.4429 65.4388 56.3225 65.5754 56.2289C65.712 56.1352 65.8663 56.0704 66.0286 56.0384L70.015 55.0433L72.1249 54.4233C72.8837 54.2003 73.6807 54.1393 74.4645 54.2442C75.2483 54.3491 76.0015 54.6176 76.6754 55.0324L77.4835 55.5273C77.8144 55.7318 78.0875 56.0178 78.277 56.3581C78.4664 56.6984 78.5659 57.0817 78.5659 57.4714C78.5659 57.8611 78.4664 58.2443 78.277 58.5846C78.0875 58.9249 77.8144 59.2109 77.4835 59.4155L76.4422 60.068C76.2581 60.1902 76.0444 60.2597 75.8239 60.2692Z" fill="#2A2A2A"/>
<path d="M32.0922 73.9727H25.2203C24.8967 73.9727 24.5863 73.8438 24.3574 73.6143C24.1286 73.3849 24 73.0736 24 72.7491V54.2597C24 53.9352 24.1286 53.624 24.3574 53.3945C24.5863 53.165 24.8967 53.0361 25.2203 53.0361H32.0922C32.4158 53.0361 32.7263 53.165 32.9551 53.3945C33.184 53.624 33.3125 53.9352 33.3125 54.2597V72.7491C33.3125 73.0736 33.184 73.3849 32.9551 73.6143C32.7263 73.8438 32.4158 73.9727 32.0922 73.9727ZM26.4407 71.5256H30.8719V55.4833H26.4407V71.5256Z" fill="#2A2A2A"/>
<path d="M58.1315 61.5525C57.8163 61.5567 57.5117 61.4385 57.2815 61.2227C57.0512 61.0068 56.9133 60.7099 56.8964 60.3943C56.8796 60.0787 56.9852 59.7689 57.1912 59.5296C57.3971 59.2903 57.6875 59.1403 58.0013 59.1108C60.9803 58.7781 63.7708 57.4836 65.9523 55.4225C68.1338 53.3613 69.588 50.6452 70.0959 47.6832C70.6039 44.7213 70.1379 41.6741 68.7684 39.0008C67.3988 36.3275 65.1997 34.1728 62.5026 32.8616C59.8054 31.5504 56.7563 31.1536 53.8147 31.731C50.8731 32.3084 48.1983 33.8287 46.1934 36.0629C44.1885 38.297 42.9621 41.124 42.6991 44.1178C42.436 47.1116 43.1505 50.11 44.7349 52.6613C44.8311 52.7972 44.8985 52.9515 44.9331 53.1146C44.9677 53.2776 44.9687 53.4461 44.9361 53.6095C44.9034 53.773 44.8378 53.9281 44.7432 54.0652C44.6486 54.2023 44.5271 54.3186 44.386 54.4069C44.245 54.4952 44.0875 54.5537 43.9231 54.5788C43.7587 54.6039 43.5909 54.595 43.4301 54.5528C43.2693 54.5105 43.1187 54.4357 42.9877 54.333C42.8568 54.2303 42.7481 54.1018 42.6684 53.9555C40.8076 50.9499 39.9716 47.4194 40.2863 43.8959C40.6011 40.3724 42.0496 37.047 44.4135 34.4208C46.7774 31.7947 49.9287 30.0101 53.3923 29.336C56.8559 28.662 60.4441 29.135 63.6163 30.6837C66.7884 32.2325 69.3725 34.7731 70.9791 37.9227C72.5857 41.0722 73.1277 44.66 72.5234 48.1453C71.9192 51.6307 70.2014 54.8246 67.629 57.2458C65.0566 59.667 61.769 61.1842 58.2616 61.5688L58.1315 61.5525Z" fill="#2A2A2A"/>
<path d="M58.3051 44.1995L56.2549 43.2533C54.9966 42.6606 54.9966 42.1657 54.9966 41.9862C54.9966 41.5403 55.7831 41.1705 56.7485 41.1705C57.1309 41.1356 57.5158 41.2015 57.865 41.3617C58.2141 41.522 58.5155 41.771 58.739 42.0841L59.3139 43.014L61.6732 41.7252L61.0007 40.6811C60.3138 39.6876 59.2769 38.992 58.099 38.7343V36.8799H55.4413V38.7125C53.5539 39.1095 52.3118 40.3439 52.3118 41.9753C52.3118 44.2811 54.259 45.1893 55.3058 45.6733L57.3613 46.6249C58.7173 47.2449 58.9885 47.7125 58.9885 48.2563C58.9885 49.1427 57.7898 49.4527 56.7647 49.4527C56.2663 49.458 55.7734 49.3485 55.3239 49.1326C54.8744 48.9167 54.4804 48.6002 54.1722 48.2074L53.6298 47.2068L51.2976 48.4847L51.84 49.5016C52.2419 50.1268 52.7674 50.6627 53.384 51.0761C54.0007 51.4895 54.6953 51.7717 55.4251 51.9053V53.7488H58.0827V51.9379C60.6969 51.4974 61.6569 49.7627 61.6569 48.2563C61.6732 45.7711 59.4007 44.7107 58.3051 44.1995Z" fill="#2F69FF"/>
</svg>
