<svg width="104" height="104" viewBox="0 0 104 104" fill="none" xmlns="http://www.w3.org/2000/svg">
<rect width="104" height="104" rx="20" fill="#F5F8FC"/>
<g clip-path="url(#clip0_1511_3478)">
<path d="M28.5675 54.1113C28.1518 54.1113 27.7531 54.2717 27.4591 54.5572C27.1652 54.8427 27 55.2299 27 55.6337C27 56.0374 27.1652 56.4246 27.4591 56.7101C27.7531 56.9956 28.1518 57.156 28.5675 57.156H42.3858V54.1113H28.5675Z" fill="#2A2A2A"/>
<path d="M59.5226 54.0928H42.3811V57.1374H59.5226V54.0928Z" fill="#2A2A2A"/>
<path d="M70.4326 70.9736H55.9631V74.0183H70.4326C70.8483 74.0183 71.2471 73.8579 71.541 73.5724C71.835 73.2869 72.0001 72.8997 72.0001 72.496C72.0001 72.0922 71.835 71.705 71.541 71.4195C71.2471 71.134 70.8483 70.9736 70.4326 70.9736Z" fill="#2A2A2A"/>
<path d="M55.9437 70.9551H40.0996V73.9997H55.9437V70.9551Z" fill="#2A2A2A"/>
<path d="M71.1318 59.8308C71.1318 56.4536 68.9711 54.0928 65.8795 54.0928H59.5273V57.1374H65.8795C67.8425 57.1374 67.9968 59.1984 67.9968 59.8308C67.9968 60.1345 67.9645 60.4375 67.9003 60.7348L70.9775 61.3156C71.0792 60.8268 71.1309 60.3295 71.1318 59.8308Z" fill="#2A2A2A"/>
<path d="M33.1255 65.5689H40.1143V62.543H33.1255C30.0821 62.543 27.9455 64.8335 27.8779 68.1264H31.013C31.0371 67.3488 31.2975 65.5689 33.1255 65.5689Z" fill="#2A2A2A"/>
<path d="M33.1253 70.9739C31.1623 70.9739 31.008 68.9129 31.008 68.2806C31.008 68.2384 31.008 68.1822 31.008 68.126H27.8826C27.8826 68.1775 27.8826 68.229 27.8826 68.2806C27.8826 71.6625 30.0433 74.0186 33.135 74.0186H40.1093V70.9739H33.1253Z" fill="#2A2A2A"/>
<path d="M55.939 62.5234H40.1094V65.5681H55.939V62.5234Z" fill="#2A2A2A"/>
<path d="M65.6094 65.5683H65.8795C68.4936 65.5683 70.4373 63.8774 70.9775 61.3152L67.9148 60.7344C67.7412 61.5494 67.2444 62.5237 65.8939 62.5237H55.9583V65.5683H65.6094Z" fill="#2A2A2A"/>
<path d="M54.4534 41.4226C53.3918 41.4225 52.3315 41.3521 51.2798 41.2118V44.2752C52.3331 44.3958 53.3928 44.4568 54.4534 44.4579C57.6994 44.4579 62.2669 43.849 65.7058 40.9776L63.3232 38.9307C61.1962 40.5888 58.2396 41.4226 54.4534 41.4226Z" fill="#2F69FF"/>
<path d="M44.7926 41.4226C41.4454 41.4226 38.754 40.7715 36.6994 39.4834L34.6592 41.8254C37.9245 43.9801 41.8939 44.4672 44.7878 44.4672C45.9082 44.4703 47.0277 44.4062 48.1399 44.2752L48.0145 41.2212C46.9465 41.3594 45.87 41.4267 44.7926 41.4226Z" fill="#2F69FF"/>
<path d="M48.0193 41.207L48.1399 44.2751V51.5261C48.1399 51.9298 48.305 52.317 48.599 52.6025C48.893 52.888 49.2917 53.0484 49.7074 53.0484C50.1231 53.0484 50.5218 52.888 50.8158 52.6025C51.1098 52.317 51.2749 51.9298 51.2749 51.5261V41.2211L48.0193 41.207Z" fill="#2F69FF"/>
<path d="M63.323 38.9398L65.7056 40.9867C68.1606 38.9398 70.0465 35.7406 70.442 30.7801C70.4682 30.4068 70.3533 30.0371 70.1188 29.7402L67.1285 32.0823C66.6172 35.0957 65.3487 37.3815 63.323 38.9398Z" fill="#2F69FF"/>
<path d="M65.9131 32.0444C66.3616 32.0444 66.7668 32.0444 67.1285 32.0678L70.1189 29.7258C69.9932 29.5641 69.8354 29.4285 69.6548 29.3271C69.4742 29.2257 69.2744 29.1606 69.0674 29.1356C68.0195 29.0307 66.9665 28.9806 65.9131 28.9857C62.7298 28.9857 58.7121 29.3932 55.2732 30.9671L56.4935 33.7775C59.6575 32.3161 63.5208 32.0444 65.9131 32.0444Z" fill="#2F69FF"/>
<path d="M34.6592 41.8246L36.6994 39.4826C34.2268 37.9212 32.6994 35.4496 32.1174 32.0677L29.103 29.7725C28.8822 30.0625 28.776 30.4199 28.8039 30.7796C29.267 36.4754 31.6689 39.8479 34.6592 41.8246Z" fill="#2F69FF"/>
<path d="M33.3329 32.045C35.841 32.045 39.9696 32.3495 43.2059 34.0264L44.1271 31.0567C40.6496 29.4219 36.5644 29.0003 33.3329 29.0003C32.2795 28.9953 31.2265 29.0453 30.1786 29.1502C29.9649 29.1767 29.759 29.2457 29.574 29.3529C29.3889 29.4601 29.2286 29.6031 29.103 29.7732L32.1175 32.0684C32.4744 32.0544 32.8844 32.045 33.3329 32.045Z" fill="#2F69FF"/>
<path d="M45.6416 35.7543C47.0966 37.2265 47.943 39.1673 48.0194 41.2066H51.2798V40.696C51.4508 38.8379 52.2711 37.0925 53.6046 35.7496C54.4456 34.9384 55.4246 34.2744 56.4985 33.787L55.2782 30.9766C53.822 31.6247 52.4973 32.5211 51.3666 33.6231C50.6875 34.2936 50.1021 35.048 49.6255 35.8667C49.1506 35.0481 48.5668 34.2937 47.8892 33.6231C46.7989 32.5617 45.5278 31.6917 44.1319 31.0515L43.2107 34.0212C44.1075 34.4748 44.9273 35.0593 45.6416 35.7543Z" fill="#2F69FF"/>
</g>
<defs>
<clipPath id="clip0_1511_3478">
<rect width="45" height="45" fill="white" transform="translate(27 29)"/>
</clipPath>
</defs>
</svg>
