<svg width="104" height="104" viewBox="0 0 104 104" fill="none" xmlns="http://www.w3.org/2000/svg">
<rect width="104" height="104" rx="20" fill="#F5F8FC"/>
<g clip-path="url(#clip0_1511_3476)">
<path d="M38.7763 54.1611C38.32 54.1611 37.874 54.302 37.4947 54.5659C37.1153 54.8298 36.8197 55.2048 36.6451 55.6437C36.4705 56.0825 36.4248 56.5654 36.5138 57.0313C36.6028 57.4971 36.8225 57.925 37.1451 58.2609C37.4677 58.5968 37.8788 58.8255 38.3262 58.9182C38.7737 59.0108 39.2375 58.9633 39.659 58.7815C40.0806 58.5997 40.4408 58.2919 40.6943 57.897C40.9478 57.502 41.0831 57.0377 41.0831 56.5627C41.0831 55.9258 40.84 55.3149 40.4074 54.8645C39.9748 54.4141 39.3881 54.1611 38.7763 54.1611Z" fill="#2F69FF"/>
<path d="M28.4316 59.5801H25.5529C25.2163 59.5801 24.8936 59.7193 24.6556 59.967C24.4176 60.2148 24.2839 60.5508 24.2839 60.9012C24.2839 61.2515 24.4176 61.5876 24.6556 61.8353C24.8936 62.0831 25.2163 62.2222 25.5529 62.2222H26.3938L29.5074 60.2032C29.3941 60.0123 29.2358 59.8548 29.0474 59.7457C28.8591 59.6366 28.6471 59.5796 28.4316 59.5801Z" fill="#2A2A2A"/>
<path d="M29.5719 61.4848C29.6664 61.283 29.71 61.0595 29.6987 60.8353C29.6875 60.6111 29.6217 60.3936 29.5075 60.2031L26.3939 62.2222L24.8599 65.4874L25.9962 69.076L29.5719 61.4848Z" fill="#2A2A2A"/>
<path d="M23.716 69.0913C23.8221 69.3103 23.9845 69.4944 24.1852 69.623C24.3858 69.7515 24.6168 69.8196 24.8524 69.8196C25.088 69.8196 25.3189 69.7515 25.5196 69.623C25.7202 69.4944 25.8826 69.3103 25.9887 69.0913L24.8524 65.5027L23.0418 61.5986L20.2312 61.642L23.716 69.0913Z" fill="#2A2A2A"/>
<path d="M20.0117 60.9008C20.0114 61.1684 20.0893 61.4298 20.2352 61.6501L23.042 61.5988L22.5496 60.5498V54.4492H20.0117V60.9008Z" fill="#2A2A2A"/>
<path d="M20.0117 46.042V54.4496H22.5533V47.3513L20.3905 45.1074C20.2713 45.2295 20.1765 45.375 20.1115 45.5354C20.0465 45.6958 20.0126 45.8679 20.0117 46.042Z" fill="#2A2A2A"/>
<path d="M28.4316 44.7168H21.2688C21.1016 44.7177 20.9362 44.753 20.7821 44.8207C20.6281 44.8884 20.4884 44.9871 20.3711 45.1111L22.5415 47.3668H27.1589L29.2346 45.0283C29.0104 44.8295 28.7261 44.7192 28.4316 44.7168Z" fill="#2A2A2A"/>
<path d="M29.7006 46.0418C29.7003 45.8469 29.6584 45.6544 29.5778 45.4784C29.4972 45.3025 29.38 45.1474 29.2347 45.0244L27.1589 47.3629V52.6867H29.7006V46.0418Z" fill="#2A2A2A"/>
<path d="M27.1589 52.6865V56.563C27.1767 56.9014 27.3183 57.2199 27.5547 57.4529C27.7911 57.6859 28.1042 57.8158 28.4298 57.8158C28.7553 57.8158 29.0684 57.6859 29.3048 57.4529C29.5412 57.2199 29.6828 56.9014 29.7006 56.563V52.6865H27.1589Z" fill="#2A2A2A"/>
<path d="M20.0118 39.058V41.9723C20.0295 42.3107 20.1711 42.6292 20.4075 42.8622C20.6439 43.0952 20.9571 43.225 21.2826 43.225C21.6081 43.225 21.9213 43.0952 22.1576 42.8622C22.394 42.6292 22.5356 42.3107 22.5534 41.9723V39.058C22.5534 38.9388 22.5989 38.8245 22.6799 38.7401C22.7609 38.6558 22.8707 38.6085 22.9852 38.6085L21.1178 36.6367C20.7703 36.9276 20.4903 37.2964 20.2988 37.7157C20.1073 38.1349 20.0092 38.5938 20.0118 39.058Z" fill="#2A2A2A"/>
<path d="M26.7273 35.9658H22.9736C22.2935 35.9658 21.6341 36.2095 21.1062 36.6559L22.9736 38.6277H26.7273C26.8419 38.6277 26.9517 38.6751 27.0327 38.7594C27.1137 38.8437 27.1591 38.958 27.1591 39.0773L28.9887 37.0739C28.7119 36.729 28.3662 36.4512 27.9756 36.2598C27.585 36.0684 27.159 35.9681 26.7273 35.9658Z" fill="#2A2A2A"/>
<path d="M24.8524 40.6465C24.6797 40.6367 24.5068 40.6636 24.3444 40.7257C24.182 40.7877 24.0335 40.8836 23.9079 41.0074C23.7823 41.1312 23.6823 41.2804 23.6139 41.4458C23.5455 41.6113 23.5103 41.7895 23.5103 41.9696C23.5103 42.1496 23.5455 42.3278 23.6139 42.4933C23.6823 42.6587 23.7823 42.8079 23.9079 42.9317C24.0335 43.0555 24.182 43.1514 24.3444 43.2134C24.5068 43.2755 24.6797 43.3024 24.8524 43.2926H28.4319L27.1592 40.6465H24.8524Z" fill="#2F69FF"/>
<path d="M28.9885 37.0547L27.1589 39.058V40.6354L28.4317 43.2815C28.7682 43.2815 29.0909 43.1423 29.3289 42.8946C29.5669 42.6468 29.7006 42.3108 29.7006 41.9604V39.0462C29.6983 38.3153 29.4458 37.6092 28.9885 37.0547Z" fill="#2A2A2A"/>
<path d="M38.7762 43.376C38.2387 43.3784 37.7189 43.5762 37.3065 43.9352C36.8942 44.2942 36.6152 44.7918 36.5177 45.3421C36.4203 45.8924 36.5105 46.4609 36.7727 46.9494C37.035 47.4379 37.4529 47.8156 37.9542 48.0175L40.3482 44.0227C39.9218 43.6075 39.36 43.3763 38.7762 43.376Z" fill="#2F69FF"/>
<path d="M40.3483 44.0225L37.9543 48.0172C38.4538 48.2172 39.0045 48.23 39.5119 48.0532C40.0194 47.8764 40.4518 47.5212 40.7351 47.0486C41.0183 46.5759 41.1346 46.0154 41.064 45.4631C40.9934 44.9109 40.7404 44.4015 40.3483 44.0225Z" fill="#2F69FF"/>
</g>
<path d="M66.9546 67.2657L68.6074 68.9978C69.5533 67.489 71.0268 66.4278 72.7119 66.0414C72.9606 65.9856 73.1847 65.8456 73.3497 65.6432C73.5146 65.4408 73.6112 65.1871 73.6244 64.9216L69.8126 64.6299C68.6905 65.2844 67.7158 66.1833 66.9546 67.2657Z" fill="#2A2A2A"/>
<path d="M78.3899 64.6299L74.585 64.9216C74.5969 65.187 74.6925 65.4409 74.857 65.6435C75.0215 65.8461 75.2455 65.986 75.494 66.0414C77.1772 66.4281 78.6491 67.4878 79.5951 68.9942L81.2479 67.2657C80.4872 66.1828 79.5124 65.2838 78.3899 64.6299Z" fill="#2A2A2A"/>
<path d="M81.2476 67.2656L79.5947 68.9941C80.3088 70.1178 80.6908 71.4365 80.6932 72.7858V73.9993H83.0002V72.7858C82.9968 70.7969 82.3824 68.8617 81.2476 67.2656Z" fill="#2A2A2A"/>
<path d="M65.1843 72.7858V73.9993H67.4949V72.7858C67.4971 71.4382 67.8778 70.1209 68.5899 68.9977L66.937 67.2656C65.8035 68.8624 65.1892 70.7971 65.1843 72.7858Z" fill="#2A2A2A"/>
<path d="M69.795 64.6318L73.6069 64.9234C73.6192 64.658 73.5477 64.3957 73.4033 64.177C73.2589 63.9584 73.0497 63.7955 72.808 63.7135C72.1771 63.4978 71.6052 63.1263 71.1407 62.6305C70.6762 62.1347 70.3327 61.5292 70.1394 60.8652L67.8977 61.4342C68.2263 62.6671 68.8845 63.7764 69.795 64.6318Z" fill="#2A2A2A"/>
<path d="M78.0453 60.8721C77.8535 61.5369 77.5105 62.1433 77.0458 62.6393C76.5811 63.1354 76.0083 63.5063 75.3766 63.7204C75.1359 63.8031 74.9278 63.9664 74.7847 64.1851C74.6415 64.4037 74.5712 64.6656 74.5846 64.9303L78.3896 64.6386C79.301 63.7834 79.9604 62.6742 80.2903 61.441L78.0453 60.8721Z" fill="#2A2A2A"/>
<path d="M67.6428 59.604C67.6446 60.2228 67.728 60.8383 67.8907 61.4332L70.1324 60.8643C69.8936 60.0455 69.8928 59.1709 70.1301 58.3516C70.3673 57.5323 70.8319 56.8051 71.465 56.2624L70.067 54.3467C69.3105 54.9756 68.6996 55.775 68.2798 56.6854C67.8601 57.5957 67.6423 58.5934 67.6428 59.604Z" fill="#2A2A2A"/>
<path d="M74.0961 52.8672C72.6331 52.8654 71.2137 53.3877 70.0742 54.3472L71.4722 56.2628C72.2182 55.623 73.1548 55.2764 74.1195 55.2829C75.0843 55.2895 76.0165 55.6489 76.7544 56.2988L78.1765 54.394C77.0269 53.4055 75.5844 52.8657 74.0961 52.8672Z" fill="#2A2A2A"/>
<path d="M78.1765 54.3896L76.7544 56.2945C77.3778 56.8388 77.8331 57.5639 78.0629 58.3784C78.2927 59.1929 78.2867 60.0603 78.0457 60.8713L80.2907 61.4402C80.4519 60.8449 80.5353 60.2296 80.5387 59.6109C80.54 58.6119 80.3287 57.6251 79.9201 56.722C79.5116 55.8189 78.916 55.0222 78.1765 54.3896Z" fill="#2A2A2A"/>
<path d="M46.3577 67.2657L48.0105 68.9978C48.9564 67.489 50.4298 66.4278 52.115 66.0414C52.3637 65.9856 52.5878 65.8456 52.7527 65.6432C52.9177 65.4408 53.0143 65.1871 53.0275 64.9216L49.2157 64.6299C48.0935 65.2844 47.1189 66.1833 46.3577 67.2657Z" fill="#2A2A2A"/>
<path d="M57.7933 64.6299L53.9883 64.9216C54.0002 65.187 54.0959 65.4409 54.2603 65.6435C54.4248 65.8461 54.6488 65.986 54.8973 66.0414C56.5805 66.4281 58.0524 67.4878 58.9984 68.9942L60.6513 67.2657C59.8905 66.1828 58.9158 65.2838 57.7933 64.6299Z" fill="#2A2A2A"/>
<path d="M60.6506 67.2656L58.9978 68.9941C59.7119 70.1178 60.0939 71.4365 60.0962 72.7858V73.9993H62.4033V72.7858C62.3999 70.7969 61.7855 68.8617 60.6506 67.2656Z" fill="#2A2A2A"/>
<path d="M44.5876 72.7858V73.9993H46.8982V72.7858C46.9004 71.4382 47.2812 70.1209 47.9932 68.9977L46.3403 67.2656C45.2068 68.8624 44.5925 70.7971 44.5876 72.7858Z" fill="#2A2A2A"/>
<path d="M49.1983 64.6318L53.0102 64.9234C53.0226 64.658 52.951 64.3957 52.8066 64.177C52.6623 63.9584 52.453 63.7955 52.2113 63.7135C51.5804 63.4978 51.0085 63.1263 50.544 62.6305C50.0795 62.1347 49.736 61.5292 49.5427 60.8652L47.301 61.4342C47.6297 62.6671 48.2879 63.7764 49.1983 64.6318Z" fill="#2A2A2A"/>
<path d="M57.4486 60.8721C57.2568 61.5369 56.9139 62.1433 56.4491 62.6393C55.9844 63.1354 55.4117 63.5063 54.7799 63.7204C54.5392 63.8031 54.3311 63.9664 54.188 64.1851C54.0448 64.4037 53.9745 64.6656 53.9879 64.9303L57.7929 64.6386C58.7044 63.7834 59.3637 62.6742 59.6937 61.441L57.4486 60.8721Z" fill="#2A2A2A"/>
<path d="M47.0459 59.604C47.0476 60.2228 47.1311 60.8383 47.2938 61.4332L49.5355 60.8643C49.2967 60.0455 49.2959 59.1709 49.5331 58.3516C49.7704 57.5323 50.235 56.8051 50.8681 56.2624L49.47 54.3467C48.7136 54.9756 48.1027 55.775 47.6829 56.6854C47.2632 57.5957 47.0454 58.5934 47.0459 59.604Z" fill="#2A2A2A"/>
<path d="M53.4994 52.8672C52.0365 52.8654 50.6171 53.3877 49.4775 54.3472L50.8756 56.2628C51.6215 55.623 52.5581 55.2764 53.5229 55.2829C54.4876 55.2895 55.4198 55.6489 56.1577 56.2988L57.5799 54.394C56.4303 53.4055 54.9877 52.8657 53.4994 52.8672Z" fill="#2A2A2A"/>
<path d="M57.5796 54.3896L56.1575 56.2945C56.7809 56.8388 57.2362 57.5639 57.466 58.3784C57.6958 59.1929 57.6898 60.0603 57.4487 60.8713L59.6938 61.4402C59.8549 60.8449 59.9383 60.2296 59.9418 59.6109C59.9431 58.6119 59.7318 57.6251 59.3232 56.722C58.9146 55.8189 58.3191 55.0222 57.5796 54.3896Z" fill="#2A2A2A"/>
<path d="M55.0957 41.3986L56.7485 43.1306C57.6945 41.6218 59.1679 40.5606 60.8531 40.1742C61.1017 40.1184 61.3258 39.9785 61.4908 39.776C61.6557 39.5736 61.7523 39.32 61.7656 39.0544L57.9537 38.7627C56.8316 39.4172 55.8569 40.3161 55.0957 41.3986Z" fill="#2A2A2A"/>
<path d="M66.5313 38.7627L62.7263 39.0544C62.7382 39.3198 62.8339 39.5737 62.9984 39.7763C63.1628 39.9789 63.3868 40.1188 63.6354 40.1742C65.3186 40.5609 66.7904 41.6206 67.7365 43.127L69.3893 41.3986C68.6286 40.3156 67.6538 39.4167 66.5313 38.7627Z" fill="#2A2A2A"/>
<path d="M69.3887 41.3994L67.7358 43.1278C68.4499 44.2516 68.8319 45.5703 68.8343 46.9196V48.1331H71.1413V46.9196C71.1379 44.9307 70.5235 42.9955 69.3887 41.3994Z" fill="#2A2A2A"/>
<path d="M53.3257 46.9196V48.1331H55.6362V46.9196C55.6384 45.572 56.0192 44.2547 56.7312 43.1314L55.0784 41.3994C53.9448 42.9962 53.3306 44.9309 53.3257 46.9196Z" fill="#2A2A2A"/>
<path d="M57.9364 38.7646L61.7482 39.0563C61.7606 38.7908 61.6891 38.5285 61.5447 38.3099C61.4003 38.0912 61.1911 37.9283 60.9493 37.8464C60.3185 37.6306 59.7466 37.2591 59.2821 36.7634C58.8175 36.2676 58.4741 35.662 58.2807 34.998L56.0391 35.567C56.3677 36.7999 57.0259 37.9092 57.9364 38.7646Z" fill="#2A2A2A"/>
<path d="M66.1864 35.0049C65.9946 35.6697 65.6517 36.2761 65.1869 36.7721C64.7222 37.2682 64.1494 37.6391 63.5177 37.8532C63.277 37.9359 63.0689 38.0992 62.9258 38.3179C62.7826 38.5366 62.7123 38.7984 62.7257 39.0631L66.5307 38.7714C67.4421 37.9162 68.1015 36.807 68.4314 35.5738L66.1864 35.0049Z" fill="#2A2A2A"/>
<path d="M55.7839 33.7378C55.7857 34.3566 55.8691 34.9721 56.0319 35.567L58.2735 34.9981C58.0347 34.1793 58.0339 33.3047 58.2712 32.4854C58.5084 31.6661 58.973 30.9389 59.6061 30.3961L58.2081 28.4805C57.4516 29.1094 56.8407 29.9088 56.421 30.8192C56.0012 31.7295 55.7835 32.7272 55.7839 33.7378Z" fill="#2A2A2A"/>
<path d="M62.2372 27C60.7743 26.9982 59.3549 27.5205 58.2153 28.48L59.6133 30.3957C60.3593 29.7558 61.2959 29.4092 62.2606 29.4158C63.2254 29.4223 64.1576 29.7817 64.8955 30.4317L66.3176 28.5268C65.1681 27.5383 63.7255 26.9985 62.2372 27Z" fill="#2A2A2A"/>
<path d="M66.3174 28.5225L64.8953 30.4273C65.5187 30.9716 65.974 31.6967 66.2038 32.5112C66.4336 33.3257 66.4276 34.1931 66.1865 35.0041L68.4316 35.573C68.5927 34.9777 68.6761 34.3624 68.6796 33.7438C68.6809 32.7447 68.4696 31.7579 68.061 30.8548C67.6524 29.9517 67.0569 29.155 66.3174 28.5225Z" fill="#2A2A2A"/>
<defs>
<clipPath id="clip0_1511_3476">
<rect width="45.3138" height="33.8551" fill="white" transform="translate(20 35.9619)"/>
</clipPath>
</defs>
</svg>
