<svg width="104" height="104" viewBox="0 0 104 104" fill="none" xmlns="http://www.w3.org/2000/svg">
<rect width="104" height="104" rx="20" fill="#F5F8FC"/>
<g clip-path="url(#clip0_1511_3475)">
<path d="M52.0058 66.0352L52.0686 63.0908H48.927L48.9943 66.0352H49.102V67.9423H52.0192L52.0058 66.0352Z" fill="#2F69FF"/>
<path d="M49.1021 67.9385V71.3132C49.1021 71.7036 49.2557 72.0781 49.5293 72.3542C49.8028 72.6303 50.1738 72.7854 50.5606 72.7854C50.9475 72.7854 51.3185 72.6303 51.592 72.3542C51.8656 72.0781 52.0192 71.7036 52.0192 71.3132V67.9385H49.1021Z" fill="#2F69FF"/>
<path d="M42.3699 64.1242C44.0663 65.3608 46.3058 66.0357 48.9851 66.0357L48.9178 63.0914C47.3193 63.1417 45.7382 62.7451 44.3491 61.9453L42.3699 64.1242Z" fill="#2F69FF"/>
<path d="M52.0687 63.0918L52.0059 66.0361C55.0532 66.0361 57.535 65.1664 59.2853 63.5855L57.2657 61.4746C55.8341 62.7203 53.8459 63.0827 52.0687 63.0918Z" fill="#2F69FF"/>
<path d="M42.3701 64.1243L44.3493 61.9454C43.1961 61.2028 42.364 60.0474 42.02 58.7112L38.8291 57.2979C39.067 60.2966 40.3191 62.6249 42.3701 64.1243Z" fill="#2F69FF"/>
<path d="M58.9754 58.7112C58.6937 59.7837 58.0996 60.7463 57.27 61.4743L59.2896 63.5852C60.9502 62.0904 61.9599 59.9614 62.1664 57.2979L58.9754 58.7112Z" fill="#2F69FF"/>
<path d="M40.6555 55.7033C40.3773 55.7033 40.2067 55.7033 40.2067 55.7033C40.0119 55.7136 39.821 55.7631 39.6454 55.8487C39.4697 55.9344 39.3127 56.0545 39.1836 56.2021C39.0544 56.3498 38.9558 56.5219 38.8933 56.7085C38.8309 56.895 38.8059 57.0923 38.8199 57.2887L42.0109 58.702C43.2248 58.8043 44.4184 59.0788 45.5564 59.5174L46.0949 56.5639C44.3389 55.986 42.5025 55.6954 40.6555 55.7033Z" fill="#2F69FF"/>
<path d="M62.162 57.2975C62.176 57.1011 62.1511 56.9039 62.0886 56.7173C62.0262 56.5307 61.9275 56.3586 61.7984 56.211C61.6693 56.0633 61.5123 55.9432 61.3366 55.8575C61.1609 55.7719 60.9701 55.7224 60.7753 55.7121C60.7753 55.7121 60.6182 55.7121 60.3265 55.7121C58.3606 55.7031 56.408 56.0371 54.5549 56.6996L55.291 59.5851C56.4644 59.1164 57.6999 58.8249 58.9576 58.7199L62.162 57.2975Z" fill="#2F69FF"/>
<path d="M51.1172 58.8692C50.8936 59.1017 50.6867 59.35 50.4978 59.6121C50.3077 59.3511 50.1008 59.1029 49.8785 58.8692C48.8121 57.8142 47.5167 57.0247 46.0952 56.5635L45.5701 59.5215C46.3985 59.8302 47.1548 60.3082 47.7916 60.9257C48.3718 61.5173 48.7654 62.2692 48.9226 63.0864H52.0642C52.2249 62.2695 52.6197 61.5182 53.1996 60.9257C53.8022 60.3349 54.5165 59.8727 55.3 59.5668L54.564 56.6813C53.2701 57.1469 52.0934 57.8938 51.1172 58.8692Z" fill="#2F69FF"/>
<path d="M34.1436 76.0415C33.6457 76.0403 33.1685 75.8399 32.8169 75.484C32.4652 75.1282 32.2677 74.6461 32.2677 74.1436H29.355C29.355 75.427 29.8598 76.658 30.7586 77.566C31.6573 78.474 32.8765 78.9847 34.1481 78.9859H38.838V76.0415H34.1436Z" fill="#2A2A2A"/>
<path d="M50.5472 76.0557H38.8381V79.0001H50.5472V76.0557Z" fill="#2A2A2A"/>
<path d="M63.1179 76.0557H50.5471V79.0001H63.1179V76.0557Z" fill="#2A2A2A"/>
<path d="M66.9462 76.0415H63.1179V78.9859H66.9462C68.2178 78.9847 69.4369 78.474 70.3357 77.566C71.2344 76.658 71.7393 75.427 71.7393 74.1436H68.8221C68.8221 74.6461 68.6246 75.1282 68.2729 75.484C67.9212 75.8399 67.4441 76.0403 66.9462 76.0415Z" fill="#2A2A2A"/>
<path d="M32.2678 64.7266H29.3506V74.1622H32.2678V64.7266Z" fill="#2A2A2A"/>
<path d="M30.8092 53.9678C30.4223 53.9678 30.0513 54.1229 29.7778 54.399C29.5043 54.6751 29.3506 55.0495 29.3506 55.44V64.717H32.2678V55.4309C32.2672 55.2382 32.229 55.0474 32.1554 54.8696C32.0817 54.6918 31.9741 54.5303 31.8387 54.3944C31.7033 54.2586 31.5426 54.151 31.366 54.0778C31.1893 54.0046 31.0001 53.9672 30.8092 53.9678Z" fill="#2A2A2A"/>
<path d="M71.7392 64.7266H68.822V74.1622H71.7392V64.7266Z" fill="#2A2A2A"/>
<path d="M71.7392 55.44C71.7392 55.0495 71.5855 54.6751 71.312 54.399C71.0384 54.1229 70.6675 53.9678 70.2806 53.9678C69.8938 53.9678 69.5228 54.1229 69.2492 54.399C68.9757 54.6751 68.822 55.0495 68.822 55.44V64.717H71.7392V55.44Z" fill="#2A2A2A"/>
<path d="M40.5166 40.6548L42.2669 43.0103L50.5472 37.0808L49.1021 34.5078L40.5166 40.6548Z" fill="#2A2A2A"/>
<path d="M55.2865 30.8709L59.5949 30.3409C59.4746 30.0248 59.2494 29.7607 58.9577 29.5934L51.2788 25.1859C50.9728 25.0146 50.616 24.9599 50.2734 25.0319L52.0148 28.9955L55.2865 30.8709Z" fill="#2A2A2A"/>
<path d="M23.6149 52.7585C23.3627 52.9392 23.1739 53.1962 23.0759 53.4923C22.9779 53.7884 22.9757 54.1084 23.0696 54.4058C23.1635 54.7033 23.3487 54.9629 23.5984 55.1472C23.8481 55.3315 24.1493 55.4309 24.4587 55.4311C24.7612 55.4321 25.0564 55.337 25.3024 55.1593L32.896 49.7235L31.1008 47.3906L23.6149 52.7585Z" fill="#2A2A2A"/>
<path d="M31.1143 47.3911L32.896 49.724L42.2668 43.0108L40.5165 40.6553L31.1143 47.3911Z" fill="#2A2A2A"/>
<path d="M58.9755 32.1527C59.1995 32.0238 59.3857 31.8372 59.515 31.6121C59.6442 31.3869 59.7121 31.1311 59.7115 30.8708C59.7104 30.6896 59.677 30.5101 59.6128 30.3408L55.3044 30.8708L52.0326 32.7462L50.5471 37.0857L53.2668 35.4233L58.9755 32.1527Z" fill="#2A2A2A"/>
<path d="M77.3763 52.6634L69.4326 46.9785L67.6599 49.3159L75.6934 55.0642C75.8498 55.1761 76.0266 55.2557 76.2136 55.2986C76.4005 55.3415 76.594 55.3468 76.783 55.3142C76.972 55.2816 77.1528 55.2117 77.3151 55.1086C77.4773 55.0055 77.6179 54.8711 77.7287 54.7132C77.8395 54.5553 77.9183 54.3768 77.9608 54.1881C78.0033 53.9994 78.0086 53.8041 77.9763 53.6133C77.944 53.4226 77.8748 53.2401 77.7726 53.0764C77.6704 52.9126 77.5373 52.7707 77.3808 52.6589L77.3763 52.6634Z" fill="#2A2A2A"/>
<path d="M61.8074 41.5244L59.9763 43.8256L67.6597 49.3202L69.4324 46.9783L61.8074 41.5244Z" fill="#2A2A2A"/>
<path d="M53.2668 35.4189L50.5471 37.0814L59.9763 43.8263L61.8074 41.5251L53.2668 35.4189Z" fill="#2A2A2A"/>
<path d="M52.0146 28.9948L50.2733 25.0312C50.1152 25.0582 49.9633 25.1134 49.8245 25.1943C49.6041 25.3233 49.421 25.5082 49.2935 25.7307C49.1659 25.9532 49.0983 26.2056 49.0974 26.4627V34.5076L50.547 37.0806L52.0146 32.7455V28.9948Z" fill="#2A2A2A"/>
</g>
<defs>
<clipPath id="clip0_1511_3475">
<rect width="55" height="54" fill="white" transform="translate(23 25)"/>
</clipPath>
</defs>
</svg>
