<svg width="104" height="104" viewBox="0 0 104 104" fill="none" xmlns="http://www.w3.org/2000/svg">
<rect width="104" height="104" rx="20" fill="#F5F8FC"/>
<g clip-path="url(#clip0_1511_3472)">
<path d="M47.9613 50.9648C47.4276 50.9648 46.906 51.1271 46.4623 51.4311C46.0186 51.7351 45.6728 52.1672 45.4686 52.6727C45.2644 53.1782 45.2109 53.7345 45.315 54.2711C45.4191 54.8078 45.6761 55.3008 46.0534 55.6877C46.4308 56.0746 46.9115 56.3381 47.4349 56.4448C47.9583 56.5516 48.5008 56.4968 48.9938 56.2874C49.4868 56.078 49.9081 55.7234 50.2046 55.2684C50.5011 54.8135 50.6593 54.2786 50.6593 53.7314C50.6593 52.9977 50.3751 52.294 49.8691 51.7751C49.3631 51.2563 48.6768 50.9648 47.9613 50.9648Z" fill="#2F69FF"/>
<path d="M35.862 57.207H32.4949C32.1013 57.207 31.7238 57.3674 31.4454 57.6528C31.1671 57.9382 31.0107 58.3253 31.0107 58.7289C31.0107 59.1325 31.1671 59.5196 31.4454 59.805C31.7238 60.0904 32.1013 60.2507 32.4949 60.2507H33.4784L37.1202 57.9248C36.9877 57.7049 36.8025 57.5235 36.5822 57.3978C36.362 57.2722 36.114 57.2065 35.862 57.207Z" fill="#2A2A2A"/>
<path d="M37.1954 59.4012C37.3059 59.1687 37.3569 58.9113 37.3437 58.653C37.3305 58.3948 37.2536 58.1442 37.1201 57.9248L33.4784 60.2507L31.6841 64.0122L33.0132 68.1461L37.1954 59.4012Z" fill="#2A2A2A"/>
<path d="M30.3462 68.1645C30.4703 68.4168 30.6602 68.6288 30.8949 68.777C31.1296 68.9251 31.3997 69.0035 31.6753 69.0035C31.9508 69.0035 32.221 68.9251 32.4556 68.777C32.6903 68.6288 32.8803 68.4168 33.0044 68.1645L31.6753 64.0306L29.5576 59.5332L26.2703 59.5832L30.3462 68.1645Z" fill="#2A2A2A"/>
<path d="M26.0139 58.7289C26.0135 59.0372 26.1047 59.3382 26.2753 59.592L29.5582 59.533L28.9822 58.3246V51.2969H26.0139V58.7289Z" fill="#2A2A2A"/>
<path d="M26.0139 41.6108V51.2961H28.9867V43.119L26.4569 40.5342C26.3176 40.6749 26.2067 40.8424 26.1306 41.0272C26.0546 41.2119 26.0149 41.4103 26.0139 41.6108Z" fill="#2A2A2A"/>
<path d="M35.8618 40.085H27.4841C27.2885 40.086 27.095 40.1267 26.9148 40.2046C26.7347 40.2826 26.5713 40.3963 26.4341 40.5392L28.9727 43.1377H34.3732L36.801 40.4438C36.5388 40.2148 36.2063 40.0878 35.8618 40.085Z" fill="#2A2A2A"/>
<path d="M37.346 41.6115C37.3458 41.3869 37.2967 41.1652 37.2025 40.9625C37.1082 40.7598 36.9711 40.5811 36.8011 40.4395L34.3733 43.1333V49.2661H37.346V41.6115Z" fill="#2A2A2A"/>
<path d="M34.3733 49.2656V53.7312C34.3941 54.121 34.5597 54.4879 34.8362 54.7563C35.1127 55.0248 35.4789 55.1744 35.8597 55.1744C36.2404 55.1744 36.6067 55.0248 36.8832 54.7563C37.1596 54.4879 37.3253 54.121 37.346 53.7312V49.2656H34.3733Z" fill="#2A2A2A"/>
<path d="M26.0137 33.5666V36.9238C26.0345 37.3136 26.2001 37.6804 26.4766 37.9489C26.7531 38.2173 27.1194 38.3669 27.5001 38.3669C27.8809 38.3669 28.2471 38.2173 28.5236 37.9489C28.8001 37.6804 28.9657 37.3136 28.9865 36.9238V33.5666C28.9865 33.4293 29.0397 33.2975 29.1344 33.2004C29.2291 33.1033 29.3576 33.0487 29.4915 33.0487L27.3074 30.7773C26.9009 31.1124 26.5735 31.5373 26.3495 32.0203C26.1255 32.5032 26.0107 33.0318 26.0137 33.5666Z" fill="#2A2A2A"/>
<path d="M33.8683 30.0049H29.4778C28.6824 30.0049 27.9112 30.2856 27.2937 30.7999L29.4778 33.0713H33.8683C34.0023 33.0713 34.1307 33.1258 34.2254 33.223C34.3201 33.3201 34.3734 33.4518 34.3734 33.5892L36.5132 31.2814C36.1895 30.8841 35.7851 30.564 35.3283 30.3435C34.8715 30.123 34.3732 30.0075 33.8683 30.0049Z" fill="#2A2A2A"/>
<path d="M31.6752 35.3968C31.4732 35.3855 31.2711 35.4165 31.0811 35.488C30.8912 35.5595 30.7175 35.6699 30.5706 35.8126C30.4237 35.9552 30.3066 36.1271 30.2267 36.3176C30.1467 36.5082 30.1055 36.7135 30.1055 36.9209C30.1055 37.1284 30.1467 37.3337 30.2267 37.5242C30.3066 37.7148 30.4237 37.8866 30.5706 38.0293C30.7175 38.1719 30.8912 38.2823 31.0811 38.3538C31.2711 38.4253 31.4732 38.4563 31.6752 38.445H35.8619L34.3733 35.3968H31.6752Z" fill="#2A2A2A"/>
<path d="M36.5131 31.2588L34.3733 33.5665V35.3837L35.8619 38.4319C36.2555 38.4319 36.633 38.2715 36.9113 37.9861C37.1897 37.7007 37.346 37.3137 37.346 36.91V33.5529C37.3434 32.7109 37.0481 31.8975 36.5131 31.2588Z" fill="#2A2A2A"/>
<path d="M47.9612 38.54C47.3325 38.5429 46.7245 38.7707 46.2422 39.1842C45.7599 39.5978 45.4336 40.171 45.3196 40.805C45.2056 41.4389 45.3111 42.0938 45.6179 42.6565C45.9247 43.2192 46.4134 43.6544 46.9998 43.8869L49.7998 39.2851C49.3012 38.8067 48.644 38.5405 47.9612 38.54Z" fill="#2F69FF"/>
<path d="M49.7997 39.2852L46.9998 43.887C47.5839 44.1174 48.228 44.1321 48.8215 43.9284C49.415 43.7248 49.9209 43.3156 50.2522 42.7711C50.5834 42.2267 50.7195 41.5809 50.6369 40.9448C50.5544 40.3086 50.2583 39.7218 49.7997 39.2852Z" fill="#2F69FF"/>
<path d="M56.0774 64.0258C56.0982 64.4156 56.2638 64.7825 56.5403 65.0509C56.8168 65.3193 57.183 65.4689 57.5638 65.4689C57.9445 65.4689 58.3108 65.3193 58.5873 65.0509C58.8637 64.7825 59.0294 64.4156 59.0502 64.0258V57.9248H56.0774V64.0258Z" fill="#2A2A2A"/>
<path d="M76.0317 64.0258C76.0317 64.4294 76.1881 64.8165 76.4664 65.1019C76.7448 65.3873 77.1223 65.5476 77.5159 65.5476C77.9095 65.5476 78.287 65.3873 78.5654 65.1019C78.8437 64.8165 79 64.4294 79 64.0258V57.9248H76.0317V64.0258Z" fill="#2A2A2A"/>
<path d="M58.3547 49.4298L60.4813 51.6149C61.6983 49.7115 63.5941 48.3727 65.7622 47.8853C66.0822 47.8148 66.3705 47.6383 66.5828 47.3829C66.795 47.1275 66.9192 46.8075 66.9363 46.4725L62.0319 46.1045C60.5881 46.9302 59.3341 48.0642 58.3547 49.4298Z" fill="#2A2A2A"/>
<path d="M73.0677 46.1045L68.1721 46.4725C68.1875 46.8074 68.3105 47.1276 68.5221 47.3832C68.7337 47.6388 69.0219 47.8154 69.3417 47.8853C71.5074 48.3731 73.4011 49.71 74.6183 51.6104L76.7448 49.4298C75.766 48.0636 74.5119 46.9295 73.0677 46.1045Z" fill="#2A2A2A"/>
<path d="M76.745 49.4297L74.6184 51.6102C75.5371 53.028 76.0286 54.6916 76.0317 56.3938V57.9247H79V56.3938C78.9956 53.8846 78.2051 51.4433 76.745 49.4297Z" fill="#2A2A2A"/>
<path d="M56.0774 56.3938V57.9247H59.0502V56.3938C59.053 54.6937 59.5429 53.0319 60.459 51.6148L58.3324 49.4297C56.874 51.4442 56.0837 53.8849 56.0774 56.3938Z" fill="#2A2A2A"/>
<path d="M62.0097 46.1043L66.9141 46.4723C66.93 46.1374 66.838 45.8065 66.6522 45.5306C66.4665 45.2548 66.1973 45.0493 65.8863 44.9459C65.0746 44.6737 64.3388 44.2051 63.7411 43.5796C63.1434 42.9541 62.7015 42.1902 62.4527 41.3525L59.5686 42.0703C59.9914 43.6257 60.8383 45.0252 62.0097 46.1043Z" fill="#2A2A2A"/>
<path d="M72.6247 41.3613C72.378 42.2001 71.9368 42.9651 71.3388 43.5908C70.7409 44.2166 70.004 44.6846 69.1912 44.9547C68.8815 45.059 68.6138 45.265 68.4296 45.5409C68.2454 45.8168 68.155 46.1472 68.1722 46.4811L73.0678 46.1131C74.2405 45.0342 75.0888 43.6348 75.5133 42.0791L72.6247 41.3613Z" fill="#2A2A2A"/>
<path d="M59.2407 39.7624C59.243 40.543 59.3503 41.3196 59.5597 42.0701L62.4438 41.3524C62.1366 40.3193 62.1356 39.216 62.4408 38.1824C62.7461 37.1487 63.3439 36.2314 64.1584 35.5467L62.3597 33.1299C61.3864 33.9233 60.6004 34.9319 60.0603 36.0803C59.5203 37.2287 59.2401 38.4874 59.2407 39.7624Z" fill="#2A2A2A"/>
<path d="M67.5433 31.2627C65.661 31.2605 63.8348 31.9194 62.3687 33.1298L64.1674 35.5466C65.1272 34.7394 66.3321 34.3021 67.5734 34.3104C68.8147 34.3186 70.014 34.7721 70.9635 35.592L72.7932 33.1889C71.3141 31.9418 69.4582 31.2608 67.5433 31.2627Z" fill="#2A2A2A"/>
<path d="M72.7931 33.1846L70.9634 35.5877C71.7655 36.2743 72.3513 37.1891 72.6469 38.2167C72.9426 39.2442 72.9349 40.3386 72.6248 41.3616L75.5133 42.0794C75.7206 41.3284 75.8279 40.5521 75.8323 39.7716C75.834 38.5113 75.5621 37.2663 75.0365 36.127C74.5108 34.9877 73.7445 33.9826 72.7931 33.1846Z" fill="#2A2A2A"/>
</g>
<defs>
<clipPath id="clip0_1511_3472">
<rect width="53" height="39" fill="white" transform="translate(26 30)"/>
</clipPath>
</defs>
</svg>
