<svg width="104" height="104" viewBox="0 0 104 104" fill="none" xmlns="http://www.w3.org/2000/svg">
<rect width="104" height="104" rx="20" fill="#F5F8FC"/>
<g clip-path="url(#clip0_1511_3474)">
<path d="M51.4978 76.2393C51.1791 76.2382 50.8739 76.1132 50.6486 75.8917C50.4233 75.6701 50.2962 75.37 50.2951 75.0566H47.4832C47.4832 75.5751 47.587 76.0885 47.7888 76.5674C47.9905 77.0464 48.2862 77.4816 48.659 77.8482C49.0318 78.2148 49.4744 78.5056 49.9614 78.704C50.4485 78.9024 50.9706 79.0045 51.4978 79.0045C52.025 79.0045 52.547 78.9024 53.0341 78.704C53.5211 78.5056 53.9637 78.2148 54.3365 77.8482C54.7093 77.4816 55.005 77.0464 55.2068 76.5674C55.4085 76.0885 55.5123 75.5751 55.5123 75.0566H52.7004C52.6993 75.37 52.5722 75.6701 52.3469 75.8917C52.1216 76.1132 51.8164 76.2382 51.4978 76.2393Z" fill="#2F69FF"/>
<path d="M48.5993 72.334C47.8817 73.0645 47.4814 74.041 47.4832 75.0566H50.2951C50.2972 74.752 50.418 74.4597 50.6325 74.2399C50.7987 74.0706 51.0125 73.9539 51.2464 73.9047C51.4804 73.8556 51.724 73.8761 51.946 73.9638C52.168 74.0515 52.3584 74.2024 52.4928 74.397C52.6272 74.5917 52.6995 74.8214 52.7004 75.0566H55.5123C55.513 74.042 55.1146 73.0664 54.4005 72.334C54.1665 72.0978 53.9052 71.8893 53.6218 71.7129H49.3823C49.0965 71.8878 48.8336 72.0963 48.5993 72.334Z" fill="#2F69FF"/>
<path d="M49.3779 65.0762V67.8414V71.7084H53.6218V67.8414V65.0762H49.3779Z" fill="#2F69FF"/>
<path d="M53.6221 65.0762V67.8414H57.7405H63.3341V65.0762H53.6221Z" fill="#2A2A2A"/>
<path d="M39.6619 65.0762V67.8414H41.0116H49.3782V65.0762H39.6619Z" fill="#2A2A2A"/>
<path d="M70.6798 65.0758H63.3254V67.841H70.6798C71.5078 67.8399 72.3016 67.5159 72.8871 66.9402C73.4726 66.3644 73.802 65.5838 73.8032 64.7695H71.0129C71.0124 64.8114 71.0032 64.8528 70.986 64.8911C70.9688 64.9295 70.9439 64.964 70.9128 64.9926C70.8816 65.0212 70.845 65.0433 70.8049 65.0576C70.7649 65.0719 70.7223 65.0781 70.6798 65.0758Z" fill="#2A2A2A"/>
<path d="M32.3117 67.841H39.666V65.0758H32.3117C32.2302 65.0736 32.1527 65.0405 32.0955 64.9834C32.0382 64.9264 32.0057 64.8497 32.0046 64.7695H29.1926C29.1938 65.5831 29.5226 66.363 30.1072 66.9387C30.6918 67.5143 31.4844 67.8388 32.3117 67.841Z" fill="#2A2A2A"/>
<path d="M56.8923 59.6014C56.8923 59.9681 57.0405 60.3198 57.3041 60.5791C57.5678 60.8384 57.9254 60.984 58.2983 60.984C58.6712 60.984 59.0288 60.8384 59.2925 60.5791C59.5561 60.3198 59.7043 59.9681 59.7043 59.6014V57.2744H56.8923V59.6014Z" fill="#2F69FF"/>
<path d="M50.092 59.6014C50.092 59.9681 50.2402 60.3198 50.5038 60.5791C50.7675 60.8384 51.1251 60.984 51.498 60.984C51.8709 60.984 52.2285 60.8384 52.4922 60.5791C52.7559 60.3198 52.904 59.9681 52.904 59.6014V57.2744H50.092V59.6014Z" fill="#2F69FF"/>
<path d="M43.2957 59.6014C43.2957 59.9681 43.4438 60.3198 43.7075 60.5791C43.9711 60.8384 44.3287 60.984 44.7016 60.984C45.0745 60.984 45.4321 60.8384 45.6958 60.5791C45.9595 60.3198 46.1076 59.9681 46.1076 59.6014V57.2744H43.2957V59.6014Z" fill="#2F69FF"/>
<path d="M51.498 51.8457C51.1251 51.8457 50.7675 51.9914 50.5038 52.2507C50.2402 52.5099 50.092 52.8616 50.092 53.2283V57.257H52.904V53.2198C52.9034 53.0388 52.8666 52.8597 52.7956 52.6927C52.7247 52.5256 52.6209 52.374 52.4904 52.2464C52.3598 52.1188 52.205 52.0178 52.0347 51.949C51.8645 51.8802 51.6821 51.8452 51.498 51.8457Z" fill="#2F69FF"/>
<path d="M44.7016 55.6533C44.5168 55.6528 44.3337 55.6881 44.1629 55.7574C43.9921 55.8267 43.8369 55.9285 43.7062 56.057C43.5755 56.1855 43.472 56.3382 43.4015 56.5062C43.3311 56.6742 43.2951 56.8542 43.2957 57.0359V57.2571H46.1076V57.0487C46.1093 56.866 46.0742 56.6849 46.0043 56.5157C45.9344 56.3465 45.8311 56.1925 45.7004 56.0628C45.5697 55.933 45.4141 55.83 45.2427 55.7598C45.0712 55.6895 44.8874 55.6533 44.7016 55.6533Z" fill="#2F69FF"/>
<path d="M73.8073 57.2568H70.9954V64.7696H73.8073V57.2568Z" fill="#2A2A2A"/>
<path d="M32.0046 57.2568H29.1926V64.7696H32.0046V57.2568Z" fill="#2A2A2A"/>
<path d="M58.2983 46.8086C58.1135 46.808 57.9305 46.8434 57.7596 46.9127C57.5888 46.982 57.4335 47.0838 57.3029 47.2123C57.1722 47.3408 57.0686 47.4934 56.9982 47.6614C56.9277 47.8294 56.8918 48.0095 56.8923 48.1912V48.6677H59.7043V48.1912C59.7043 47.8245 59.5562 47.4728 59.2925 47.2136C59.0288 46.9543 58.6712 46.8086 58.2983 46.8086Z" fill="#2F69FF"/>
<path d="M59.7043 48.668H56.8923V57.2571H59.7043V48.668Z" fill="#2F69FF"/>
<path d="M73.8073 48.668H70.9954V57.2571H73.8073V48.668Z" fill="#2A2A2A"/>
<path d="M32.0046 48.668H29.1926V57.2571H32.0046V48.668Z" fill="#2A2A2A"/>
<path d="M73.8073 41.376H70.9954V48.6633H73.8073V41.376Z" fill="#2A2A2A"/>
<path d="M32.0046 41.376H29.1926V48.6633H32.0046V41.376Z" fill="#2A2A2A"/>
<path d="M44.7319 38.6113H32.0046V41.3765H44.7319V38.6113Z" fill="#2A2A2A"/>
<path d="M58.2639 38.6113H44.7319V41.3765H58.2639V38.6113Z" fill="#2A2A2A"/>
<path d="M70.9912 38.6113H58.2639V41.3765H70.9912V38.6113Z" fill="#2A2A2A"/>
<path d="M73.8766 38.6149H71.0127V41.3801H73.8982C74.7258 41.379 75.5192 41.0549 76.104 40.479C76.6888 39.9031 77.0173 39.1225 77.0173 38.3086H74.2053C74.2048 38.3501 74.1958 38.3911 74.1789 38.4291C74.1619 38.4672 74.1374 38.5015 74.1067 38.53C74.0761 38.5586 74.0399 38.5808 74.0004 38.5954C73.9608 38.61 73.9187 38.6166 73.8766 38.6149Z" fill="#2A2A2A"/>
<path d="M29.1204 41.3801H32.0059V38.6149H29.1204C29.0385 38.6138 28.9604 38.581 28.903 38.5237C28.8455 38.4664 28.8133 38.3891 28.8133 38.3086H26.0229C26.0229 39.1188 26.3484 39.8962 26.9286 40.4715C27.5087 41.0468 28.2965 41.3733 29.1204 41.3801Z" fill="#2A2A2A"/>
<path d="M26.0222 36.0727V38.3316H28.8342V36.0939C28.8342 36.0134 28.8664 35.9362 28.9239 35.8789C28.9813 35.8215 29.0595 35.7888 29.1413 35.7877V33.0225C28.3174 33.0236 27.5273 33.3448 26.9431 33.9161C26.3589 34.4874 26.0279 35.2625 26.0222 36.0727Z" fill="#2A2A2A"/>
<path d="M73.8765 33V35.778C73.958 35.7801 74.0355 35.8132 74.0927 35.8703C74.15 35.9274 74.1825 36.0041 74.1836 36.0843V38.3304H76.9956V36.0928C76.9984 35.688 76.9199 35.2866 76.7645 34.9118C76.609 34.537 76.3798 34.196 76.0899 33.9086C75.8001 33.6212 75.4553 33.393 75.0754 33.237C74.6956 33.0811 74.2881 33.0006 73.8765 33Z" fill="#2A2A2A"/>
<path d="M43.2913 33H29.1191V35.7652H43.2913V33Z" fill="#2A2A2A"/>
<path d="M59.7044 33H43.2957V35.7652H59.7044V33Z" fill="#2A2A2A"/>
<path d="M73.8765 33H59.7043V35.7652H73.8765V33Z" fill="#2A2A2A"/>
</g>
<defs>
<clipPath id="clip0_1511_3474">
<rect width="51" height="46" fill="white" transform="translate(26 33)"/>
</clipPath>
</defs>
</svg>
