<svg width="104" height="104" viewBox="0 0 104 104" fill="none" xmlns="http://www.w3.org/2000/svg">
<rect width="104" height="104" rx="20" fill="#F5F8FC"/>
<g clip-path="url(#clip0_1511_3473)">
<path d="M36 74.7254C36 75.0635 36.1353 75.3878 36.376 75.6269C36.6168 75.866 36.9433 76.0003 37.2838 76.0003C37.6243 76.0003 37.9508 75.866 38.1916 75.6269C38.4324 75.3878 38.5676 75.0635 38.5676 74.7254V66.0488H36V74.7254Z" fill="#2A2A2A"/>
<path d="M61.5935 39.5991C61.5947 40.3206 61.5086 41.0397 61.3367 41.7408L63.8491 42.2546C64.0617 41.385 64.1731 40.494 64.1809 39.5991C64.1812 37.9823 63.84 36.3835 63.1793 34.9058C62.5186 33.4282 61.5532 32.1046 60.3452 31.0205L58.6348 32.9229C59.5688 33.7699 60.3144 34.8012 60.8239 35.9509C61.3334 37.1005 61.5955 38.3431 61.5935 39.5991Z" fill="#2A2A2A"/>
<path d="M55.3243 48.1654C55.0554 48.2518 54.8228 48.4239 54.6625 48.6549C54.5022 48.8859 54.4231 49.1631 54.4375 49.4433C54.4519 49.7235 54.559 49.9912 54.7422 50.2048C54.9254 50.4184 55.1744 50.5661 55.4507 50.6248L59.1046 49.1343C61.4958 47.5017 63.1864 45.0409 63.8449 42.2346L61.3326 41.7207C60.9669 43.2142 60.223 44.5901 59.1715 45.718C58.12 46.8459 56.7957 47.6884 55.3243 48.1654Z" fill="#2A2A2A"/>
<path d="M64.2438 56.7406L66.6416 55.7521C64.8795 52.8248 62.2461 50.5127 59.1046 49.1348L55.4507 50.6253C57.2506 51.0172 58.9544 51.7594 60.4637 52.809C61.9729 53.8586 63.2577 55.1949 64.2438 56.7406Z" fill="#2A2A2A"/>
<path d="M52.5 30.5498C54.7627 30.5487 56.944 31.3882 58.6149 32.9033L60.3253 31.0009C58.3096 29.1833 55.7159 28.1251 52.9956 28.0104C50.2753 27.8957 47.6006 28.7319 45.437 30.3733L46.9381 32.4405C48.5298 31.2156 50.4862 30.5505 52.5 30.5498Z" fill="#2A2A2A"/>
<path d="M68.9959 64.1462C68.9895 61.1861 68.1701 58.2838 66.6258 55.752L64.228 56.7404C65.6512 58.9522 66.4091 61.5214 66.4125 64.1462V66.0486H68.9801L68.9959 64.1462Z" fill="#2A2A2A"/>
<path d="M66.4285 66.0488V74.7254C66.4285 75.0635 66.5637 75.3878 66.8045 75.6269C67.0453 75.866 67.3718 76.0003 67.7123 76.0003C68.0528 76.0003 68.3793 75.866 68.6201 75.6269C68.8608 75.3878 68.9961 75.0635 68.9961 74.7254V66.0488H66.4285Z" fill="#2A2A2A"/>
<path d="M40.76 56.7282L38.4215 55.6377C36.8412 58.1984 36.0033 61.1424 36 64.1456V66.0481H38.5676V64.1456C38.5718 61.5162 39.3324 58.9428 40.76 56.7282Z" fill="#2A2A2A"/>
<path d="M49.565 50.6253L45.9111 49.1348C42.8112 50.4966 40.2038 52.7656 38.4373 55.6383L40.7758 56.7288C41.7629 55.186 43.0478 53.8524 44.5562 52.8049C46.0647 51.7574 47.7669 51.0166 49.565 50.6253Z" fill="#2A2A2A"/>
<path d="M50.5605 49.4447C50.5739 49.1648 50.4946 48.8883 50.3349 48.6574C50.1751 48.4265 49.9436 48.2539 49.6757 48.1659C48.0281 47.6317 46.5687 46.6406 45.4698 45.3097C44.3709 43.9787 43.6783 42.3634 43.4738 40.6543L40.9102 40.874C41.0937 42.526 41.6341 44.1192 42.4945 45.5448C43.3548 46.9705 44.5148 48.195 45.8953 49.1348L49.5493 50.6254C49.8247 50.5656 50.0729 50.4178 50.2556 50.2045C50.4383 49.9912 50.5454 49.7243 50.5605 49.4447Z" fill="#2A2A2A"/>
<path d="M43.4026 39.5988C43.4032 38.2196 43.7222 36.859 44.3351 35.6214C44.948 34.3838 45.8384 33.3022 46.938 32.4597L45.437 30.3926C44.0075 31.4714 42.8484 32.8635 42.0501 34.4605C41.2518 36.0574 40.836 37.8159 40.835 39.5988C40.8361 40.0313 40.8611 40.4634 40.91 40.8932L43.4737 40.6735C43.428 40.317 43.4042 39.9581 43.4026 39.5988Z" fill="#2A2A2A"/>
<path d="M46 63.5897L49.36 70L58 60" stroke="#2F69FF" stroke-width="3" stroke-linecap="round" stroke-linejoin="round"/>
</g>
<defs>
<clipPath id="clip0_1511_3473">
<rect width="33" height="48" fill="white" transform="translate(36 28)"/>
</clipPath>
</defs>
</svg>
