<svg width="38" height="38" viewBox="0 0 38 38" fill="none" xmlns="http://www.w3.org/2000/svg">
<path d="M18.0483 2.95106C18.3463 2.02697 19.6537 2.02697 19.9517 2.95105L23.0198 12.4642C23.1532 12.8781 23.5389 13.1583 23.9737 13.1573L33.9694 13.1355C34.9403 13.1333 35.3443 14.3768 34.5576 14.9458L26.4581 20.8034C26.1057 21.0582 25.9584 21.5115 26.0937 21.9248L29.2033 31.4245C29.5054 32.3472 28.4476 33.1157 27.6634 32.5433L19.5896 26.6503C19.2383 26.3939 18.7617 26.3939 18.4104 26.6503L10.3366 32.5433C9.55237 33.1157 8.49464 32.3472 8.7967 31.4245L11.9063 21.9248C12.0416 21.5115 11.8943 21.0582 11.5419 20.8034L3.44245 14.9458C2.65568 14.3768 3.0597 13.1333 4.03065 13.1355L14.0263 13.1573C14.4611 13.1583 14.8468 12.8781 14.9802 12.4642L18.0483 2.95106Z" fill="#FFD818"/>
</svg>
