<svg width="240" height="240" viewBox="0 0 240 240" fill="none" xmlns="http://www.w3.org/2000/svg">
<path d="M56.4062 120.224V161.525H198.857V78.1994C198.857 76.0619 197.099 74.3037 194.961 74.3037H98.9828" stroke="#424242" stroke-width="2"/>
<path d="M189.894 83.3359H65.2666V152.424H189.894V83.3359Z" fill="#F2F2F2"/>
<path d="M56.4404 161.457V173.489C56.4404 175.799 58.7847 178.35 61.0946 178.35H195.237C197.546 178.35 198.925 175.971 198.925 173.661V161.457" stroke="#424242" stroke-width="2"/>
<path d="M111.806 178.418C111.565 181.417 112.082 188.036 111.462 191.312C110.876 194.276 110.462 194.38 108.876 195.242C107.98 195.724 106.497 196.414 105.222 196.966" stroke="#424242" stroke-width="2"/>
<path d="M149.937 197C148.661 196.449 147.144 195.759 146.248 195.276C144.662 194.415 144.352 194.311 143.766 191.346C143.111 188.106 143.662 181.624 143.421 178.625" stroke="#424242" stroke-width="2"/>
<path d="M101.327 196.725H154.039" stroke="#424242" stroke-width="2"/>
<path d="M100.638 154.32V148.873C100.638 145.115 104.085 142.047 108.326 142.047H142.111C146.352 142.047 149.799 145.081 149.799 148.873V152.872" stroke="#424242" stroke-width="2"/>
<path d="M118.599 142.116V135.91" stroke="#424242" stroke-width="2"/>
<path d="M131.527 135.91V142.116" stroke="#424242" stroke-width="2"/>
<path d="M140.353 106.779V121.5C140.353 129.981 133.492 135.394 125.011 135.394C116.53 135.394 109.67 129.981 109.67 121.5V118.742" stroke="#424242" stroke-width="2"/>
<path d="M118.047 93.6094C115.255 93.6094 112.807 95.0573 111.394 97.1948H108.67C105.257 97.1948 102.499 99.9528 102.499 103.366V115.363L109.773 124.12V112.433C109.773 110.019 111.704 108.089 114.117 108.089H116.634H135.043H139.008C143.421 108.089 146.972 104.538 146.972 100.125V93.6094H118.047Z" stroke="#424242" stroke-width="2"/>
<path d="M216.198 91.9551H157.418V127.016H166.726V138.014L178.896 127.016H216.198V91.9551Z" fill="#DDDDDD"/>
<path d="M168.897 105.297H204.717" stroke="#424242" stroke-width="2"/>
<path d="M168.897 114.329H204.717" stroke="#424242" stroke-width="2"/>
<path d="M82.2973 78.3713C82.2973 92.1613 71.1274 103.366 57.3029 103.366C43.513 103.366 32.3086 92.1958 32.3086 78.3713C32.3086 64.5813 43.4785 53.377 57.3029 53.377C71.0929 53.377 82.2973 64.5813 82.2973 78.3713Z" fill="#2F69FF"/>
<path d="M68.1966 78.3709L60.026 83.094L51.8555 87.8171V78.3709V68.9248L60.026 73.6479L68.1966 78.3709Z" stroke="white" stroke-width="2"/>
<path d="M56.9578 44C75.7122 44 90.9157 59.2035 90.9157 77.9578C90.9157 86.3353 87.8819 93.9887 82.8485 99.9184L86.2616 110.433L76.3673 105.814C70.8513 109.64 64.1976 111.916 56.9578 111.916C38.2035 111.916 23 96.7122 23 77.9578" stroke="#424242" stroke-width="2"/>
<path d="M23.0352 77.9583C23.0352 77.1998 23.0696 76.4069 23.1041 75.6484" stroke="#424242" stroke-width="2"/>
<path d="M23.6895 71.27C26.5164 57.1697 38.0655 46.2067 52.4761 44.3105" stroke="#424242" stroke-width="2" stroke-dasharray="12.85 12.85"/>
<path d="M54.6836 44.069C55.442 44.0345 56.2005 44 56.9934 44" stroke="#424242" stroke-width="2"/>
</svg>
