<svg width="240" height="240" viewBox="0 0 240 240" fill="none" xmlns="http://www.w3.org/2000/svg">
<path d="M107.827 159.973H179.989V85.7223C179.989 83.8177 178.422 82.251 176.517 82.251H56.5251C54.6204 82.251 53.0537 83.8177 53.0537 85.7223V137.854" stroke="#424242" stroke-width="2"/>
<path d="M171.971 90.2686H60.918V151.831H171.971V90.2686Z" fill="#F2F2F2"/>
<path d="M107.827 174.933H176.732C178.79 174.933 180.019 172.813 180.019 170.755V159.88" stroke="#424242" stroke-width="2"/>
<path d="M136.398 191.552C135.261 191.061 133.91 190.447 133.111 190.016C131.698 189.248 131.421 189.156 130.899 186.514C130.315 183.627 130.807 177.851 130.592 175.179" stroke="#424242" stroke-width="2"/>
<path d="M107.827 191.307H140.022" stroke="#424242" stroke-width="2"/>
<path d="M142.941 117.302C142.941 129.56 132.987 139.513 120.73 139.513C108.473 139.513 98.5195 129.56 98.5195 117.302C98.5195 105.045 108.473 95.0918 120.73 95.0918C133.018 95.0918 142.941 105.045 142.941 117.302Z" fill="#2F69FF"/>
<path d="M109.886 119.487L115.753 125.354L131.39 109.718" stroke="white" stroke-width="2"/>
<path d="M31.5186 157.73V197.236H102.205V157.73" stroke="#424242" stroke-width="2"/>
<path d="M104.694 141.51H29V157.853H104.694V141.51Z" fill="#DDDDDD"/>
<path d="M210.74 124.951V84.8618C210.74 82.0662 208.466 79.793 205.671 79.793H203.551C200.756 79.793 198.482 82.0662 198.482 84.8618V124.951H210.74Z" fill="#DDDDDD"/>
<path d="M209.266 166.332V117.149C209.266 114.353 207.545 112.08 205.426 112.08H203.828C201.709 112.08 199.988 114.353 199.988 117.149V166.332H209.266Z" fill="#DDDDDD"/>
<path d="M210.74 89.2549H197.684C194.889 89.2549 192.615 91.5282 192.615 94.3237V118.224" stroke="#424242" stroke-width="2"/>
<path d="M198.514 125.166H210.955" stroke="#424242" stroke-width="2"/>
<path d="M198.514 166.239H210.955" stroke="#424242" stroke-width="2"/>
<path d="M204.75 182.52C204.75 179.387 203.153 174.256 201.033 173.703V167.437" stroke="#424242" stroke-width="2"/>
<path d="M204.75 182.52C204.75 179.387 206.347 174.256 208.467 173.703V167.437" stroke="#424242" stroke-width="2"/>
<path d="M88.4131 39.6416H160.728" stroke="#424242" stroke-width="2"/>
<path d="M88.4131 48.0283H148.471" stroke="#424242" stroke-width="2"/>
<path d="M83.4366 37L76.0638 46.216L72.6846 43.1133" stroke="#424242" stroke-width="2"/>
<path d="M88.4131 61.6064H160.728" stroke="#424242" stroke-width="2"/>
<path d="M88.4131 69.9932H148.471" stroke="#424242" stroke-width="2"/>
<path d="M83.4366 58.9648L76.0638 68.2116L72.6846 65.0781" stroke="#424242" stroke-width="2"/>
<path d="M77.5371 166.945L86.4459 175.854L77.5371 184.763" stroke="#424242" stroke-width="2"/>
<path d="M56.0332 166.945L47.1244 175.854L56.0332 184.763" stroke="#424242" stroke-width="2"/>
<path d="M71.0864 164.027C71.0864 164.027 66.0312 177.602 62.792 186.299" stroke="#424242" stroke-width="2"/>
</svg>
