<svg width="240" height="240" viewBox="0 0 240 240" fill="none" xmlns="http://www.w3.org/2000/svg">
<path d="M167.655 119.568H74.3271V182.759H167.655V119.568Z" fill="#F2F2F2"/>
<path d="M66.4014 184.633V115.36C66.4014 113.301 68.091 111.643 70.1185 111.643H171.863C173.921 111.643 175.58 113.301 175.58 115.36V184.633" stroke="#424242" stroke-width="2"/>
<path d="M50.1191 184.265V190.962C50.1191 190.962 55.0036 194.617 58.6286 194.617H103.726H138.286H183.383C186.977 194.617 191.892 190.962 191.892 190.962V184.265H50.1191Z" stroke="#424242" stroke-width="2"/>
<path d="M55.127 128.354L195.087 154.989" stroke="#424242" stroke-width="2" stroke-dasharray="13.33 13.33"/>
<path d="M34.5139 141.625C22.1338 141.625 12.0576 131.548 12.0576 119.168C12.0576 106.788 22.1338 96.7119 34.5139 96.7119C46.8941 96.7119 56.9703 106.788 56.9703 119.168C56.9703 131.548 46.8941 141.625 34.5139 141.625Z" stroke="#424242" stroke-width="2"/>
<path d="M41.0574 116.987C41.0574 120.612 38.1083 123.53 34.5141 123.53C30.8891 123.53 27.9707 120.581 27.9707 116.987C27.9707 113.362 30.9198 110.443 34.5141 110.443C38.139 110.443 41.0574 113.362 41.0574 116.987Z" stroke="#424242" stroke-width="2"/>
<path d="M45.9728 138.368V130.811C45.9728 127.186 43.0544 124.268 39.4294 124.268H29.599C25.9741 124.268 23.0557 127.217 23.0557 130.811V138.368" stroke="#424242" stroke-width="2"/>
<path d="M135.346 146.663L135.346 146.663L135.338 146.673C133.82 148.677 133.227 151.544 132.979 153.865H109.287C109.06 151.538 108.466 148.675 106.95 146.673L106.95 146.673L106.942 146.663C97.683 134.75 97.1377 123.466 97.1377 122.793C97.1377 109.521 107.872 98.7871 121.144 98.7871C134.415 98.7871 145.15 109.521 145.15 122.793C145.15 123.436 144.604 134.751 135.346 146.663Z" fill="#2F69FF" stroke="#2F69FF" stroke-width="2"/>
<path d="M114.508 154.773L109.562 127.31" stroke="white" stroke-width="2" stroke-linejoin="bevel"/>
<path d="M127.81 154.804L132.755 127.31" stroke="white" stroke-width="2" stroke-linejoin="bevel"/>
<path d="M109.716 128.999L113.525 131.027L117.334 128.999L121.144 131.027L124.953 128.999L128.793 131.027L132.602 128.999" stroke="white" stroke-width="2" stroke-linejoin="bevel"/>
<path d="M104.894 155.142H137.426" stroke="#2F69FF" stroke-width="2" stroke-linejoin="bevel"/>
<path d="M104.893 161.47H137.425" stroke="#2F69FF" stroke-width="2" stroke-linejoin="bevel"/>
<path d="M110.515 167.798H131.804" stroke="#2F69FF" stroke-width="2" stroke-linejoin="bevel"/>
<path d="M108.671 162.115V155.479" stroke="#2F69FF" stroke-width="2" stroke-linejoin="bevel"/>
<path d="M51.042 99.6921L163.692 63.5039" stroke="#424242" stroke-width="2" stroke-dasharray="13.33 13.33"/>
<path d="M205.317 140.642L167.102 63.5039" stroke="#424242" stroke-width="2" stroke-dasharray="13.33 13.33"/>
<path d="M189.22 65.7158C189.22 78.8333 178.591 89.4317 165.504 89.4317C152.386 89.4317 141.788 78.8026 141.788 65.7158C141.788 52.6291 152.417 42 165.504 42C178.591 42 189.22 52.6291 189.22 65.7158Z" fill="#F2F2F2"/>
<path d="M171.925 63.5655C171.925 67.129 169.037 70.0167 165.474 70.0167C161.91 70.0167 159.022 67.129 159.022 63.5655C159.022 60.0019 161.91 57.1143 165.474 57.1143C169.037 57.145 171.925 60.0327 171.925 63.5655Z" stroke="#424242" stroke-width="2"/>
<path d="M170.327 70.7236H160.681C157.118 70.7236 154.23 73.6113 154.23 77.1748V77.6971C157.179 80.4619 161.142 82.1822 165.504 82.1822C169.866 82.1822 173.829 80.4619 176.778 77.6971V77.1748C176.748 73.6113 173.86 70.7236 170.327 70.7236Z" stroke="#424242" stroke-width="2"/>
<path d="M229.094 159.043C229.094 169.181 220.892 177.383 210.754 177.383C200.617 177.383 192.415 169.181 192.415 159.043C192.415 148.905 200.617 140.703 210.754 140.703C220.892 140.734 229.094 148.936 229.094 159.043Z" stroke="#424242" stroke-width="2" stroke-linejoin="bevel"/>
<path d="M217.206 156.923C217.206 160.486 214.318 163.374 210.755 163.374C207.191 163.374 204.304 160.486 204.304 156.923C204.304 153.359 207.191 150.472 210.755 150.472C214.318 150.472 217.206 153.359 217.206 156.923Z" stroke="#424242" stroke-width="2" stroke-linejoin="bevel"/>
<path d="M222.059 172.068V171.546C222.059 167.982 219.172 165.095 215.608 165.095H205.962C202.398 165.095 199.511 167.982 199.511 171.546V172.068" stroke="#424242" stroke-width="2" stroke-linejoin="bevel"/>
</svg>
