<svg width="110" height="110" viewBox="0 0 110 110" fill="none" xmlns="http://www.w3.org/2000/svg">
<path d="M99.9583 32.9336H82.175C79.9117 32.9336 78.1333 34.7119 78.1333 36.9753C78.1333 34.7119 76.355 32.9336 74.0917 32.9336H11.0417C8.77833 32.9336 7 34.7119 7 36.9753V80.6253C7 82.8886 8.77833 84.6669 11.0417 84.6669H74.0917C76.355 84.6669 78.1333 82.8886 78.1333 80.6253C78.1333 82.8886 79.9117 84.6669 82.175 84.6669H99.9583C102.222 84.6669 104 82.8886 104 80.6253V36.9753C104 34.7119 102.222 32.9336 99.9583 32.9336Z" stroke="#646464" stroke-width="1.5" stroke-miterlimit="10" stroke-linecap="round" stroke-linejoin="round"/>
<path d="M78.1333 41.0176V44.2509" stroke="#646464" stroke-width="1.5" stroke-miterlimit="10" stroke-linecap="round" stroke-linejoin="round"/>
<path d="M78.1333 49.0996V52.3329" stroke="#646464" stroke-width="1.5" stroke-miterlimit="10" stroke-linecap="round" stroke-linejoin="round"/>
<path d="M78.1333 57.1836V60.4169" stroke="#646464" stroke-width="1.5" stroke-miterlimit="10" stroke-linecap="round" stroke-linejoin="round"/>
<path d="M78.1333 65.2676V68.5009" stroke="#646464" stroke-width="1.5" stroke-miterlimit="10" stroke-linecap="round" stroke-linejoin="round"/>
<path d="M78.1333 73.3496V76.5829" stroke="#646464" stroke-width="1.5" stroke-miterlimit="10" stroke-linecap="round" stroke-linejoin="round"/>
<path d="M15.083 58.8008H45.7997" stroke="#646464" stroke-width="1.5" stroke-miterlimit="10" stroke-linecap="round" stroke-linejoin="round"/>
<path d="M15.083 65H31.9998" stroke="#646464" stroke-width="1.5" stroke-miterlimit="10" stroke-linecap="round" stroke-linejoin="round"/>
<path d="M74.0917 32.9336H11.0417C8.77833 32.9336 7 34.7119 7 36.9753V45.8669H78.1333V36.9753C78.1333 34.7119 76.355 32.9336 74.0917 32.9336Z" fill="#DBDBDB" stroke="#646464" stroke-width="1.5" stroke-miterlimit="10" stroke-linecap="round" stroke-linejoin="round"/>
<path d="M99.9583 32.9336H82.175C79.9116 32.9336 78.1333 34.7119 78.1333 36.9753V45.8669H104V36.9753C104 34.7119 102.222 32.9336 99.9583 32.9336Z" fill="#63BAF5" stroke="#646464" stroke-width="1.5" stroke-miterlimit="10" stroke-linecap="round" stroke-linejoin="round"/>
<path d="M24.7832 94.3672H23.1665" stroke="#646464" stroke-width="1.5" stroke-miterlimit="10" stroke-linecap="round" stroke-linejoin="round"/>
<path d="M57.1166 94.3672H28.0166" stroke="#646464" stroke-width="1.5" stroke-miterlimit="10" stroke-linecap="round" stroke-linejoin="round"/>
<path d="M86.2168 23.2324H87.8335" stroke="#646464" stroke-width="1.5" stroke-miterlimit="10" stroke-linecap="round" stroke-linejoin="round"/>
<path d="M53.8833 23.2324H82.9833" stroke="#646464" stroke-width="1.5" stroke-miterlimit="10" stroke-linecap="round" stroke-linejoin="round"/>
<path d="M44.1835 26.4667C45.9692 26.4667 47.4169 25.0191 47.4169 23.2333C47.4169 21.4476 45.9692 20 44.1835 20C42.3978 20 40.9502 21.4476 40.9502 23.2333C40.9502 25.0191 42.3978 26.4667 44.1835 26.4667Z" stroke="#646464" stroke-width="1.5" stroke-miterlimit="10" stroke-linecap="round" stroke-linejoin="round"/>
<path d="M66.8168 97.5995C68.6026 97.5995 70.0502 96.1519 70.0502 94.3661C70.0502 92.5804 68.6026 91.1328 66.8168 91.1328C65.0311 91.1328 63.5835 92.5804 63.5835 94.3661C63.5835 96.1519 65.0311 97.5995 66.8168 97.5995Z" stroke="#646464" stroke-width="1.5" stroke-miterlimit="10" stroke-linecap="round" stroke-linejoin="round"/>
</svg>
