<svg width="110" height="110" viewBox="0 0 110 110" fill="none" xmlns="http://www.w3.org/2000/svg">
<path d="M68 98.7326H7.33333C4.90667 98.7326 3 96.8259 3 94.3992V54.5326C3 52.1059 4.90667 50.1992 7.33333 50.1992H68C70.4267 50.1992 72.3333 52.1059 72.3333 54.5326V94.3992C72.3333 96.8259 70.4267 98.7326 68 98.7326Z" fill="white" stroke="#646464" stroke-width="1.5" stroke-miterlimit="10"/>
<path d="M58.4666 83.1328H16.8666C14.952 83.1328 13.3999 84.6849 13.3999 86.5995C13.3999 88.5141 14.952 90.0661 16.8666 90.0661H58.4666C60.3812 90.0661 61.9332 88.5141 61.9332 86.5995C61.9332 84.6849 60.3812 83.1328 58.4666 83.1328Z" fill="white" stroke="#646464" stroke-width="1.5" stroke-miterlimit="10" stroke-linecap="round" stroke-linejoin="round"/>
<path d="M37.6665 46.7333V23.3333C37.6665 20.9067 39.5732 19 41.9998 19H102.667C105.093 19 107 20.9067 107 23.3333V63.2C107 65.6267 105.093 67.5333 102.667 67.5333H75.7998" stroke="#646464" stroke-width="1.5" stroke-miterlimit="10" stroke-linecap="round" stroke-linejoin="round"/>
<path d="M107 25.9336H37.6665V36.3336H107V25.9336Z" fill="#F2F2F2" stroke="#646464" stroke-width="1.5" stroke-miterlimit="10" stroke-linecap="round" stroke-linejoin="round"/>
<path d="M60.2 67.5328C63.0719 67.5328 65.4 65.2047 65.4 62.3328C65.4 59.4609 63.0719 57.1328 60.2 57.1328C57.3281 57.1328 55 59.4609 55 62.3328C55 65.2047 57.3281 67.5328 60.2 67.5328Z" fill="#DBDBDB" stroke="#646464" stroke-width="1.5" stroke-miterlimit="10" stroke-linecap="round" stroke-linejoin="round"/>
<path d="M54.9997 62.3328C54.9997 60.7728 55.6931 59.3861 56.7331 58.5195C55.8664 57.6528 54.6531 57.1328 53.2664 57.1328C50.3197 57.1328 48.0664 59.3861 48.0664 62.3328C48.0664 65.2795 50.3197 67.5328 53.2664 67.5328C54.6531 67.5328 55.8664 67.0128 56.7331 66.1461C55.6931 65.2795 54.9997 63.8928 54.9997 62.3328Z" fill="#DBDBDB" stroke="#646464" stroke-width="1.5" stroke-miterlimit="10" stroke-linecap="round" stroke-linejoin="round"/>
<path d="M95.7335 60.5992H90.5335C88.1069 60.5992 86.2002 58.6926 86.2002 56.2659V54.5326C86.2002 52.1059 88.1069 50.1992 90.5335 50.1992H95.7335C98.1602 50.1992 100.067 52.1059 100.067 54.5326V56.2659C100.067 58.6926 98.1602 60.5992 95.7335 60.5992Z" fill="#4FC3F7" stroke="#646464" stroke-width="1.5" stroke-miterlimit="10" stroke-linecap="round" stroke-linejoin="round"/>
<path d="M100.066 74.4668H101.8" stroke="#646464" stroke-width="1.5" stroke-miterlimit="10" stroke-linecap="round" stroke-linejoin="round"/>
<path d="M79.2666 74.4668H96.5999" stroke="#646464" stroke-width="1.5" stroke-miterlimit="10" stroke-linecap="round" stroke-linejoin="round"/>
<path d="M9.93353 43.2656H8.2002" stroke="#646464" stroke-width="1.5" stroke-miterlimit="10" stroke-linecap="round" stroke-linejoin="round"/>
<path d="M30.7337 43.2656H13.4004" stroke="#646464" stroke-width="1.5" stroke-miterlimit="10" stroke-linecap="round" stroke-linejoin="round"/>
</svg>
