<svg xmlns="http://www.w3.org/2000/svg" width="24" height="24" viewBox="0 0 24 24">
    <g fill="none" fill-rule="evenodd">
        <path d="M0 0H24V24H0z"/>
        <path fill="#999" fill-rule="nonzero" d="M12 0c1.657 0 3 1.343 3 3 0 1.306-.834 2.417-2 2.829v14.756l2.293-2.292.094-.083c.392-.305.96-.278 1.32.083.39.39.39 1.024 0 1.414l-3.805 3.807c-.151.27-.462.46-.827.484l-.036.001L12 24h-.035l-.044-.003L12 24c-.395 0-.737-.196-.9-.481l-3.807-3.812-.083-.094c-.305-.392-.278-.96.083-1.32l.094-.083c.392-.305.96-.278 1.32.083L11 20.585V5.829C9.835 5.418 9 4.306 9 3c0-1.657 1.343-3 3-3z"/>
    </g>
</svg>
