<svg xmlns="http://www.w3.org/2000/svg" width="20" height="20" viewBox="0 0 20 20">
    <g fill="none" fill-rule="evenodd">
        <path d="M0 0H20V20H0z"/>
        <path fill="#1DB6FF" fill-rule="nonzero" d="M18.5 2.234c.276 0 .5.224.5.5s-.224.5-.5.5H18v10c0 .552-.448 1-1 1h-5.606l2.275 2.71c.157.189.153.459.002.641l-.064.064c-.212.178-.527.15-.704-.062l-2.572-3.064c-.07-.084-.109-.186-.116-.288h-.43c-.007.102-.045.204-.116.288l-2.572 3.064c-.177.212-.492.24-.704.062-.212-.177-.24-.493-.062-.704l2.274-2.711H3c-.552 0-1-.448-1-1v-10h-.5c-.276 0-.5-.224-.5-.5s.224-.5.5-.5h17zm-1.5 1H3v10h14v-10zm-2.901 2.402c.173.174.192.443.057.638l-.057.07-3.49 3.49c-.174.173-.443.192-.638.057l-.07-.057-1.646-1.647-1.646 1.647c-.174.173-.443.192-.638.057l-.07-.057c-.173-.174-.192-.443-.057-.638l.057-.07 2-2c.174-.173.443-.192.638-.057l.07.057 1.646 1.647 3.136-3.137c.196-.195.512-.195.708 0z"/>
    </g>
</svg>
