<svg xmlns="http://www.w3.org/2000/svg" width="32" height="32" viewBox="0 0 32 32">
    <path fill="#999" fill-rule="evenodd" d="M17.624 1.055l3.541 7.502c.264.558.774.946 1.363 1.035l7.92 1.203c1.485.226 2.078 2.134 1.003 3.228l-5.73 5.84c-.427.435-.622 1.061-.521 1.675l1.353 8.245c.253 1.546-1.299 2.725-2.627 1.995l-7.083-3.892c-.528-.29-1.158-.29-1.686 0l-7.083 3.892c-1.328.73-2.88-.449-2.627-1.995L6.8 21.538c.1-.614-.094-1.24-.52-1.675l-5.731-5.84c-1.075-1.094-.482-3.002 1.003-3.228l7.92-1.203c.59-.09 1.099-.477 1.363-1.035l3.541-7.502c.665-1.407 2.583-1.407 3.248 0"/>
</svg>