<svg xmlns="http://www.w3.org/2000/svg" width="16" height="16" viewBox="0 0 16 16">
    <g fill="none" fill-rule="evenodd">
        <path d="M0 0H16V16H0z"/>
        <path fill="#FFF" d="M8 .8c3.976 0 7.2 3.224 7.2 7.2s-3.224 7.2-7.2 7.2S.8 11.976.8 8 4.024.8 8 .8zm3.6 4.632c-.294-.268-.75-.246-1.017.048l-3.19 3.503-2.211-1.864-.047-.036c-.302-.216-.724-.166-.968.122-.256.305-.217.759.087 1.015l2.742 2.31.048.038c.294.208.702.168.948-.103l3.656-4.016.04-.048c.225-.293.19-.715-.088-.969z"/>
    </g>
</svg>
