<svg xmlns="http://www.w3.org/2000/svg" width="20" height="20" viewBox="0 0 20 20">
    <g fill="none" fill-rule="evenodd">
        <g>
            <g>
                <g transform="translate(-773 -529) translate(773 85) translate(0 444)">
                    <rect width="20" height="20" rx="2"/>
                    <g>
                        <path d="M0 0H16V16H0z" transform="translate(2 2)"/>
                        <path fill="#FFF" fill-rule="nonzero" d="M1.699 1.699c.131-.132.344-.132.476 0L8 7.523l5.825-5.824c.132-.132.345-.132.476 0 .132.131.132.344 0 .476L8.477 8l5.824 5.825c.113.113.13.286.049.415l-.049.061c-.131.132-.344.132-.476 0L8 8.477l-5.825 5.824c-.132.132-.345.132-.476 0-.132-.131-.132-.344 0-.476L7.523 8 1.699 2.175c-.113-.113-.13-.286-.049-.415z" transform="translate(2 2)"/>
                    </g>
                </g>
            </g>
        </g>
    </g>
</svg>
