<svg xmlns="http://www.w3.org/2000/svg" width="16" height="16" viewBox="0 0 16 16">
    <g fill="none" fill-rule="evenodd">
        <path d="M0 0H16V16H0z"/>
        <path fill="#FFF" fill-rule="nonzero" d="M12.667 1.6c.957 0 1.733.776 1.733 1.733V10c0 .957-.776 1.733-1.733 1.733H4.832l-2.55 2.55c-.234.235-.625.095-.676-.214L1.6 14V3.333c0-.957.776-1.733 1.733-1.733zm0 .8H3.333c-.515 0-.933.418-.933.933v9.7l1.984-1.983c.06-.06.137-.098.22-.112l.063-.005h8c.515 0 .933-.418.933-.933V3.333c0-.515-.418-.933-.933-.933zM10.8 7.6c.22 0 .4.18.4.4 0 .22-.18.4-.4.4H5.2c-.22 0-.4-.18-.4-.4 0-.22.18-.4.4-.4h5.6zm0-2.4c.22 0 .4.18.4.4 0 .22-.18.4-.4.4H5.2c-.22 0-.4-.18-.4-.4 0-.22.18-.4.4-.4h5.6z"/>
    </g>
</svg>
