<svg xmlns="http://www.w3.org/2000/svg" width="20" height="20" viewBox="0 0 20 20">
    <g fill="none" fill-rule="evenodd">
        <g>
            <g>
                <g>
                    <path d="M0 0H20V20H0z" transform="translate(-773 -265) translate(773 85) translate(0 180)"/>
                    <path fill="#FFF" fill-rule="nonzero" d="M12.33 2.462c.617-.616 1.616-.616 2.232 0l2.976 2.976c.616.616.616 1.615 0 2.231l-9.183 9.183c-.15.15-.344.252-.553.29l-4.56.84c-.57.106-1.12-.272-1.225-.844-.023-.126-.023-.255 0-.38l.84-4.56c.039-.21.14-.402.29-.553zM10.98 5.3l-7.087 7.089-.84 4.559 4.559-.84 7.087-7.088-3.719-3.72zm2.84-2.094c-.206-.205-.54-.205-.745 0l-1.351 1.351 3.719 3.719 1.352-1.35c.182-.183.203-.467.06-.672l-.06-.072z" transform="translate(-773 -265) translate(773 85) translate(0 180)"/>
                </g>
            </g>
        </g>
    </g>
</svg>
