<svg xmlns="http://www.w3.org/2000/svg" width="20" height="20" viewBox="0 0 20 20">
    <g fill="none" fill-rule="evenodd">
        <path d="M0 0H20V20H0z"/>
        <path fill="#FFF" fill-rule="nonzero" d="M12.75 12.182l.065.037.06.05 5.142 5.142c.063.063.102.14.118.221l.008.082v-4c0-.236.192-.428.428-.428.21 0 .386.151.422.351l.007.077v4c0 .669-.51 1.218-1.162 1.28l-.124.006h-4c-.236 0-.428-.192-.428-.429 0-.21.151-.385.351-.421l.077-.007h4l.064-.005c-.105.016-.216-.008-.307-.071l-.06-.05-5.143-5.143c-.167-.167-.167-.438 0-.606.13-.13.324-.159.482-.086zm-5.5 0c.158-.073.351-.044.482.086.167.168.167.44 0 .606l-5.143 5.143-.06.05c-.091.063-.202.087-.307.071l.064.005h4c.236 0 .428.192.428.428 0 .21-.151.386-.351.422L6.286 19h-4c-.669 0-1.218-.51-1.28-1.162L1 17.714v-4c0-.236.192-.428.429-.428.21 0 .385.151.421.351l.007.077v4c0-.11.042-.22.126-.303l5.143-5.143.059-.05zM6.286 1c.236 0 .428.192.428.429 0 .21-.151.385-.351.421l-.077.007h-4l-.042.002c.074-.007.15.005.22.037l.065.037.06.05 5.143 5.143c.167.167.167.438 0 .606-.15.148-.38.165-.547.05l-.06-.05-5.142-5.143c-.084-.084-.126-.194-.126-.303v4c0 .236-.192.428-.428.428-.21 0-.386-.151-.422-.351L1 6.286v-4c0-.669.51-1.218 1.162-1.28L2.286 1h4zm11.849 1.368c-.016.08-.055.158-.118.22l-5.143 5.144-.059.05c-.167.115-.398.098-.547-.05-.167-.168-.167-.44 0-.606l5.143-5.143.06-.05.065-.037c.07-.032.146-.044.22-.037l-.042-.002h-4c-.236 0-.428-.192-.428-.428 0-.21.151-.386.351-.422L13.714 1h4c.669 0 1.218.51 1.28 1.162l.006.124v4c0 .236-.192.428-.429.428-.21 0-.385-.151-.421-.351l-.007-.077v-4z"/>
    </g>
</svg>
