<?xml version="1.0" encoding="UTF-8"?>
<svg width="59px" height="12px" viewBox="0 0 59 12" version="1.1" xmlns="http://www.w3.org/2000/svg" xmlns:xlink="http://www.w3.org/1999/xlink">
    <title>UI / logo</title>
    <defs>
        <path d="M54.8824615,3.62795604 C57.2603077,3.62795604 58.8553846,5.22303297 58.8553846,7.63041758 C58.8553846,7.91103297 58.8258462,8.23595604 58.7963077,8.47226374 L58.7963077,8.47226374 L53.0363077,8.47226374 C53.184,9.59472527 53.7747692,10.3036484 54.9415385,10.3036484 C55.7538462,10.3036484 56.4184615,9.93441758 56.8910769,9.35841758 L56.8910769,9.35841758 L58.4418462,10.1411868 C57.7329231,11.2045714 56.4775385,11.883956 54.9710769,11.883956 C52.5341538,11.883956 50.9095385,10.2593407 50.9095385,7.80764835 C50.9095385,5.29687912 52.4898462,3.62795604 54.8824615,3.62795604 Z M2.27446154,0.807032967 L4.90338462,8.94487912 L7.42892308,0.807032967 L9.37846154,0.807032967 L11.9335385,8.94487912 L14.5476923,0.807032967 L16.7630769,0.807032967 L12.9969231,11.7362637 L11.0621538,11.7362637 L8.40369231,3.74610989 L5.76,11.7362637 L3.82523077,11.7362637 L0.0443076923,0.807032967 L2.27446154,0.807032967 Z M19.8498462,3.77564835 L19.8498462,11.7362637 L17.8412308,11.7362637 L17.8412308,3.77564835 L19.8498462,3.77564835 Z M28.2387692,3.77564835 L28.2535385,5.06057143 L24.2953846,10.0821099 L28.416,10.0821099 L28.416,11.7362637 L21.4301538,11.7362637 L21.4301538,10.4365714 L25.4030769,5.41503297 L21.504,5.41503297 L21.504,3.77564835 L28.2387692,3.77564835 Z M32.3150769,0.807032967 L32.3150769,10.0082637 L37.1446154,10.0082637 L37.1446154,11.7362637 L30.2326154,11.7362637 L30.2326154,0.807032967 L32.3150769,0.807032967 Z M40.4086154,3.77564835 L40.4086154,11.7362637 L38.4,11.7362637 L38.4,3.77564835 L40.4086154,3.77564835 Z M43.7169231,3.77564835 L45.888,9.44703297 L48.0443077,3.77564835 L50.2449231,3.77564835 L46.8923077,11.7362637 L44.8836923,11.7362637 L41.5163077,3.77564835 L43.7169231,3.77564835 Z M54.8824615,5.20826374 C53.8190769,5.20826374 53.1987692,5.90241758 53.0363077,7.11349451 L53.0363077,7.11349451 L56.7433846,7.11349451 C56.5956923,5.90241758 55.9606154,5.20826374 54.8824615,5.20826374 Z M18.8455385,0.0981098901 C19.5396923,0.0981098901 20.0270769,0.600263736 20.0270769,1.29441758 C20.0270769,1.98857143 19.5396923,2.47595604 18.8455385,2.47595604 C18.1513846,2.47595604 17.6492308,1.98857143 17.6492308,1.29441758 C17.6492308,0.600263736 18.1513846,0.0981098901 18.8455385,0.0981098901 Z M39.4043077,0.0981098901 C40.0984615,0.0981098901 40.5858462,0.600263736 40.5858462,1.29441758 C40.5858462,1.98857143 40.0984615,2.47595604 39.4043077,2.47595604 C38.7101538,2.47595604 38.208,1.98857143 38.208,1.29441758 C38.208,0.600263736 38.7101538,0.0981098901 39.4043077,0.0981098901 Z" id="path-1"></path>
        <polygon id="path-3" points="4.48351648 0.0791208791 2.24175824 5.88131868 0 0.0791208791"></polygon>
    </defs>
    <g id="Symbols" stroke="none" stroke-width="1" fill="none" fill-rule="evenodd">
        <g id="UI-/-GNB---student" transform="translate(-24.000000, -12.000000)">
            <g id="logo" transform="translate(24.000000, 12.000000)">
                <g id="Group-20">
                    <mask id="mask-2" fill="white">
                        <use xlink:href="#path-1"></use>
                    </mask>
                    <g id="Clip-19"></g>
                    <polygon id="Fill-18" fill="#FFFFFF" mask="url(#mask-2)" points="-1.27437363 13.2026374 60.1740659 13.2026374 60.1740659 -1.22057143 -1.27437363 -1.22057143"></polygon>
                </g>
                <g id="Group-53" transform="translate(43.648352, 3.692308)">
                    <mask id="mask-4" fill="white">
                        <use xlink:href="#path-3"></use>
                    </mask>
                    <g id="Clip-52"></g>
                    <polygon id="Fill-51" fill="#23D8AF" mask="url(#mask-4)" points="-1.31868132 7.2 5.8021978 7.2 5.8021978 -1.23956044 -1.31868132 -1.23956044"></polygon>
                </g>
            </g>
        </g>
    </g>
</svg>