<svg xmlns="http://www.w3.org/2000/svg" width="24" height="24" viewBox="0 0 24 24">
    <g fill="none" fill-rule="evenodd">
        <path d="M0 0H24V24H0z"/>
        <path fill="#FFFFFF" fill-rule="nonzero" d="M22.15 5.52h-.087l-2.04-.268c3.014 3.864 2.962 9.297-.125 13.102-3.087 3.806-8.393 4.977-12.795 2.825C2.7 19.026.366 14.12 1.473 9.347 2.58 4.573 6.835 1.195 11.736 1.2c.363 0 .658.295.658.658 0 .363-.295.658-.658.658C7.432 2.514 3.7 5.493 2.75 9.69c-.95 4.198 1.134 8.494 5.019 10.345 3.885 1.852 8.534.766 11.197-2.615 2.663-3.381 2.628-8.156-.084-11.498l-.11 2.543c-.016.35-.303.625-.653.627h-.03c-.175-.006-.34-.081-.458-.21s-.179-.3-.17-.474l.176-4.082c-.002-.01-.002-.021 0-.031-.002-.022-.002-.044 0-.066v-.092c-.002-.009-.002-.018 0-.026.011-.027.025-.054.04-.08.018-.029.038-.057.061-.083.04-.045.085-.085.136-.118.029-.02.06-.038.092-.053l.088-.03h.258l3.855.513c.175.007.34.083.459.212.119.13.18.301.172.476-.042.327-.32.57-.649.57z"/>
    </g>
</svg>
