<svg xmlns="http://www.w3.org/2000/svg" width="16" height="16" viewBox="0 0 16 16">
    <g fill="none" fill-rule="evenodd">
        <path d="M0 0H16V16H0z"/>
        <path fill="#FFF" fill-rule="nonzero" d="M12.8.8c.884 0 1.6.716 1.6 1.6v11.2c0 .884-.716 1.6-1.6 1.6H3.2c-.884 0-1.6-.716-1.6-1.6V2.4c0-.884.716-1.6 1.6-1.6h9.6zm0 .8H3.2c-.41 0-.748.309-.795.707L2.4 2.4v11.2c0 .41.309.748.707.795l.093.005h9.6c.41 0 .748-.309.795-.707l.005-.093V2.4c0-.41-.309-.748-.707-.795L12.8 1.6zm-2 9.6c.22 0 .4.18.4.4 0 .22-.18.4-.4.4H5.2c-.22 0-.4-.18-.4-.4 0-.22.18-.4.4-.4h5.6zm0-3.6c.22 0 .4.18.4.4 0 .22-.18.4-.4.4H5.2c-.22 0-.4-.18-.4-.4 0-.22.18-.4.4-.4h5.6zm0-3.6c.22 0 .4.18.4.4 0 .22-.18.4-.4.4H5.2c-.22 0-.4-.18-.4-.4 0-.22.18-.4.4-.4h5.6z"/>
    </g>
</svg>
