<svg xmlns="http://www.w3.org/2000/svg" width="20" height="20" viewBox="0 0 20 20">
    <g fill="none" fill-rule="evenodd">
        <path d="M0 0H20V20H0z"/>
        <path fill="#FFF" d="M18 2.5c1.105 0 2 .895 2 2v11c0 1.105-.895 2-2 2H2c-1.105 0-2-.895-2-2v-11c0-1.105.895-2 2-2h16zm1 4H1v9c0 .513.386.936.883.993L2 16.5h16c.513 0 .936-.386.993-.883L19 15.5v-9zM11.5 12c.276 0 .5.224.5.5s-.224.5-.5.5h-4c-.276 0-.5-.224-.5-.5s.224-.5.5-.5h4zM3.737 8.06l.075.05 2.5 2c.226.18.248.506.068.715l-.068.065-2.5 2c-.215.173-.53.138-.702-.078-.154-.191-.143-.461.013-.64l.065-.062 2.011-1.61-2.011-1.61c-.192-.153-.24-.419-.128-.627l.05-.075c.153-.192.419-.24.627-.128zM18 3.5H2c-.513 0-.936.386-.993.883L1 4.5v1h18v-1c0-.513-.386-.936-.883-.993L18 3.5z"/>
    </g>
</svg>
