<svg xmlns="http://www.w3.org/2000/svg" width="24" height="24" viewBox="0 0 24 24">
    <g fill="none" fill-rule="evenodd">
        <path d="M0 0H24V24H0z"/>
        <path fill="#999" d="M21.6 0c.663 0 1.2.537 1.2 1.2l-.001.017L22.8 4.8c0 .663-.537 1.2-1.2 1.2-.663 0-1.2-.537-1.2-1.2V2.4h-7.2v19.2h3.6c.663 0 1.2.537 1.2 1.2 0 .663-.537 1.2-1.2 1.2H7.2c-.663 0-1.2-.537-1.2-1.2 0-.663.537-1.2 1.2-1.2h3.6V2.4H3.6v2.4c0 .663-.537 1.2-1.2 1.2-.663 0-1.2-.537-1.2-1.2V1.2C1.2.537 1.737 0 2.4 0h19.2z"/>
    </g>
</svg>
