<svg xmlns="http://www.w3.org/2000/svg" width="12" height="12" viewBox="0 0 12 12">
    <g fill="none" fill-rule="evenodd">
        <path d="M0 0H12V12H0z"/>
        <path fill="#1DB6FF" fill-rule="nonzero" d="M6 0c3.314 0 6 2.686 6 6s-2.686 6-6 6-6-2.686-6-6 2.686-6 6-6zm0 .6C3.018.6.6 3.018.6 6s2.418 5.4 5.4 5.4 5.4-2.418 5.4-5.4S8.982.6 6 .6zm0 2.1c.147 0 .27.106.295.246L6.3 3v2.876l1.922 1.922c.104.104.116.266.035.383l-.035.041c-.104.104-.266.116-.382.035l-.042-.035-2.01-2.01c-.045-.045-.074-.103-.084-.165L5.7 6V3c0-.166.134-.3.3-.3z"/>
    </g>
</svg>
