<svg width="222" height="222" viewBox="0 0 222 222" fill="none" xmlns="http://www.w3.org/2000/svg">
<path d="M48.8535 110.963V151.58H188.947V69.6333C188.947 67.5312 187.217 65.8021 185.115 65.8021H90.7255" stroke="#646464" stroke-width="2"/>
<path d="M180.132 74.6852H57.5679V142.63H180.132V74.6852Z" fill="#F2F2F2"/>
<path d="M48.8877 151.512V163.345C48.8877 165.617 51.1932 168.125 53.4648 168.125H185.387C187.658 168.125 189.015 165.786 189.015 163.514V151.512" stroke="#646464" stroke-width="2"/>
<path d="M103.339 168.193C103.101 171.143 103.61 177.653 102.999 180.873C102.423 183.789 102.016 183.891 100.457 184.739C99.5751 185.213 98.1173 185.891 96.8628 186.434" stroke="#646464" stroke-width="2"/>
<path d="M140.836 186.468C139.582 185.926 138.09 185.247 137.208 184.773C135.649 183.925 135.344 183.823 134.767 180.908C134.123 177.721 134.666 171.347 134.428 168.397" stroke="#646464" stroke-width="2"/>
<path d="M93.0312 186.197H144.871" stroke="#646464" stroke-width="2"/>
<path d="M92.3525 144.494V139.137C92.3525 135.442 95.743 132.424 99.9132 132.424H133.14C137.31 132.424 140.7 135.408 140.7 139.137V143.07" stroke="#646464" stroke-width="2"/>
<path d="M110.017 132.492V126.389" stroke="#646464" stroke-width="2"/>
<path d="M122.731 126.389V132.492" stroke="#646464" stroke-width="2"/>
<path d="M131.41 97.7399V112.217C131.41 120.558 124.663 125.881 116.323 125.881C107.982 125.881 101.235 120.558 101.235 112.217V109.505" stroke="#646464" stroke-width="2"/>
<path d="M109.474 84.7886C106.728 84.7886 104.321 86.2126 102.93 88.3146H100.252C96.8955 88.3146 94.1831 91.027 94.1831 94.3835V106.182L101.337 114.794V103.3C101.337 100.927 103.236 99.0284 105.609 99.0284H108.084H126.189H130.088C134.428 99.0284 137.92 95.5363 137.92 91.1965V84.7886H109.474Z" stroke="#646464" stroke-width="2"/>
<path d="M206 83.1613H148.193V117.642H157.347V128.458L169.315 117.642H206V83.1613Z" fill="#BEBEBE"/>
<path d="M159.483 96.282H194.71" stroke="#646464" stroke-width="2"/>
<path d="M159.483 105.165H194.71" stroke="#646464" stroke-width="2"/>
<path d="M74.3152 69.8025C74.3152 83.3643 63.3302 94.3832 49.7345 94.3832C36.1727 94.3832 25.1538 83.3982 25.1538 69.8025C25.1538 56.2407 36.1388 45.2218 49.7345 45.2218C63.2963 45.2218 74.3152 56.2407 74.3152 69.8025Z" fill="#F2F2F2"/>
<path d="M60.4481 69.8027L52.4128 74.4476L44.3774 79.0926V69.8027V60.5129L52.4128 65.1578L60.4481 69.8027Z" stroke="#646464" stroke-width="2"/>
<path d="M49.3959 36C67.8399 36 82.7917 50.9518 82.7917 69.3959C82.7917 77.6346 79.8081 85.1614 74.8581 90.993L78.2146 101.334L68.484 96.7906C63.0593 100.554 56.5158 102.792 49.3959 102.792C30.9518 102.792 16 87.8399 16 69.3959" stroke="#646464" stroke-width="2"/>
<path d="M16.0332 69.3959C16.0332 68.65 16.0671 67.8702 16.101 67.1243" stroke="#646464" stroke-width="2"/>
<path d="M16.6777 62.8182C19.4579 48.9513 30.8159 38.1697 44.9879 36.3049" stroke="#646464" stroke-width="2" stroke-dasharray="12.85 12.85"/>
<path d="M47.1582 36.0678C47.9041 36.0339 48.65 36 49.4298 36" stroke="#646464" stroke-width="2"/>
</svg>
