<svg width="222" height="222" viewBox="0 0 222 222" fill="none" xmlns="http://www.w3.org/2000/svg">
<path d="M171.087 132.277V169.887" stroke="#646464" stroke-width="2"/>
<path d="M36.0791 169.887V84.3272C36.0791 81.7799 38.1769 79.6821 40.7242 79.6821H107.779" stroke="#646464" stroke-width="2"/>
<path d="M46.8936 158.998V90.4968H160.272V158.998H46.8936Z" fill="#F2F2F2" stroke="#646464" stroke-width="2"/>
<path d="M16 169.512V177.829C16 177.829 22.0686 182.324 26.489 182.324H82.2302H124.935H180.677C185.097 182.324 191.165 177.829 191.165 177.829V169.512H16Z" fill="white" stroke="#646464" stroke-width="2"/>
<path d="M177.552 90.6163C177.552 100.038 169.912 107.72 160.449 107.72C151.026 107.72 143.345 100.08 143.345 90.6163C143.345 81.1941 150.985 73.5125 160.449 73.5125C169.914 73.5125 177.552 81.1508 177.552 90.6163Z" fill="#BEBEBE" stroke="#646464" stroke-width="2"/>
<path d="M155.148 124.173C138.212 124.173 124.466 119.187 124.466 102.251V73.5904C124.466 56.6545 138.212 42.9082 155.148 42.9082H166.828C183.764 42.9082 197.51 56.6545 197.51 73.5904V102.251" stroke="#646464" stroke-width="2"/>
<path d="M158.157 121.703C158.157 123.185 156.945 124.398 155.462 124.398H148.589C147.106 124.398 145.894 123.185 145.894 121.703C145.894 120.22 147.106 119.007 148.589 119.007H155.507C156.989 119.007 158.157 120.22 158.157 121.703Z" fill="white" stroke="#646464" stroke-width="2"/>
<path d="M193.107 61.686C191.76 61.686 190.457 61.0121 189.738 59.7992C184.841 51.7131 176.306 46.8615 166.827 46.8615H155.148C145.714 46.8615 137.134 51.7131 132.237 59.7992C131.114 61.686 128.688 62.2699 126.801 61.1469C124.96 60.0238 124.331 57.598 125.454 55.7112C131.788 45.2443 142.884 39 155.103 39H166.783C179.002 39 190.097 45.2443 196.432 55.7112C197.555 57.5531 196.971 59.9789 195.084 61.1469C194.5 61.5063 193.781 61.686 193.107 61.686Z" fill="white" stroke="#646464" stroke-width="2"/>
<path d="M128.419 75.3423H126.083C120.647 75.3423 116.245 79.7447 116.245 85.1804V97.3544C116.245 102.79 120.647 107.192 126.083 107.192H128.419V75.3423Z" fill="#BEBEBE" stroke="#646464" stroke-width="2"/>
<path d="M134.978 106.384C134.978 108.226 133.495 109.663 131.698 109.663H128.015C126.173 109.663 124.735 108.181 124.735 106.384V76.3306C124.735 74.4888 126.218 73.0513 128.015 73.0513H131.698C133.54 73.0513 134.978 74.5337 134.978 76.3306V106.384Z" fill="white" stroke="#646464" stroke-width="2"/>
<path d="M193.826 107.372H196.162C201.598 107.372 206 102.97 206 97.5343V85.3603C206 79.9246 201.598 75.5222 196.162 75.5222H193.826V107.372Z" fill="#BEBEBE" stroke="#646464" stroke-width="2"/>
<path d="M187.268 76.3311C187.268 74.4893 188.75 73.0518 190.547 73.0518H194.231C196.072 73.0518 197.51 74.5342 197.51 76.3311V106.384C197.51 108.226 196.028 109.664 194.231 109.664H190.547C188.705 109.664 187.268 108.181 187.268 106.384V76.3311Z" fill="white" stroke="#646464" stroke-width="2"/>
<path d="M150.476 90.6162H154.743" stroke="#646464" stroke-width="2" stroke-dasharray="8.44 8.44"/>
<path d="M158.337 90.6162H162.605" stroke="#646464" stroke-width="2" stroke-dasharray="8.44 8.44"/>
<path d="M166.199 90.6162H170.466" stroke="#646464" stroke-width="2" stroke-dasharray="8.44 8.44"/>
</svg>
