<svg width="222" height="222" viewBox="0 0 222 222" fill="none" xmlns="http://www.w3.org/2000/svg">
<path d="M98.3129 133.725H173.665V56.1913C173.665 54.2024 172.029 52.5664 170.04 52.5664H44.742C42.7532 52.5664 41.1172 54.2024 41.1172 56.1913V110.628" stroke="#646464" stroke-width="2"/>
<path d="M165.292 60.939H49.3291V125.224H165.292V60.939Z" fill="#F2F2F2"/>
<path d="M98.313 149.347H170.265C172.414 149.347 173.697 147.133 173.697 144.984V133.628" stroke="#646464" stroke-width="2"/>
<path d="M128.146 166.701C126.959 166.188 125.547 165.546 124.713 165.097C123.238 164.295 122.949 164.199 122.404 161.44C121.794 158.425 122.308 152.394 122.083 149.604" stroke="#646464" stroke-width="2"/>
<path d="M98.313 166.444H131.931" stroke="#646464" stroke-width="2"/>
<path d="M134.979 89.1677C134.979 101.967 124.585 112.36 111.786 112.36C98.9866 112.36 88.5933 101.967 88.5933 89.1677C88.5933 76.3685 98.9866 65.9751 111.786 65.9751C124.617 65.9751 134.979 76.3685 134.979 89.1677Z" stroke="#646464" stroke-width="2"/>
<path d="M100.462 89.3601L106.589 95.4871L122.917 79.1592" stroke="#646464" stroke-width="2"/>
<path d="M18.6304 131.383V172.635H92.4426V131.383" stroke="#646464" stroke-width="2"/>
<path d="M95.041 114.445H16V131.511H95.041V114.445Z" fill="#BEBEBE"/>
<path d="M30.6919 108.703V121.887" stroke="#646464" stroke-width="2"/>
<path d="M80.3491 108.703V121.887" stroke="#646464" stroke-width="2"/>
<path d="M29.0557 140.813H34.0599" stroke="#646464" stroke-width="2"/>
<path d="M38.4868 140.813H43.491" stroke="#646464" stroke-width="2"/>
<path d="M47.918 140.813H52.9222" stroke="#646464" stroke-width="2"/>
<path d="M57.3486 140.813H62.3529" stroke="#646464" stroke-width="2"/>
<path d="M66.7798 140.813H71.784" stroke="#646464" stroke-width="2"/>
<path d="M76.1787 140.813H81.215" stroke="#646464" stroke-width="2"/>
<path d="M29.0557 150.501H34.0599" stroke="#646464" stroke-width="2"/>
<path d="M38.4868 150.501H43.491" stroke="#646464" stroke-width="2"/>
<path d="M47.918 150.501H52.9222" stroke="#646464" stroke-width="2"/>
<path d="M57.3486 150.501H62.3529" stroke="#646464" stroke-width="2"/>
<path d="M66.7798 150.501H71.784" stroke="#646464" stroke-width="2"/>
<path d="M76.1787 150.501H81.215" stroke="#646464" stroke-width="2"/>
<path d="M29.0557 160.189H34.0599" stroke="#646464" stroke-width="2"/>
<path d="M38.4868 160.189H43.491" stroke="#646464" stroke-width="2"/>
<path d="M47.918 160.189H52.9222" stroke="#646464" stroke-width="2"/>
<path d="M57.3486 160.189H62.3529" stroke="#646464" stroke-width="2"/>
<path d="M66.7798 160.189H71.784" stroke="#646464" stroke-width="2"/>
<path d="M76.1787 160.189H81.215" stroke="#646464" stroke-width="2"/>
<path d="M205.775 97.1552V55.2929C205.775 52.3738 203.402 50 200.482 50H198.269C195.35 50 192.976 52.3738 192.976 55.2929V97.1552H205.775Z" fill="#BEBEBE"/>
<path d="M204.236 140.365V89.0073C204.236 86.0882 202.439 83.7144 200.226 83.7144H198.558C196.344 83.7144 194.548 86.0882 194.548 89.0073V140.365H204.236Z" fill="#BEBEBE"/>
<path d="M205.775 59.8801H192.142C189.223 59.8801 186.849 62.2539 186.849 65.1731V90.13" stroke="#646464" stroke-width="2"/>
<path d="M193.008 97.3796H206" stroke="#646464" stroke-width="2"/>
<path d="M193.008 140.269H206" stroke="#646464" stroke-width="2"/>
<path d="M199.52 157.27C199.52 153.998 197.852 148.641 195.639 148.064V141.52" stroke="#646464" stroke-width="2"/>
<path d="M199.52 157.27C199.52 153.998 201.188 148.641 203.402 148.064V141.52" stroke="#646464" stroke-width="2"/>
</svg>
